M48
; DRILL file {KiCad 5.1.0} date 2019年03月26日 星期二 01时50分31秒
; FORMAT={-:-/ absolute / inch / decimal}
; #@! TF.CreationDate,2019-03-26T01:50:31+00:00
; #@! TF.GenerationSoftware,Kicad,Pcbnew,5.1.0
FMAT,2
INCH
T1C0.0079
T2C0.0394
T3C0.0472
T4C0.0551
T5C0.0315
%
G90
G05
T1
X4.62Y-3.454
X4.624Y-3.522
X4.644Y-4.428
X4.646Y-4.509
X4.656Y-3.308
X4.728Y-3.412
X4.768Y-4.342
X4.78Y-4.745
X4.796Y-4.848
X4.7986Y-4.509
X4.826Y-4.449
X4.834Y-4.487
X4.842Y-4.422
X4.857Y-4.668
X4.863Y-4.509
X4.902Y-4.908
X4.92Y-3.874
X4.93Y-4.575
X4.936Y-3.386
X4.956Y-4.754
X5.01Y-4.626
X5.018Y-3.874
X5.036Y-3.3084
X5.046Y-3.588
X5.05Y-3.146
X5.07Y-3.964
X5.084Y-3.068
X5.088Y-3.288
X5.096Y-3.974
X5.1Y-3.876
X5.102Y-4.33
X5.184Y-3.862
X5.188Y-3.574
X5.196Y-3.454
X5.206Y-3.36
X5.24Y-4.402
X5.242Y-3.952
X5.242Y-4.326
X5.242Y-4.478
X5.244Y-3.414
X5.244Y-4.028
X5.324Y-4.104
X5.326Y-3.088
X5.326Y-3.764
X5.328Y-4.176
X5.412Y-4.326
X5.416Y-4.252
X5.418Y-4.1
X5.42Y-4.4
X5.424Y-3.954
X5.437Y-4.517
X5.4511Y-4.5349
X5.484Y-4.236
X5.5Y-3.824
X5.504Y-3.466
X5.504Y-3.968
X5.506Y-3.382
X5.506Y-4.0143
X5.508Y-3.902
X5.518Y-4.09
X5.564Y-3.266
X5.564Y-3.578
X5.574Y-3.434
X5.578Y-3.52
X5.586Y-3.724
X5.59Y-3.586
X5.594Y-3.652
X5.628Y-4.234
X5.646Y-4.298
X5.648Y-3.88
X5.658Y-4.092
X5.6679Y-3.831
X5.678Y-3.782
X5.6819Y-3.916
X5.7009Y-3.8527
X5.7115Y-3.9675
X5.7149Y-3.888
X5.718Y-4.0118
X5.7219Y-3.947
X5.7351Y-3.9941
X5.743Y-4.306
X5.756Y-4.246
X5.7609Y-4.21
X5.767Y-4.03
X5.767Y-4.0512
X5.767Y-4.106
X5.7679Y-4.136
X5.842Y-3.9171
X5.8429Y-3.9735
X5.843Y-3.9453
X5.8434Y-4.0018
X5.8437Y-4.0301
X5.844Y-4.061
X5.869Y-4.091
X5.881Y-3.981
X5.881Y-4.007
X5.8811Y-3.9559
X5.882Y-3.801
X5.882Y-3.929
X5.882Y-4.031
X5.896Y-3.538
X5.896Y-3.582
X5.9063Y-4.0063
X5.907Y-3.802
X5.907Y-3.929
X5.9074Y-3.9566
X5.908Y-3.903
X5.909Y-3.877
X5.916Y-4.27
X5.922Y-3.581
X5.923Y-3.5141
X5.9317Y-3.9297
X5.932Y-3.802
X5.9323Y-4.0327
X5.9324Y-3.9816
X5.9326Y-3.8794
X5.947Y-3.545
X5.947Y-3.5788
X5.957Y-3.851
X5.958Y-3.802
X5.958Y-3.904
X5.959Y-3.956
X5.96Y-4.005
X5.9833Y-3.8013
X5.9834Y-4.0326
X5.984Y-3.828
X5.984Y-3.956
X5.984Y-4.258
X5.985Y-3.903
X6.009Y-3.852
X6.0096Y-4.0076
X6.0105Y-3.8015
X6.0335Y-3.8278
X6.0346Y-3.9036
X6.035Y-4.007
X6.0358Y-3.8012
X6.036Y-3.981
X6.0594Y-3.8275
X6.06Y-3.931
X6.06Y-3.982
X6.0609Y-3.9031
X6.061Y-3.802
X6.061Y-3.854
X6.061Y-4.007
X6.061Y-4.032
X6.066Y-3.61
X6.066Y-3.672
X6.0852Y-3.9834
X6.086Y-3.828
X6.086Y-3.853
X6.087Y-3.802
X6.0875Y-3.9296
X6.1111Y-3.8271
X6.112Y-3.904
X6.112Y-3.981
X6.1125Y-3.8535
X6.1127Y-3.9293
X6.1128Y-3.8782
X6.137Y-3.803
X6.1376Y-3.8796
X6.154Y-3.609
X6.154Y-3.671
X6.194Y-4.09
X6.21Y-3.614
X6.226Y-3.648
X6.282Y-3.752
X6.29Y-3.718
X6.326Y-3.966
X6.374Y-3.704
X6.375Y-3.161
X6.376Y-3.792
X6.386Y-3.116
X6.394Y-3.9441
X6.399Y-3.162
X6.4071Y-4.306
X6.41Y-3.644
X6.411Y-3.115
X6.414Y-3.996
X6.422Y-3.162
X6.426Y-4.094
X6.434Y-3.116
X6.436Y-4.272
X6.4396Y-3.8104
X6.469Y-3.162
X6.481Y-3.116
X6.493Y-3.162
X6.516Y-4.332
X6.562Y-3.582
X6.572Y-4.192
X6.581Y-3.3721
X6.6034Y-3.3651
X6.612Y-4.058
X6.616Y-3.646
X6.617Y-3.3009
X6.624Y-3.36
X6.647Y-3.047
X6.648Y-3.118
X6.649Y-3.354
X6.664Y-3.3009
X6.673Y-3.3441
X6.694Y-3.113
X6.7Y-3.3009
X6.701Y-3.338
X6.716Y-3.594
X6.717Y-3.112
X6.723Y-3.33
X6.74Y-3.157
X6.741Y-3.037
X6.749Y-3.4259
X6.7598Y-3.34
X6.765Y-3.123
X6.7709Y-3.4329
X6.772Y-3.5701
X6.7739Y-3.226
X6.788Y-3.123
X6.792Y-3.4419
X6.795Y-3.5701
X6.804Y-3.156
X6.813Y-3.4509
X6.816Y-3.116
X6.821Y-3.5701
X6.822Y-3.254
X6.824Y-3.374
X6.829Y-3.156
X6.837Y-3.4599
X6.841Y-3.115
X6.844Y-3.5701
X6.855Y-3.156
X6.8621Y-3.585
X6.864Y-3.116
X6.864Y-3.4679
X6.8785Y-3.5986
X6.881Y-3.156
X6.893Y-3.472
X6.903Y-3.5491
X6.92Y-3.4915
X6.93Y-3.5491
X6.961Y-3.252
X6.961Y-3.313
X6.961Y-3.374
X6.964Y-3.6096
X6.97Y-4.45
X6.974Y-4.078
X7.02Y-3.452
X7.02Y-3.9
X7.021Y-3.184
X7.023Y-3.485
X7.024Y-3.682
X7.025Y-3.722
X7.025Y-3.747
X7.025Y-3.859
X7.028Y-3.644
X7.031Y-2.99
X4.9277Y-4.4187
X4.9277Y-4.46
X4.9277Y-4.5013
X4.971Y-4.4187
X4.971Y-4.46
X4.971Y-4.5013
X5.0143Y-4.4187
X5.0143Y-4.46
X5.0143Y-4.5013
X5.0337Y-3.3827
X5.0337Y-3.424
X5.0337Y-3.4653
X5.077Y-3.3827
X5.077Y-3.424
X5.077Y-3.4653
X5.1203Y-3.3827
X5.1203Y-3.424
X5.1203Y-3.4653
T2
X5.03Y-4.805
X5.03Y-4.905
X5.13Y-4.805
X5.13Y-4.905
X5.23Y-4.805
X5.23Y-4.905
X5.33Y-4.805
X5.33Y-4.905
X5.43Y-4.805
X5.43Y-4.905
X5.53Y-4.805
X5.53Y-4.905
X5.63Y-4.805
X5.63Y-4.905
X5.73Y-4.805
X5.73Y-4.905
X5.83Y-4.805
X5.83Y-4.905
X5.93Y-4.805
X5.93Y-4.905
X6.03Y-4.805
X6.03Y-4.905
X6.13Y-4.805
X6.13Y-4.905
X6.23Y-4.805
X6.23Y-4.905
X6.33Y-4.805
X6.33Y-4.905
X6.43Y-4.805
X6.43Y-4.905
X6.53Y-4.805
X6.53Y-4.905
X6.63Y-4.805
X6.63Y-4.905
X6.73Y-4.805
X6.73Y-4.905
X6.83Y-4.805
X6.83Y-4.905
X6.93Y-4.805
X6.93Y-4.905
X4.636Y-3.824
X4.636Y-3.924
X4.636Y-4.024
X4.636Y-4.124
T3
X4.5832Y-4.6444
X4.5832Y-4.9496
T4
X4.7328Y-4.6503
X4.7328Y-4.9437
T5
X4.6915Y-4.6986
X4.6915Y-4.8954
T0
M30
