G04 #@! TF.GenerationSoftware,KiCad,Pcbnew,5.1.0*
G04 #@! TF.CreationDate,2019-03-26T01:50:18+00:00*
G04 #@! TF.ProjectId,ESP32_K210,45535033-325f-44b3-9231-302e6b696361,rev?*
G04 #@! TF.SameCoordinates,Original*
G04 #@! TF.FileFunction,Copper,L2,Inr*
G04 #@! TF.FilePolarity,Positive*
%FSLAX46Y46*%
G04 Gerber Fmt 4.6, Leading zero omitted, Abs format (unit mm)*
G04 Created by KiCad (PCBNEW 5.1.0) date 2019-03-26 01:50:18*
%MOMM*%
%LPD*%
G04 APERTURE LIST*
%ADD10O,1.700000X1.700000*%
%ADD11R,1.700000X1.700000*%
%ADD12C,1.800000*%
%ADD13C,2.000000*%
%ADD14C,0.500000*%
%ADD15C,0.450000*%
%ADD16C,0.152400*%
%ADD17C,0.304800*%
%ADD18C,0.254000*%
%ADD19C,0.088900*%
%ADD20C,0.406400*%
G04 APERTURE END LIST*
D10*
X117754400Y-97129600D03*
X117754400Y-99669600D03*
X117754400Y-102209600D03*
D11*
X117754400Y-104749600D03*
D12*
X116414000Y-125718800D03*
X116414000Y-117968800D03*
D13*
X120214000Y-125568800D03*
X120214000Y-118118800D03*
D14*
X127363400Y-114334000D03*
X126263400Y-114334000D03*
X125163400Y-114334000D03*
X127363400Y-113284000D03*
X126263400Y-113284000D03*
X125163400Y-113284000D03*
X127363400Y-112234000D03*
X126263400Y-112234000D03*
X125163400Y-112234000D03*
X127855800Y-85919600D03*
X128955800Y-85919600D03*
X130055800Y-85919600D03*
X127855800Y-86969600D03*
X128955800Y-86969600D03*
X130055800Y-86969600D03*
X127855800Y-88019600D03*
X128955800Y-88019600D03*
X130055800Y-88019600D03*
D11*
X127762000Y-122047000D03*
D10*
X127762000Y-124587000D03*
X130302000Y-122047000D03*
X130302000Y-124587000D03*
X132842000Y-122047000D03*
X132842000Y-124587000D03*
X135382000Y-122047000D03*
X135382000Y-124587000D03*
X137922000Y-122047000D03*
X137922000Y-124587000D03*
X140462000Y-122047000D03*
X140462000Y-124587000D03*
X143002000Y-122047000D03*
X143002000Y-124587000D03*
X145542000Y-122047000D03*
X145542000Y-124587000D03*
X148082000Y-122047000D03*
X148082000Y-124587000D03*
X150622000Y-122047000D03*
X150622000Y-124587000D03*
X153162000Y-122047000D03*
X153162000Y-124587000D03*
X155702000Y-122047000D03*
X155702000Y-124587000D03*
X158242000Y-122047000D03*
X158242000Y-124587000D03*
X160782000Y-122047000D03*
X160782000Y-124587000D03*
X163322000Y-122047000D03*
X163322000Y-124587000D03*
X165862000Y-122047000D03*
X165862000Y-124587000D03*
X168402000Y-122047000D03*
X168402000Y-124587000D03*
X170942000Y-122047000D03*
X170942000Y-124587000D03*
X173482000Y-122047000D03*
X173482000Y-124587000D03*
X176022000Y-122047000D03*
X176022000Y-124587000D03*
D15*
X178511200Y-92557600D03*
X178587400Y-75946000D03*
X161925000Y-80289400D03*
X162534600Y-80314800D03*
X163118800Y-80314800D03*
X164312600Y-80314800D03*
X162204400Y-79146400D03*
X162839400Y-79121000D03*
X163423600Y-79146400D03*
X172821600Y-80162400D03*
X173456600Y-80162400D03*
X174117000Y-80162400D03*
X174345600Y-79146400D03*
X173761400Y-79121000D03*
X173126400Y-79146400D03*
X153924000Y-99847400D03*
X150088600Y-98475800D03*
X153909428Y-97218068D03*
X155220997Y-97207484D03*
X155879800Y-96596200D03*
X155895128Y-98542788D03*
X150681403Y-102430715D03*
X153289000Y-101777800D03*
X153949400Y-101777800D03*
X153314400Y-101117400D03*
X153924000Y-101142800D03*
X151993600Y-100482400D03*
X151358600Y-100482400D03*
X150048153Y-100498668D03*
X155244800Y-99161600D03*
X153947590Y-99137883D03*
X153277984Y-99150711D03*
X154584400Y-97866200D03*
X153949400Y-97891600D03*
X151307800Y-97815400D03*
X151333200Y-99161600D03*
X152019000Y-99136200D03*
X152628600Y-97840800D03*
X151384000Y-101727000D03*
X117957600Y-112471200D03*
X118008400Y-114528600D03*
X156311600Y-93243500D03*
X154076400Y-91693800D03*
X129590800Y-109982000D03*
X133096000Y-111810800D03*
X137464800Y-109880400D03*
X133146800Y-113741200D03*
X137566400Y-108000800D03*
X135331200Y-106070400D03*
X135229600Y-104241600D03*
X133197600Y-102311200D03*
X133146800Y-100380800D03*
X127254000Y-117500400D03*
X125882400Y-120751600D03*
X121818400Y-123139200D03*
X124510800Y-124663200D03*
X122986800Y-112318800D03*
X124968000Y-98399600D03*
X127457200Y-98399600D03*
X129540000Y-98450400D03*
X135280400Y-95605600D03*
X139801600Y-88036400D03*
X139852400Y-85902800D03*
X141579600Y-87223600D03*
X141681200Y-89408000D03*
X141986000Y-91084400D03*
X142087600Y-92760800D03*
X141884400Y-94589600D03*
X139700000Y-97129600D03*
X139903200Y-99110800D03*
X139801600Y-100787200D03*
X139852400Y-101963050D03*
X140157200Y-103886000D03*
X150266400Y-108458000D03*
X151993600Y-108153200D03*
X163474400Y-108508800D03*
X166674800Y-90982800D03*
X157734000Y-91795600D03*
X160680600Y-100736600D03*
X167944800Y-103073200D03*
X178308000Y-99060000D03*
X178308000Y-87680800D03*
X132232400Y-85344000D03*
X131978400Y-87731600D03*
X127914400Y-84032300D03*
X128270000Y-79908400D03*
X135280400Y-78435200D03*
X118262400Y-84023200D03*
X117449600Y-89458800D03*
X117348000Y-87731600D03*
X177038000Y-113030000D03*
X177139600Y-103581200D03*
X170586400Y-91287600D03*
X166928800Y-106476800D03*
X154076400Y-93268800D03*
X156311600Y-91668500D03*
X178435000Y-94538800D03*
X176809400Y-82600800D03*
X178333400Y-80873600D03*
X176809400Y-84150200D03*
X176809400Y-85699600D03*
X164617400Y-79146400D03*
X171196000Y-80187800D03*
X151993600Y-97231200D03*
X153250636Y-97225624D03*
X155265529Y-98506080D03*
X144221200Y-96062800D03*
X120091200Y-86664800D03*
X146202400Y-107848400D03*
X143408400Y-109169200D03*
X137769600Y-100431600D03*
X139293600Y-107594400D03*
X142951200Y-107543600D03*
X163566900Y-96783101D03*
X165506400Y-110032800D03*
X150018958Y-101759405D03*
X150037800Y-99796600D03*
X150063200Y-99136200D03*
X143713200Y-103936800D03*
X143459200Y-98552000D03*
X155263185Y-99803821D03*
X155244800Y-101117400D03*
X154609800Y-96570800D03*
X161899600Y-94081600D03*
X158140400Y-92659200D03*
X154584400Y-97231200D03*
X159766000Y-94437200D03*
X155257854Y-97879447D03*
X161950400Y-96316800D03*
X128168400Y-91135198D03*
X123367800Y-118567200D03*
X121412000Y-120523000D03*
X125222000Y-116205000D03*
X131775200Y-90779600D03*
X125374400Y-86004400D03*
X129235200Y-83515200D03*
X133197600Y-86715600D03*
X131673600Y-98094800D03*
X129133600Y-77927200D03*
X178435000Y-98018600D03*
X128778000Y-100685600D03*
X178435000Y-95173800D03*
X129438400Y-100939600D03*
X171424600Y-87017650D03*
X145072708Y-100775108D03*
X149377400Y-101117400D03*
X172008800Y-90680913D03*
X171980850Y-87195450D03*
X145158250Y-98755200D03*
X148412200Y-100211251D03*
X172593000Y-90680913D03*
X172516800Y-87424050D03*
X145336050Y-100253800D03*
X148409826Y-100927952D03*
X173253400Y-90680907D03*
X173050200Y-87652650D03*
X145236074Y-101898525D03*
X149377945Y-101777250D03*
X173837600Y-90680907D03*
X173659800Y-87881250D03*
X145670772Y-101449583D03*
X148421457Y-101644653D03*
X174297596Y-91058056D03*
X149072600Y-103911400D03*
X146481800Y-104292400D03*
X174345600Y-88084450D03*
X174712855Y-91404550D03*
X178409600Y-93522800D03*
X149402800Y-102387400D03*
X146481800Y-102900903D03*
X175082200Y-88188800D03*
X176885600Y-91684450D03*
X175336200Y-90147472D03*
X148429740Y-102364750D03*
X146481800Y-102362000D03*
X175768000Y-88684450D03*
X176022000Y-90147472D03*
X151053800Y-90043000D03*
X151053800Y-90901150D03*
X149758400Y-89865200D03*
X149758400Y-90982800D03*
X150418800Y-90957400D03*
X150444200Y-89258442D03*
X138458150Y-115186240D03*
X138099800Y-114731800D03*
X149402800Y-96545400D03*
X150037800Y-96570800D03*
X170764200Y-84582000D03*
X170611800Y-79044800D03*
X150672800Y-96570800D03*
X170205400Y-84785200D03*
X170180000Y-83842650D03*
X151333200Y-96570800D03*
X169494200Y-84940360D03*
X170027600Y-79070200D03*
X151975639Y-96553018D03*
X168884600Y-85191600D03*
X169265600Y-83842650D03*
X152667518Y-96557972D03*
X168249600Y-85344000D03*
X168859200Y-79197200D03*
X153309565Y-96550263D03*
X167726788Y-85474703D03*
X168071800Y-83842650D03*
X153949400Y-96570800D03*
X167157400Y-85651600D03*
X168833800Y-77393800D03*
X149402800Y-99796600D03*
X144802650Y-97857745D03*
X172415200Y-79324200D03*
X148386800Y-99494550D03*
X143964450Y-97307400D03*
X171831000Y-79324200D03*
X171698499Y-84836000D03*
X173329600Y-85699600D03*
X149380257Y-100479559D03*
X144320050Y-99466400D03*
X172056850Y-81940400D03*
X173278800Y-82651600D03*
X145872200Y-109372400D03*
X162740638Y-109372400D03*
X159562800Y-95300800D03*
X162407600Y-100180350D03*
X148437600Y-103149400D03*
X146504450Y-105054400D03*
X171221400Y-77139800D03*
X178384200Y-88519000D03*
X164922200Y-80314800D03*
X174777400Y-80162400D03*
X121885500Y-114528600D03*
X123520200Y-114528600D03*
X141325600Y-82956400D03*
X162915600Y-101498400D03*
X162814000Y-92557600D03*
X121107200Y-110286800D03*
X133146800Y-109880400D03*
X153949400Y-102412800D03*
X151978522Y-102427823D03*
X137617200Y-104140000D03*
X137668000Y-111760000D03*
X146326640Y-106934000D03*
X154621380Y-99811579D03*
X150663974Y-99814000D03*
X154565326Y-101179100D03*
X150683256Y-101132606D03*
X152644000Y-101794026D03*
X150688047Y-98537597D03*
X141325600Y-90881200D03*
X157327600Y-103886000D03*
X168046400Y-92608400D03*
X163220400Y-103987600D03*
X122580400Y-113004600D03*
X122783600Y-113969800D03*
D16*
X153250636Y-97225624D02*
X151999176Y-97225624D01*
X151999176Y-97225624D02*
X151993600Y-97231200D01*
D17*
X151993600Y-97231200D02*
X145389600Y-97231200D01*
X145389600Y-97231200D02*
X144221200Y-96062800D01*
D16*
X155265529Y-98506080D02*
X153573280Y-98506080D01*
X153250636Y-98183436D02*
X153250636Y-97225624D01*
X153573280Y-98506080D02*
X153250636Y-98183436D01*
D17*
X146202400Y-107848400D02*
X144729200Y-107848400D01*
X144729200Y-107848400D02*
X143408400Y-109169200D01*
D16*
X155281070Y-98506080D02*
X155733390Y-98958400D01*
X155265529Y-98506080D02*
X155281070Y-98506080D01*
X155733390Y-98958400D02*
X163372800Y-98958400D01*
X163372800Y-98958400D02*
X163566900Y-98764300D01*
X163566900Y-98764300D02*
X163566900Y-96783101D01*
D17*
X143408400Y-109487398D02*
X144157002Y-110236000D01*
X143408400Y-109169200D02*
X143408400Y-109487398D01*
X144157002Y-110236000D02*
X165303200Y-110236000D01*
X165303200Y-110236000D02*
X165506400Y-110032800D01*
D16*
X150063200Y-99771200D02*
X150037800Y-99796600D01*
X150063200Y-99136200D02*
X150063200Y-99771200D01*
X150018958Y-102387692D02*
X150012400Y-102394250D01*
X150018958Y-101759405D02*
X150018958Y-102387692D01*
X150018958Y-102387692D02*
X150018958Y-102660242D01*
X150018958Y-102660242D02*
X149453600Y-103225600D01*
X149453600Y-103225600D02*
X149098000Y-103225600D01*
X149098000Y-103225600D02*
X148691600Y-103632000D01*
X148691600Y-103632000D02*
X144018000Y-103632000D01*
X144018000Y-103632000D02*
X143713200Y-103936800D01*
X149745002Y-99136200D02*
X149364002Y-98755200D01*
X150063200Y-99136200D02*
X149745002Y-99136200D01*
X146812000Y-98755200D02*
X146710400Y-98755200D01*
X149364002Y-98755200D02*
X146812000Y-98755200D01*
X144119600Y-98552000D02*
X143459200Y-98552000D01*
X145948400Y-99364800D02*
X144932400Y-99364800D01*
X146812000Y-98755200D02*
X146558000Y-98755200D01*
X144932400Y-99364800D02*
X144119600Y-98552000D01*
X146558000Y-98755200D02*
X145948400Y-99364800D01*
X155263185Y-101099015D02*
X155244800Y-101117400D01*
X155263185Y-99803821D02*
X155263185Y-101099015D01*
D18*
X161899600Y-92913200D02*
X161899600Y-94081600D01*
X158140400Y-92659200D02*
X161645600Y-92659200D01*
X161645600Y-92659200D02*
X161899600Y-92913200D01*
D19*
X154584400Y-97231200D02*
X157327600Y-94488000D01*
X157327600Y-94488000D02*
X157378400Y-94437200D01*
X157378400Y-94437200D02*
X159766000Y-94437200D01*
D18*
X156756647Y-97879447D02*
X155257854Y-97879447D01*
X161848800Y-98399600D02*
X157276800Y-98399600D01*
X157276800Y-98399600D02*
X156756647Y-97879447D01*
X161950400Y-96316800D02*
X161950400Y-98298000D01*
X161950400Y-98298000D02*
X161848800Y-98399600D01*
D20*
X121412000Y-120523000D02*
X122301000Y-120523000D01*
X122301000Y-120523000D02*
X122529600Y-120294400D01*
X122529600Y-120294400D02*
X122529600Y-116941600D01*
X122529600Y-116941600D02*
X121666000Y-116078000D01*
X121666000Y-116078000D02*
X117195600Y-116078000D01*
X117195600Y-116078000D02*
X116484400Y-115366800D01*
X116484400Y-115366800D02*
X116484400Y-108102400D01*
X117754400Y-106832400D02*
X117754400Y-104749600D01*
X116484400Y-108102400D02*
X117754400Y-106832400D01*
X117754400Y-104749600D02*
X117754400Y-102209600D01*
X118956481Y-102209600D02*
X121140881Y-100025200D01*
X117754400Y-102209600D02*
X118956481Y-102209600D01*
X121140881Y-100025200D02*
X131216400Y-100025200D01*
X131216400Y-100025200D02*
X131673600Y-99568000D01*
X131673600Y-99568000D02*
X131673600Y-98094800D01*
X133096000Y-98094800D02*
X131673600Y-98094800D01*
X133299200Y-97891600D02*
X133096000Y-98094800D01*
X133299200Y-91236800D02*
X133299200Y-97891600D01*
X132842000Y-90779600D02*
X133299200Y-91236800D01*
X131775200Y-90779600D02*
X132842000Y-90779600D01*
X131775200Y-90779600D02*
X131775200Y-91592400D01*
X131775200Y-91592400D02*
X131470400Y-91897200D01*
X131470400Y-91897200D02*
X128371600Y-91897200D01*
X128168400Y-91694000D02*
X128168400Y-91135198D01*
X128371600Y-91897200D02*
X128168400Y-91694000D01*
X131775200Y-90779600D02*
X132588000Y-90779600D01*
X133197600Y-90424000D02*
X132842000Y-90779600D01*
X133197600Y-86715600D02*
X133197600Y-90424000D01*
X133197600Y-83972400D02*
X133197600Y-86715600D01*
X129235200Y-83515200D02*
X132740400Y-83515200D01*
X132740400Y-83515200D02*
X133197600Y-83972400D01*
X125374400Y-86004400D02*
X125374400Y-84226400D01*
X125374400Y-84226400D02*
X126085600Y-83515200D01*
D18*
X128422400Y-83515200D02*
X128422400Y-81432400D01*
D20*
X128422400Y-83515200D02*
X129235200Y-83515200D01*
X126085600Y-83515200D02*
X128422400Y-83515200D01*
D18*
X128422400Y-81432400D02*
X129133600Y-80721200D01*
X129133600Y-80721200D02*
X129133600Y-77927200D01*
D16*
X176453800Y-98018600D02*
X178435000Y-98018600D01*
X172288200Y-98018600D02*
X176453800Y-98018600D01*
X170686353Y-112661710D02*
X171704000Y-111644063D01*
X135280400Y-111491663D02*
X136450447Y-112661710D01*
X136450447Y-112661710D02*
X170686353Y-112661710D01*
X135280400Y-107492800D02*
X135280400Y-111491663D01*
X171704000Y-98602800D02*
X172288200Y-98018600D01*
X134772400Y-106984800D02*
X135280400Y-107492800D01*
X129590800Y-106984800D02*
X134772400Y-106984800D01*
X171704000Y-111644063D02*
X171704000Y-98602800D01*
X128778000Y-106172000D02*
X129590800Y-106984800D01*
X128778000Y-100685600D02*
X128778000Y-106172000D01*
X135521710Y-107392847D02*
X134872353Y-106743490D01*
X136550400Y-112420400D02*
X135521710Y-111391710D01*
X135521710Y-111391710D02*
X135521710Y-107392847D01*
X134872353Y-106743490D02*
X129690752Y-106743490D01*
X129690752Y-106743490D02*
X129438400Y-106491138D01*
X129438400Y-106491138D02*
X129438400Y-100939600D01*
X138277600Y-112420400D02*
X137972800Y-112420400D01*
X137972800Y-112420400D02*
X136550400Y-112420400D01*
X171462690Y-95491310D02*
X171780200Y-95173800D01*
X171462690Y-111544110D02*
X171462690Y-95491310D01*
X171780200Y-95173800D02*
X174980600Y-95173800D01*
X170586400Y-112420400D02*
X171462690Y-111544110D01*
X174980600Y-95173800D02*
X178435000Y-95173800D01*
X137972800Y-112420400D02*
X170586400Y-112420400D01*
D20*
X141325600Y-82956400D02*
X163372800Y-82956400D01*
D18*
X164922200Y-82626200D02*
X163982400Y-83566000D01*
D20*
X163372800Y-82956400D02*
X163982400Y-83566000D01*
D18*
X174777400Y-80162400D02*
X174777400Y-80746600D01*
X174777400Y-80746600D02*
X174396400Y-81127600D01*
X165252400Y-81127600D02*
X164922200Y-81457800D01*
X174396400Y-81127600D02*
X165252400Y-81127600D01*
X164922200Y-80314800D02*
X164922200Y-81457800D01*
X164922200Y-81457800D02*
X164922200Y-82626200D01*
D20*
X163982400Y-83566000D02*
X164084000Y-83667600D01*
X164084000Y-100076000D02*
X164084000Y-100330000D01*
X164084000Y-100330000D02*
X162915600Y-101498400D01*
D18*
X162814000Y-92557600D02*
X163982400Y-92557600D01*
D20*
X164084000Y-83667600D02*
X164084000Y-92659200D01*
D18*
X163982400Y-92557600D02*
X164084000Y-92659200D01*
D20*
X164084000Y-92659200D02*
X164084000Y-100076000D01*
D17*
X174777400Y-80480598D02*
X174777400Y-80162400D01*
X174777400Y-85230398D02*
X174777400Y-80480598D01*
X178066002Y-88519000D02*
X174777400Y-85230398D01*
X178384200Y-88519000D02*
X178066002Y-88519000D01*
D16*
X151993545Y-102412800D02*
X151978522Y-102427823D01*
X153949400Y-102412800D02*
X151993545Y-102412800D01*
X138125200Y-111760000D02*
X137668000Y-111760000D01*
X138277600Y-111607600D02*
X138125200Y-111760000D01*
X137617200Y-104140000D02*
X138125200Y-104140000D01*
X138125200Y-104140000D02*
X138277600Y-104292400D01*
X143357600Y-108254800D02*
X138277600Y-108254800D01*
X146326640Y-106934000D02*
X144678400Y-106934000D01*
X144678400Y-106934000D02*
X143357600Y-108254800D01*
X138277600Y-104292400D02*
X138277600Y-108254800D01*
X138277600Y-108254800D02*
X138277600Y-111607600D01*
X154621380Y-101123046D02*
X154565326Y-101179100D01*
D18*
X154621380Y-99811579D02*
X154621380Y-101123046D01*
X152471406Y-101132606D02*
X152644000Y-101305200D01*
X152644000Y-101305200D02*
X152644000Y-101794026D01*
X150683256Y-101132606D02*
X152471406Y-101132606D01*
D16*
X150698200Y-99779774D02*
X150663974Y-99814000D01*
D18*
X154431723Y-100727299D02*
X153018701Y-100727299D01*
X154565326Y-101179100D02*
X154565326Y-100860902D01*
X154565326Y-100860902D02*
X154431723Y-100727299D01*
X153018701Y-100727299D02*
X152603200Y-101142800D01*
X150663974Y-101113324D02*
X150683256Y-101132606D01*
X150663974Y-99814000D02*
X150663974Y-101113324D01*
X150663974Y-99814000D02*
X150663974Y-98561670D01*
X150663974Y-98561670D02*
X150688047Y-98537597D01*
X150688047Y-98219399D02*
X150157048Y-97688400D01*
X150688047Y-98537597D02*
X150688047Y-98219399D01*
X150157048Y-97688400D02*
X145948400Y-97688400D01*
X144380951Y-98298646D02*
X143821505Y-97739200D01*
X145948400Y-97688400D02*
X145338154Y-98298646D01*
X145338154Y-98298646D02*
X144380951Y-98298646D01*
X143821505Y-97739200D02*
X143408400Y-97739200D01*
D17*
X141325600Y-97231200D02*
X141325600Y-95402400D01*
X143408400Y-97739200D02*
X141833600Y-97739200D01*
X141325600Y-95402400D02*
X141325600Y-90881200D01*
X141833600Y-97739200D02*
X141325600Y-97231200D01*
X157327600Y-103886000D02*
X162102800Y-103886000D01*
X162915600Y-103073200D02*
X166370000Y-103073200D01*
X166370000Y-103073200D02*
X166928800Y-102514400D01*
X166928800Y-102514400D02*
X166928800Y-93167200D01*
X166928800Y-93167200D02*
X167487600Y-92608400D01*
X167487600Y-92608400D02*
X168046400Y-92608400D01*
D16*
X162995401Y-103762601D02*
X162610800Y-103378000D01*
D17*
X162102800Y-103886000D02*
X162610800Y-103378000D01*
D16*
X163220400Y-103987600D02*
X162995401Y-103762601D01*
D17*
X162610800Y-103378000D02*
X162915600Y-103073200D01*
M02*
