G04 #@! TF.GenerationSoftware,KiCad,Pcbnew,5.1.0*
G04 #@! TF.CreationDate,2019-03-26T01:50:18+00:00*
G04 #@! TF.ProjectId,ESP32_K210,45535033-325f-44b3-9231-302e6b696361,rev?*
G04 #@! TF.SameCoordinates,Original*
G04 #@! TF.FileFunction,Soldermask,Bot*
G04 #@! TF.FilePolarity,Negative*
%FSLAX46Y46*%
G04 Gerber Fmt 4.6, Leading zero omitted, Abs format (unit mm)*
G04 Created by KiCad (PCBNEW 5.1.0) date 2019-03-26 01:50:18*
%MOMM*%
%LPD*%
G04 APERTURE LIST*
%ADD10C,0.100000*%
G04 APERTURE END LIST*
D10*
G36*
X116691395Y-124804346D02*
G01*
X116864466Y-124876034D01*
X116864467Y-124876035D01*
X117020227Y-124980110D01*
X117152690Y-125112573D01*
X117152691Y-125112575D01*
X117256766Y-125268334D01*
X117328454Y-125441405D01*
X117365000Y-125625133D01*
X117365000Y-125812467D01*
X117328454Y-125996195D01*
X117256766Y-126169266D01*
X117256765Y-126169267D01*
X117152690Y-126325027D01*
X117020227Y-126457490D01*
X116956331Y-126500184D01*
X116864466Y-126561566D01*
X116691395Y-126633254D01*
X116507667Y-126669800D01*
X116320333Y-126669800D01*
X116136605Y-126633254D01*
X115963534Y-126561566D01*
X115871669Y-126500184D01*
X115807773Y-126457490D01*
X115675310Y-126325027D01*
X115571235Y-126169267D01*
X115571234Y-126169266D01*
X115499546Y-125996195D01*
X115463000Y-125812467D01*
X115463000Y-125625133D01*
X115499546Y-125441405D01*
X115571234Y-125268334D01*
X115675309Y-125112575D01*
X115675310Y-125112573D01*
X115807773Y-124980110D01*
X115963533Y-124876035D01*
X115963534Y-124876034D01*
X116136605Y-124804346D01*
X116320333Y-124767800D01*
X116507667Y-124767800D01*
X116691395Y-124804346D01*
X116691395Y-124804346D01*
G37*
G36*
X119295552Y-123910131D02*
G01*
X119377627Y-123944128D01*
X119377629Y-123944129D01*
X119414813Y-123968975D01*
X119451495Y-123993485D01*
X119514315Y-124056305D01*
X119563672Y-124130173D01*
X119597669Y-124212248D01*
X119615000Y-124299379D01*
X119615000Y-124388221D01*
X119597521Y-124476094D01*
X119595119Y-124500480D01*
X119597521Y-124524866D01*
X119604634Y-124548315D01*
X119616185Y-124569926D01*
X119631730Y-124588868D01*
X119650672Y-124604413D01*
X119672283Y-124615964D01*
X119695732Y-124623077D01*
X119720118Y-124625479D01*
X119744504Y-124623077D01*
X119767953Y-124615964D01*
X119907435Y-124558189D01*
X120110484Y-124517800D01*
X120317516Y-124517800D01*
X120520564Y-124558189D01*
X120697060Y-124631296D01*
X120711835Y-124637416D01*
X120883973Y-124752435D01*
X121030365Y-124898827D01*
X121084677Y-124980110D01*
X121145385Y-125070967D01*
X121224611Y-125262236D01*
X121265000Y-125465284D01*
X121265000Y-125672316D01*
X121224611Y-125875364D01*
X121174561Y-125996195D01*
X121145384Y-126066635D01*
X121030365Y-126238773D01*
X120883973Y-126385165D01*
X120711835Y-126500184D01*
X120711834Y-126500185D01*
X120711833Y-126500185D01*
X120520564Y-126579411D01*
X120317516Y-126619800D01*
X120110484Y-126619800D01*
X119907436Y-126579411D01*
X119716167Y-126500185D01*
X119716166Y-126500185D01*
X119716165Y-126500184D01*
X119544027Y-126385165D01*
X119397635Y-126238773D01*
X119282616Y-126066635D01*
X119253439Y-125996195D01*
X119203389Y-125875364D01*
X119163000Y-125672316D01*
X119163000Y-125465284D01*
X119203389Y-125262236D01*
X119282615Y-125070967D01*
X119339144Y-124986365D01*
X119350695Y-124964754D01*
X119357808Y-124941305D01*
X119360210Y-124916919D01*
X119357808Y-124892533D01*
X119350695Y-124869084D01*
X119339144Y-124847473D01*
X119323599Y-124828531D01*
X119304657Y-124812986D01*
X119283046Y-124801435D01*
X119259597Y-124794322D01*
X119235211Y-124791920D01*
X119210829Y-124794321D01*
X119208420Y-124794800D01*
X119119579Y-124794800D01*
X119032448Y-124777469D01*
X118950373Y-124743472D01*
X118950372Y-124743472D01*
X118950371Y-124743471D01*
X118876504Y-124694114D01*
X118813686Y-124631296D01*
X118764329Y-124557429D01*
X118747914Y-124517800D01*
X118730331Y-124475352D01*
X118713000Y-124388221D01*
X118713000Y-124299379D01*
X118730331Y-124212248D01*
X118764328Y-124130173D01*
X118813685Y-124056305D01*
X118876505Y-123993485D01*
X118913187Y-123968975D01*
X118950371Y-123944129D01*
X118950373Y-123944128D01*
X119032448Y-123910131D01*
X119119579Y-123892800D01*
X119208421Y-123892800D01*
X119295552Y-123910131D01*
X119295552Y-123910131D01*
G37*
G36*
X171052443Y-123692519D02*
G01*
X171118627Y-123699037D01*
X171288466Y-123750557D01*
X171444991Y-123834222D01*
X171480729Y-123863552D01*
X171582186Y-123946814D01*
X171665448Y-124048271D01*
X171694778Y-124084009D01*
X171778443Y-124240534D01*
X171829963Y-124410373D01*
X171847359Y-124587000D01*
X171829963Y-124763627D01*
X171778443Y-124933466D01*
X171694778Y-125089991D01*
X171665448Y-125125729D01*
X171582186Y-125227186D01*
X171480729Y-125310448D01*
X171444991Y-125339778D01*
X171288466Y-125423443D01*
X171118627Y-125474963D01*
X171052442Y-125481482D01*
X170986260Y-125488000D01*
X170897740Y-125488000D01*
X170831558Y-125481482D01*
X170765373Y-125474963D01*
X170595534Y-125423443D01*
X170439009Y-125339778D01*
X170403271Y-125310448D01*
X170301814Y-125227186D01*
X170218552Y-125125729D01*
X170189222Y-125089991D01*
X170105557Y-124933466D01*
X170054037Y-124763627D01*
X170036641Y-124587000D01*
X170054037Y-124410373D01*
X170105557Y-124240534D01*
X170189222Y-124084009D01*
X170218552Y-124048271D01*
X170301814Y-123946814D01*
X170403271Y-123863552D01*
X170439009Y-123834222D01*
X170595534Y-123750557D01*
X170765373Y-123699037D01*
X170831557Y-123692519D01*
X170897740Y-123686000D01*
X170986260Y-123686000D01*
X171052443Y-123692519D01*
X171052443Y-123692519D01*
G37*
G36*
X168512443Y-123692519D02*
G01*
X168578627Y-123699037D01*
X168748466Y-123750557D01*
X168904991Y-123834222D01*
X168940729Y-123863552D01*
X169042186Y-123946814D01*
X169125448Y-124048271D01*
X169154778Y-124084009D01*
X169238443Y-124240534D01*
X169289963Y-124410373D01*
X169307359Y-124587000D01*
X169289963Y-124763627D01*
X169238443Y-124933466D01*
X169154778Y-125089991D01*
X169125448Y-125125729D01*
X169042186Y-125227186D01*
X168940729Y-125310448D01*
X168904991Y-125339778D01*
X168748466Y-125423443D01*
X168578627Y-125474963D01*
X168512442Y-125481482D01*
X168446260Y-125488000D01*
X168357740Y-125488000D01*
X168291558Y-125481482D01*
X168225373Y-125474963D01*
X168055534Y-125423443D01*
X167899009Y-125339778D01*
X167863271Y-125310448D01*
X167761814Y-125227186D01*
X167678552Y-125125729D01*
X167649222Y-125089991D01*
X167565557Y-124933466D01*
X167514037Y-124763627D01*
X167496641Y-124587000D01*
X167514037Y-124410373D01*
X167565557Y-124240534D01*
X167649222Y-124084009D01*
X167678552Y-124048271D01*
X167761814Y-123946814D01*
X167863271Y-123863552D01*
X167899009Y-123834222D01*
X168055534Y-123750557D01*
X168225373Y-123699037D01*
X168291557Y-123692519D01*
X168357740Y-123686000D01*
X168446260Y-123686000D01*
X168512443Y-123692519D01*
X168512443Y-123692519D01*
G37*
G36*
X165972443Y-123692519D02*
G01*
X166038627Y-123699037D01*
X166208466Y-123750557D01*
X166364991Y-123834222D01*
X166400729Y-123863552D01*
X166502186Y-123946814D01*
X166585448Y-124048271D01*
X166614778Y-124084009D01*
X166698443Y-124240534D01*
X166749963Y-124410373D01*
X166767359Y-124587000D01*
X166749963Y-124763627D01*
X166698443Y-124933466D01*
X166614778Y-125089991D01*
X166585448Y-125125729D01*
X166502186Y-125227186D01*
X166400729Y-125310448D01*
X166364991Y-125339778D01*
X166208466Y-125423443D01*
X166038627Y-125474963D01*
X165972442Y-125481482D01*
X165906260Y-125488000D01*
X165817740Y-125488000D01*
X165751558Y-125481482D01*
X165685373Y-125474963D01*
X165515534Y-125423443D01*
X165359009Y-125339778D01*
X165323271Y-125310448D01*
X165221814Y-125227186D01*
X165138552Y-125125729D01*
X165109222Y-125089991D01*
X165025557Y-124933466D01*
X164974037Y-124763627D01*
X164956641Y-124587000D01*
X164974037Y-124410373D01*
X165025557Y-124240534D01*
X165109222Y-124084009D01*
X165138552Y-124048271D01*
X165221814Y-123946814D01*
X165323271Y-123863552D01*
X165359009Y-123834222D01*
X165515534Y-123750557D01*
X165685373Y-123699037D01*
X165751557Y-123692519D01*
X165817740Y-123686000D01*
X165906260Y-123686000D01*
X165972443Y-123692519D01*
X165972443Y-123692519D01*
G37*
G36*
X163432443Y-123692519D02*
G01*
X163498627Y-123699037D01*
X163668466Y-123750557D01*
X163824991Y-123834222D01*
X163860729Y-123863552D01*
X163962186Y-123946814D01*
X164045448Y-124048271D01*
X164074778Y-124084009D01*
X164158443Y-124240534D01*
X164209963Y-124410373D01*
X164227359Y-124587000D01*
X164209963Y-124763627D01*
X164158443Y-124933466D01*
X164074778Y-125089991D01*
X164045448Y-125125729D01*
X163962186Y-125227186D01*
X163860729Y-125310448D01*
X163824991Y-125339778D01*
X163668466Y-125423443D01*
X163498627Y-125474963D01*
X163432442Y-125481482D01*
X163366260Y-125488000D01*
X163277740Y-125488000D01*
X163211558Y-125481482D01*
X163145373Y-125474963D01*
X162975534Y-125423443D01*
X162819009Y-125339778D01*
X162783271Y-125310448D01*
X162681814Y-125227186D01*
X162598552Y-125125729D01*
X162569222Y-125089991D01*
X162485557Y-124933466D01*
X162434037Y-124763627D01*
X162416641Y-124587000D01*
X162434037Y-124410373D01*
X162485557Y-124240534D01*
X162569222Y-124084009D01*
X162598552Y-124048271D01*
X162681814Y-123946814D01*
X162783271Y-123863552D01*
X162819009Y-123834222D01*
X162975534Y-123750557D01*
X163145373Y-123699037D01*
X163211557Y-123692519D01*
X163277740Y-123686000D01*
X163366260Y-123686000D01*
X163432443Y-123692519D01*
X163432443Y-123692519D01*
G37*
G36*
X160892443Y-123692519D02*
G01*
X160958627Y-123699037D01*
X161128466Y-123750557D01*
X161284991Y-123834222D01*
X161320729Y-123863552D01*
X161422186Y-123946814D01*
X161505448Y-124048271D01*
X161534778Y-124084009D01*
X161618443Y-124240534D01*
X161669963Y-124410373D01*
X161687359Y-124587000D01*
X161669963Y-124763627D01*
X161618443Y-124933466D01*
X161534778Y-125089991D01*
X161505448Y-125125729D01*
X161422186Y-125227186D01*
X161320729Y-125310448D01*
X161284991Y-125339778D01*
X161128466Y-125423443D01*
X160958627Y-125474963D01*
X160892442Y-125481482D01*
X160826260Y-125488000D01*
X160737740Y-125488000D01*
X160671558Y-125481482D01*
X160605373Y-125474963D01*
X160435534Y-125423443D01*
X160279009Y-125339778D01*
X160243271Y-125310448D01*
X160141814Y-125227186D01*
X160058552Y-125125729D01*
X160029222Y-125089991D01*
X159945557Y-124933466D01*
X159894037Y-124763627D01*
X159876641Y-124587000D01*
X159894037Y-124410373D01*
X159945557Y-124240534D01*
X160029222Y-124084009D01*
X160058552Y-124048271D01*
X160141814Y-123946814D01*
X160243271Y-123863552D01*
X160279009Y-123834222D01*
X160435534Y-123750557D01*
X160605373Y-123699037D01*
X160671557Y-123692519D01*
X160737740Y-123686000D01*
X160826260Y-123686000D01*
X160892443Y-123692519D01*
X160892443Y-123692519D01*
G37*
G36*
X158352443Y-123692519D02*
G01*
X158418627Y-123699037D01*
X158588466Y-123750557D01*
X158744991Y-123834222D01*
X158780729Y-123863552D01*
X158882186Y-123946814D01*
X158965448Y-124048271D01*
X158994778Y-124084009D01*
X159078443Y-124240534D01*
X159129963Y-124410373D01*
X159147359Y-124587000D01*
X159129963Y-124763627D01*
X159078443Y-124933466D01*
X158994778Y-125089991D01*
X158965448Y-125125729D01*
X158882186Y-125227186D01*
X158780729Y-125310448D01*
X158744991Y-125339778D01*
X158588466Y-125423443D01*
X158418627Y-125474963D01*
X158352442Y-125481482D01*
X158286260Y-125488000D01*
X158197740Y-125488000D01*
X158131558Y-125481482D01*
X158065373Y-125474963D01*
X157895534Y-125423443D01*
X157739009Y-125339778D01*
X157703271Y-125310448D01*
X157601814Y-125227186D01*
X157518552Y-125125729D01*
X157489222Y-125089991D01*
X157405557Y-124933466D01*
X157354037Y-124763627D01*
X157336641Y-124587000D01*
X157354037Y-124410373D01*
X157405557Y-124240534D01*
X157489222Y-124084009D01*
X157518552Y-124048271D01*
X157601814Y-123946814D01*
X157703271Y-123863552D01*
X157739009Y-123834222D01*
X157895534Y-123750557D01*
X158065373Y-123699037D01*
X158131557Y-123692519D01*
X158197740Y-123686000D01*
X158286260Y-123686000D01*
X158352443Y-123692519D01*
X158352443Y-123692519D01*
G37*
G36*
X155812443Y-123692519D02*
G01*
X155878627Y-123699037D01*
X156048466Y-123750557D01*
X156204991Y-123834222D01*
X156240729Y-123863552D01*
X156342186Y-123946814D01*
X156425448Y-124048271D01*
X156454778Y-124084009D01*
X156538443Y-124240534D01*
X156589963Y-124410373D01*
X156607359Y-124587000D01*
X156589963Y-124763627D01*
X156538443Y-124933466D01*
X156454778Y-125089991D01*
X156425448Y-125125729D01*
X156342186Y-125227186D01*
X156240729Y-125310448D01*
X156204991Y-125339778D01*
X156048466Y-125423443D01*
X155878627Y-125474963D01*
X155812442Y-125481482D01*
X155746260Y-125488000D01*
X155657740Y-125488000D01*
X155591558Y-125481482D01*
X155525373Y-125474963D01*
X155355534Y-125423443D01*
X155199009Y-125339778D01*
X155163271Y-125310448D01*
X155061814Y-125227186D01*
X154978552Y-125125729D01*
X154949222Y-125089991D01*
X154865557Y-124933466D01*
X154814037Y-124763627D01*
X154796641Y-124587000D01*
X154814037Y-124410373D01*
X154865557Y-124240534D01*
X154949222Y-124084009D01*
X154978552Y-124048271D01*
X155061814Y-123946814D01*
X155163271Y-123863552D01*
X155199009Y-123834222D01*
X155355534Y-123750557D01*
X155525373Y-123699037D01*
X155591557Y-123692519D01*
X155657740Y-123686000D01*
X155746260Y-123686000D01*
X155812443Y-123692519D01*
X155812443Y-123692519D01*
G37*
G36*
X153272443Y-123692519D02*
G01*
X153338627Y-123699037D01*
X153508466Y-123750557D01*
X153664991Y-123834222D01*
X153700729Y-123863552D01*
X153802186Y-123946814D01*
X153885448Y-124048271D01*
X153914778Y-124084009D01*
X153998443Y-124240534D01*
X154049963Y-124410373D01*
X154067359Y-124587000D01*
X154049963Y-124763627D01*
X153998443Y-124933466D01*
X153914778Y-125089991D01*
X153885448Y-125125729D01*
X153802186Y-125227186D01*
X153700729Y-125310448D01*
X153664991Y-125339778D01*
X153508466Y-125423443D01*
X153338627Y-125474963D01*
X153272442Y-125481482D01*
X153206260Y-125488000D01*
X153117740Y-125488000D01*
X153051558Y-125481482D01*
X152985373Y-125474963D01*
X152815534Y-125423443D01*
X152659009Y-125339778D01*
X152623271Y-125310448D01*
X152521814Y-125227186D01*
X152438552Y-125125729D01*
X152409222Y-125089991D01*
X152325557Y-124933466D01*
X152274037Y-124763627D01*
X152256641Y-124587000D01*
X152274037Y-124410373D01*
X152325557Y-124240534D01*
X152409222Y-124084009D01*
X152438552Y-124048271D01*
X152521814Y-123946814D01*
X152623271Y-123863552D01*
X152659009Y-123834222D01*
X152815534Y-123750557D01*
X152985373Y-123699037D01*
X153051557Y-123692519D01*
X153117740Y-123686000D01*
X153206260Y-123686000D01*
X153272443Y-123692519D01*
X153272443Y-123692519D01*
G37*
G36*
X150732443Y-123692519D02*
G01*
X150798627Y-123699037D01*
X150968466Y-123750557D01*
X151124991Y-123834222D01*
X151160729Y-123863552D01*
X151262186Y-123946814D01*
X151345448Y-124048271D01*
X151374778Y-124084009D01*
X151458443Y-124240534D01*
X151509963Y-124410373D01*
X151527359Y-124587000D01*
X151509963Y-124763627D01*
X151458443Y-124933466D01*
X151374778Y-125089991D01*
X151345448Y-125125729D01*
X151262186Y-125227186D01*
X151160729Y-125310448D01*
X151124991Y-125339778D01*
X150968466Y-125423443D01*
X150798627Y-125474963D01*
X150732442Y-125481482D01*
X150666260Y-125488000D01*
X150577740Y-125488000D01*
X150511558Y-125481482D01*
X150445373Y-125474963D01*
X150275534Y-125423443D01*
X150119009Y-125339778D01*
X150083271Y-125310448D01*
X149981814Y-125227186D01*
X149898552Y-125125729D01*
X149869222Y-125089991D01*
X149785557Y-124933466D01*
X149734037Y-124763627D01*
X149716641Y-124587000D01*
X149734037Y-124410373D01*
X149785557Y-124240534D01*
X149869222Y-124084009D01*
X149898552Y-124048271D01*
X149981814Y-123946814D01*
X150083271Y-123863552D01*
X150119009Y-123834222D01*
X150275534Y-123750557D01*
X150445373Y-123699037D01*
X150511557Y-123692519D01*
X150577740Y-123686000D01*
X150666260Y-123686000D01*
X150732443Y-123692519D01*
X150732443Y-123692519D01*
G37*
G36*
X148192443Y-123692519D02*
G01*
X148258627Y-123699037D01*
X148428466Y-123750557D01*
X148584991Y-123834222D01*
X148620729Y-123863552D01*
X148722186Y-123946814D01*
X148805448Y-124048271D01*
X148834778Y-124084009D01*
X148918443Y-124240534D01*
X148969963Y-124410373D01*
X148987359Y-124587000D01*
X148969963Y-124763627D01*
X148918443Y-124933466D01*
X148834778Y-125089991D01*
X148805448Y-125125729D01*
X148722186Y-125227186D01*
X148620729Y-125310448D01*
X148584991Y-125339778D01*
X148428466Y-125423443D01*
X148258627Y-125474963D01*
X148192442Y-125481482D01*
X148126260Y-125488000D01*
X148037740Y-125488000D01*
X147971558Y-125481482D01*
X147905373Y-125474963D01*
X147735534Y-125423443D01*
X147579009Y-125339778D01*
X147543271Y-125310448D01*
X147441814Y-125227186D01*
X147358552Y-125125729D01*
X147329222Y-125089991D01*
X147245557Y-124933466D01*
X147194037Y-124763627D01*
X147176641Y-124587000D01*
X147194037Y-124410373D01*
X147245557Y-124240534D01*
X147329222Y-124084009D01*
X147358552Y-124048271D01*
X147441814Y-123946814D01*
X147543271Y-123863552D01*
X147579009Y-123834222D01*
X147735534Y-123750557D01*
X147905373Y-123699037D01*
X147971557Y-123692519D01*
X148037740Y-123686000D01*
X148126260Y-123686000D01*
X148192443Y-123692519D01*
X148192443Y-123692519D01*
G37*
G36*
X145652443Y-123692519D02*
G01*
X145718627Y-123699037D01*
X145888466Y-123750557D01*
X146044991Y-123834222D01*
X146080729Y-123863552D01*
X146182186Y-123946814D01*
X146265448Y-124048271D01*
X146294778Y-124084009D01*
X146378443Y-124240534D01*
X146429963Y-124410373D01*
X146447359Y-124587000D01*
X146429963Y-124763627D01*
X146378443Y-124933466D01*
X146294778Y-125089991D01*
X146265448Y-125125729D01*
X146182186Y-125227186D01*
X146080729Y-125310448D01*
X146044991Y-125339778D01*
X145888466Y-125423443D01*
X145718627Y-125474963D01*
X145652442Y-125481482D01*
X145586260Y-125488000D01*
X145497740Y-125488000D01*
X145431558Y-125481482D01*
X145365373Y-125474963D01*
X145195534Y-125423443D01*
X145039009Y-125339778D01*
X145003271Y-125310448D01*
X144901814Y-125227186D01*
X144818552Y-125125729D01*
X144789222Y-125089991D01*
X144705557Y-124933466D01*
X144654037Y-124763627D01*
X144636641Y-124587000D01*
X144654037Y-124410373D01*
X144705557Y-124240534D01*
X144789222Y-124084009D01*
X144818552Y-124048271D01*
X144901814Y-123946814D01*
X145003271Y-123863552D01*
X145039009Y-123834222D01*
X145195534Y-123750557D01*
X145365373Y-123699037D01*
X145431557Y-123692519D01*
X145497740Y-123686000D01*
X145586260Y-123686000D01*
X145652443Y-123692519D01*
X145652443Y-123692519D01*
G37*
G36*
X143112443Y-123692519D02*
G01*
X143178627Y-123699037D01*
X143348466Y-123750557D01*
X143504991Y-123834222D01*
X143540729Y-123863552D01*
X143642186Y-123946814D01*
X143725448Y-124048271D01*
X143754778Y-124084009D01*
X143838443Y-124240534D01*
X143889963Y-124410373D01*
X143907359Y-124587000D01*
X143889963Y-124763627D01*
X143838443Y-124933466D01*
X143754778Y-125089991D01*
X143725448Y-125125729D01*
X143642186Y-125227186D01*
X143540729Y-125310448D01*
X143504991Y-125339778D01*
X143348466Y-125423443D01*
X143178627Y-125474963D01*
X143112442Y-125481482D01*
X143046260Y-125488000D01*
X142957740Y-125488000D01*
X142891558Y-125481482D01*
X142825373Y-125474963D01*
X142655534Y-125423443D01*
X142499009Y-125339778D01*
X142463271Y-125310448D01*
X142361814Y-125227186D01*
X142278552Y-125125729D01*
X142249222Y-125089991D01*
X142165557Y-124933466D01*
X142114037Y-124763627D01*
X142096641Y-124587000D01*
X142114037Y-124410373D01*
X142165557Y-124240534D01*
X142249222Y-124084009D01*
X142278552Y-124048271D01*
X142361814Y-123946814D01*
X142463271Y-123863552D01*
X142499009Y-123834222D01*
X142655534Y-123750557D01*
X142825373Y-123699037D01*
X142891557Y-123692519D01*
X142957740Y-123686000D01*
X143046260Y-123686000D01*
X143112443Y-123692519D01*
X143112443Y-123692519D01*
G37*
G36*
X140572443Y-123692519D02*
G01*
X140638627Y-123699037D01*
X140808466Y-123750557D01*
X140964991Y-123834222D01*
X141000729Y-123863552D01*
X141102186Y-123946814D01*
X141185448Y-124048271D01*
X141214778Y-124084009D01*
X141298443Y-124240534D01*
X141349963Y-124410373D01*
X141367359Y-124587000D01*
X141349963Y-124763627D01*
X141298443Y-124933466D01*
X141214778Y-125089991D01*
X141185448Y-125125729D01*
X141102186Y-125227186D01*
X141000729Y-125310448D01*
X140964991Y-125339778D01*
X140808466Y-125423443D01*
X140638627Y-125474963D01*
X140572442Y-125481482D01*
X140506260Y-125488000D01*
X140417740Y-125488000D01*
X140351558Y-125481482D01*
X140285373Y-125474963D01*
X140115534Y-125423443D01*
X139959009Y-125339778D01*
X139923271Y-125310448D01*
X139821814Y-125227186D01*
X139738552Y-125125729D01*
X139709222Y-125089991D01*
X139625557Y-124933466D01*
X139574037Y-124763627D01*
X139556641Y-124587000D01*
X139574037Y-124410373D01*
X139625557Y-124240534D01*
X139709222Y-124084009D01*
X139738552Y-124048271D01*
X139821814Y-123946814D01*
X139923271Y-123863552D01*
X139959009Y-123834222D01*
X140115534Y-123750557D01*
X140285373Y-123699037D01*
X140351557Y-123692519D01*
X140417740Y-123686000D01*
X140506260Y-123686000D01*
X140572443Y-123692519D01*
X140572443Y-123692519D01*
G37*
G36*
X138032443Y-123692519D02*
G01*
X138098627Y-123699037D01*
X138268466Y-123750557D01*
X138424991Y-123834222D01*
X138460729Y-123863552D01*
X138562186Y-123946814D01*
X138645448Y-124048271D01*
X138674778Y-124084009D01*
X138758443Y-124240534D01*
X138809963Y-124410373D01*
X138827359Y-124587000D01*
X138809963Y-124763627D01*
X138758443Y-124933466D01*
X138674778Y-125089991D01*
X138645448Y-125125729D01*
X138562186Y-125227186D01*
X138460729Y-125310448D01*
X138424991Y-125339778D01*
X138268466Y-125423443D01*
X138098627Y-125474963D01*
X138032442Y-125481482D01*
X137966260Y-125488000D01*
X137877740Y-125488000D01*
X137811558Y-125481482D01*
X137745373Y-125474963D01*
X137575534Y-125423443D01*
X137419009Y-125339778D01*
X137383271Y-125310448D01*
X137281814Y-125227186D01*
X137198552Y-125125729D01*
X137169222Y-125089991D01*
X137085557Y-124933466D01*
X137034037Y-124763627D01*
X137016641Y-124587000D01*
X137034037Y-124410373D01*
X137085557Y-124240534D01*
X137169222Y-124084009D01*
X137198552Y-124048271D01*
X137281814Y-123946814D01*
X137383271Y-123863552D01*
X137419009Y-123834222D01*
X137575534Y-123750557D01*
X137745373Y-123699037D01*
X137811557Y-123692519D01*
X137877740Y-123686000D01*
X137966260Y-123686000D01*
X138032443Y-123692519D01*
X138032443Y-123692519D01*
G37*
G36*
X135492443Y-123692519D02*
G01*
X135558627Y-123699037D01*
X135728466Y-123750557D01*
X135884991Y-123834222D01*
X135920729Y-123863552D01*
X136022186Y-123946814D01*
X136105448Y-124048271D01*
X136134778Y-124084009D01*
X136218443Y-124240534D01*
X136269963Y-124410373D01*
X136287359Y-124587000D01*
X136269963Y-124763627D01*
X136218443Y-124933466D01*
X136134778Y-125089991D01*
X136105448Y-125125729D01*
X136022186Y-125227186D01*
X135920729Y-125310448D01*
X135884991Y-125339778D01*
X135728466Y-125423443D01*
X135558627Y-125474963D01*
X135492442Y-125481482D01*
X135426260Y-125488000D01*
X135337740Y-125488000D01*
X135271558Y-125481482D01*
X135205373Y-125474963D01*
X135035534Y-125423443D01*
X134879009Y-125339778D01*
X134843271Y-125310448D01*
X134741814Y-125227186D01*
X134658552Y-125125729D01*
X134629222Y-125089991D01*
X134545557Y-124933466D01*
X134494037Y-124763627D01*
X134476641Y-124587000D01*
X134494037Y-124410373D01*
X134545557Y-124240534D01*
X134629222Y-124084009D01*
X134658552Y-124048271D01*
X134741814Y-123946814D01*
X134843271Y-123863552D01*
X134879009Y-123834222D01*
X135035534Y-123750557D01*
X135205373Y-123699037D01*
X135271557Y-123692519D01*
X135337740Y-123686000D01*
X135426260Y-123686000D01*
X135492443Y-123692519D01*
X135492443Y-123692519D01*
G37*
G36*
X132952443Y-123692519D02*
G01*
X133018627Y-123699037D01*
X133188466Y-123750557D01*
X133344991Y-123834222D01*
X133380729Y-123863552D01*
X133482186Y-123946814D01*
X133565448Y-124048271D01*
X133594778Y-124084009D01*
X133678443Y-124240534D01*
X133729963Y-124410373D01*
X133747359Y-124587000D01*
X133729963Y-124763627D01*
X133678443Y-124933466D01*
X133594778Y-125089991D01*
X133565448Y-125125729D01*
X133482186Y-125227186D01*
X133380729Y-125310448D01*
X133344991Y-125339778D01*
X133188466Y-125423443D01*
X133018627Y-125474963D01*
X132952442Y-125481482D01*
X132886260Y-125488000D01*
X132797740Y-125488000D01*
X132731558Y-125481482D01*
X132665373Y-125474963D01*
X132495534Y-125423443D01*
X132339009Y-125339778D01*
X132303271Y-125310448D01*
X132201814Y-125227186D01*
X132118552Y-125125729D01*
X132089222Y-125089991D01*
X132005557Y-124933466D01*
X131954037Y-124763627D01*
X131936641Y-124587000D01*
X131954037Y-124410373D01*
X132005557Y-124240534D01*
X132089222Y-124084009D01*
X132118552Y-124048271D01*
X132201814Y-123946814D01*
X132303271Y-123863552D01*
X132339009Y-123834222D01*
X132495534Y-123750557D01*
X132665373Y-123699037D01*
X132731557Y-123692519D01*
X132797740Y-123686000D01*
X132886260Y-123686000D01*
X132952443Y-123692519D01*
X132952443Y-123692519D01*
G37*
G36*
X130412443Y-123692519D02*
G01*
X130478627Y-123699037D01*
X130648466Y-123750557D01*
X130804991Y-123834222D01*
X130840729Y-123863552D01*
X130942186Y-123946814D01*
X131025448Y-124048271D01*
X131054778Y-124084009D01*
X131138443Y-124240534D01*
X131189963Y-124410373D01*
X131207359Y-124587000D01*
X131189963Y-124763627D01*
X131138443Y-124933466D01*
X131054778Y-125089991D01*
X131025448Y-125125729D01*
X130942186Y-125227186D01*
X130840729Y-125310448D01*
X130804991Y-125339778D01*
X130648466Y-125423443D01*
X130478627Y-125474963D01*
X130412442Y-125481482D01*
X130346260Y-125488000D01*
X130257740Y-125488000D01*
X130191558Y-125481482D01*
X130125373Y-125474963D01*
X129955534Y-125423443D01*
X129799009Y-125339778D01*
X129763271Y-125310448D01*
X129661814Y-125227186D01*
X129578552Y-125125729D01*
X129549222Y-125089991D01*
X129465557Y-124933466D01*
X129414037Y-124763627D01*
X129396641Y-124587000D01*
X129414037Y-124410373D01*
X129465557Y-124240534D01*
X129549222Y-124084009D01*
X129578552Y-124048271D01*
X129661814Y-123946814D01*
X129763271Y-123863552D01*
X129799009Y-123834222D01*
X129955534Y-123750557D01*
X130125373Y-123699037D01*
X130191557Y-123692519D01*
X130257740Y-123686000D01*
X130346260Y-123686000D01*
X130412443Y-123692519D01*
X130412443Y-123692519D01*
G37*
G36*
X176132443Y-123692519D02*
G01*
X176198627Y-123699037D01*
X176368466Y-123750557D01*
X176524991Y-123834222D01*
X176560729Y-123863552D01*
X176662186Y-123946814D01*
X176745448Y-124048271D01*
X176774778Y-124084009D01*
X176858443Y-124240534D01*
X176909963Y-124410373D01*
X176927359Y-124587000D01*
X176909963Y-124763627D01*
X176858443Y-124933466D01*
X176774778Y-125089991D01*
X176745448Y-125125729D01*
X176662186Y-125227186D01*
X176560729Y-125310448D01*
X176524991Y-125339778D01*
X176368466Y-125423443D01*
X176198627Y-125474963D01*
X176132442Y-125481482D01*
X176066260Y-125488000D01*
X175977740Y-125488000D01*
X175911558Y-125481482D01*
X175845373Y-125474963D01*
X175675534Y-125423443D01*
X175519009Y-125339778D01*
X175483271Y-125310448D01*
X175381814Y-125227186D01*
X175298552Y-125125729D01*
X175269222Y-125089991D01*
X175185557Y-124933466D01*
X175134037Y-124763627D01*
X175116641Y-124587000D01*
X175134037Y-124410373D01*
X175185557Y-124240534D01*
X175269222Y-124084009D01*
X175298552Y-124048271D01*
X175381814Y-123946814D01*
X175483271Y-123863552D01*
X175519009Y-123834222D01*
X175675534Y-123750557D01*
X175845373Y-123699037D01*
X175911557Y-123692519D01*
X175977740Y-123686000D01*
X176066260Y-123686000D01*
X176132443Y-123692519D01*
X176132443Y-123692519D01*
G37*
G36*
X127872443Y-123692519D02*
G01*
X127938627Y-123699037D01*
X128108466Y-123750557D01*
X128264991Y-123834222D01*
X128300729Y-123863552D01*
X128402186Y-123946814D01*
X128485448Y-124048271D01*
X128514778Y-124084009D01*
X128598443Y-124240534D01*
X128649963Y-124410373D01*
X128667359Y-124587000D01*
X128649963Y-124763627D01*
X128598443Y-124933466D01*
X128514778Y-125089991D01*
X128485448Y-125125729D01*
X128402186Y-125227186D01*
X128300729Y-125310448D01*
X128264991Y-125339778D01*
X128108466Y-125423443D01*
X127938627Y-125474963D01*
X127872442Y-125481482D01*
X127806260Y-125488000D01*
X127717740Y-125488000D01*
X127651558Y-125481482D01*
X127585373Y-125474963D01*
X127415534Y-125423443D01*
X127259009Y-125339778D01*
X127223271Y-125310448D01*
X127121814Y-125227186D01*
X127038552Y-125125729D01*
X127009222Y-125089991D01*
X126925557Y-124933466D01*
X126874037Y-124763627D01*
X126856641Y-124587000D01*
X126874037Y-124410373D01*
X126925557Y-124240534D01*
X127009222Y-124084009D01*
X127038552Y-124048271D01*
X127121814Y-123946814D01*
X127223271Y-123863552D01*
X127259009Y-123834222D01*
X127415534Y-123750557D01*
X127585373Y-123699037D01*
X127651557Y-123692519D01*
X127717740Y-123686000D01*
X127806260Y-123686000D01*
X127872443Y-123692519D01*
X127872443Y-123692519D01*
G37*
G36*
X173592443Y-123692519D02*
G01*
X173658627Y-123699037D01*
X173828466Y-123750557D01*
X173984991Y-123834222D01*
X174020729Y-123863552D01*
X174122186Y-123946814D01*
X174205448Y-124048271D01*
X174234778Y-124084009D01*
X174318443Y-124240534D01*
X174369963Y-124410373D01*
X174387359Y-124587000D01*
X174369963Y-124763627D01*
X174318443Y-124933466D01*
X174234778Y-125089991D01*
X174205448Y-125125729D01*
X174122186Y-125227186D01*
X174020729Y-125310448D01*
X173984991Y-125339778D01*
X173828466Y-125423443D01*
X173658627Y-125474963D01*
X173592442Y-125481482D01*
X173526260Y-125488000D01*
X173437740Y-125488000D01*
X173371558Y-125481482D01*
X173305373Y-125474963D01*
X173135534Y-125423443D01*
X172979009Y-125339778D01*
X172943271Y-125310448D01*
X172841814Y-125227186D01*
X172758552Y-125125729D01*
X172729222Y-125089991D01*
X172645557Y-124933466D01*
X172594037Y-124763627D01*
X172576641Y-124587000D01*
X172594037Y-124410373D01*
X172645557Y-124240534D01*
X172729222Y-124084009D01*
X172758552Y-124048271D01*
X172841814Y-123946814D01*
X172943271Y-123863552D01*
X172979009Y-123834222D01*
X173135534Y-123750557D01*
X173305373Y-123699037D01*
X173371557Y-123692519D01*
X173437740Y-123686000D01*
X173526260Y-123686000D01*
X173592443Y-123692519D01*
X173592443Y-123692519D01*
G37*
G36*
X171052443Y-121152519D02*
G01*
X171118627Y-121159037D01*
X171288466Y-121210557D01*
X171444991Y-121294222D01*
X171480729Y-121323552D01*
X171582186Y-121406814D01*
X171665448Y-121508271D01*
X171694778Y-121544009D01*
X171778443Y-121700534D01*
X171829963Y-121870373D01*
X171847359Y-122047000D01*
X171829963Y-122223627D01*
X171778443Y-122393466D01*
X171694778Y-122549991D01*
X171665448Y-122585729D01*
X171582186Y-122687186D01*
X171480729Y-122770448D01*
X171444991Y-122799778D01*
X171288466Y-122883443D01*
X171118627Y-122934963D01*
X171052442Y-122941482D01*
X170986260Y-122948000D01*
X170897740Y-122948000D01*
X170831558Y-122941482D01*
X170765373Y-122934963D01*
X170595534Y-122883443D01*
X170439009Y-122799778D01*
X170403271Y-122770448D01*
X170301814Y-122687186D01*
X170218552Y-122585729D01*
X170189222Y-122549991D01*
X170105557Y-122393466D01*
X170054037Y-122223627D01*
X170036641Y-122047000D01*
X170054037Y-121870373D01*
X170105557Y-121700534D01*
X170189222Y-121544009D01*
X170218552Y-121508271D01*
X170301814Y-121406814D01*
X170403271Y-121323552D01*
X170439009Y-121294222D01*
X170595534Y-121210557D01*
X170765373Y-121159037D01*
X170831557Y-121152519D01*
X170897740Y-121146000D01*
X170986260Y-121146000D01*
X171052443Y-121152519D01*
X171052443Y-121152519D01*
G37*
G36*
X168512443Y-121152519D02*
G01*
X168578627Y-121159037D01*
X168748466Y-121210557D01*
X168904991Y-121294222D01*
X168940729Y-121323552D01*
X169042186Y-121406814D01*
X169125448Y-121508271D01*
X169154778Y-121544009D01*
X169238443Y-121700534D01*
X169289963Y-121870373D01*
X169307359Y-122047000D01*
X169289963Y-122223627D01*
X169238443Y-122393466D01*
X169154778Y-122549991D01*
X169125448Y-122585729D01*
X169042186Y-122687186D01*
X168940729Y-122770448D01*
X168904991Y-122799778D01*
X168748466Y-122883443D01*
X168578627Y-122934963D01*
X168512442Y-122941482D01*
X168446260Y-122948000D01*
X168357740Y-122948000D01*
X168291558Y-122941482D01*
X168225373Y-122934963D01*
X168055534Y-122883443D01*
X167899009Y-122799778D01*
X167863271Y-122770448D01*
X167761814Y-122687186D01*
X167678552Y-122585729D01*
X167649222Y-122549991D01*
X167565557Y-122393466D01*
X167514037Y-122223627D01*
X167496641Y-122047000D01*
X167514037Y-121870373D01*
X167565557Y-121700534D01*
X167649222Y-121544009D01*
X167678552Y-121508271D01*
X167761814Y-121406814D01*
X167863271Y-121323552D01*
X167899009Y-121294222D01*
X168055534Y-121210557D01*
X168225373Y-121159037D01*
X168291557Y-121152519D01*
X168357740Y-121146000D01*
X168446260Y-121146000D01*
X168512443Y-121152519D01*
X168512443Y-121152519D01*
G37*
G36*
X130412443Y-121152519D02*
G01*
X130478627Y-121159037D01*
X130648466Y-121210557D01*
X130804991Y-121294222D01*
X130840729Y-121323552D01*
X130942186Y-121406814D01*
X131025448Y-121508271D01*
X131054778Y-121544009D01*
X131138443Y-121700534D01*
X131189963Y-121870373D01*
X131207359Y-122047000D01*
X131189963Y-122223627D01*
X131138443Y-122393466D01*
X131054778Y-122549991D01*
X131025448Y-122585729D01*
X130942186Y-122687186D01*
X130840729Y-122770448D01*
X130804991Y-122799778D01*
X130648466Y-122883443D01*
X130478627Y-122934963D01*
X130412442Y-122941482D01*
X130346260Y-122948000D01*
X130257740Y-122948000D01*
X130191558Y-122941482D01*
X130125373Y-122934963D01*
X129955534Y-122883443D01*
X129799009Y-122799778D01*
X129763271Y-122770448D01*
X129661814Y-122687186D01*
X129578552Y-122585729D01*
X129549222Y-122549991D01*
X129465557Y-122393466D01*
X129414037Y-122223627D01*
X129396641Y-122047000D01*
X129414037Y-121870373D01*
X129465557Y-121700534D01*
X129549222Y-121544009D01*
X129578552Y-121508271D01*
X129661814Y-121406814D01*
X129763271Y-121323552D01*
X129799009Y-121294222D01*
X129955534Y-121210557D01*
X130125373Y-121159037D01*
X130191557Y-121152519D01*
X130257740Y-121146000D01*
X130346260Y-121146000D01*
X130412443Y-121152519D01*
X130412443Y-121152519D01*
G37*
G36*
X128663000Y-122948000D02*
G01*
X126861000Y-122948000D01*
X126861000Y-121146000D01*
X128663000Y-121146000D01*
X128663000Y-122948000D01*
X128663000Y-122948000D01*
G37*
G36*
X176132443Y-121152519D02*
G01*
X176198627Y-121159037D01*
X176368466Y-121210557D01*
X176524991Y-121294222D01*
X176560729Y-121323552D01*
X176662186Y-121406814D01*
X176745448Y-121508271D01*
X176774778Y-121544009D01*
X176858443Y-121700534D01*
X176909963Y-121870373D01*
X176927359Y-122047000D01*
X176909963Y-122223627D01*
X176858443Y-122393466D01*
X176774778Y-122549991D01*
X176745448Y-122585729D01*
X176662186Y-122687186D01*
X176560729Y-122770448D01*
X176524991Y-122799778D01*
X176368466Y-122883443D01*
X176198627Y-122934963D01*
X176132442Y-122941482D01*
X176066260Y-122948000D01*
X175977740Y-122948000D01*
X175911558Y-122941482D01*
X175845373Y-122934963D01*
X175675534Y-122883443D01*
X175519009Y-122799778D01*
X175483271Y-122770448D01*
X175381814Y-122687186D01*
X175298552Y-122585729D01*
X175269222Y-122549991D01*
X175185557Y-122393466D01*
X175134037Y-122223627D01*
X175116641Y-122047000D01*
X175134037Y-121870373D01*
X175185557Y-121700534D01*
X175269222Y-121544009D01*
X175298552Y-121508271D01*
X175381814Y-121406814D01*
X175483271Y-121323552D01*
X175519009Y-121294222D01*
X175675534Y-121210557D01*
X175845373Y-121159037D01*
X175911557Y-121152519D01*
X175977740Y-121146000D01*
X176066260Y-121146000D01*
X176132443Y-121152519D01*
X176132443Y-121152519D01*
G37*
G36*
X173592443Y-121152519D02*
G01*
X173658627Y-121159037D01*
X173828466Y-121210557D01*
X173984991Y-121294222D01*
X174020729Y-121323552D01*
X174122186Y-121406814D01*
X174205448Y-121508271D01*
X174234778Y-121544009D01*
X174318443Y-121700534D01*
X174369963Y-121870373D01*
X174387359Y-122047000D01*
X174369963Y-122223627D01*
X174318443Y-122393466D01*
X174234778Y-122549991D01*
X174205448Y-122585729D01*
X174122186Y-122687186D01*
X174020729Y-122770448D01*
X173984991Y-122799778D01*
X173828466Y-122883443D01*
X173658627Y-122934963D01*
X173592442Y-122941482D01*
X173526260Y-122948000D01*
X173437740Y-122948000D01*
X173371558Y-122941482D01*
X173305373Y-122934963D01*
X173135534Y-122883443D01*
X172979009Y-122799778D01*
X172943271Y-122770448D01*
X172841814Y-122687186D01*
X172758552Y-122585729D01*
X172729222Y-122549991D01*
X172645557Y-122393466D01*
X172594037Y-122223627D01*
X172576641Y-122047000D01*
X172594037Y-121870373D01*
X172645557Y-121700534D01*
X172729222Y-121544009D01*
X172758552Y-121508271D01*
X172841814Y-121406814D01*
X172943271Y-121323552D01*
X172979009Y-121294222D01*
X173135534Y-121210557D01*
X173305373Y-121159037D01*
X173371557Y-121152519D01*
X173437740Y-121146000D01*
X173526260Y-121146000D01*
X173592443Y-121152519D01*
X173592443Y-121152519D01*
G37*
G36*
X165972443Y-121152519D02*
G01*
X166038627Y-121159037D01*
X166208466Y-121210557D01*
X166364991Y-121294222D01*
X166400729Y-121323552D01*
X166502186Y-121406814D01*
X166585448Y-121508271D01*
X166614778Y-121544009D01*
X166698443Y-121700534D01*
X166749963Y-121870373D01*
X166767359Y-122047000D01*
X166749963Y-122223627D01*
X166698443Y-122393466D01*
X166614778Y-122549991D01*
X166585448Y-122585729D01*
X166502186Y-122687186D01*
X166400729Y-122770448D01*
X166364991Y-122799778D01*
X166208466Y-122883443D01*
X166038627Y-122934963D01*
X165972442Y-122941482D01*
X165906260Y-122948000D01*
X165817740Y-122948000D01*
X165751558Y-122941482D01*
X165685373Y-122934963D01*
X165515534Y-122883443D01*
X165359009Y-122799778D01*
X165323271Y-122770448D01*
X165221814Y-122687186D01*
X165138552Y-122585729D01*
X165109222Y-122549991D01*
X165025557Y-122393466D01*
X164974037Y-122223627D01*
X164956641Y-122047000D01*
X164974037Y-121870373D01*
X165025557Y-121700534D01*
X165109222Y-121544009D01*
X165138552Y-121508271D01*
X165221814Y-121406814D01*
X165323271Y-121323552D01*
X165359009Y-121294222D01*
X165515534Y-121210557D01*
X165685373Y-121159037D01*
X165751557Y-121152519D01*
X165817740Y-121146000D01*
X165906260Y-121146000D01*
X165972443Y-121152519D01*
X165972443Y-121152519D01*
G37*
G36*
X132952443Y-121152519D02*
G01*
X133018627Y-121159037D01*
X133188466Y-121210557D01*
X133344991Y-121294222D01*
X133380729Y-121323552D01*
X133482186Y-121406814D01*
X133565448Y-121508271D01*
X133594778Y-121544009D01*
X133678443Y-121700534D01*
X133729963Y-121870373D01*
X133747359Y-122047000D01*
X133729963Y-122223627D01*
X133678443Y-122393466D01*
X133594778Y-122549991D01*
X133565448Y-122585729D01*
X133482186Y-122687186D01*
X133380729Y-122770448D01*
X133344991Y-122799778D01*
X133188466Y-122883443D01*
X133018627Y-122934963D01*
X132952442Y-122941482D01*
X132886260Y-122948000D01*
X132797740Y-122948000D01*
X132731558Y-122941482D01*
X132665373Y-122934963D01*
X132495534Y-122883443D01*
X132339009Y-122799778D01*
X132303271Y-122770448D01*
X132201814Y-122687186D01*
X132118552Y-122585729D01*
X132089222Y-122549991D01*
X132005557Y-122393466D01*
X131954037Y-122223627D01*
X131936641Y-122047000D01*
X131954037Y-121870373D01*
X132005557Y-121700534D01*
X132089222Y-121544009D01*
X132118552Y-121508271D01*
X132201814Y-121406814D01*
X132303271Y-121323552D01*
X132339009Y-121294222D01*
X132495534Y-121210557D01*
X132665373Y-121159037D01*
X132731557Y-121152519D01*
X132797740Y-121146000D01*
X132886260Y-121146000D01*
X132952443Y-121152519D01*
X132952443Y-121152519D01*
G37*
G36*
X163432443Y-121152519D02*
G01*
X163498627Y-121159037D01*
X163668466Y-121210557D01*
X163824991Y-121294222D01*
X163860729Y-121323552D01*
X163962186Y-121406814D01*
X164045448Y-121508271D01*
X164074778Y-121544009D01*
X164158443Y-121700534D01*
X164209963Y-121870373D01*
X164227359Y-122047000D01*
X164209963Y-122223627D01*
X164158443Y-122393466D01*
X164074778Y-122549991D01*
X164045448Y-122585729D01*
X163962186Y-122687186D01*
X163860729Y-122770448D01*
X163824991Y-122799778D01*
X163668466Y-122883443D01*
X163498627Y-122934963D01*
X163432442Y-122941482D01*
X163366260Y-122948000D01*
X163277740Y-122948000D01*
X163211558Y-122941482D01*
X163145373Y-122934963D01*
X162975534Y-122883443D01*
X162819009Y-122799778D01*
X162783271Y-122770448D01*
X162681814Y-122687186D01*
X162598552Y-122585729D01*
X162569222Y-122549991D01*
X162485557Y-122393466D01*
X162434037Y-122223627D01*
X162416641Y-122047000D01*
X162434037Y-121870373D01*
X162485557Y-121700534D01*
X162569222Y-121544009D01*
X162598552Y-121508271D01*
X162681814Y-121406814D01*
X162783271Y-121323552D01*
X162819009Y-121294222D01*
X162975534Y-121210557D01*
X163145373Y-121159037D01*
X163211557Y-121152519D01*
X163277740Y-121146000D01*
X163366260Y-121146000D01*
X163432443Y-121152519D01*
X163432443Y-121152519D01*
G37*
G36*
X135492443Y-121152519D02*
G01*
X135558627Y-121159037D01*
X135728466Y-121210557D01*
X135884991Y-121294222D01*
X135920729Y-121323552D01*
X136022186Y-121406814D01*
X136105448Y-121508271D01*
X136134778Y-121544009D01*
X136218443Y-121700534D01*
X136269963Y-121870373D01*
X136287359Y-122047000D01*
X136269963Y-122223627D01*
X136218443Y-122393466D01*
X136134778Y-122549991D01*
X136105448Y-122585729D01*
X136022186Y-122687186D01*
X135920729Y-122770448D01*
X135884991Y-122799778D01*
X135728466Y-122883443D01*
X135558627Y-122934963D01*
X135492442Y-122941482D01*
X135426260Y-122948000D01*
X135337740Y-122948000D01*
X135271558Y-122941482D01*
X135205373Y-122934963D01*
X135035534Y-122883443D01*
X134879009Y-122799778D01*
X134843271Y-122770448D01*
X134741814Y-122687186D01*
X134658552Y-122585729D01*
X134629222Y-122549991D01*
X134545557Y-122393466D01*
X134494037Y-122223627D01*
X134476641Y-122047000D01*
X134494037Y-121870373D01*
X134545557Y-121700534D01*
X134629222Y-121544009D01*
X134658552Y-121508271D01*
X134741814Y-121406814D01*
X134843271Y-121323552D01*
X134879009Y-121294222D01*
X135035534Y-121210557D01*
X135205373Y-121159037D01*
X135271557Y-121152519D01*
X135337740Y-121146000D01*
X135426260Y-121146000D01*
X135492443Y-121152519D01*
X135492443Y-121152519D01*
G37*
G36*
X138032443Y-121152519D02*
G01*
X138098627Y-121159037D01*
X138268466Y-121210557D01*
X138424991Y-121294222D01*
X138460729Y-121323552D01*
X138562186Y-121406814D01*
X138645448Y-121508271D01*
X138674778Y-121544009D01*
X138758443Y-121700534D01*
X138809963Y-121870373D01*
X138827359Y-122047000D01*
X138809963Y-122223627D01*
X138758443Y-122393466D01*
X138674778Y-122549991D01*
X138645448Y-122585729D01*
X138562186Y-122687186D01*
X138460729Y-122770448D01*
X138424991Y-122799778D01*
X138268466Y-122883443D01*
X138098627Y-122934963D01*
X138032442Y-122941482D01*
X137966260Y-122948000D01*
X137877740Y-122948000D01*
X137811558Y-122941482D01*
X137745373Y-122934963D01*
X137575534Y-122883443D01*
X137419009Y-122799778D01*
X137383271Y-122770448D01*
X137281814Y-122687186D01*
X137198552Y-122585729D01*
X137169222Y-122549991D01*
X137085557Y-122393466D01*
X137034037Y-122223627D01*
X137016641Y-122047000D01*
X137034037Y-121870373D01*
X137085557Y-121700534D01*
X137169222Y-121544009D01*
X137198552Y-121508271D01*
X137281814Y-121406814D01*
X137383271Y-121323552D01*
X137419009Y-121294222D01*
X137575534Y-121210557D01*
X137745373Y-121159037D01*
X137811557Y-121152519D01*
X137877740Y-121146000D01*
X137966260Y-121146000D01*
X138032443Y-121152519D01*
X138032443Y-121152519D01*
G37*
G36*
X160892443Y-121152519D02*
G01*
X160958627Y-121159037D01*
X161128466Y-121210557D01*
X161284991Y-121294222D01*
X161320729Y-121323552D01*
X161422186Y-121406814D01*
X161505448Y-121508271D01*
X161534778Y-121544009D01*
X161618443Y-121700534D01*
X161669963Y-121870373D01*
X161687359Y-122047000D01*
X161669963Y-122223627D01*
X161618443Y-122393466D01*
X161534778Y-122549991D01*
X161505448Y-122585729D01*
X161422186Y-122687186D01*
X161320729Y-122770448D01*
X161284991Y-122799778D01*
X161128466Y-122883443D01*
X160958627Y-122934963D01*
X160892442Y-122941482D01*
X160826260Y-122948000D01*
X160737740Y-122948000D01*
X160671558Y-122941482D01*
X160605373Y-122934963D01*
X160435534Y-122883443D01*
X160279009Y-122799778D01*
X160243271Y-122770448D01*
X160141814Y-122687186D01*
X160058552Y-122585729D01*
X160029222Y-122549991D01*
X159945557Y-122393466D01*
X159894037Y-122223627D01*
X159876641Y-122047000D01*
X159894037Y-121870373D01*
X159945557Y-121700534D01*
X160029222Y-121544009D01*
X160058552Y-121508271D01*
X160141814Y-121406814D01*
X160243271Y-121323552D01*
X160279009Y-121294222D01*
X160435534Y-121210557D01*
X160605373Y-121159037D01*
X160671557Y-121152519D01*
X160737740Y-121146000D01*
X160826260Y-121146000D01*
X160892443Y-121152519D01*
X160892443Y-121152519D01*
G37*
G36*
X155812443Y-121152519D02*
G01*
X155878627Y-121159037D01*
X156048466Y-121210557D01*
X156204991Y-121294222D01*
X156240729Y-121323552D01*
X156342186Y-121406814D01*
X156425448Y-121508271D01*
X156454778Y-121544009D01*
X156538443Y-121700534D01*
X156589963Y-121870373D01*
X156607359Y-122047000D01*
X156589963Y-122223627D01*
X156538443Y-122393466D01*
X156454778Y-122549991D01*
X156425448Y-122585729D01*
X156342186Y-122687186D01*
X156240729Y-122770448D01*
X156204991Y-122799778D01*
X156048466Y-122883443D01*
X155878627Y-122934963D01*
X155812442Y-122941482D01*
X155746260Y-122948000D01*
X155657740Y-122948000D01*
X155591558Y-122941482D01*
X155525373Y-122934963D01*
X155355534Y-122883443D01*
X155199009Y-122799778D01*
X155163271Y-122770448D01*
X155061814Y-122687186D01*
X154978552Y-122585729D01*
X154949222Y-122549991D01*
X154865557Y-122393466D01*
X154814037Y-122223627D01*
X154796641Y-122047000D01*
X154814037Y-121870373D01*
X154865557Y-121700534D01*
X154949222Y-121544009D01*
X154978552Y-121508271D01*
X155061814Y-121406814D01*
X155163271Y-121323552D01*
X155199009Y-121294222D01*
X155355534Y-121210557D01*
X155525373Y-121159037D01*
X155591557Y-121152519D01*
X155657740Y-121146000D01*
X155746260Y-121146000D01*
X155812443Y-121152519D01*
X155812443Y-121152519D01*
G37*
G36*
X153272443Y-121152519D02*
G01*
X153338627Y-121159037D01*
X153508466Y-121210557D01*
X153664991Y-121294222D01*
X153700729Y-121323552D01*
X153802186Y-121406814D01*
X153885448Y-121508271D01*
X153914778Y-121544009D01*
X153998443Y-121700534D01*
X154049963Y-121870373D01*
X154067359Y-122047000D01*
X154049963Y-122223627D01*
X153998443Y-122393466D01*
X153914778Y-122549991D01*
X153885448Y-122585729D01*
X153802186Y-122687186D01*
X153700729Y-122770448D01*
X153664991Y-122799778D01*
X153508466Y-122883443D01*
X153338627Y-122934963D01*
X153272442Y-122941482D01*
X153206260Y-122948000D01*
X153117740Y-122948000D01*
X153051558Y-122941482D01*
X152985373Y-122934963D01*
X152815534Y-122883443D01*
X152659009Y-122799778D01*
X152623271Y-122770448D01*
X152521814Y-122687186D01*
X152438552Y-122585729D01*
X152409222Y-122549991D01*
X152325557Y-122393466D01*
X152274037Y-122223627D01*
X152256641Y-122047000D01*
X152274037Y-121870373D01*
X152325557Y-121700534D01*
X152409222Y-121544009D01*
X152438552Y-121508271D01*
X152521814Y-121406814D01*
X152623271Y-121323552D01*
X152659009Y-121294222D01*
X152815534Y-121210557D01*
X152985373Y-121159037D01*
X153051557Y-121152519D01*
X153117740Y-121146000D01*
X153206260Y-121146000D01*
X153272443Y-121152519D01*
X153272443Y-121152519D01*
G37*
G36*
X145652443Y-121152519D02*
G01*
X145718627Y-121159037D01*
X145888466Y-121210557D01*
X146044991Y-121294222D01*
X146080729Y-121323552D01*
X146182186Y-121406814D01*
X146265448Y-121508271D01*
X146294778Y-121544009D01*
X146378443Y-121700534D01*
X146429963Y-121870373D01*
X146447359Y-122047000D01*
X146429963Y-122223627D01*
X146378443Y-122393466D01*
X146294778Y-122549991D01*
X146265448Y-122585729D01*
X146182186Y-122687186D01*
X146080729Y-122770448D01*
X146044991Y-122799778D01*
X145888466Y-122883443D01*
X145718627Y-122934963D01*
X145652442Y-122941482D01*
X145586260Y-122948000D01*
X145497740Y-122948000D01*
X145431558Y-122941482D01*
X145365373Y-122934963D01*
X145195534Y-122883443D01*
X145039009Y-122799778D01*
X145003271Y-122770448D01*
X144901814Y-122687186D01*
X144818552Y-122585729D01*
X144789222Y-122549991D01*
X144705557Y-122393466D01*
X144654037Y-122223627D01*
X144636641Y-122047000D01*
X144654037Y-121870373D01*
X144705557Y-121700534D01*
X144789222Y-121544009D01*
X144818552Y-121508271D01*
X144901814Y-121406814D01*
X145003271Y-121323552D01*
X145039009Y-121294222D01*
X145195534Y-121210557D01*
X145365373Y-121159037D01*
X145431557Y-121152519D01*
X145497740Y-121146000D01*
X145586260Y-121146000D01*
X145652443Y-121152519D01*
X145652443Y-121152519D01*
G37*
G36*
X150732443Y-121152519D02*
G01*
X150798627Y-121159037D01*
X150968466Y-121210557D01*
X151124991Y-121294222D01*
X151160729Y-121323552D01*
X151262186Y-121406814D01*
X151345448Y-121508271D01*
X151374778Y-121544009D01*
X151458443Y-121700534D01*
X151509963Y-121870373D01*
X151527359Y-122047000D01*
X151509963Y-122223627D01*
X151458443Y-122393466D01*
X151374778Y-122549991D01*
X151345448Y-122585729D01*
X151262186Y-122687186D01*
X151160729Y-122770448D01*
X151124991Y-122799778D01*
X150968466Y-122883443D01*
X150798627Y-122934963D01*
X150732442Y-122941482D01*
X150666260Y-122948000D01*
X150577740Y-122948000D01*
X150511558Y-122941482D01*
X150445373Y-122934963D01*
X150275534Y-122883443D01*
X150119009Y-122799778D01*
X150083271Y-122770448D01*
X149981814Y-122687186D01*
X149898552Y-122585729D01*
X149869222Y-122549991D01*
X149785557Y-122393466D01*
X149734037Y-122223627D01*
X149716641Y-122047000D01*
X149734037Y-121870373D01*
X149785557Y-121700534D01*
X149869222Y-121544009D01*
X149898552Y-121508271D01*
X149981814Y-121406814D01*
X150083271Y-121323552D01*
X150119009Y-121294222D01*
X150275534Y-121210557D01*
X150445373Y-121159037D01*
X150511557Y-121152519D01*
X150577740Y-121146000D01*
X150666260Y-121146000D01*
X150732443Y-121152519D01*
X150732443Y-121152519D01*
G37*
G36*
X148192443Y-121152519D02*
G01*
X148258627Y-121159037D01*
X148428466Y-121210557D01*
X148584991Y-121294222D01*
X148620729Y-121323552D01*
X148722186Y-121406814D01*
X148805448Y-121508271D01*
X148834778Y-121544009D01*
X148918443Y-121700534D01*
X148969963Y-121870373D01*
X148987359Y-122047000D01*
X148969963Y-122223627D01*
X148918443Y-122393466D01*
X148834778Y-122549991D01*
X148805448Y-122585729D01*
X148722186Y-122687186D01*
X148620729Y-122770448D01*
X148584991Y-122799778D01*
X148428466Y-122883443D01*
X148258627Y-122934963D01*
X148192442Y-122941482D01*
X148126260Y-122948000D01*
X148037740Y-122948000D01*
X147971558Y-122941482D01*
X147905373Y-122934963D01*
X147735534Y-122883443D01*
X147579009Y-122799778D01*
X147543271Y-122770448D01*
X147441814Y-122687186D01*
X147358552Y-122585729D01*
X147329222Y-122549991D01*
X147245557Y-122393466D01*
X147194037Y-122223627D01*
X147176641Y-122047000D01*
X147194037Y-121870373D01*
X147245557Y-121700534D01*
X147329222Y-121544009D01*
X147358552Y-121508271D01*
X147441814Y-121406814D01*
X147543271Y-121323552D01*
X147579009Y-121294222D01*
X147735534Y-121210557D01*
X147905373Y-121159037D01*
X147971557Y-121152519D01*
X148037740Y-121146000D01*
X148126260Y-121146000D01*
X148192443Y-121152519D01*
X148192443Y-121152519D01*
G37*
G36*
X143112443Y-121152519D02*
G01*
X143178627Y-121159037D01*
X143348466Y-121210557D01*
X143504991Y-121294222D01*
X143540729Y-121323552D01*
X143642186Y-121406814D01*
X143725448Y-121508271D01*
X143754778Y-121544009D01*
X143838443Y-121700534D01*
X143889963Y-121870373D01*
X143907359Y-122047000D01*
X143889963Y-122223627D01*
X143838443Y-122393466D01*
X143754778Y-122549991D01*
X143725448Y-122585729D01*
X143642186Y-122687186D01*
X143540729Y-122770448D01*
X143504991Y-122799778D01*
X143348466Y-122883443D01*
X143178627Y-122934963D01*
X143112442Y-122941482D01*
X143046260Y-122948000D01*
X142957740Y-122948000D01*
X142891558Y-122941482D01*
X142825373Y-122934963D01*
X142655534Y-122883443D01*
X142499009Y-122799778D01*
X142463271Y-122770448D01*
X142361814Y-122687186D01*
X142278552Y-122585729D01*
X142249222Y-122549991D01*
X142165557Y-122393466D01*
X142114037Y-122223627D01*
X142096641Y-122047000D01*
X142114037Y-121870373D01*
X142165557Y-121700534D01*
X142249222Y-121544009D01*
X142278552Y-121508271D01*
X142361814Y-121406814D01*
X142463271Y-121323552D01*
X142499009Y-121294222D01*
X142655534Y-121210557D01*
X142825373Y-121159037D01*
X142891557Y-121152519D01*
X142957740Y-121146000D01*
X143046260Y-121146000D01*
X143112443Y-121152519D01*
X143112443Y-121152519D01*
G37*
G36*
X140572443Y-121152519D02*
G01*
X140638627Y-121159037D01*
X140808466Y-121210557D01*
X140964991Y-121294222D01*
X141000729Y-121323552D01*
X141102186Y-121406814D01*
X141185448Y-121508271D01*
X141214778Y-121544009D01*
X141298443Y-121700534D01*
X141349963Y-121870373D01*
X141367359Y-122047000D01*
X141349963Y-122223627D01*
X141298443Y-122393466D01*
X141214778Y-122549991D01*
X141185448Y-122585729D01*
X141102186Y-122687186D01*
X141000729Y-122770448D01*
X140964991Y-122799778D01*
X140808466Y-122883443D01*
X140638627Y-122934963D01*
X140572442Y-122941482D01*
X140506260Y-122948000D01*
X140417740Y-122948000D01*
X140351558Y-122941482D01*
X140285373Y-122934963D01*
X140115534Y-122883443D01*
X139959009Y-122799778D01*
X139923271Y-122770448D01*
X139821814Y-122687186D01*
X139738552Y-122585729D01*
X139709222Y-122549991D01*
X139625557Y-122393466D01*
X139574037Y-122223627D01*
X139556641Y-122047000D01*
X139574037Y-121870373D01*
X139625557Y-121700534D01*
X139709222Y-121544009D01*
X139738552Y-121508271D01*
X139821814Y-121406814D01*
X139923271Y-121323552D01*
X139959009Y-121294222D01*
X140115534Y-121210557D01*
X140285373Y-121159037D01*
X140351557Y-121152519D01*
X140417740Y-121146000D01*
X140506260Y-121146000D01*
X140572443Y-121152519D01*
X140572443Y-121152519D01*
G37*
G36*
X158352443Y-121152519D02*
G01*
X158418627Y-121159037D01*
X158588466Y-121210557D01*
X158744991Y-121294222D01*
X158780729Y-121323552D01*
X158882186Y-121406814D01*
X158965448Y-121508271D01*
X158994778Y-121544009D01*
X159078443Y-121700534D01*
X159129963Y-121870373D01*
X159147359Y-122047000D01*
X159129963Y-122223627D01*
X159078443Y-122393466D01*
X158994778Y-122549991D01*
X158965448Y-122585729D01*
X158882186Y-122687186D01*
X158780729Y-122770448D01*
X158744991Y-122799778D01*
X158588466Y-122883443D01*
X158418627Y-122934963D01*
X158352442Y-122941482D01*
X158286260Y-122948000D01*
X158197740Y-122948000D01*
X158131558Y-122941482D01*
X158065373Y-122934963D01*
X157895534Y-122883443D01*
X157739009Y-122799778D01*
X157703271Y-122770448D01*
X157601814Y-122687186D01*
X157518552Y-122585729D01*
X157489222Y-122549991D01*
X157405557Y-122393466D01*
X157354037Y-122223627D01*
X157336641Y-122047000D01*
X157354037Y-121870373D01*
X157405557Y-121700534D01*
X157489222Y-121544009D01*
X157518552Y-121508271D01*
X157601814Y-121406814D01*
X157703271Y-121323552D01*
X157739009Y-121294222D01*
X157895534Y-121210557D01*
X158065373Y-121159037D01*
X158131557Y-121152519D01*
X158197740Y-121146000D01*
X158286260Y-121146000D01*
X158352443Y-121152519D01*
X158352443Y-121152519D01*
G37*
G36*
X126224691Y-119010485D02*
G01*
X126258669Y-119020793D01*
X126289990Y-119037534D01*
X126317439Y-119060061D01*
X126339966Y-119087510D01*
X126356707Y-119118831D01*
X126367015Y-119152809D01*
X126371100Y-119194290D01*
X126371100Y-119870510D01*
X126367015Y-119911991D01*
X126356707Y-119945969D01*
X126339966Y-119977290D01*
X126317439Y-120004739D01*
X126289990Y-120027266D01*
X126258669Y-120044007D01*
X126224691Y-120054315D01*
X126183210Y-120058400D01*
X125581990Y-120058400D01*
X125540509Y-120054315D01*
X125506531Y-120044007D01*
X125475210Y-120027266D01*
X125447761Y-120004739D01*
X125425234Y-119977290D01*
X125408493Y-119945969D01*
X125398185Y-119911991D01*
X125394100Y-119870510D01*
X125394100Y-119194290D01*
X125398185Y-119152809D01*
X125408493Y-119118831D01*
X125425234Y-119087510D01*
X125447761Y-119060061D01*
X125475210Y-119037534D01*
X125506531Y-119020793D01*
X125540509Y-119010485D01*
X125581990Y-119006400D01*
X126183210Y-119006400D01*
X126224691Y-119010485D01*
X126224691Y-119010485D01*
G37*
G36*
X124649691Y-119010485D02*
G01*
X124683669Y-119020793D01*
X124714990Y-119037534D01*
X124742439Y-119060061D01*
X124764966Y-119087510D01*
X124781707Y-119118831D01*
X124792015Y-119152809D01*
X124796100Y-119194290D01*
X124796100Y-119870510D01*
X124792015Y-119911991D01*
X124781707Y-119945969D01*
X124764966Y-119977290D01*
X124742439Y-120004739D01*
X124714990Y-120027266D01*
X124683669Y-120044007D01*
X124649691Y-120054315D01*
X124608210Y-120058400D01*
X124006990Y-120058400D01*
X123965509Y-120054315D01*
X123931531Y-120044007D01*
X123900210Y-120027266D01*
X123872761Y-120004739D01*
X123850234Y-119977290D01*
X123833493Y-119945969D01*
X123823185Y-119911991D01*
X123819100Y-119870510D01*
X123819100Y-119194290D01*
X123823185Y-119152809D01*
X123833493Y-119118831D01*
X123850234Y-119087510D01*
X123872761Y-119060061D01*
X123900210Y-119037534D01*
X123931531Y-119020793D01*
X123965509Y-119010485D01*
X124006990Y-119006400D01*
X124608210Y-119006400D01*
X124649691Y-119010485D01*
X124649691Y-119010485D01*
G37*
G36*
X120520564Y-117108189D02*
G01*
X120711833Y-117187415D01*
X120711835Y-117187416D01*
X120775731Y-117230110D01*
X120883973Y-117302435D01*
X121030365Y-117448827D01*
X121145385Y-117620967D01*
X121224611Y-117812236D01*
X121265000Y-118015284D01*
X121265000Y-118222316D01*
X121224611Y-118425364D01*
X121145385Y-118616633D01*
X121145384Y-118616635D01*
X121030365Y-118788773D01*
X120883973Y-118935165D01*
X120711835Y-119050184D01*
X120711834Y-119050185D01*
X120711833Y-119050185D01*
X120520564Y-119129411D01*
X120317516Y-119169800D01*
X120110484Y-119169800D01*
X119907435Y-119129411D01*
X119767953Y-119071636D01*
X119744504Y-119064523D01*
X119720118Y-119062121D01*
X119695731Y-119064523D01*
X119672283Y-119071636D01*
X119650672Y-119083187D01*
X119631730Y-119098733D01*
X119616185Y-119117675D01*
X119604634Y-119139285D01*
X119597521Y-119162734D01*
X119595119Y-119187120D01*
X119597521Y-119211506D01*
X119615000Y-119299379D01*
X119615000Y-119388221D01*
X119597669Y-119475352D01*
X119563672Y-119557427D01*
X119563671Y-119557429D01*
X119514314Y-119631296D01*
X119451496Y-119694114D01*
X119377629Y-119743471D01*
X119377628Y-119743472D01*
X119377627Y-119743472D01*
X119295552Y-119777469D01*
X119208421Y-119794800D01*
X119119579Y-119794800D01*
X119032448Y-119777469D01*
X118950373Y-119743472D01*
X118950372Y-119743472D01*
X118950371Y-119743471D01*
X118876504Y-119694114D01*
X118813686Y-119631296D01*
X118764329Y-119557429D01*
X118764328Y-119557427D01*
X118730331Y-119475352D01*
X118713000Y-119388221D01*
X118713000Y-119299379D01*
X118730331Y-119212248D01*
X118764328Y-119130173D01*
X118764838Y-119129410D01*
X118789175Y-119092987D01*
X118813685Y-119056305D01*
X118876505Y-118993485D01*
X118913187Y-118968975D01*
X118950371Y-118944129D01*
X118950373Y-118944128D01*
X119032448Y-118910131D01*
X119119579Y-118892800D01*
X119208420Y-118892800D01*
X119210829Y-118893279D01*
X119235213Y-118895680D01*
X119259599Y-118893278D01*
X119283048Y-118886164D01*
X119304658Y-118874613D01*
X119323600Y-118859067D01*
X119339145Y-118840125D01*
X119350696Y-118818514D01*
X119357809Y-118795065D01*
X119360210Y-118770679D01*
X119357808Y-118746293D01*
X119350694Y-118722844D01*
X119339144Y-118701235D01*
X119282615Y-118616633D01*
X119203389Y-118425364D01*
X119163000Y-118222316D01*
X119163000Y-118015284D01*
X119203389Y-117812236D01*
X119282615Y-117620967D01*
X119397635Y-117448827D01*
X119544027Y-117302435D01*
X119652269Y-117230110D01*
X119716165Y-117187416D01*
X119716167Y-117187415D01*
X119907436Y-117108189D01*
X120110484Y-117067800D01*
X120317516Y-117067800D01*
X120520564Y-117108189D01*
X120520564Y-117108189D01*
G37*
G36*
X116691395Y-117054346D02*
G01*
X116864466Y-117126034D01*
X116864467Y-117126035D01*
X117020227Y-117230110D01*
X117152690Y-117362573D01*
X117152691Y-117362575D01*
X117256766Y-117518334D01*
X117328454Y-117691405D01*
X117365000Y-117875133D01*
X117365000Y-118062467D01*
X117328454Y-118246195D01*
X117256766Y-118419266D01*
X117205081Y-118496618D01*
X117152690Y-118575027D01*
X117020227Y-118707490D01*
X116997248Y-118722844D01*
X116864466Y-118811566D01*
X116691395Y-118883254D01*
X116507667Y-118919800D01*
X116320333Y-118919800D01*
X116136605Y-118883254D01*
X115963534Y-118811566D01*
X115830752Y-118722844D01*
X115807773Y-118707490D01*
X115675310Y-118575027D01*
X115622919Y-118496618D01*
X115571234Y-118419266D01*
X115499546Y-118246195D01*
X115463000Y-118062467D01*
X115463000Y-117875133D01*
X115499546Y-117691405D01*
X115571234Y-117518334D01*
X115675309Y-117362575D01*
X115675310Y-117362573D01*
X115807773Y-117230110D01*
X115963533Y-117126035D01*
X115963534Y-117126034D01*
X116136605Y-117054346D01*
X116320333Y-117017800D01*
X116507667Y-117017800D01*
X116691395Y-117054346D01*
X116691395Y-117054346D01*
G37*
G36*
X126554568Y-116779365D02*
G01*
X126593238Y-116791096D01*
X126628877Y-116810146D01*
X126660117Y-116835783D01*
X126685754Y-116867023D01*
X126704804Y-116902662D01*
X126716535Y-116941332D01*
X126721100Y-116987688D01*
X126721100Y-118063912D01*
X126716535Y-118110268D01*
X126704804Y-118148938D01*
X126685754Y-118184577D01*
X126660117Y-118215817D01*
X126628877Y-118241454D01*
X126593238Y-118260504D01*
X126554568Y-118272235D01*
X126508212Y-118276800D01*
X125856988Y-118276800D01*
X125810632Y-118272235D01*
X125771962Y-118260504D01*
X125736323Y-118241454D01*
X125705083Y-118215817D01*
X125679446Y-118184577D01*
X125660396Y-118148938D01*
X125648665Y-118110268D01*
X125644100Y-118063912D01*
X125644100Y-116987688D01*
X125648665Y-116941332D01*
X125660396Y-116902662D01*
X125679446Y-116867023D01*
X125705083Y-116835783D01*
X125736323Y-116810146D01*
X125771962Y-116791096D01*
X125810632Y-116779365D01*
X125856988Y-116774800D01*
X126508212Y-116774800D01*
X126554568Y-116779365D01*
X126554568Y-116779365D01*
G37*
G36*
X124679568Y-116779365D02*
G01*
X124718238Y-116791096D01*
X124753877Y-116810146D01*
X124785117Y-116835783D01*
X124810754Y-116867023D01*
X124829804Y-116902662D01*
X124841535Y-116941332D01*
X124846100Y-116987688D01*
X124846100Y-118063912D01*
X124841535Y-118110268D01*
X124829804Y-118148938D01*
X124810754Y-118184577D01*
X124785117Y-118215817D01*
X124753877Y-118241454D01*
X124718238Y-118260504D01*
X124679568Y-118272235D01*
X124633212Y-118276800D01*
X123981988Y-118276800D01*
X123935632Y-118272235D01*
X123896962Y-118260504D01*
X123861323Y-118241454D01*
X123830083Y-118215817D01*
X123804446Y-118184577D01*
X123785396Y-118148938D01*
X123773665Y-118110268D01*
X123769100Y-118063912D01*
X123769100Y-116987688D01*
X123773665Y-116941332D01*
X123785396Y-116902662D01*
X123804446Y-116867023D01*
X123830083Y-116835783D01*
X123861323Y-116810146D01*
X123896962Y-116791096D01*
X123935632Y-116779365D01*
X123981988Y-116774800D01*
X124633212Y-116774800D01*
X124679568Y-116779365D01*
X124679568Y-116779365D01*
G37*
G36*
X159472991Y-107986885D02*
G01*
X159506969Y-107997193D01*
X159538290Y-108013934D01*
X159565739Y-108036461D01*
X159588266Y-108063910D01*
X159605007Y-108095231D01*
X159615315Y-108129209D01*
X159619400Y-108170690D01*
X159619400Y-108846910D01*
X159615315Y-108888391D01*
X159605007Y-108922369D01*
X159588266Y-108953690D01*
X159565739Y-108981139D01*
X159538290Y-109003666D01*
X159506969Y-109020407D01*
X159472991Y-109030715D01*
X159431510Y-109034800D01*
X158830290Y-109034800D01*
X158788809Y-109030715D01*
X158754831Y-109020407D01*
X158723510Y-109003666D01*
X158696061Y-108981139D01*
X158673534Y-108953690D01*
X158656793Y-108922369D01*
X158646485Y-108888391D01*
X158642400Y-108846910D01*
X158642400Y-108170690D01*
X158646485Y-108129209D01*
X158656793Y-108095231D01*
X158673534Y-108063910D01*
X158696061Y-108036461D01*
X158723510Y-108013934D01*
X158754831Y-107997193D01*
X158788809Y-107986885D01*
X158830290Y-107982800D01*
X159431510Y-107982800D01*
X159472991Y-107986885D01*
X159472991Y-107986885D01*
G37*
G36*
X161047991Y-107986885D02*
G01*
X161081969Y-107997193D01*
X161113290Y-108013934D01*
X161140739Y-108036461D01*
X161163266Y-108063910D01*
X161180007Y-108095231D01*
X161190315Y-108129209D01*
X161194400Y-108170690D01*
X161194400Y-108846910D01*
X161190315Y-108888391D01*
X161180007Y-108922369D01*
X161163266Y-108953690D01*
X161140739Y-108981139D01*
X161113290Y-109003666D01*
X161081969Y-109020407D01*
X161047991Y-109030715D01*
X161006510Y-109034800D01*
X160405290Y-109034800D01*
X160363809Y-109030715D01*
X160329831Y-109020407D01*
X160298510Y-109003666D01*
X160271061Y-108981139D01*
X160248534Y-108953690D01*
X160231793Y-108922369D01*
X160221485Y-108888391D01*
X160217400Y-108846910D01*
X160217400Y-108170690D01*
X160221485Y-108129209D01*
X160231793Y-108095231D01*
X160248534Y-108063910D01*
X160271061Y-108036461D01*
X160298510Y-108013934D01*
X160329831Y-107997193D01*
X160363809Y-107986885D01*
X160405290Y-107982800D01*
X161006510Y-107982800D01*
X161047991Y-107986885D01*
X161047991Y-107986885D01*
G37*
G36*
X148242599Y-104677554D02*
G01*
X148254850Y-104678156D01*
X148273269Y-104678156D01*
X148295549Y-104680350D01*
X148379633Y-104697076D01*
X148401060Y-104703576D01*
X148480258Y-104736380D01*
X148485703Y-104739291D01*
X148485709Y-104739293D01*
X148494569Y-104744029D01*
X148494573Y-104744032D01*
X148500014Y-104746940D01*
X148571299Y-104794571D01*
X148588604Y-104808772D01*
X148649228Y-104869396D01*
X148663429Y-104886701D01*
X148711060Y-104957986D01*
X148713968Y-104963427D01*
X148713971Y-104963431D01*
X148718707Y-104972291D01*
X148718709Y-104972297D01*
X148721620Y-104977742D01*
X148754424Y-105056940D01*
X148760924Y-105078367D01*
X148777650Y-105162451D01*
X148779844Y-105184731D01*
X148779844Y-105203150D01*
X148780446Y-105215401D01*
X148782252Y-105233739D01*
X148782252Y-105771460D01*
X148780663Y-105787599D01*
X148776255Y-105802128D01*
X148770794Y-105815311D01*
X148766012Y-105839345D01*
X148766011Y-105863849D01*
X148770791Y-105887882D01*
X148780168Y-105910521D01*
X148781400Y-105912365D01*
X148781400Y-107143650D01*
X148774925Y-107155764D01*
X148767812Y-107179213D01*
X148765410Y-107203599D01*
X148767812Y-107227985D01*
X148774925Y-107251434D01*
X148777248Y-107256346D01*
X148780663Y-107267601D01*
X148782252Y-107283740D01*
X148782252Y-107821462D01*
X148780446Y-107839799D01*
X148779844Y-107852050D01*
X148779844Y-107870469D01*
X148777650Y-107892749D01*
X148760924Y-107976833D01*
X148754424Y-107998260D01*
X148721620Y-108077458D01*
X148718709Y-108082903D01*
X148718707Y-108082909D01*
X148713971Y-108091769D01*
X148713968Y-108091773D01*
X148711060Y-108097214D01*
X148663429Y-108168499D01*
X148649228Y-108185804D01*
X148588604Y-108246428D01*
X148571299Y-108260629D01*
X148500014Y-108308260D01*
X148494573Y-108311168D01*
X148494569Y-108311171D01*
X148485709Y-108315907D01*
X148485703Y-108315909D01*
X148480258Y-108318820D01*
X148401060Y-108351624D01*
X148379633Y-108358124D01*
X148295549Y-108374850D01*
X148273269Y-108377044D01*
X148254850Y-108377044D01*
X148242599Y-108377646D01*
X148224262Y-108379452D01*
X147736538Y-108379452D01*
X147718201Y-108377646D01*
X147705950Y-108377044D01*
X147687531Y-108377044D01*
X147665251Y-108374850D01*
X147581167Y-108358124D01*
X147559740Y-108351624D01*
X147480542Y-108318820D01*
X147475097Y-108315909D01*
X147475091Y-108315907D01*
X147466231Y-108311171D01*
X147466227Y-108311168D01*
X147460786Y-108308260D01*
X147389501Y-108260629D01*
X147372196Y-108246428D01*
X147311572Y-108185804D01*
X147297371Y-108168499D01*
X147249740Y-108097214D01*
X147246832Y-108091773D01*
X147246829Y-108091769D01*
X147242093Y-108082909D01*
X147242091Y-108082903D01*
X147239180Y-108077458D01*
X147206376Y-107998260D01*
X147199876Y-107976833D01*
X147183150Y-107892749D01*
X147180956Y-107870469D01*
X147180956Y-107852050D01*
X147180354Y-107839799D01*
X147178548Y-107821462D01*
X147178548Y-107283740D01*
X147180137Y-107267601D01*
X147184545Y-107253072D01*
X147190006Y-107239889D01*
X147194788Y-107215855D01*
X147194789Y-107191351D01*
X147190009Y-107167318D01*
X147180632Y-107144679D01*
X147179400Y-107142835D01*
X147179400Y-105911550D01*
X147185875Y-105899436D01*
X147192988Y-105875987D01*
X147195390Y-105851601D01*
X147192988Y-105827215D01*
X147185875Y-105803766D01*
X147183552Y-105798854D01*
X147180137Y-105787599D01*
X147178548Y-105771460D01*
X147178548Y-105233739D01*
X147180354Y-105215401D01*
X147180956Y-105203150D01*
X147180956Y-105184731D01*
X147183150Y-105162451D01*
X147199876Y-105078367D01*
X147206376Y-105056940D01*
X147239180Y-104977742D01*
X147242091Y-104972297D01*
X147242093Y-104972291D01*
X147246829Y-104963431D01*
X147246832Y-104963427D01*
X147249740Y-104957986D01*
X147297371Y-104886701D01*
X147311572Y-104869396D01*
X147372196Y-104808772D01*
X147389501Y-104794571D01*
X147460786Y-104746940D01*
X147466227Y-104744032D01*
X147466231Y-104744029D01*
X147475091Y-104739293D01*
X147475097Y-104739291D01*
X147480542Y-104736380D01*
X147559740Y-104703576D01*
X147581167Y-104697076D01*
X147665251Y-104680350D01*
X147687531Y-104678156D01*
X147705950Y-104678156D01*
X147718201Y-104677554D01*
X147736539Y-104675748D01*
X148224261Y-104675748D01*
X148242599Y-104677554D01*
X148242599Y-104677554D01*
G37*
G36*
X150876268Y-106852665D02*
G01*
X150914938Y-106864396D01*
X150950577Y-106883446D01*
X150981817Y-106909083D01*
X151007454Y-106940323D01*
X151026504Y-106975962D01*
X151038235Y-107014632D01*
X151042800Y-107060988D01*
X151042800Y-107712212D01*
X151038235Y-107758568D01*
X151026504Y-107797238D01*
X151007454Y-107832877D01*
X150981817Y-107864117D01*
X150950577Y-107889754D01*
X150914938Y-107908804D01*
X150876268Y-107920535D01*
X150829912Y-107925100D01*
X149753688Y-107925100D01*
X149707332Y-107920535D01*
X149668662Y-107908804D01*
X149633023Y-107889754D01*
X149601783Y-107864117D01*
X149576146Y-107832877D01*
X149557096Y-107797238D01*
X149545365Y-107758568D01*
X149540800Y-107712212D01*
X149540800Y-107060988D01*
X149545365Y-107014632D01*
X149557096Y-106975962D01*
X149576146Y-106940323D01*
X149601783Y-106909083D01*
X149633023Y-106883446D01*
X149668662Y-106864396D01*
X149707332Y-106852665D01*
X149753688Y-106848100D01*
X150829912Y-106848100D01*
X150876268Y-106852665D01*
X150876268Y-106852665D01*
G37*
G36*
X154328991Y-106576785D02*
G01*
X154362969Y-106587093D01*
X154394290Y-106603834D01*
X154421739Y-106626361D01*
X154444266Y-106653810D01*
X154461007Y-106685131D01*
X154471315Y-106719109D01*
X154475400Y-106760590D01*
X154475400Y-107361810D01*
X154471315Y-107403291D01*
X154461007Y-107437269D01*
X154444266Y-107468590D01*
X154421739Y-107496039D01*
X154394290Y-107518566D01*
X154362969Y-107535307D01*
X154328991Y-107545615D01*
X154287510Y-107549700D01*
X153611290Y-107549700D01*
X153569809Y-107545615D01*
X153535831Y-107535307D01*
X153504510Y-107518566D01*
X153477061Y-107496039D01*
X153454534Y-107468590D01*
X153437793Y-107437269D01*
X153427485Y-107403291D01*
X153423400Y-107361810D01*
X153423400Y-106760590D01*
X153427485Y-106719109D01*
X153437793Y-106685131D01*
X153454534Y-106653810D01*
X153477061Y-106626361D01*
X153504510Y-106603834D01*
X153535831Y-106587093D01*
X153569809Y-106576785D01*
X153611290Y-106572700D01*
X154287510Y-106572700D01*
X154328991Y-106576785D01*
X154328991Y-106576785D01*
G37*
G36*
X152373191Y-106576785D02*
G01*
X152407169Y-106587093D01*
X152438490Y-106603834D01*
X152465939Y-106626361D01*
X152488466Y-106653810D01*
X152505207Y-106685131D01*
X152515515Y-106719109D01*
X152519600Y-106760590D01*
X152519600Y-107361810D01*
X152515515Y-107403291D01*
X152505207Y-107437269D01*
X152488466Y-107468590D01*
X152465939Y-107496039D01*
X152438490Y-107518566D01*
X152407169Y-107535307D01*
X152373191Y-107545615D01*
X152331710Y-107549700D01*
X151655490Y-107549700D01*
X151614009Y-107545615D01*
X151580031Y-107535307D01*
X151548710Y-107518566D01*
X151521261Y-107496039D01*
X151498734Y-107468590D01*
X151481993Y-107437269D01*
X151471685Y-107403291D01*
X151467600Y-107361810D01*
X151467600Y-106760590D01*
X151471685Y-106719109D01*
X151481993Y-106685131D01*
X151498734Y-106653810D01*
X151521261Y-106626361D01*
X151548710Y-106603834D01*
X151580031Y-106587093D01*
X151614009Y-106576785D01*
X151655490Y-106572700D01*
X152331710Y-106572700D01*
X152373191Y-106576785D01*
X152373191Y-106576785D01*
G37*
G36*
X156030791Y-106576685D02*
G01*
X156064769Y-106586993D01*
X156096090Y-106603734D01*
X156123539Y-106626261D01*
X156146066Y-106653710D01*
X156162807Y-106685031D01*
X156173115Y-106719009D01*
X156177200Y-106760490D01*
X156177200Y-107361710D01*
X156173115Y-107403191D01*
X156162807Y-107437169D01*
X156146066Y-107468490D01*
X156123539Y-107495939D01*
X156096090Y-107518466D01*
X156064769Y-107535207D01*
X156030791Y-107545515D01*
X155989310Y-107549600D01*
X155313090Y-107549600D01*
X155271609Y-107545515D01*
X155237631Y-107535207D01*
X155206310Y-107518466D01*
X155178861Y-107495939D01*
X155156334Y-107468490D01*
X155139593Y-107437169D01*
X155129285Y-107403191D01*
X155125200Y-107361710D01*
X155125200Y-106760490D01*
X155129285Y-106719009D01*
X155139593Y-106685031D01*
X155156334Y-106653710D01*
X155178861Y-106626261D01*
X155206310Y-106603734D01*
X155237631Y-106586993D01*
X155271609Y-106576685D01*
X155313090Y-106572600D01*
X155989310Y-106572600D01*
X156030791Y-106576685D01*
X156030791Y-106576685D01*
G37*
G36*
X157707191Y-106525885D02*
G01*
X157741169Y-106536193D01*
X157772490Y-106552934D01*
X157799939Y-106575461D01*
X157822466Y-106602910D01*
X157839207Y-106634231D01*
X157849515Y-106668209D01*
X157853600Y-106709690D01*
X157853600Y-107310910D01*
X157849515Y-107352391D01*
X157839207Y-107386369D01*
X157822466Y-107417690D01*
X157799939Y-107445139D01*
X157772490Y-107467666D01*
X157741169Y-107484407D01*
X157707191Y-107494715D01*
X157665710Y-107498800D01*
X156989490Y-107498800D01*
X156948009Y-107494715D01*
X156914031Y-107484407D01*
X156882710Y-107467666D01*
X156855261Y-107445139D01*
X156832734Y-107417690D01*
X156815993Y-107386369D01*
X156805685Y-107352391D01*
X156801600Y-107310910D01*
X156801600Y-106709690D01*
X156805685Y-106668209D01*
X156815993Y-106634231D01*
X156832734Y-106602910D01*
X156855261Y-106575461D01*
X156882710Y-106552934D01*
X156914031Y-106536193D01*
X156948009Y-106525885D01*
X156989490Y-106521800D01*
X157665710Y-106521800D01*
X157707191Y-106525885D01*
X157707191Y-106525885D01*
G37*
G36*
X165717799Y-103763154D02*
G01*
X165730050Y-103763756D01*
X165748469Y-103763756D01*
X165770749Y-103765950D01*
X165854833Y-103782676D01*
X165876260Y-103789176D01*
X165955458Y-103821980D01*
X165960903Y-103824891D01*
X165960909Y-103824893D01*
X165969769Y-103829629D01*
X165969773Y-103829632D01*
X165975214Y-103832540D01*
X166046499Y-103880171D01*
X166063804Y-103894372D01*
X166124428Y-103954996D01*
X166138629Y-103972301D01*
X166186260Y-104043586D01*
X166189168Y-104049027D01*
X166189171Y-104049031D01*
X166193907Y-104057891D01*
X166193909Y-104057897D01*
X166196820Y-104063342D01*
X166229624Y-104142540D01*
X166236124Y-104163967D01*
X166252850Y-104248051D01*
X166255044Y-104270331D01*
X166255044Y-104288750D01*
X166255646Y-104301001D01*
X166257452Y-104319339D01*
X166257452Y-104857060D01*
X166255863Y-104873199D01*
X166251455Y-104887728D01*
X166245994Y-104900911D01*
X166241212Y-104924945D01*
X166241211Y-104949449D01*
X166245991Y-104973482D01*
X166255368Y-104996121D01*
X166256600Y-104997965D01*
X166256600Y-106229250D01*
X166250125Y-106241364D01*
X166243012Y-106264813D01*
X166240610Y-106289199D01*
X166243012Y-106313585D01*
X166250125Y-106337034D01*
X166252448Y-106341946D01*
X166255863Y-106353201D01*
X166257452Y-106369340D01*
X166257452Y-106907062D01*
X166255646Y-106925399D01*
X166255044Y-106937650D01*
X166255044Y-106956069D01*
X166252850Y-106978349D01*
X166236124Y-107062433D01*
X166229624Y-107083860D01*
X166196820Y-107163058D01*
X166193909Y-107168503D01*
X166193907Y-107168509D01*
X166189171Y-107177369D01*
X166189168Y-107177373D01*
X166186260Y-107182814D01*
X166138629Y-107254099D01*
X166124428Y-107271404D01*
X166063804Y-107332028D01*
X166046499Y-107346229D01*
X165975214Y-107393860D01*
X165969773Y-107396768D01*
X165969769Y-107396771D01*
X165960909Y-107401507D01*
X165960903Y-107401509D01*
X165955458Y-107404420D01*
X165876260Y-107437224D01*
X165854833Y-107443724D01*
X165770749Y-107460450D01*
X165748469Y-107462644D01*
X165730050Y-107462644D01*
X165717799Y-107463246D01*
X165699462Y-107465052D01*
X165211738Y-107465052D01*
X165193401Y-107463246D01*
X165181150Y-107462644D01*
X165162731Y-107462644D01*
X165140451Y-107460450D01*
X165056367Y-107443724D01*
X165034940Y-107437224D01*
X164955742Y-107404420D01*
X164950297Y-107401509D01*
X164950291Y-107401507D01*
X164941431Y-107396771D01*
X164941427Y-107396768D01*
X164935986Y-107393860D01*
X164864701Y-107346229D01*
X164847396Y-107332028D01*
X164786772Y-107271404D01*
X164772571Y-107254099D01*
X164724940Y-107182814D01*
X164722032Y-107177373D01*
X164722029Y-107177369D01*
X164717293Y-107168509D01*
X164717291Y-107168503D01*
X164714380Y-107163058D01*
X164681576Y-107083860D01*
X164675076Y-107062433D01*
X164658350Y-106978349D01*
X164656156Y-106956069D01*
X164656156Y-106937650D01*
X164655554Y-106925399D01*
X164653748Y-106907062D01*
X164653748Y-106369340D01*
X164655337Y-106353201D01*
X164659745Y-106338672D01*
X164665206Y-106325489D01*
X164669988Y-106301455D01*
X164669989Y-106276951D01*
X164665209Y-106252918D01*
X164655832Y-106230279D01*
X164654600Y-106228435D01*
X164654600Y-104997150D01*
X164661075Y-104985036D01*
X164668188Y-104961587D01*
X164670590Y-104937201D01*
X164668188Y-104912815D01*
X164661075Y-104889366D01*
X164658752Y-104884454D01*
X164655337Y-104873199D01*
X164653748Y-104857060D01*
X164653748Y-104319339D01*
X164655554Y-104301001D01*
X164656156Y-104288750D01*
X164656156Y-104270331D01*
X164658350Y-104248051D01*
X164675076Y-104163967D01*
X164681576Y-104142540D01*
X164714380Y-104063342D01*
X164717291Y-104057897D01*
X164717293Y-104057891D01*
X164722029Y-104049031D01*
X164722032Y-104049027D01*
X164724940Y-104043586D01*
X164772571Y-103972301D01*
X164786772Y-103954996D01*
X164847396Y-103894372D01*
X164864701Y-103880171D01*
X164935986Y-103832540D01*
X164941427Y-103829632D01*
X164941431Y-103829629D01*
X164950291Y-103824893D01*
X164950297Y-103824891D01*
X164955742Y-103821980D01*
X165034940Y-103789176D01*
X165056367Y-103782676D01*
X165140451Y-103765950D01*
X165162731Y-103763756D01*
X165181150Y-103763756D01*
X165193401Y-103763154D01*
X165211739Y-103761348D01*
X165699461Y-103761348D01*
X165717799Y-103763154D01*
X165717799Y-103763154D01*
G37*
G36*
X161047991Y-106412085D02*
G01*
X161081969Y-106422393D01*
X161113290Y-106439134D01*
X161140739Y-106461661D01*
X161163266Y-106489110D01*
X161180007Y-106520431D01*
X161190315Y-106554409D01*
X161194400Y-106595890D01*
X161194400Y-107272110D01*
X161190315Y-107313591D01*
X161180007Y-107347569D01*
X161163266Y-107378890D01*
X161140739Y-107406339D01*
X161113290Y-107428866D01*
X161081969Y-107445607D01*
X161047991Y-107455915D01*
X161006510Y-107460000D01*
X160405290Y-107460000D01*
X160363809Y-107455915D01*
X160329831Y-107445607D01*
X160298510Y-107428866D01*
X160271061Y-107406339D01*
X160248534Y-107378890D01*
X160231793Y-107347569D01*
X160221485Y-107313591D01*
X160217400Y-107272110D01*
X160217400Y-106595890D01*
X160221485Y-106554409D01*
X160231793Y-106520431D01*
X160248534Y-106489110D01*
X160271061Y-106461661D01*
X160298510Y-106439134D01*
X160329831Y-106422393D01*
X160363809Y-106412085D01*
X160405290Y-106408000D01*
X161006510Y-106408000D01*
X161047991Y-106412085D01*
X161047991Y-106412085D01*
G37*
G36*
X159472991Y-106412085D02*
G01*
X159506969Y-106422393D01*
X159538290Y-106439134D01*
X159565739Y-106461661D01*
X159588266Y-106489110D01*
X159605007Y-106520431D01*
X159615315Y-106554409D01*
X159619400Y-106595890D01*
X159619400Y-107272110D01*
X159615315Y-107313591D01*
X159605007Y-107347569D01*
X159588266Y-107378890D01*
X159565739Y-107406339D01*
X159538290Y-107428866D01*
X159506969Y-107445607D01*
X159472991Y-107455915D01*
X159431510Y-107460000D01*
X158830290Y-107460000D01*
X158788809Y-107455915D01*
X158754831Y-107445607D01*
X158723510Y-107428866D01*
X158696061Y-107406339D01*
X158673534Y-107378890D01*
X158656793Y-107347569D01*
X158646485Y-107313591D01*
X158642400Y-107272110D01*
X158642400Y-106595890D01*
X158646485Y-106554409D01*
X158656793Y-106520431D01*
X158673534Y-106489110D01*
X158696061Y-106461661D01*
X158723510Y-106439134D01*
X158754831Y-106422393D01*
X158788809Y-106412085D01*
X158830290Y-106408000D01*
X159431510Y-106408000D01*
X159472991Y-106412085D01*
X159472991Y-106412085D01*
G37*
G36*
X140911199Y-105371737D02*
G01*
X140925728Y-105376145D01*
X140938911Y-105381606D01*
X140962945Y-105386388D01*
X140987449Y-105386389D01*
X141011482Y-105381609D01*
X141034121Y-105372232D01*
X141035965Y-105371000D01*
X142267250Y-105371000D01*
X142279364Y-105377475D01*
X142302813Y-105384588D01*
X142327199Y-105386990D01*
X142351585Y-105384588D01*
X142375034Y-105377475D01*
X142379946Y-105375152D01*
X142391201Y-105371737D01*
X142407340Y-105370148D01*
X142945061Y-105370148D01*
X142963399Y-105371954D01*
X142975650Y-105372556D01*
X142994069Y-105372556D01*
X143016349Y-105374750D01*
X143100433Y-105391476D01*
X143121860Y-105397976D01*
X143201058Y-105430780D01*
X143206503Y-105433691D01*
X143206509Y-105433693D01*
X143215369Y-105438429D01*
X143215373Y-105438432D01*
X143220814Y-105441340D01*
X143292099Y-105488971D01*
X143309404Y-105503172D01*
X143370028Y-105563796D01*
X143384229Y-105581101D01*
X143431860Y-105652386D01*
X143434768Y-105657827D01*
X143434771Y-105657831D01*
X143439507Y-105666691D01*
X143439509Y-105666697D01*
X143442420Y-105672142D01*
X143475224Y-105751340D01*
X143481724Y-105772767D01*
X143498450Y-105856851D01*
X143500644Y-105879131D01*
X143500644Y-105897550D01*
X143501246Y-105909801D01*
X143503052Y-105928139D01*
X143503052Y-106415862D01*
X143501246Y-106434199D01*
X143500644Y-106446450D01*
X143500644Y-106464869D01*
X143498450Y-106487149D01*
X143481724Y-106571233D01*
X143475224Y-106592660D01*
X143442420Y-106671858D01*
X143439509Y-106677303D01*
X143439507Y-106677309D01*
X143434771Y-106686169D01*
X143434768Y-106686173D01*
X143431860Y-106691614D01*
X143384229Y-106762899D01*
X143370028Y-106780204D01*
X143309404Y-106840828D01*
X143292099Y-106855029D01*
X143220814Y-106902660D01*
X143215373Y-106905568D01*
X143215369Y-106905571D01*
X143206509Y-106910307D01*
X143206503Y-106910309D01*
X143201058Y-106913220D01*
X143121860Y-106946024D01*
X143100433Y-106952524D01*
X143016349Y-106969250D01*
X142994069Y-106971444D01*
X142975650Y-106971444D01*
X142963399Y-106972046D01*
X142945062Y-106973852D01*
X142407340Y-106973852D01*
X142391201Y-106972263D01*
X142376672Y-106967855D01*
X142363489Y-106962394D01*
X142339455Y-106957612D01*
X142314951Y-106957611D01*
X142290918Y-106962391D01*
X142268279Y-106971768D01*
X142266435Y-106973000D01*
X141035150Y-106973000D01*
X141023036Y-106966525D01*
X140999587Y-106959412D01*
X140975201Y-106957010D01*
X140950815Y-106959412D01*
X140927366Y-106966525D01*
X140922454Y-106968848D01*
X140911199Y-106972263D01*
X140895060Y-106973852D01*
X140357338Y-106973852D01*
X140339001Y-106972046D01*
X140326750Y-106971444D01*
X140308331Y-106971444D01*
X140286051Y-106969250D01*
X140201967Y-106952524D01*
X140180540Y-106946024D01*
X140101342Y-106913220D01*
X140095897Y-106910309D01*
X140095891Y-106910307D01*
X140087031Y-106905571D01*
X140087027Y-106905568D01*
X140081586Y-106902660D01*
X140010301Y-106855029D01*
X139992996Y-106840828D01*
X139932372Y-106780204D01*
X139918171Y-106762899D01*
X139870540Y-106691614D01*
X139867632Y-106686173D01*
X139867629Y-106686169D01*
X139862893Y-106677309D01*
X139862891Y-106677303D01*
X139859980Y-106671858D01*
X139827176Y-106592660D01*
X139820676Y-106571233D01*
X139803950Y-106487149D01*
X139801756Y-106464869D01*
X139801756Y-106446450D01*
X139801154Y-106434199D01*
X139799348Y-106415862D01*
X139799348Y-105928139D01*
X139801154Y-105909801D01*
X139801756Y-105897550D01*
X139801756Y-105879131D01*
X139803950Y-105856851D01*
X139820676Y-105772767D01*
X139827176Y-105751340D01*
X139859980Y-105672142D01*
X139862891Y-105666697D01*
X139862893Y-105666691D01*
X139867629Y-105657831D01*
X139867632Y-105657827D01*
X139870540Y-105652386D01*
X139918171Y-105581101D01*
X139932372Y-105563796D01*
X139992996Y-105503172D01*
X140010301Y-105488971D01*
X140081586Y-105441340D01*
X140087027Y-105438432D01*
X140087031Y-105438429D01*
X140095891Y-105433693D01*
X140095897Y-105433691D01*
X140101342Y-105430780D01*
X140180540Y-105397976D01*
X140201967Y-105391476D01*
X140286051Y-105374750D01*
X140308331Y-105372556D01*
X140326750Y-105372556D01*
X140339001Y-105371954D01*
X140357339Y-105370148D01*
X140895060Y-105370148D01*
X140911199Y-105371737D01*
X140911199Y-105371737D01*
G37*
G36*
X150876268Y-104977665D02*
G01*
X150914938Y-104989396D01*
X150950577Y-105008446D01*
X150981817Y-105034083D01*
X151007454Y-105065323D01*
X151026504Y-105100962D01*
X151038235Y-105139632D01*
X151042800Y-105185988D01*
X151042800Y-105837212D01*
X151038235Y-105883568D01*
X151026504Y-105922238D01*
X151007454Y-105957877D01*
X150981817Y-105989117D01*
X150950577Y-106014754D01*
X150914938Y-106033804D01*
X150876268Y-106045535D01*
X150829912Y-106050100D01*
X149753688Y-106050100D01*
X149707332Y-106045535D01*
X149668662Y-106033804D01*
X149633023Y-106014754D01*
X149601783Y-105989117D01*
X149576146Y-105957877D01*
X149557096Y-105922238D01*
X149545365Y-105883568D01*
X149540800Y-105837212D01*
X149540800Y-105185988D01*
X149545365Y-105139632D01*
X149557096Y-105100962D01*
X149576146Y-105065323D01*
X149601783Y-105034083D01*
X149633023Y-105008446D01*
X149668662Y-104989396D01*
X149707332Y-104977665D01*
X149753688Y-104973100D01*
X150829912Y-104973100D01*
X150876268Y-104977665D01*
X150876268Y-104977665D01*
G37*
G36*
X154328991Y-105001785D02*
G01*
X154362969Y-105012093D01*
X154394290Y-105028834D01*
X154421739Y-105051361D01*
X154444266Y-105078810D01*
X154461007Y-105110131D01*
X154471315Y-105144109D01*
X154475400Y-105185590D01*
X154475400Y-105786810D01*
X154471315Y-105828291D01*
X154461007Y-105862269D01*
X154444266Y-105893590D01*
X154421739Y-105921039D01*
X154394290Y-105943566D01*
X154362969Y-105960307D01*
X154328991Y-105970615D01*
X154287510Y-105974700D01*
X153611290Y-105974700D01*
X153569809Y-105970615D01*
X153535831Y-105960307D01*
X153504510Y-105943566D01*
X153477061Y-105921039D01*
X153454534Y-105893590D01*
X153437793Y-105862269D01*
X153427485Y-105828291D01*
X153423400Y-105786810D01*
X153423400Y-105185590D01*
X153427485Y-105144109D01*
X153437793Y-105110131D01*
X153454534Y-105078810D01*
X153477061Y-105051361D01*
X153504510Y-105028834D01*
X153535831Y-105012093D01*
X153569809Y-105001785D01*
X153611290Y-104997700D01*
X154287510Y-104997700D01*
X154328991Y-105001785D01*
X154328991Y-105001785D01*
G37*
G36*
X152373191Y-105001785D02*
G01*
X152407169Y-105012093D01*
X152438490Y-105028834D01*
X152465939Y-105051361D01*
X152488466Y-105078810D01*
X152505207Y-105110131D01*
X152515515Y-105144109D01*
X152519600Y-105185590D01*
X152519600Y-105786810D01*
X152515515Y-105828291D01*
X152505207Y-105862269D01*
X152488466Y-105893590D01*
X152465939Y-105921039D01*
X152438490Y-105943566D01*
X152407169Y-105960307D01*
X152373191Y-105970615D01*
X152331710Y-105974700D01*
X151655490Y-105974700D01*
X151614009Y-105970615D01*
X151580031Y-105960307D01*
X151548710Y-105943566D01*
X151521261Y-105921039D01*
X151498734Y-105893590D01*
X151481993Y-105862269D01*
X151471685Y-105828291D01*
X151467600Y-105786810D01*
X151467600Y-105185590D01*
X151471685Y-105144109D01*
X151481993Y-105110131D01*
X151498734Y-105078810D01*
X151521261Y-105051361D01*
X151548710Y-105028834D01*
X151580031Y-105012093D01*
X151614009Y-105001785D01*
X151655490Y-104997700D01*
X152331710Y-104997700D01*
X152373191Y-105001785D01*
X152373191Y-105001785D01*
G37*
G36*
X156030791Y-105001685D02*
G01*
X156064769Y-105011993D01*
X156096090Y-105028734D01*
X156123539Y-105051261D01*
X156146066Y-105078710D01*
X156162807Y-105110031D01*
X156173115Y-105144009D01*
X156177200Y-105185490D01*
X156177200Y-105786710D01*
X156173115Y-105828191D01*
X156162807Y-105862169D01*
X156146066Y-105893490D01*
X156123539Y-105920939D01*
X156096090Y-105943466D01*
X156064769Y-105960207D01*
X156030791Y-105970515D01*
X155989310Y-105974600D01*
X155313090Y-105974600D01*
X155271609Y-105970515D01*
X155237631Y-105960207D01*
X155206310Y-105943466D01*
X155178861Y-105920939D01*
X155156334Y-105893490D01*
X155139593Y-105862169D01*
X155129285Y-105828191D01*
X155125200Y-105786710D01*
X155125200Y-105185490D01*
X155129285Y-105144009D01*
X155139593Y-105110031D01*
X155156334Y-105078710D01*
X155178861Y-105051261D01*
X155206310Y-105028734D01*
X155237631Y-105011993D01*
X155271609Y-105001685D01*
X155313090Y-104997600D01*
X155989310Y-104997600D01*
X156030791Y-105001685D01*
X156030791Y-105001685D01*
G37*
G36*
X157707191Y-104950885D02*
G01*
X157741169Y-104961193D01*
X157772490Y-104977934D01*
X157799939Y-105000461D01*
X157822466Y-105027910D01*
X157839207Y-105059231D01*
X157849515Y-105093209D01*
X157853600Y-105134690D01*
X157853600Y-105735910D01*
X157849515Y-105777391D01*
X157839207Y-105811369D01*
X157822466Y-105842690D01*
X157799939Y-105870139D01*
X157772490Y-105892666D01*
X157741169Y-105909407D01*
X157707191Y-105919715D01*
X157665710Y-105923800D01*
X156989490Y-105923800D01*
X156948009Y-105919715D01*
X156914031Y-105909407D01*
X156882710Y-105892666D01*
X156855261Y-105870139D01*
X156832734Y-105842690D01*
X156815993Y-105811369D01*
X156805685Y-105777391D01*
X156801600Y-105735910D01*
X156801600Y-105134690D01*
X156805685Y-105093209D01*
X156815993Y-105059231D01*
X156832734Y-105027910D01*
X156855261Y-105000461D01*
X156882710Y-104977934D01*
X156914031Y-104961193D01*
X156948009Y-104950885D01*
X156989490Y-104946800D01*
X157665710Y-104946800D01*
X157707191Y-104950885D01*
X157707191Y-104950885D01*
G37*
G36*
X159505268Y-104257165D02*
G01*
X159543938Y-104268896D01*
X159579577Y-104287946D01*
X159610817Y-104313583D01*
X159636454Y-104344823D01*
X159655504Y-104380462D01*
X159667235Y-104419132D01*
X159671800Y-104465488D01*
X159671800Y-105541712D01*
X159667235Y-105588068D01*
X159655504Y-105626738D01*
X159636454Y-105662377D01*
X159610817Y-105693617D01*
X159579577Y-105719254D01*
X159543938Y-105738304D01*
X159505268Y-105750035D01*
X159458912Y-105754600D01*
X158807688Y-105754600D01*
X158761332Y-105750035D01*
X158722662Y-105738304D01*
X158687023Y-105719254D01*
X158655783Y-105693617D01*
X158630146Y-105662377D01*
X158611096Y-105626738D01*
X158599365Y-105588068D01*
X158594800Y-105541712D01*
X158594800Y-104465488D01*
X158599365Y-104419132D01*
X158611096Y-104380462D01*
X158630146Y-104344823D01*
X158655783Y-104313583D01*
X158687023Y-104287946D01*
X158722662Y-104268896D01*
X158761332Y-104257165D01*
X158807688Y-104252600D01*
X159458912Y-104252600D01*
X159505268Y-104257165D01*
X159505268Y-104257165D01*
G37*
G36*
X161380268Y-104257165D02*
G01*
X161418938Y-104268896D01*
X161454577Y-104287946D01*
X161485817Y-104313583D01*
X161511454Y-104344823D01*
X161530504Y-104380462D01*
X161542235Y-104419132D01*
X161546800Y-104465488D01*
X161546800Y-105541712D01*
X161542235Y-105588068D01*
X161530504Y-105626738D01*
X161511454Y-105662377D01*
X161485817Y-105693617D01*
X161454577Y-105719254D01*
X161418938Y-105738304D01*
X161380268Y-105750035D01*
X161333912Y-105754600D01*
X160682688Y-105754600D01*
X160636332Y-105750035D01*
X160597662Y-105738304D01*
X160562023Y-105719254D01*
X160530783Y-105693617D01*
X160505146Y-105662377D01*
X160486096Y-105626738D01*
X160474365Y-105588068D01*
X160469800Y-105541712D01*
X160469800Y-104465488D01*
X160474365Y-104419132D01*
X160486096Y-104380462D01*
X160505146Y-104344823D01*
X160530783Y-104313583D01*
X160562023Y-104287946D01*
X160597662Y-104268896D01*
X160636332Y-104257165D01*
X160682688Y-104252600D01*
X161333912Y-104252600D01*
X161380268Y-104257165D01*
X161380268Y-104257165D01*
G37*
G36*
X118655400Y-105650600D02*
G01*
X116853400Y-105650600D01*
X116853400Y-103848600D01*
X118655400Y-103848600D01*
X118655400Y-105650600D01*
X118655400Y-105650600D01*
G37*
G36*
X142937691Y-103364085D02*
G01*
X142971669Y-103374393D01*
X143002990Y-103391134D01*
X143030439Y-103413661D01*
X143052966Y-103441110D01*
X143069707Y-103472431D01*
X143080015Y-103506409D01*
X143084100Y-103547890D01*
X143084100Y-104224110D01*
X143080015Y-104265591D01*
X143069707Y-104299569D01*
X143052966Y-104330890D01*
X143030439Y-104358339D01*
X143002990Y-104380866D01*
X142971669Y-104397607D01*
X142937691Y-104407915D01*
X142896210Y-104412000D01*
X142294990Y-104412000D01*
X142253509Y-104407915D01*
X142219531Y-104397607D01*
X142188210Y-104380866D01*
X142160761Y-104358339D01*
X142138234Y-104330890D01*
X142121493Y-104299569D01*
X142111185Y-104265591D01*
X142107100Y-104224110D01*
X142107100Y-103547890D01*
X142111185Y-103506409D01*
X142121493Y-103472431D01*
X142138234Y-103441110D01*
X142160761Y-103413661D01*
X142188210Y-103391134D01*
X142219531Y-103374393D01*
X142253509Y-103364085D01*
X142294990Y-103360000D01*
X142896210Y-103360000D01*
X142937691Y-103364085D01*
X142937691Y-103364085D01*
G37*
G36*
X141362691Y-103364085D02*
G01*
X141396669Y-103374393D01*
X141427990Y-103391134D01*
X141455439Y-103413661D01*
X141477966Y-103441110D01*
X141494707Y-103472431D01*
X141505015Y-103506409D01*
X141509100Y-103547890D01*
X141509100Y-104224110D01*
X141505015Y-104265591D01*
X141494707Y-104299569D01*
X141477966Y-104330890D01*
X141455439Y-104358339D01*
X141427990Y-104380866D01*
X141396669Y-104397607D01*
X141362691Y-104407915D01*
X141321210Y-104412000D01*
X140719990Y-104412000D01*
X140678509Y-104407915D01*
X140644531Y-104397607D01*
X140613210Y-104380866D01*
X140585761Y-104358339D01*
X140563234Y-104330890D01*
X140546493Y-104299569D01*
X140536185Y-104265591D01*
X140532100Y-104224110D01*
X140532100Y-103547890D01*
X140536185Y-103506409D01*
X140546493Y-103472431D01*
X140563234Y-103441110D01*
X140585761Y-103413661D01*
X140613210Y-103391134D01*
X140644531Y-103374393D01*
X140678509Y-103364085D01*
X140719990Y-103360000D01*
X141321210Y-103360000D01*
X141362691Y-103364085D01*
X141362691Y-103364085D01*
G37*
G36*
X159472991Y-102602085D02*
G01*
X159506969Y-102612393D01*
X159538290Y-102629134D01*
X159565739Y-102651661D01*
X159588266Y-102679110D01*
X159605007Y-102710431D01*
X159615315Y-102744409D01*
X159619400Y-102785890D01*
X159619400Y-103462110D01*
X159615315Y-103503591D01*
X159605007Y-103537569D01*
X159588266Y-103568890D01*
X159565739Y-103596339D01*
X159538290Y-103618866D01*
X159506969Y-103635607D01*
X159472991Y-103645915D01*
X159431510Y-103650000D01*
X158830290Y-103650000D01*
X158788809Y-103645915D01*
X158754831Y-103635607D01*
X158723510Y-103618866D01*
X158696061Y-103596339D01*
X158673534Y-103568890D01*
X158656793Y-103537569D01*
X158646485Y-103503591D01*
X158642400Y-103462110D01*
X158642400Y-102785890D01*
X158646485Y-102744409D01*
X158656793Y-102710431D01*
X158673534Y-102679110D01*
X158696061Y-102651661D01*
X158723510Y-102629134D01*
X158754831Y-102612393D01*
X158788809Y-102602085D01*
X158830290Y-102598000D01*
X159431510Y-102598000D01*
X159472991Y-102602085D01*
X159472991Y-102602085D01*
G37*
G36*
X161047991Y-102602085D02*
G01*
X161081969Y-102612393D01*
X161113290Y-102629134D01*
X161140739Y-102651661D01*
X161163266Y-102679110D01*
X161180007Y-102710431D01*
X161190315Y-102744409D01*
X161194400Y-102785890D01*
X161194400Y-103462110D01*
X161190315Y-103503591D01*
X161180007Y-103537569D01*
X161163266Y-103568890D01*
X161140739Y-103596339D01*
X161113290Y-103618866D01*
X161081969Y-103635607D01*
X161047991Y-103645915D01*
X161006510Y-103650000D01*
X160405290Y-103650000D01*
X160363809Y-103645915D01*
X160329831Y-103635607D01*
X160298510Y-103618866D01*
X160271061Y-103596339D01*
X160248534Y-103568890D01*
X160231793Y-103537569D01*
X160221485Y-103503591D01*
X160217400Y-103462110D01*
X160217400Y-102785890D01*
X160221485Y-102744409D01*
X160231793Y-102710431D01*
X160248534Y-102679110D01*
X160271061Y-102651661D01*
X160298510Y-102629134D01*
X160329831Y-102612393D01*
X160363809Y-102602085D01*
X160405290Y-102598000D01*
X161006510Y-102598000D01*
X161047991Y-102602085D01*
X161047991Y-102602085D01*
G37*
G36*
X117864843Y-101315119D02*
G01*
X117931027Y-101321637D01*
X118100866Y-101373157D01*
X118257391Y-101456822D01*
X118293129Y-101486152D01*
X118394586Y-101569414D01*
X118477848Y-101670871D01*
X118507178Y-101706609D01*
X118590843Y-101863134D01*
X118642363Y-102032973D01*
X118659759Y-102209600D01*
X118642363Y-102386227D01*
X118590843Y-102556066D01*
X118507178Y-102712591D01*
X118494000Y-102728648D01*
X118394586Y-102849786D01*
X118293129Y-102933048D01*
X118257391Y-102962378D01*
X118100866Y-103046043D01*
X117931027Y-103097563D01*
X117864843Y-103104081D01*
X117798660Y-103110600D01*
X117710140Y-103110600D01*
X117643957Y-103104081D01*
X117577773Y-103097563D01*
X117407934Y-103046043D01*
X117251409Y-102962378D01*
X117215671Y-102933048D01*
X117114214Y-102849786D01*
X117014800Y-102728648D01*
X117001622Y-102712591D01*
X116917957Y-102556066D01*
X116866437Y-102386227D01*
X116849041Y-102209600D01*
X116866437Y-102032973D01*
X116917957Y-101863134D01*
X117001622Y-101706609D01*
X117030952Y-101670871D01*
X117114214Y-101569414D01*
X117215671Y-101486152D01*
X117251409Y-101456822D01*
X117407934Y-101373157D01*
X117577773Y-101321637D01*
X117643957Y-101315119D01*
X117710140Y-101308600D01*
X117798660Y-101308600D01*
X117864843Y-101315119D01*
X117864843Y-101315119D01*
G37*
G36*
X141362691Y-101789285D02*
G01*
X141396669Y-101799593D01*
X141427990Y-101816334D01*
X141455439Y-101838861D01*
X141477966Y-101866310D01*
X141494707Y-101897631D01*
X141505015Y-101931609D01*
X141509100Y-101973090D01*
X141509100Y-102649310D01*
X141505015Y-102690791D01*
X141494707Y-102724769D01*
X141477966Y-102756090D01*
X141455439Y-102783539D01*
X141427990Y-102806066D01*
X141396669Y-102822807D01*
X141362691Y-102833115D01*
X141321210Y-102837200D01*
X140719990Y-102837200D01*
X140678509Y-102833115D01*
X140644531Y-102822807D01*
X140613210Y-102806066D01*
X140585761Y-102783539D01*
X140563234Y-102756090D01*
X140546493Y-102724769D01*
X140536185Y-102690791D01*
X140532100Y-102649310D01*
X140532100Y-101973090D01*
X140536185Y-101931609D01*
X140546493Y-101897631D01*
X140563234Y-101866310D01*
X140585761Y-101838861D01*
X140613210Y-101816334D01*
X140644531Y-101799593D01*
X140678509Y-101789285D01*
X140719990Y-101785200D01*
X141321210Y-101785200D01*
X141362691Y-101789285D01*
X141362691Y-101789285D01*
G37*
G36*
X142937691Y-101789285D02*
G01*
X142971669Y-101799593D01*
X143002990Y-101816334D01*
X143030439Y-101838861D01*
X143052966Y-101866310D01*
X143069707Y-101897631D01*
X143080015Y-101931609D01*
X143084100Y-101973090D01*
X143084100Y-102649310D01*
X143080015Y-102690791D01*
X143069707Y-102724769D01*
X143052966Y-102756090D01*
X143030439Y-102783539D01*
X143002990Y-102806066D01*
X142971669Y-102822807D01*
X142937691Y-102833115D01*
X142896210Y-102837200D01*
X142294990Y-102837200D01*
X142253509Y-102833115D01*
X142219531Y-102822807D01*
X142188210Y-102806066D01*
X142160761Y-102783539D01*
X142138234Y-102756090D01*
X142121493Y-102724769D01*
X142111185Y-102690791D01*
X142107100Y-102649310D01*
X142107100Y-101973090D01*
X142111185Y-101931609D01*
X142121493Y-101897631D01*
X142138234Y-101866310D01*
X142160761Y-101838861D01*
X142188210Y-101816334D01*
X142219531Y-101799593D01*
X142253509Y-101789285D01*
X142294990Y-101785200D01*
X142896210Y-101785200D01*
X142937691Y-101789285D01*
X142937691Y-101789285D01*
G37*
G36*
X159472991Y-100976485D02*
G01*
X159506969Y-100986793D01*
X159538290Y-101003534D01*
X159565739Y-101026061D01*
X159588266Y-101053510D01*
X159605007Y-101084831D01*
X159615315Y-101118809D01*
X159619400Y-101160290D01*
X159619400Y-101836510D01*
X159615315Y-101877991D01*
X159605007Y-101911969D01*
X159588266Y-101943290D01*
X159565739Y-101970739D01*
X159538290Y-101993266D01*
X159506969Y-102010007D01*
X159472991Y-102020315D01*
X159431510Y-102024400D01*
X158830290Y-102024400D01*
X158788809Y-102020315D01*
X158754831Y-102010007D01*
X158723510Y-101993266D01*
X158696061Y-101970739D01*
X158673534Y-101943290D01*
X158656793Y-101911969D01*
X158646485Y-101877991D01*
X158642400Y-101836510D01*
X158642400Y-101160290D01*
X158646485Y-101118809D01*
X158656793Y-101084831D01*
X158673534Y-101053510D01*
X158696061Y-101026061D01*
X158723510Y-101003534D01*
X158754831Y-100986793D01*
X158788809Y-100976485D01*
X158830290Y-100972400D01*
X159431510Y-100972400D01*
X159472991Y-100976485D01*
X159472991Y-100976485D01*
G37*
G36*
X161047991Y-100976485D02*
G01*
X161081969Y-100986793D01*
X161113290Y-101003534D01*
X161140739Y-101026061D01*
X161163266Y-101053510D01*
X161180007Y-101084831D01*
X161190315Y-101118809D01*
X161194400Y-101160290D01*
X161194400Y-101836510D01*
X161190315Y-101877991D01*
X161180007Y-101911969D01*
X161163266Y-101943290D01*
X161140739Y-101970739D01*
X161113290Y-101993266D01*
X161081969Y-102010007D01*
X161047991Y-102020315D01*
X161006510Y-102024400D01*
X160405290Y-102024400D01*
X160363809Y-102020315D01*
X160329831Y-102010007D01*
X160298510Y-101993266D01*
X160271061Y-101970739D01*
X160248534Y-101943290D01*
X160231793Y-101911969D01*
X160221485Y-101877991D01*
X160217400Y-101836510D01*
X160217400Y-101160290D01*
X160221485Y-101118809D01*
X160231793Y-101084831D01*
X160248534Y-101053510D01*
X160271061Y-101026061D01*
X160298510Y-101003534D01*
X160329831Y-100986793D01*
X160363809Y-100976485D01*
X160405290Y-100972400D01*
X161006510Y-100972400D01*
X161047991Y-100976485D01*
X161047991Y-100976485D01*
G37*
G36*
X141362691Y-100214485D02*
G01*
X141396669Y-100224793D01*
X141427990Y-100241534D01*
X141455439Y-100264061D01*
X141477966Y-100291510D01*
X141494707Y-100322831D01*
X141505015Y-100356809D01*
X141509100Y-100398290D01*
X141509100Y-101074510D01*
X141505015Y-101115991D01*
X141494707Y-101149969D01*
X141477966Y-101181290D01*
X141455439Y-101208739D01*
X141427990Y-101231266D01*
X141396669Y-101248007D01*
X141362691Y-101258315D01*
X141321210Y-101262400D01*
X140719990Y-101262400D01*
X140678509Y-101258315D01*
X140644531Y-101248007D01*
X140613210Y-101231266D01*
X140585761Y-101208739D01*
X140563234Y-101181290D01*
X140546493Y-101149969D01*
X140536185Y-101115991D01*
X140532100Y-101074510D01*
X140532100Y-100398290D01*
X140536185Y-100356809D01*
X140546493Y-100322831D01*
X140563234Y-100291510D01*
X140585761Y-100264061D01*
X140613210Y-100241534D01*
X140644531Y-100224793D01*
X140678509Y-100214485D01*
X140719990Y-100210400D01*
X141321210Y-100210400D01*
X141362691Y-100214485D01*
X141362691Y-100214485D01*
G37*
G36*
X142937691Y-100214485D02*
G01*
X142971669Y-100224793D01*
X143002990Y-100241534D01*
X143030439Y-100264061D01*
X143052966Y-100291510D01*
X143069707Y-100322831D01*
X143080015Y-100356809D01*
X143084100Y-100398290D01*
X143084100Y-101074510D01*
X143080015Y-101115991D01*
X143069707Y-101149969D01*
X143052966Y-101181290D01*
X143030439Y-101208739D01*
X143002990Y-101231266D01*
X142971669Y-101248007D01*
X142937691Y-101258315D01*
X142896210Y-101262400D01*
X142294990Y-101262400D01*
X142253509Y-101258315D01*
X142219531Y-101248007D01*
X142188210Y-101231266D01*
X142160761Y-101208739D01*
X142138234Y-101181290D01*
X142121493Y-101149969D01*
X142111185Y-101115991D01*
X142107100Y-101074510D01*
X142107100Y-100398290D01*
X142111185Y-100356809D01*
X142121493Y-100322831D01*
X142138234Y-100291510D01*
X142160761Y-100264061D01*
X142188210Y-100241534D01*
X142219531Y-100224793D01*
X142253509Y-100214485D01*
X142294990Y-100210400D01*
X142896210Y-100210400D01*
X142937691Y-100214485D01*
X142937691Y-100214485D01*
G37*
G36*
X117864842Y-98775118D02*
G01*
X117931027Y-98781637D01*
X118100866Y-98833157D01*
X118257391Y-98916822D01*
X118293129Y-98946152D01*
X118394586Y-99029414D01*
X118477848Y-99130871D01*
X118507178Y-99166609D01*
X118507179Y-99166611D01*
X118576340Y-99296000D01*
X118590843Y-99323134D01*
X118642363Y-99492973D01*
X118659759Y-99669600D01*
X118642363Y-99846227D01*
X118590843Y-100016066D01*
X118507178Y-100172591D01*
X118486965Y-100197220D01*
X118394586Y-100309786D01*
X118293129Y-100393048D01*
X118257391Y-100422378D01*
X118100866Y-100506043D01*
X117931027Y-100557563D01*
X117864843Y-100564081D01*
X117798660Y-100570600D01*
X117710140Y-100570600D01*
X117643958Y-100564082D01*
X117577773Y-100557563D01*
X117407934Y-100506043D01*
X117251409Y-100422378D01*
X117215671Y-100393048D01*
X117114214Y-100309786D01*
X117021835Y-100197220D01*
X117001622Y-100172591D01*
X116917957Y-100016066D01*
X116866437Y-99846227D01*
X116849041Y-99669600D01*
X116866437Y-99492973D01*
X116917957Y-99323134D01*
X116932461Y-99296000D01*
X117001621Y-99166611D01*
X117001622Y-99166609D01*
X117030952Y-99130871D01*
X117114214Y-99029414D01*
X117215671Y-98946152D01*
X117251409Y-98916822D01*
X117407934Y-98833157D01*
X117577773Y-98781637D01*
X117643958Y-98775118D01*
X117710140Y-98768600D01*
X117798660Y-98768600D01*
X117864842Y-98775118D01*
X117864842Y-98775118D01*
G37*
G36*
X159447691Y-99300085D02*
G01*
X159481669Y-99310393D01*
X159512990Y-99327134D01*
X159540439Y-99349661D01*
X159562966Y-99377110D01*
X159579707Y-99408431D01*
X159590015Y-99442409D01*
X159594100Y-99483890D01*
X159594100Y-100160110D01*
X159590015Y-100201591D01*
X159579707Y-100235569D01*
X159562966Y-100266890D01*
X159540439Y-100294339D01*
X159512990Y-100316866D01*
X159481669Y-100333607D01*
X159447691Y-100343915D01*
X159406210Y-100348000D01*
X158804990Y-100348000D01*
X158763509Y-100343915D01*
X158729531Y-100333607D01*
X158698210Y-100316866D01*
X158670761Y-100294339D01*
X158648234Y-100266890D01*
X158631493Y-100235569D01*
X158621185Y-100201591D01*
X158617100Y-100160110D01*
X158617100Y-99483890D01*
X158621185Y-99442409D01*
X158631493Y-99408431D01*
X158648234Y-99377110D01*
X158670761Y-99349661D01*
X158698210Y-99327134D01*
X158729531Y-99310393D01*
X158763509Y-99300085D01*
X158804990Y-99296000D01*
X159406210Y-99296000D01*
X159447691Y-99300085D01*
X159447691Y-99300085D01*
G37*
G36*
X161022691Y-99300085D02*
G01*
X161056669Y-99310393D01*
X161087990Y-99327134D01*
X161115439Y-99349661D01*
X161137966Y-99377110D01*
X161154707Y-99408431D01*
X161165015Y-99442409D01*
X161169100Y-99483890D01*
X161169100Y-100160110D01*
X161165015Y-100201591D01*
X161154707Y-100235569D01*
X161137966Y-100266890D01*
X161115439Y-100294339D01*
X161087990Y-100316866D01*
X161056669Y-100333607D01*
X161022691Y-100343915D01*
X160981210Y-100348000D01*
X160379990Y-100348000D01*
X160338509Y-100343915D01*
X160304531Y-100333607D01*
X160273210Y-100316866D01*
X160245761Y-100294339D01*
X160223234Y-100266890D01*
X160206493Y-100235569D01*
X160196185Y-100201591D01*
X160192100Y-100160110D01*
X160192100Y-99483890D01*
X160196185Y-99442409D01*
X160206493Y-99408431D01*
X160223234Y-99377110D01*
X160245761Y-99349661D01*
X160273210Y-99327134D01*
X160304531Y-99310393D01*
X160338509Y-99300085D01*
X160379990Y-99296000D01*
X160981210Y-99296000D01*
X161022691Y-99300085D01*
X161022691Y-99300085D01*
G37*
G36*
X141362691Y-98588885D02*
G01*
X141396669Y-98599193D01*
X141427990Y-98615934D01*
X141455439Y-98638461D01*
X141477966Y-98665910D01*
X141494707Y-98697231D01*
X141505015Y-98731209D01*
X141509100Y-98772690D01*
X141509100Y-99448910D01*
X141505015Y-99490391D01*
X141494707Y-99524369D01*
X141477966Y-99555690D01*
X141455439Y-99583139D01*
X141427990Y-99605666D01*
X141396669Y-99622407D01*
X141362691Y-99632715D01*
X141321210Y-99636800D01*
X140719990Y-99636800D01*
X140678509Y-99632715D01*
X140644531Y-99622407D01*
X140613210Y-99605666D01*
X140585761Y-99583139D01*
X140563234Y-99555690D01*
X140546493Y-99524369D01*
X140536185Y-99490391D01*
X140532100Y-99448910D01*
X140532100Y-98772690D01*
X140536185Y-98731209D01*
X140546493Y-98697231D01*
X140563234Y-98665910D01*
X140585761Y-98638461D01*
X140613210Y-98615934D01*
X140644531Y-98599193D01*
X140678509Y-98588885D01*
X140719990Y-98584800D01*
X141321210Y-98584800D01*
X141362691Y-98588885D01*
X141362691Y-98588885D01*
G37*
G36*
X142937691Y-98588885D02*
G01*
X142971669Y-98599193D01*
X143002990Y-98615934D01*
X143030439Y-98638461D01*
X143052966Y-98665910D01*
X143069707Y-98697231D01*
X143080015Y-98731209D01*
X143084100Y-98772690D01*
X143084100Y-99448910D01*
X143080015Y-99490391D01*
X143069707Y-99524369D01*
X143052966Y-99555690D01*
X143030439Y-99583139D01*
X143002990Y-99605666D01*
X142971669Y-99622407D01*
X142937691Y-99632715D01*
X142896210Y-99636800D01*
X142294990Y-99636800D01*
X142253509Y-99632715D01*
X142219531Y-99622407D01*
X142188210Y-99605666D01*
X142160761Y-99583139D01*
X142138234Y-99555690D01*
X142121493Y-99524369D01*
X142111185Y-99490391D01*
X142107100Y-99448910D01*
X142107100Y-98772690D01*
X142111185Y-98731209D01*
X142121493Y-98697231D01*
X142138234Y-98665910D01*
X142160761Y-98638461D01*
X142188210Y-98615934D01*
X142219531Y-98599193D01*
X142253509Y-98588885D01*
X142294990Y-98584800D01*
X142896210Y-98584800D01*
X142937691Y-98588885D01*
X142937691Y-98588885D01*
G37*
G36*
X117864843Y-96235119D02*
G01*
X117931027Y-96241637D01*
X118100866Y-96293157D01*
X118257391Y-96376822D01*
X118293129Y-96406152D01*
X118394586Y-96489414D01*
X118477848Y-96590871D01*
X118507178Y-96626609D01*
X118590843Y-96783134D01*
X118642363Y-96952973D01*
X118659759Y-97129600D01*
X118642363Y-97306227D01*
X118590843Y-97476066D01*
X118507178Y-97632591D01*
X118481501Y-97663878D01*
X118394586Y-97769786D01*
X118293129Y-97853048D01*
X118257391Y-97882378D01*
X118100866Y-97966043D01*
X117931027Y-98017563D01*
X117864842Y-98024082D01*
X117798660Y-98030600D01*
X117710140Y-98030600D01*
X117643958Y-98024082D01*
X117577773Y-98017563D01*
X117407934Y-97966043D01*
X117251409Y-97882378D01*
X117215671Y-97853048D01*
X117114214Y-97769786D01*
X117027299Y-97663878D01*
X117001622Y-97632591D01*
X116917957Y-97476066D01*
X116866437Y-97306227D01*
X116849041Y-97129600D01*
X116866437Y-96952973D01*
X116917957Y-96783134D01*
X117001622Y-96626609D01*
X117030952Y-96590871D01*
X117114214Y-96489414D01*
X117215671Y-96406152D01*
X117251409Y-96376822D01*
X117407934Y-96293157D01*
X117577773Y-96241637D01*
X117643958Y-96235118D01*
X117710140Y-96228600D01*
X117798660Y-96228600D01*
X117864843Y-96235119D01*
X117864843Y-96235119D01*
G37*
G36*
X142967568Y-96383165D02*
G01*
X143006238Y-96394896D01*
X143041877Y-96413946D01*
X143073117Y-96439583D01*
X143098754Y-96470823D01*
X143117804Y-96506462D01*
X143129535Y-96545132D01*
X143134100Y-96591488D01*
X143134100Y-97667712D01*
X143129535Y-97714068D01*
X143117804Y-97752738D01*
X143098754Y-97788377D01*
X143073117Y-97819617D01*
X143041877Y-97845254D01*
X143006238Y-97864304D01*
X142967568Y-97876035D01*
X142921212Y-97880600D01*
X142269988Y-97880600D01*
X142223632Y-97876035D01*
X142184962Y-97864304D01*
X142149323Y-97845254D01*
X142118083Y-97819617D01*
X142092446Y-97788377D01*
X142073396Y-97752738D01*
X142061665Y-97714068D01*
X142057100Y-97667712D01*
X142057100Y-96591488D01*
X142061665Y-96545132D01*
X142073396Y-96506462D01*
X142092446Y-96470823D01*
X142118083Y-96439583D01*
X142149323Y-96413946D01*
X142184962Y-96394896D01*
X142223632Y-96383165D01*
X142269988Y-96378600D01*
X142921212Y-96378600D01*
X142967568Y-96383165D01*
X142967568Y-96383165D01*
G37*
G36*
X141092568Y-96383165D02*
G01*
X141131238Y-96394896D01*
X141166877Y-96413946D01*
X141198117Y-96439583D01*
X141223754Y-96470823D01*
X141242804Y-96506462D01*
X141254535Y-96545132D01*
X141259100Y-96591488D01*
X141259100Y-97667712D01*
X141254535Y-97714068D01*
X141242804Y-97752738D01*
X141223754Y-97788377D01*
X141198117Y-97819617D01*
X141166877Y-97845254D01*
X141131238Y-97864304D01*
X141092568Y-97876035D01*
X141046212Y-97880600D01*
X140394988Y-97880600D01*
X140348632Y-97876035D01*
X140309962Y-97864304D01*
X140274323Y-97845254D01*
X140243083Y-97819617D01*
X140217446Y-97788377D01*
X140198396Y-97752738D01*
X140186665Y-97714068D01*
X140182100Y-97667712D01*
X140182100Y-96591488D01*
X140186665Y-96545132D01*
X140198396Y-96506462D01*
X140217446Y-96470823D01*
X140243083Y-96439583D01*
X140274323Y-96413946D01*
X140309962Y-96394896D01*
X140348632Y-96383165D01*
X140394988Y-96378600D01*
X141046212Y-96378600D01*
X141092568Y-96383165D01*
X141092568Y-96383165D01*
G37*
G36*
X165010168Y-95570365D02*
G01*
X165048838Y-95582096D01*
X165084477Y-95601146D01*
X165115717Y-95626783D01*
X165141354Y-95658023D01*
X165160404Y-95693662D01*
X165172135Y-95732332D01*
X165176700Y-95778688D01*
X165176700Y-96854912D01*
X165172135Y-96901268D01*
X165160404Y-96939938D01*
X165141354Y-96975577D01*
X165115717Y-97006817D01*
X165084477Y-97032454D01*
X165048838Y-97051504D01*
X165010168Y-97063235D01*
X164963812Y-97067800D01*
X164312588Y-97067800D01*
X164266232Y-97063235D01*
X164227562Y-97051504D01*
X164191923Y-97032454D01*
X164160683Y-97006817D01*
X164135046Y-96975577D01*
X164115996Y-96939938D01*
X164104265Y-96901268D01*
X164099700Y-96854912D01*
X164099700Y-95778688D01*
X164104265Y-95732332D01*
X164115996Y-95693662D01*
X164135046Y-95658023D01*
X164160683Y-95626783D01*
X164191923Y-95601146D01*
X164227562Y-95582096D01*
X164266232Y-95570365D01*
X164312588Y-95565800D01*
X164963812Y-95565800D01*
X165010168Y-95570365D01*
X165010168Y-95570365D01*
G37*
G36*
X163135168Y-95570365D02*
G01*
X163173838Y-95582096D01*
X163209477Y-95601146D01*
X163240717Y-95626783D01*
X163266354Y-95658023D01*
X163285404Y-95693662D01*
X163297135Y-95732332D01*
X163301700Y-95778688D01*
X163301700Y-96854912D01*
X163297135Y-96901268D01*
X163285404Y-96939938D01*
X163266354Y-96975577D01*
X163240717Y-97006817D01*
X163209477Y-97032454D01*
X163173838Y-97051504D01*
X163135168Y-97063235D01*
X163088812Y-97067800D01*
X162437588Y-97067800D01*
X162391232Y-97063235D01*
X162352562Y-97051504D01*
X162316923Y-97032454D01*
X162285683Y-97006817D01*
X162260046Y-96975577D01*
X162240996Y-96939938D01*
X162229265Y-96901268D01*
X162224700Y-96854912D01*
X162224700Y-95778688D01*
X162229265Y-95732332D01*
X162240996Y-95693662D01*
X162260046Y-95658023D01*
X162285683Y-95626783D01*
X162316923Y-95601146D01*
X162352562Y-95582096D01*
X162391232Y-95570365D01*
X162437588Y-95565800D01*
X163088812Y-95565800D01*
X163135168Y-95570365D01*
X163135168Y-95570365D01*
G37*
G36*
X143018368Y-93843165D02*
G01*
X143057038Y-93854896D01*
X143092677Y-93873946D01*
X143123917Y-93899583D01*
X143149554Y-93930823D01*
X143168604Y-93966462D01*
X143180335Y-94005132D01*
X143184900Y-94051488D01*
X143184900Y-95127712D01*
X143180335Y-95174068D01*
X143168604Y-95212738D01*
X143149554Y-95248377D01*
X143123917Y-95279617D01*
X143092677Y-95305254D01*
X143057038Y-95324304D01*
X143018368Y-95336035D01*
X142972012Y-95340600D01*
X142320788Y-95340600D01*
X142274432Y-95336035D01*
X142235762Y-95324304D01*
X142200123Y-95305254D01*
X142168883Y-95279617D01*
X142143246Y-95248377D01*
X142124196Y-95212738D01*
X142112465Y-95174068D01*
X142107900Y-95127712D01*
X142107900Y-94051488D01*
X142112465Y-94005132D01*
X142124196Y-93966462D01*
X142143246Y-93930823D01*
X142168883Y-93899583D01*
X142200123Y-93873946D01*
X142235762Y-93854896D01*
X142274432Y-93843165D01*
X142320788Y-93838600D01*
X142972012Y-93838600D01*
X143018368Y-93843165D01*
X143018368Y-93843165D01*
G37*
G36*
X144893368Y-93843165D02*
G01*
X144932038Y-93854896D01*
X144967677Y-93873946D01*
X144998917Y-93899583D01*
X145024554Y-93930823D01*
X145043604Y-93966462D01*
X145055335Y-94005132D01*
X145059900Y-94051488D01*
X145059900Y-95127712D01*
X145055335Y-95174068D01*
X145043604Y-95212738D01*
X145024554Y-95248377D01*
X144998917Y-95279617D01*
X144967677Y-95305254D01*
X144932038Y-95324304D01*
X144893368Y-95336035D01*
X144847012Y-95340600D01*
X144195788Y-95340600D01*
X144149432Y-95336035D01*
X144110762Y-95324304D01*
X144075123Y-95305254D01*
X144043883Y-95279617D01*
X144018246Y-95248377D01*
X143999196Y-95212738D01*
X143987465Y-95174068D01*
X143982900Y-95127712D01*
X143982900Y-94051488D01*
X143987465Y-94005132D01*
X143999196Y-93966462D01*
X144018246Y-93930823D01*
X144043883Y-93899583D01*
X144075123Y-93873946D01*
X144110762Y-93854896D01*
X144149432Y-93843165D01*
X144195788Y-93838600D01*
X144847012Y-93838600D01*
X144893368Y-93843165D01*
X144893368Y-93843165D01*
G37*
G36*
X163088968Y-93335165D02*
G01*
X163127638Y-93346896D01*
X163163277Y-93365946D01*
X163194517Y-93391583D01*
X163220154Y-93422823D01*
X163239204Y-93458462D01*
X163250935Y-93497132D01*
X163255500Y-93543488D01*
X163255500Y-94619712D01*
X163250935Y-94666068D01*
X163239204Y-94704738D01*
X163220154Y-94740377D01*
X163194517Y-94771617D01*
X163163277Y-94797254D01*
X163127638Y-94816304D01*
X163088968Y-94828035D01*
X163042612Y-94832600D01*
X162391388Y-94832600D01*
X162345032Y-94828035D01*
X162306362Y-94816304D01*
X162270723Y-94797254D01*
X162239483Y-94771617D01*
X162213846Y-94740377D01*
X162194796Y-94704738D01*
X162183065Y-94666068D01*
X162178500Y-94619712D01*
X162178500Y-93543488D01*
X162183065Y-93497132D01*
X162194796Y-93458462D01*
X162213846Y-93422823D01*
X162239483Y-93391583D01*
X162270723Y-93365946D01*
X162306362Y-93346896D01*
X162345032Y-93335165D01*
X162391388Y-93330600D01*
X163042612Y-93330600D01*
X163088968Y-93335165D01*
X163088968Y-93335165D01*
G37*
G36*
X164963968Y-93335165D02*
G01*
X165002638Y-93346896D01*
X165038277Y-93365946D01*
X165069517Y-93391583D01*
X165095154Y-93422823D01*
X165114204Y-93458462D01*
X165125935Y-93497132D01*
X165130500Y-93543488D01*
X165130500Y-94619712D01*
X165125935Y-94666068D01*
X165114204Y-94704738D01*
X165095154Y-94740377D01*
X165069517Y-94771617D01*
X165038277Y-94797254D01*
X165002638Y-94816304D01*
X164963968Y-94828035D01*
X164917612Y-94832600D01*
X164266388Y-94832600D01*
X164220032Y-94828035D01*
X164181362Y-94816304D01*
X164145723Y-94797254D01*
X164114483Y-94771617D01*
X164088846Y-94740377D01*
X164069796Y-94704738D01*
X164058065Y-94666068D01*
X164053500Y-94619712D01*
X164053500Y-93543488D01*
X164058065Y-93497132D01*
X164069796Y-93458462D01*
X164088846Y-93422823D01*
X164114483Y-93391583D01*
X164145723Y-93365946D01*
X164181362Y-93346896D01*
X164220032Y-93335165D01*
X164266388Y-93330600D01*
X164917612Y-93330600D01*
X164963968Y-93335165D01*
X164963968Y-93335165D01*
G37*
G36*
X159295291Y-93712085D02*
G01*
X159329269Y-93722393D01*
X159360590Y-93739134D01*
X159388039Y-93761661D01*
X159410566Y-93789110D01*
X159427307Y-93820431D01*
X159437615Y-93854409D01*
X159441700Y-93895890D01*
X159441700Y-94572110D01*
X159437615Y-94613591D01*
X159427307Y-94647569D01*
X159410566Y-94678890D01*
X159388039Y-94706339D01*
X159360590Y-94728866D01*
X159329269Y-94745607D01*
X159295291Y-94755915D01*
X159253810Y-94760000D01*
X158652590Y-94760000D01*
X158611109Y-94755915D01*
X158577131Y-94745607D01*
X158545810Y-94728866D01*
X158518361Y-94706339D01*
X158495834Y-94678890D01*
X158479093Y-94647569D01*
X158468785Y-94613591D01*
X158464700Y-94572110D01*
X158464700Y-93895890D01*
X158468785Y-93854409D01*
X158479093Y-93820431D01*
X158495834Y-93789110D01*
X158518361Y-93761661D01*
X158545810Y-93739134D01*
X158577131Y-93722393D01*
X158611109Y-93712085D01*
X158652590Y-93708000D01*
X159253810Y-93708000D01*
X159295291Y-93712085D01*
X159295291Y-93712085D01*
G37*
G36*
X160870291Y-93712085D02*
G01*
X160904269Y-93722393D01*
X160935590Y-93739134D01*
X160963039Y-93761661D01*
X160985566Y-93789110D01*
X161002307Y-93820431D01*
X161012615Y-93854409D01*
X161016700Y-93895890D01*
X161016700Y-94572110D01*
X161012615Y-94613591D01*
X161002307Y-94647569D01*
X160985566Y-94678890D01*
X160963039Y-94706339D01*
X160935590Y-94728866D01*
X160904269Y-94745607D01*
X160870291Y-94755915D01*
X160828810Y-94760000D01*
X160227590Y-94760000D01*
X160186109Y-94755915D01*
X160152131Y-94745607D01*
X160120810Y-94728866D01*
X160093361Y-94706339D01*
X160070834Y-94678890D01*
X160054093Y-94647569D01*
X160043785Y-94613591D01*
X160039700Y-94572110D01*
X160039700Y-93895890D01*
X160043785Y-93854409D01*
X160054093Y-93820431D01*
X160070834Y-93789110D01*
X160093361Y-93761661D01*
X160120810Y-93739134D01*
X160152131Y-93722393D01*
X160186109Y-93712085D01*
X160227590Y-93708000D01*
X160828810Y-93708000D01*
X160870291Y-93712085D01*
X160870291Y-93712085D01*
G37*
G36*
X167003591Y-93597385D02*
G01*
X167037569Y-93607693D01*
X167068890Y-93624434D01*
X167096339Y-93646961D01*
X167118866Y-93674410D01*
X167135607Y-93705731D01*
X167145915Y-93739709D01*
X167150000Y-93781190D01*
X167150000Y-94382410D01*
X167145915Y-94423891D01*
X167135607Y-94457869D01*
X167118866Y-94489190D01*
X167096339Y-94516639D01*
X167068890Y-94539166D01*
X167037569Y-94555907D01*
X167003591Y-94566215D01*
X166962110Y-94570300D01*
X166285890Y-94570300D01*
X166244409Y-94566215D01*
X166210431Y-94555907D01*
X166179110Y-94539166D01*
X166151661Y-94516639D01*
X166129134Y-94489190D01*
X166112393Y-94457869D01*
X166102085Y-94423891D01*
X166098000Y-94382410D01*
X166098000Y-93781190D01*
X166102085Y-93739709D01*
X166112393Y-93705731D01*
X166129134Y-93674410D01*
X166151661Y-93646961D01*
X166179110Y-93624434D01*
X166210431Y-93607693D01*
X166244409Y-93597385D01*
X166285890Y-93593300D01*
X166962110Y-93593300D01*
X167003591Y-93597385D01*
X167003591Y-93597385D01*
G37*
G36*
X154455991Y-92784385D02*
G01*
X154489969Y-92794693D01*
X154521290Y-92811434D01*
X154548739Y-92833961D01*
X154571266Y-92861410D01*
X154588007Y-92892731D01*
X154598315Y-92926709D01*
X154602400Y-92968190D01*
X154602400Y-93569410D01*
X154598315Y-93610891D01*
X154588007Y-93644869D01*
X154571266Y-93676190D01*
X154548739Y-93703639D01*
X154521290Y-93726166D01*
X154489969Y-93742907D01*
X154455991Y-93753215D01*
X154414510Y-93757300D01*
X153738290Y-93757300D01*
X153696809Y-93753215D01*
X153662831Y-93742907D01*
X153631510Y-93726166D01*
X153604061Y-93703639D01*
X153581534Y-93676190D01*
X153564793Y-93644869D01*
X153554485Y-93610891D01*
X153550400Y-93569410D01*
X153550400Y-92968190D01*
X153554485Y-92926709D01*
X153564793Y-92892731D01*
X153581534Y-92861410D01*
X153604061Y-92833961D01*
X153631510Y-92811434D01*
X153662831Y-92794693D01*
X153696809Y-92784385D01*
X153738290Y-92780300D01*
X154414510Y-92780300D01*
X154455991Y-92784385D01*
X154455991Y-92784385D01*
G37*
G36*
X156691191Y-92759085D02*
G01*
X156725169Y-92769393D01*
X156756490Y-92786134D01*
X156783939Y-92808661D01*
X156806466Y-92836110D01*
X156823207Y-92867431D01*
X156833515Y-92901409D01*
X156837600Y-92942890D01*
X156837600Y-93544110D01*
X156833515Y-93585591D01*
X156823207Y-93619569D01*
X156806466Y-93650890D01*
X156783939Y-93678339D01*
X156756490Y-93700866D01*
X156725169Y-93717607D01*
X156691191Y-93727915D01*
X156649710Y-93732000D01*
X155973490Y-93732000D01*
X155932009Y-93727915D01*
X155898031Y-93717607D01*
X155866710Y-93700866D01*
X155839261Y-93678339D01*
X155816734Y-93650890D01*
X155799993Y-93619569D01*
X155789685Y-93585591D01*
X155785600Y-93544110D01*
X155785600Y-92942890D01*
X155789685Y-92901409D01*
X155799993Y-92867431D01*
X155816734Y-92836110D01*
X155839261Y-92808661D01*
X155866710Y-92786134D01*
X155898031Y-92769393D01*
X155932009Y-92759085D01*
X155973490Y-92755000D01*
X156649710Y-92755000D01*
X156691191Y-92759085D01*
X156691191Y-92759085D01*
G37*
G36*
X143293091Y-92238885D02*
G01*
X143327069Y-92249193D01*
X143358390Y-92265934D01*
X143385839Y-92288461D01*
X143408366Y-92315910D01*
X143425107Y-92347231D01*
X143435415Y-92381209D01*
X143439500Y-92422690D01*
X143439500Y-93098910D01*
X143435415Y-93140391D01*
X143425107Y-93174369D01*
X143408366Y-93205690D01*
X143385839Y-93233139D01*
X143358390Y-93255666D01*
X143327069Y-93272407D01*
X143293091Y-93282715D01*
X143251610Y-93286800D01*
X142650390Y-93286800D01*
X142608909Y-93282715D01*
X142574931Y-93272407D01*
X142543610Y-93255666D01*
X142516161Y-93233139D01*
X142493634Y-93205690D01*
X142476893Y-93174369D01*
X142466585Y-93140391D01*
X142462500Y-93098910D01*
X142462500Y-92422690D01*
X142466585Y-92381209D01*
X142476893Y-92347231D01*
X142493634Y-92315910D01*
X142516161Y-92288461D01*
X142543610Y-92265934D01*
X142574931Y-92249193D01*
X142608909Y-92238885D01*
X142650390Y-92234800D01*
X143251610Y-92234800D01*
X143293091Y-92238885D01*
X143293091Y-92238885D01*
G37*
G36*
X144868091Y-92238885D02*
G01*
X144902069Y-92249193D01*
X144933390Y-92265934D01*
X144960839Y-92288461D01*
X144983366Y-92315910D01*
X145000107Y-92347231D01*
X145010415Y-92381209D01*
X145014500Y-92422690D01*
X145014500Y-93098910D01*
X145010415Y-93140391D01*
X145000107Y-93174369D01*
X144983366Y-93205690D01*
X144960839Y-93233139D01*
X144933390Y-93255666D01*
X144902069Y-93272407D01*
X144868091Y-93282715D01*
X144826610Y-93286800D01*
X144225390Y-93286800D01*
X144183909Y-93282715D01*
X144149931Y-93272407D01*
X144118610Y-93255666D01*
X144091161Y-93233139D01*
X144068634Y-93205690D01*
X144051893Y-93174369D01*
X144041585Y-93140391D01*
X144037500Y-93098910D01*
X144037500Y-92422690D01*
X144041585Y-92381209D01*
X144051893Y-92347231D01*
X144068634Y-92315910D01*
X144091161Y-92288461D01*
X144118610Y-92265934D01*
X144149931Y-92249193D01*
X144183909Y-92238885D01*
X144225390Y-92234800D01*
X144826610Y-92234800D01*
X144868091Y-92238885D01*
X144868091Y-92238885D01*
G37*
G36*
X160870091Y-92137285D02*
G01*
X160904069Y-92147593D01*
X160935388Y-92164333D01*
X160962839Y-92186861D01*
X160985366Y-92214310D01*
X161002107Y-92245631D01*
X161012415Y-92279609D01*
X161016500Y-92321090D01*
X161016500Y-92997310D01*
X161012415Y-93038791D01*
X161002107Y-93072769D01*
X160985366Y-93104090D01*
X160962839Y-93131539D01*
X160935390Y-93154066D01*
X160904069Y-93170807D01*
X160870091Y-93181115D01*
X160828610Y-93185200D01*
X160227390Y-93185200D01*
X160185909Y-93181115D01*
X160151931Y-93170807D01*
X160120610Y-93154066D01*
X160093161Y-93131539D01*
X160070634Y-93104090D01*
X160053893Y-93072769D01*
X160043585Y-93038791D01*
X160039500Y-92997310D01*
X160039500Y-92321090D01*
X160043585Y-92279609D01*
X160053893Y-92245631D01*
X160070634Y-92214310D01*
X160093161Y-92186861D01*
X160120612Y-92164333D01*
X160151931Y-92147593D01*
X160185909Y-92137285D01*
X160227390Y-92133200D01*
X160828610Y-92133200D01*
X160870091Y-92137285D01*
X160870091Y-92137285D01*
G37*
G36*
X159295091Y-92137285D02*
G01*
X159329069Y-92147593D01*
X159360388Y-92164333D01*
X159387839Y-92186861D01*
X159410366Y-92214310D01*
X159427107Y-92245631D01*
X159437415Y-92279609D01*
X159441500Y-92321090D01*
X159441500Y-92997310D01*
X159437415Y-93038791D01*
X159427107Y-93072769D01*
X159410366Y-93104090D01*
X159387839Y-93131539D01*
X159360390Y-93154066D01*
X159329069Y-93170807D01*
X159295091Y-93181115D01*
X159253610Y-93185200D01*
X158652390Y-93185200D01*
X158610909Y-93181115D01*
X158576931Y-93170807D01*
X158545610Y-93154066D01*
X158518161Y-93131539D01*
X158495634Y-93104090D01*
X158478893Y-93072769D01*
X158468585Y-93038791D01*
X158464500Y-92997310D01*
X158464500Y-92321090D01*
X158468585Y-92279609D01*
X158478893Y-92245631D01*
X158495634Y-92214310D01*
X158518161Y-92186861D01*
X158545612Y-92164333D01*
X158576931Y-92147593D01*
X158610909Y-92137285D01*
X158652390Y-92133200D01*
X159253610Y-92133200D01*
X159295091Y-92137285D01*
X159295091Y-92137285D01*
G37*
G36*
X167003591Y-92022385D02*
G01*
X167037569Y-92032693D01*
X167068890Y-92049434D01*
X167096339Y-92071961D01*
X167118866Y-92099410D01*
X167135607Y-92130731D01*
X167145915Y-92164709D01*
X167150000Y-92206190D01*
X167150000Y-92807410D01*
X167145915Y-92848891D01*
X167135607Y-92882869D01*
X167118866Y-92914190D01*
X167096339Y-92941639D01*
X167068890Y-92964166D01*
X167037569Y-92980907D01*
X167003591Y-92991215D01*
X166962110Y-92995300D01*
X166285890Y-92995300D01*
X166244409Y-92991215D01*
X166210431Y-92980907D01*
X166179110Y-92964166D01*
X166151661Y-92941639D01*
X166129134Y-92914190D01*
X166112393Y-92882869D01*
X166102085Y-92848891D01*
X166098000Y-92807410D01*
X166098000Y-92206190D01*
X166102085Y-92164709D01*
X166112393Y-92130731D01*
X166129134Y-92099410D01*
X166151661Y-92071961D01*
X166179110Y-92049434D01*
X166210431Y-92032693D01*
X166244409Y-92022385D01*
X166285890Y-92018300D01*
X166962110Y-92018300D01*
X167003591Y-92022385D01*
X167003591Y-92022385D01*
G37*
G36*
X154455991Y-91209385D02*
G01*
X154489969Y-91219693D01*
X154521290Y-91236434D01*
X154548739Y-91258961D01*
X154571266Y-91286410D01*
X154588007Y-91317731D01*
X154598315Y-91351709D01*
X154602400Y-91393190D01*
X154602400Y-91994410D01*
X154598315Y-92035891D01*
X154588007Y-92069869D01*
X154571266Y-92101190D01*
X154548739Y-92128639D01*
X154521290Y-92151166D01*
X154489969Y-92167907D01*
X154455991Y-92178215D01*
X154414510Y-92182300D01*
X153738290Y-92182300D01*
X153696809Y-92178215D01*
X153662831Y-92167907D01*
X153631510Y-92151166D01*
X153604061Y-92128639D01*
X153581534Y-92101190D01*
X153564793Y-92069869D01*
X153554485Y-92035891D01*
X153550400Y-91994410D01*
X153550400Y-91393190D01*
X153554485Y-91351709D01*
X153564793Y-91317731D01*
X153581534Y-91286410D01*
X153604061Y-91258961D01*
X153631510Y-91236434D01*
X153662831Y-91219693D01*
X153696809Y-91209385D01*
X153738290Y-91205300D01*
X154414510Y-91205300D01*
X154455991Y-91209385D01*
X154455991Y-91209385D01*
G37*
G36*
X156691191Y-91184085D02*
G01*
X156725169Y-91194393D01*
X156756490Y-91211134D01*
X156783939Y-91233661D01*
X156806466Y-91261110D01*
X156823207Y-91292431D01*
X156833515Y-91326409D01*
X156837600Y-91367890D01*
X156837600Y-91969110D01*
X156833515Y-92010591D01*
X156823207Y-92044569D01*
X156806466Y-92075890D01*
X156783939Y-92103339D01*
X156756490Y-92125866D01*
X156725169Y-92142607D01*
X156691191Y-92152915D01*
X156649710Y-92157000D01*
X155973490Y-92157000D01*
X155932009Y-92152915D01*
X155898031Y-92142607D01*
X155866710Y-92125866D01*
X155839261Y-92103339D01*
X155816734Y-92075890D01*
X155799993Y-92044569D01*
X155789685Y-92010591D01*
X155785600Y-91969110D01*
X155785600Y-91367890D01*
X155789685Y-91326409D01*
X155799993Y-91292431D01*
X155816734Y-91261110D01*
X155839261Y-91233661D01*
X155866710Y-91211134D01*
X155898031Y-91194393D01*
X155932009Y-91184085D01*
X155973490Y-91180000D01*
X156649710Y-91180000D01*
X156691191Y-91184085D01*
X156691191Y-91184085D01*
G37*
G36*
X163061268Y-90236365D02*
G01*
X163099938Y-90248096D01*
X163135577Y-90267146D01*
X163166817Y-90292783D01*
X163192454Y-90324023D01*
X163211504Y-90359662D01*
X163223235Y-90398332D01*
X163227800Y-90444688D01*
X163227800Y-91520912D01*
X163223235Y-91567268D01*
X163211504Y-91605938D01*
X163192454Y-91641577D01*
X163166817Y-91672817D01*
X163135577Y-91698454D01*
X163099938Y-91717504D01*
X163061268Y-91729235D01*
X163014912Y-91733800D01*
X162363688Y-91733800D01*
X162317332Y-91729235D01*
X162278662Y-91717504D01*
X162243023Y-91698454D01*
X162211783Y-91672817D01*
X162186146Y-91641577D01*
X162167096Y-91605938D01*
X162155365Y-91567268D01*
X162150800Y-91520912D01*
X162150800Y-90444688D01*
X162155365Y-90398332D01*
X162167096Y-90359662D01*
X162186146Y-90324023D01*
X162211783Y-90292783D01*
X162243023Y-90267146D01*
X162278662Y-90248096D01*
X162317332Y-90236365D01*
X162363688Y-90231800D01*
X163014912Y-90231800D01*
X163061268Y-90236365D01*
X163061268Y-90236365D01*
G37*
G36*
X164936268Y-90236365D02*
G01*
X164974938Y-90248096D01*
X165010577Y-90267146D01*
X165041817Y-90292783D01*
X165067454Y-90324023D01*
X165086504Y-90359662D01*
X165098235Y-90398332D01*
X165102800Y-90444688D01*
X165102800Y-91520912D01*
X165098235Y-91567268D01*
X165086504Y-91605938D01*
X165067454Y-91641577D01*
X165041817Y-91672817D01*
X165010577Y-91698454D01*
X164974938Y-91717504D01*
X164936268Y-91729235D01*
X164889912Y-91733800D01*
X164238688Y-91733800D01*
X164192332Y-91729235D01*
X164153662Y-91717504D01*
X164118023Y-91698454D01*
X164086783Y-91672817D01*
X164061146Y-91641577D01*
X164042096Y-91605938D01*
X164030365Y-91567268D01*
X164025800Y-91520912D01*
X164025800Y-90444688D01*
X164030365Y-90398332D01*
X164042096Y-90359662D01*
X164061146Y-90324023D01*
X164086783Y-90292783D01*
X164118023Y-90267146D01*
X164153662Y-90248096D01*
X164192332Y-90236365D01*
X164238688Y-90231800D01*
X164889912Y-90231800D01*
X164936268Y-90236365D01*
X164936268Y-90236365D01*
G37*
G36*
X144842791Y-90562485D02*
G01*
X144876769Y-90572793D01*
X144908090Y-90589534D01*
X144935539Y-90612061D01*
X144958066Y-90639510D01*
X144974807Y-90670831D01*
X144985115Y-90704809D01*
X144989200Y-90746290D01*
X144989200Y-91422510D01*
X144985115Y-91463991D01*
X144974807Y-91497969D01*
X144958066Y-91529290D01*
X144935539Y-91556739D01*
X144908090Y-91579266D01*
X144876769Y-91596007D01*
X144842791Y-91606315D01*
X144801310Y-91610400D01*
X144200090Y-91610400D01*
X144158609Y-91606315D01*
X144124631Y-91596007D01*
X144093310Y-91579266D01*
X144065861Y-91556739D01*
X144043334Y-91529290D01*
X144026593Y-91497969D01*
X144016285Y-91463991D01*
X144012200Y-91422510D01*
X144012200Y-90746290D01*
X144016285Y-90704809D01*
X144026593Y-90670831D01*
X144043334Y-90639510D01*
X144065861Y-90612061D01*
X144093310Y-90589534D01*
X144124631Y-90572793D01*
X144158609Y-90562485D01*
X144200090Y-90558400D01*
X144801310Y-90558400D01*
X144842791Y-90562485D01*
X144842791Y-90562485D01*
G37*
G36*
X143267791Y-90562485D02*
G01*
X143301769Y-90572793D01*
X143333090Y-90589534D01*
X143360539Y-90612061D01*
X143383066Y-90639510D01*
X143399807Y-90670831D01*
X143410115Y-90704809D01*
X143414200Y-90746290D01*
X143414200Y-91422510D01*
X143410115Y-91463991D01*
X143399807Y-91497969D01*
X143383066Y-91529290D01*
X143360539Y-91556739D01*
X143333090Y-91579266D01*
X143301769Y-91596007D01*
X143267791Y-91606315D01*
X143226310Y-91610400D01*
X142625090Y-91610400D01*
X142583609Y-91606315D01*
X142549631Y-91596007D01*
X142518310Y-91579266D01*
X142490861Y-91556739D01*
X142468334Y-91529290D01*
X142451593Y-91497969D01*
X142441285Y-91463991D01*
X142437200Y-91422510D01*
X142437200Y-90746290D01*
X142441285Y-90704809D01*
X142451593Y-90670831D01*
X142468334Y-90639510D01*
X142490861Y-90612061D01*
X142518310Y-90589534D01*
X142549631Y-90572793D01*
X142583609Y-90562485D01*
X142625090Y-90558400D01*
X143226310Y-90558400D01*
X143267791Y-90562485D01*
X143267791Y-90562485D01*
G37*
G36*
X159295091Y-90460885D02*
G01*
X159329069Y-90471193D01*
X159360390Y-90487934D01*
X159387839Y-90510461D01*
X159410366Y-90537910D01*
X159427107Y-90569231D01*
X159437415Y-90603209D01*
X159441500Y-90644690D01*
X159441500Y-91320910D01*
X159437415Y-91362391D01*
X159427107Y-91396369D01*
X159410366Y-91427690D01*
X159387839Y-91455139D01*
X159360390Y-91477666D01*
X159329069Y-91494407D01*
X159295091Y-91504715D01*
X159253610Y-91508800D01*
X158652390Y-91508800D01*
X158610909Y-91504715D01*
X158576931Y-91494407D01*
X158545610Y-91477666D01*
X158518161Y-91455139D01*
X158495634Y-91427690D01*
X158478893Y-91396369D01*
X158468585Y-91362391D01*
X158464500Y-91320910D01*
X158464500Y-90644690D01*
X158468585Y-90603209D01*
X158478893Y-90569231D01*
X158495634Y-90537910D01*
X158518161Y-90510461D01*
X158545610Y-90487934D01*
X158576931Y-90471193D01*
X158610909Y-90460885D01*
X158652390Y-90456800D01*
X159253610Y-90456800D01*
X159295091Y-90460885D01*
X159295091Y-90460885D01*
G37*
G36*
X160870091Y-90460885D02*
G01*
X160904069Y-90471193D01*
X160935390Y-90487934D01*
X160962839Y-90510461D01*
X160985366Y-90537910D01*
X161002107Y-90569231D01*
X161012415Y-90603209D01*
X161016500Y-90644690D01*
X161016500Y-91320910D01*
X161012415Y-91362391D01*
X161002107Y-91396369D01*
X160985366Y-91427690D01*
X160962839Y-91455139D01*
X160935390Y-91477666D01*
X160904069Y-91494407D01*
X160870091Y-91504715D01*
X160828610Y-91508800D01*
X160227390Y-91508800D01*
X160185909Y-91504715D01*
X160151931Y-91494407D01*
X160120610Y-91477666D01*
X160093161Y-91455139D01*
X160070634Y-91427690D01*
X160053893Y-91396369D01*
X160043585Y-91362391D01*
X160039500Y-91320910D01*
X160039500Y-90644690D01*
X160043585Y-90603209D01*
X160053893Y-90569231D01*
X160070634Y-90537910D01*
X160093161Y-90510461D01*
X160120610Y-90487934D01*
X160151931Y-90471193D01*
X160185909Y-90460885D01*
X160227390Y-90456800D01*
X160828610Y-90456800D01*
X160870091Y-90460885D01*
X160870091Y-90460885D01*
G37*
G36*
X156348891Y-89394085D02*
G01*
X156382869Y-89404393D01*
X156414190Y-89421134D01*
X156441639Y-89443661D01*
X156464166Y-89471110D01*
X156480907Y-89502431D01*
X156491215Y-89536409D01*
X156495300Y-89577890D01*
X156495300Y-90254110D01*
X156491215Y-90295591D01*
X156480907Y-90329569D01*
X156464166Y-90360890D01*
X156441639Y-90388339D01*
X156414190Y-90410866D01*
X156382869Y-90427607D01*
X156348891Y-90437915D01*
X156307410Y-90442000D01*
X155706190Y-90442000D01*
X155664709Y-90437915D01*
X155630731Y-90427607D01*
X155599410Y-90410866D01*
X155571961Y-90388339D01*
X155549434Y-90360890D01*
X155532693Y-90329569D01*
X155522385Y-90295591D01*
X155518300Y-90254110D01*
X155518300Y-89577890D01*
X155522385Y-89536409D01*
X155532693Y-89502431D01*
X155549434Y-89471110D01*
X155571961Y-89443661D01*
X155599410Y-89421134D01*
X155630731Y-89404393D01*
X155664709Y-89394085D01*
X155706190Y-89390000D01*
X156307410Y-89390000D01*
X156348891Y-89394085D01*
X156348891Y-89394085D01*
G37*
G36*
X154773891Y-89394085D02*
G01*
X154807869Y-89404393D01*
X154839190Y-89421134D01*
X154866639Y-89443661D01*
X154889166Y-89471110D01*
X154905907Y-89502431D01*
X154916215Y-89536409D01*
X154920300Y-89577890D01*
X154920300Y-90254110D01*
X154916215Y-90295591D01*
X154905907Y-90329569D01*
X154889166Y-90360890D01*
X154866639Y-90388339D01*
X154839190Y-90410866D01*
X154807869Y-90427607D01*
X154773891Y-90437915D01*
X154732410Y-90442000D01*
X154131190Y-90442000D01*
X154089709Y-90437915D01*
X154055731Y-90427607D01*
X154024410Y-90410866D01*
X153996961Y-90388339D01*
X153974434Y-90360890D01*
X153957693Y-90329569D01*
X153947385Y-90295591D01*
X153943300Y-90254110D01*
X153943300Y-89577890D01*
X153947385Y-89536409D01*
X153957693Y-89502431D01*
X153974434Y-89471110D01*
X153996961Y-89443661D01*
X154024410Y-89421134D01*
X154055731Y-89404393D01*
X154089709Y-89394085D01*
X154131190Y-89390000D01*
X154732410Y-89390000D01*
X154773891Y-89394085D01*
X154773891Y-89394085D01*
G37*
G36*
X144817491Y-88886085D02*
G01*
X144851469Y-88896393D01*
X144882790Y-88913134D01*
X144910239Y-88935661D01*
X144932766Y-88963110D01*
X144949507Y-88994431D01*
X144959815Y-89028409D01*
X144963900Y-89069890D01*
X144963900Y-89746110D01*
X144959815Y-89787591D01*
X144949507Y-89821569D01*
X144932766Y-89852890D01*
X144910239Y-89880339D01*
X144882790Y-89902866D01*
X144851469Y-89919607D01*
X144817491Y-89929915D01*
X144776010Y-89934000D01*
X144174790Y-89934000D01*
X144133309Y-89929915D01*
X144099331Y-89919607D01*
X144068010Y-89902866D01*
X144040561Y-89880339D01*
X144018034Y-89852890D01*
X144001293Y-89821569D01*
X143990985Y-89787591D01*
X143986900Y-89746110D01*
X143986900Y-89069890D01*
X143990985Y-89028409D01*
X144001293Y-88994431D01*
X144018034Y-88963110D01*
X144040561Y-88935661D01*
X144068010Y-88913134D01*
X144099331Y-88896393D01*
X144133309Y-88886085D01*
X144174790Y-88882000D01*
X144776010Y-88882000D01*
X144817491Y-88886085D01*
X144817491Y-88886085D01*
G37*
G36*
X143242491Y-88886085D02*
G01*
X143276469Y-88896393D01*
X143307790Y-88913134D01*
X143335239Y-88935661D01*
X143357766Y-88963110D01*
X143374507Y-88994431D01*
X143384815Y-89028409D01*
X143388900Y-89069890D01*
X143388900Y-89746110D01*
X143384815Y-89787591D01*
X143374507Y-89821569D01*
X143357766Y-89852890D01*
X143335239Y-89880339D01*
X143307790Y-89902866D01*
X143276469Y-89919607D01*
X143242491Y-89929915D01*
X143201010Y-89934000D01*
X142599790Y-89934000D01*
X142558309Y-89929915D01*
X142524331Y-89919607D01*
X142493010Y-89902866D01*
X142465561Y-89880339D01*
X142443034Y-89852890D01*
X142426293Y-89821569D01*
X142415985Y-89787591D01*
X142411900Y-89746110D01*
X142411900Y-89069890D01*
X142415985Y-89028409D01*
X142426293Y-88994431D01*
X142443034Y-88963110D01*
X142465561Y-88935661D01*
X142493010Y-88913134D01*
X142524331Y-88896393D01*
X142558309Y-88886085D01*
X142599790Y-88882000D01*
X143201010Y-88882000D01*
X143242491Y-88886085D01*
X143242491Y-88886085D01*
G37*
G36*
X144870268Y-86477165D02*
G01*
X144908938Y-86488896D01*
X144944577Y-86507946D01*
X144975817Y-86533583D01*
X145001454Y-86564823D01*
X145020504Y-86600462D01*
X145032235Y-86639132D01*
X145036800Y-86685488D01*
X145036800Y-87761712D01*
X145032235Y-87808068D01*
X145020504Y-87846738D01*
X145001454Y-87882377D01*
X144975817Y-87913617D01*
X144944577Y-87939254D01*
X144908938Y-87958304D01*
X144870268Y-87970035D01*
X144823912Y-87974600D01*
X144172688Y-87974600D01*
X144126332Y-87970035D01*
X144087662Y-87958304D01*
X144052023Y-87939254D01*
X144020783Y-87913617D01*
X143995146Y-87882377D01*
X143976096Y-87846738D01*
X143964365Y-87808068D01*
X143959800Y-87761712D01*
X143959800Y-86685488D01*
X143964365Y-86639132D01*
X143976096Y-86600462D01*
X143995146Y-86564823D01*
X144020783Y-86533583D01*
X144052023Y-86507946D01*
X144087662Y-86488896D01*
X144126332Y-86477165D01*
X144172688Y-86472600D01*
X144823912Y-86472600D01*
X144870268Y-86477165D01*
X144870268Y-86477165D01*
G37*
G36*
X142995268Y-86477165D02*
G01*
X143033938Y-86488896D01*
X143069577Y-86507946D01*
X143100817Y-86533583D01*
X143126454Y-86564823D01*
X143145504Y-86600462D01*
X143157235Y-86639132D01*
X143161800Y-86685488D01*
X143161800Y-87761712D01*
X143157235Y-87808068D01*
X143145504Y-87846738D01*
X143126454Y-87882377D01*
X143100817Y-87913617D01*
X143069577Y-87939254D01*
X143033938Y-87958304D01*
X142995268Y-87970035D01*
X142948912Y-87974600D01*
X142297688Y-87974600D01*
X142251332Y-87970035D01*
X142212662Y-87958304D01*
X142177023Y-87939254D01*
X142145783Y-87913617D01*
X142120146Y-87882377D01*
X142101096Y-87846738D01*
X142089365Y-87808068D01*
X142084800Y-87761712D01*
X142084800Y-86685488D01*
X142089365Y-86639132D01*
X142101096Y-86600462D01*
X142120146Y-86564823D01*
X142145783Y-86533583D01*
X142177023Y-86507946D01*
X142212662Y-86488896D01*
X142251332Y-86477165D01*
X142297688Y-86472600D01*
X142948912Y-86472600D01*
X142995268Y-86477165D01*
X142995268Y-86477165D01*
G37*
G36*
X174721200Y-81483000D02*
G01*
X161719200Y-81483000D01*
X161719200Y-80731000D01*
X174721200Y-80731000D01*
X174721200Y-81483000D01*
X174721200Y-81483000D01*
G37*
G36*
X175021200Y-77856001D02*
G01*
X175023602Y-77880387D01*
X175030715Y-77903836D01*
X175042266Y-77925447D01*
X175057811Y-77944389D01*
X175076753Y-77959934D01*
X175098364Y-77971485D01*
X175121813Y-77978598D01*
X175146199Y-77981000D01*
X175771200Y-77981000D01*
X175771200Y-79033000D01*
X175269200Y-79033000D01*
X175269200Y-78807999D01*
X175266798Y-78783613D01*
X175259685Y-78760164D01*
X175248134Y-78738553D01*
X175232589Y-78719611D01*
X175213647Y-78704066D01*
X175192036Y-78692515D01*
X175168587Y-78685402D01*
X175144201Y-78683000D01*
X161296199Y-78683000D01*
X161271813Y-78685402D01*
X161248364Y-78692515D01*
X161226753Y-78704066D01*
X161207811Y-78719611D01*
X161192266Y-78738553D01*
X161180715Y-78760164D01*
X161173602Y-78783613D01*
X161171200Y-78807999D01*
X161171200Y-79033000D01*
X160669200Y-79033000D01*
X160669200Y-77981000D01*
X161294201Y-77981000D01*
X161318587Y-77978598D01*
X161342036Y-77971485D01*
X161363647Y-77959934D01*
X161382589Y-77944389D01*
X161398134Y-77925447D01*
X161409685Y-77903836D01*
X161416798Y-77880387D01*
X161419200Y-77856001D01*
X161419200Y-77781000D01*
X175021200Y-77781000D01*
X175021200Y-77856001D01*
X175021200Y-77856001D01*
G37*
M02*
