G04 #@! TF.GenerationSoftware,KiCad,Pcbnew,5.1.0*
G04 #@! TF.CreationDate,2019-03-26T01:50:18+00:00*
G04 #@! TF.ProjectId,ESP32_K210,45535033-325f-44b3-9231-302e6b696361,rev?*
G04 #@! TF.SameCoordinates,Original*
G04 #@! TF.FileFunction,Legend,Bot*
G04 #@! TF.FilePolarity,Positive*
%FSLAX46Y46*%
G04 Gerber Fmt 4.6, Leading zero omitted, Abs format (unit mm)*
G04 Created by KiCad (PCBNEW 5.1.0) date 2019-03-26 01:50:18*
%MOMM*%
%LPD*%
G04 APERTURE LIST*
%ADD10C,0.120000*%
%ADD11C,0.150000*%
G04 APERTURE END LIST*
D10*
X155382079Y-89406000D02*
X155056521Y-89406000D01*
X155382079Y-90426000D02*
X155056521Y-90426000D01*
X153439400Y-106110921D02*
X153439400Y-106436479D01*
X154459400Y-106110921D02*
X154459400Y-106436479D01*
X153566400Y-92644079D02*
X153566400Y-92318521D01*
X154586400Y-92644079D02*
X154586400Y-92318521D01*
X155801600Y-92293221D02*
X155801600Y-92618779D01*
X156821600Y-92293221D02*
X156821600Y-92618779D01*
X151001800Y-106190522D02*
X151001800Y-106707678D01*
X149581800Y-106190522D02*
X149581800Y-106707678D01*
X151483600Y-106110921D02*
X151483600Y-106436479D01*
X152503600Y-106110921D02*
X152503600Y-106436479D01*
X141916678Y-96419600D02*
X141399522Y-96419600D01*
X141916678Y-97839600D02*
X141399522Y-97839600D01*
X141970879Y-104396000D02*
X141645321Y-104396000D01*
X141970879Y-103376000D02*
X141645321Y-103376000D01*
X141970879Y-98600800D02*
X141645321Y-98600800D01*
X141970879Y-99620800D02*
X141645321Y-99620800D01*
X141970879Y-101246400D02*
X141645321Y-101246400D01*
X141970879Y-100226400D02*
X141645321Y-100226400D01*
X141970879Y-101801200D02*
X141645321Y-101801200D01*
X141970879Y-102821200D02*
X141645321Y-102821200D01*
X159730321Y-99312000D02*
X160055879Y-99312000D01*
X159730321Y-100332000D02*
X160055879Y-100332000D01*
X159812222Y-105713600D02*
X160329378Y-105713600D01*
X159812222Y-104293600D02*
X160329378Y-104293600D01*
X159755621Y-102008400D02*
X160081179Y-102008400D01*
X159755621Y-100988400D02*
X160081179Y-100988400D01*
X159755621Y-102614000D02*
X160081179Y-102614000D01*
X159755621Y-103634000D02*
X160081179Y-103634000D01*
X155141200Y-106110821D02*
X155141200Y-106436379D01*
X156161200Y-106110821D02*
X156161200Y-106436379D01*
X143842478Y-95299600D02*
X143325322Y-95299600D01*
X143842478Y-93879600D02*
X143325322Y-93879600D01*
X156817600Y-106060021D02*
X156817600Y-106385579D01*
X157837600Y-106060021D02*
X157837600Y-106385579D01*
X143819378Y-86513600D02*
X143302222Y-86513600D01*
X143819378Y-87933600D02*
X143302222Y-87933600D01*
X143875979Y-90574400D02*
X143550421Y-90574400D01*
X143875979Y-91594400D02*
X143550421Y-91594400D01*
X159755621Y-107444000D02*
X160081179Y-107444000D01*
X159755621Y-106424000D02*
X160081179Y-106424000D01*
X143901279Y-93270800D02*
X143575721Y-93270800D01*
X143901279Y-92250800D02*
X143575721Y-92250800D01*
X159755621Y-107998800D02*
X160081179Y-107998800D01*
X159755621Y-109018800D02*
X160081179Y-109018800D01*
X143850679Y-88898000D02*
X143525121Y-88898000D01*
X143850679Y-89918000D02*
X143525121Y-89918000D01*
X159577721Y-93169200D02*
X159903279Y-93169200D01*
X159577721Y-92149200D02*
X159903279Y-92149200D01*
X159577721Y-91492800D02*
X159903279Y-91492800D01*
X159577721Y-90472800D02*
X159903279Y-90472800D01*
X166114000Y-93457079D02*
X166114000Y-93131521D01*
X167134000Y-93457079D02*
X167134000Y-93131521D01*
X159577921Y-93724000D02*
X159903479Y-93724000D01*
X159577921Y-94744000D02*
X159903479Y-94744000D01*
X124986522Y-116815800D02*
X125503678Y-116815800D01*
X124986522Y-118235800D02*
X125503678Y-118235800D01*
X124932321Y-119022400D02*
X125257879Y-119022400D01*
X124932321Y-120042400D02*
X125257879Y-120042400D01*
X163913078Y-94791600D02*
X163395922Y-94791600D01*
X163913078Y-93371600D02*
X163395922Y-93371600D01*
X163885378Y-90272800D02*
X163368222Y-90272800D01*
X163885378Y-91692800D02*
X163368222Y-91692800D01*
X163959278Y-95606800D02*
X163442122Y-95606800D01*
X163959278Y-97026800D02*
X163442122Y-97026800D01*
X149180400Y-105327600D02*
X149480400Y-105627600D01*
X149480400Y-105027600D02*
X149480400Y-105627600D01*
X149180400Y-105327600D02*
X149480400Y-105027600D01*
X148280400Y-104477600D02*
X147680400Y-104477600D01*
X148980400Y-107927600D02*
X148980400Y-105127600D01*
X147680400Y-108577600D02*
X148280400Y-108577600D01*
X146980400Y-105127600D02*
X146980400Y-107927600D01*
X146980400Y-107877600D02*
G75*
G03X147680400Y-108577600I700000J0D01*
G01*
X148280400Y-108577600D02*
G75*
G03X148980400Y-107877600I0J700000D01*
G01*
X148980400Y-105177600D02*
G75*
G03X148280400Y-104477600I-700000J0D01*
G01*
X147680400Y-104477600D02*
G75*
G03X146980400Y-105177600I0J-700000D01*
G01*
X139601200Y-106472000D02*
G75*
G03X140301200Y-107172000I700000J0D01*
G01*
X140301200Y-105172000D02*
G75*
G03X139601200Y-105872000I0J-700000D01*
G01*
X143701200Y-105872000D02*
G75*
G03X143001200Y-105172000I-700000J0D01*
G01*
X143001200Y-107172000D02*
G75*
G03X143701200Y-106472000I0J700000D01*
G01*
X140251200Y-107172000D02*
X143051200Y-107172000D01*
X143701200Y-106472000D02*
X143701200Y-105872000D01*
X143051200Y-105172000D02*
X140251200Y-105172000D01*
X139601200Y-105872000D02*
X139601200Y-106472000D01*
X140451200Y-104972000D02*
X140151200Y-104672000D01*
X140151200Y-104672000D02*
X140751200Y-104672000D01*
X140451200Y-104972000D02*
X140751200Y-104672000D01*
X166655600Y-104413200D02*
X166955600Y-104713200D01*
X166955600Y-104113200D02*
X166955600Y-104713200D01*
X166655600Y-104413200D02*
X166955600Y-104113200D01*
X165755600Y-103563200D02*
X165155600Y-103563200D01*
X166455600Y-107013200D02*
X166455600Y-104213200D01*
X165155600Y-107663200D02*
X165755600Y-107663200D01*
X164455600Y-104213200D02*
X164455600Y-107013200D01*
X164455600Y-106963200D02*
G75*
G03X165155600Y-107663200I700000J0D01*
G01*
X165755600Y-107663200D02*
G75*
G03X166455600Y-106963200I0J700000D01*
G01*
X166455600Y-104263200D02*
G75*
G03X165755600Y-103563200I-700000J0D01*
G01*
X165155600Y-103563200D02*
G75*
G03X164455600Y-104263200I0J-700000D01*
G01*
D11*
X160320200Y-78432000D02*
X160320200Y-81632000D01*
X160320200Y-81632000D02*
X166020200Y-81632000D01*
X166020200Y-81632000D02*
X176220200Y-81632000D01*
X176220200Y-81632000D02*
X176220200Y-77432000D01*
X176220200Y-77432000D02*
X160320200Y-77432000D01*
X160320200Y-77432000D02*
X160320200Y-78432000D01*
X156338347Y-88938380D02*
X156671680Y-88462190D01*
X156909776Y-88938380D02*
X156909776Y-87938380D01*
X156528823Y-87938380D01*
X156433585Y-87986000D01*
X156385966Y-88033619D01*
X156338347Y-88128857D01*
X156338347Y-88271714D01*
X156385966Y-88366952D01*
X156433585Y-88414571D01*
X156528823Y-88462190D01*
X156909776Y-88462190D01*
X155957395Y-88033619D02*
X155909776Y-87986000D01*
X155814538Y-87938380D01*
X155576442Y-87938380D01*
X155481204Y-87986000D01*
X155433585Y-88033619D01*
X155385966Y-88128857D01*
X155385966Y-88224095D01*
X155433585Y-88366952D01*
X156005014Y-88938380D01*
X155385966Y-88938380D01*
X154766919Y-87938380D02*
X154671680Y-87938380D01*
X154576442Y-87986000D01*
X154528823Y-88033619D01*
X154481204Y-88128857D01*
X154433585Y-88319333D01*
X154433585Y-88557428D01*
X154481204Y-88747904D01*
X154528823Y-88843142D01*
X154576442Y-88890761D01*
X154671680Y-88938380D01*
X154766919Y-88938380D01*
X154862157Y-88890761D01*
X154909776Y-88843142D01*
X154957395Y-88747904D01*
X155005014Y-88557428D01*
X155005014Y-88319333D01*
X154957395Y-88128857D01*
X154909776Y-88033619D01*
X154862157Y-87986000D01*
X154766919Y-87938380D01*
X153481204Y-88938380D02*
X154052633Y-88938380D01*
X153766919Y-88938380D02*
X153766919Y-87938380D01*
X153862157Y-88081238D01*
X153957395Y-88176476D01*
X154052633Y-88224095D01*
X154230342Y-109218552D02*
X154277961Y-109170933D01*
X154325580Y-109028076D01*
X154325580Y-108932838D01*
X154277961Y-108789980D01*
X154182723Y-108694742D01*
X154087485Y-108647123D01*
X153897009Y-108599504D01*
X153754152Y-108599504D01*
X153563676Y-108647123D01*
X153468438Y-108694742D01*
X153373200Y-108789980D01*
X153325580Y-108932838D01*
X153325580Y-109028076D01*
X153373200Y-109170933D01*
X153420819Y-109218552D01*
X153420819Y-109599504D02*
X153373200Y-109647123D01*
X153325580Y-109742361D01*
X153325580Y-109980457D01*
X153373200Y-110075695D01*
X153420819Y-110123314D01*
X153516057Y-110170933D01*
X153611295Y-110170933D01*
X153754152Y-110123314D01*
X154325580Y-109551885D01*
X154325580Y-110170933D01*
X153325580Y-110789980D02*
X153325580Y-110885219D01*
X153373200Y-110980457D01*
X153420819Y-111028076D01*
X153516057Y-111075695D01*
X153706533Y-111123314D01*
X153944628Y-111123314D01*
X154135104Y-111075695D01*
X154230342Y-111028076D01*
X154277961Y-110980457D01*
X154325580Y-110885219D01*
X154325580Y-110789980D01*
X154277961Y-110694742D01*
X154230342Y-110647123D01*
X154135104Y-110599504D01*
X153944628Y-110551885D01*
X153706533Y-110551885D01*
X153516057Y-110599504D01*
X153420819Y-110647123D01*
X153373200Y-110694742D01*
X153325580Y-110789980D01*
X153325580Y-111456647D02*
X153325580Y-112123314D01*
X154325580Y-111694742D01*
X158141942Y-91438552D02*
X158189561Y-91390933D01*
X158237180Y-91248076D01*
X158237180Y-91152838D01*
X158189561Y-91009980D01*
X158094323Y-90914742D01*
X157999085Y-90867123D01*
X157808609Y-90819504D01*
X157665752Y-90819504D01*
X157475276Y-90867123D01*
X157380038Y-90914742D01*
X157284800Y-91009980D01*
X157237180Y-91152838D01*
X157237180Y-91248076D01*
X157284800Y-91390933D01*
X157332419Y-91438552D01*
X157332419Y-91819504D02*
X157284800Y-91867123D01*
X157237180Y-91962361D01*
X157237180Y-92200457D01*
X157284800Y-92295695D01*
X157332419Y-92343314D01*
X157427657Y-92390933D01*
X157522895Y-92390933D01*
X157665752Y-92343314D01*
X158237180Y-91771885D01*
X158237180Y-92390933D01*
X157237180Y-93009980D02*
X157237180Y-93105219D01*
X157284800Y-93200457D01*
X157332419Y-93248076D01*
X157427657Y-93295695D01*
X157618133Y-93343314D01*
X157856228Y-93343314D01*
X158046704Y-93295695D01*
X158141942Y-93248076D01*
X158189561Y-93200457D01*
X158237180Y-93105219D01*
X158237180Y-93009980D01*
X158189561Y-92914742D01*
X158141942Y-92867123D01*
X158046704Y-92819504D01*
X157856228Y-92771885D01*
X157618133Y-92771885D01*
X157427657Y-92819504D01*
X157332419Y-92867123D01*
X157284800Y-92914742D01*
X157237180Y-93009980D01*
X158237180Y-94295695D02*
X158237180Y-93724266D01*
X158237180Y-94009980D02*
X157237180Y-94009980D01*
X157380038Y-93914742D01*
X157475276Y-93819504D01*
X157522895Y-93724266D01*
X152655542Y-91235352D02*
X152703161Y-91187733D01*
X152750780Y-91044876D01*
X152750780Y-90949638D01*
X152703161Y-90806780D01*
X152607923Y-90711542D01*
X152512685Y-90663923D01*
X152322209Y-90616304D01*
X152179352Y-90616304D01*
X151988876Y-90663923D01*
X151893638Y-90711542D01*
X151798400Y-90806780D01*
X151750780Y-90949638D01*
X151750780Y-91044876D01*
X151798400Y-91187733D01*
X151846019Y-91235352D01*
X151846019Y-91616304D02*
X151798400Y-91663923D01*
X151750780Y-91759161D01*
X151750780Y-91997257D01*
X151798400Y-92092495D01*
X151846019Y-92140114D01*
X151941257Y-92187733D01*
X152036495Y-92187733D01*
X152179352Y-92140114D01*
X152750780Y-91568685D01*
X152750780Y-92187733D01*
X151750780Y-92806780D02*
X151750780Y-92902019D01*
X151798400Y-92997257D01*
X151846019Y-93044876D01*
X151941257Y-93092495D01*
X152131733Y-93140114D01*
X152369828Y-93140114D01*
X152560304Y-93092495D01*
X152655542Y-93044876D01*
X152703161Y-92997257D01*
X152750780Y-92902019D01*
X152750780Y-92806780D01*
X152703161Y-92711542D01*
X152655542Y-92663923D01*
X152560304Y-92616304D01*
X152369828Y-92568685D01*
X152131733Y-92568685D01*
X151941257Y-92616304D01*
X151846019Y-92663923D01*
X151798400Y-92711542D01*
X151750780Y-92806780D01*
X151846019Y-93521066D02*
X151798400Y-93568685D01*
X151750780Y-93663923D01*
X151750780Y-93902019D01*
X151798400Y-93997257D01*
X151846019Y-94044876D01*
X151941257Y-94092495D01*
X152036495Y-94092495D01*
X152179352Y-94044876D01*
X152750780Y-93473447D01*
X152750780Y-94092495D01*
X150826742Y-109167752D02*
X150874361Y-109120133D01*
X150921980Y-108977276D01*
X150921980Y-108882038D01*
X150874361Y-108739180D01*
X150779123Y-108643942D01*
X150683885Y-108596323D01*
X150493409Y-108548704D01*
X150350552Y-108548704D01*
X150160076Y-108596323D01*
X150064838Y-108643942D01*
X149969600Y-108739180D01*
X149921980Y-108882038D01*
X149921980Y-108977276D01*
X149969600Y-109120133D01*
X150017219Y-109167752D01*
X150017219Y-109548704D02*
X149969600Y-109596323D01*
X149921980Y-109691561D01*
X149921980Y-109929657D01*
X149969600Y-110024895D01*
X150017219Y-110072514D01*
X150112457Y-110120133D01*
X150207695Y-110120133D01*
X150350552Y-110072514D01*
X150921980Y-109501085D01*
X150921980Y-110120133D01*
X149921980Y-110739180D02*
X149921980Y-110834419D01*
X149969600Y-110929657D01*
X150017219Y-110977276D01*
X150112457Y-111024895D01*
X150302933Y-111072514D01*
X150541028Y-111072514D01*
X150731504Y-111024895D01*
X150826742Y-110977276D01*
X150874361Y-110929657D01*
X150921980Y-110834419D01*
X150921980Y-110739180D01*
X150874361Y-110643942D01*
X150826742Y-110596323D01*
X150731504Y-110548704D01*
X150541028Y-110501085D01*
X150302933Y-110501085D01*
X150112457Y-110548704D01*
X150017219Y-110596323D01*
X149969600Y-110643942D01*
X149921980Y-110739180D01*
X149921980Y-111977276D02*
X149921980Y-111501085D01*
X150398171Y-111453466D01*
X150350552Y-111501085D01*
X150302933Y-111596323D01*
X150302933Y-111834419D01*
X150350552Y-111929657D01*
X150398171Y-111977276D01*
X150493409Y-112024895D01*
X150731504Y-112024895D01*
X150826742Y-111977276D01*
X150874361Y-111929657D01*
X150921980Y-111834419D01*
X150921980Y-111596323D01*
X150874361Y-111501085D01*
X150826742Y-111453466D01*
X152350742Y-109116952D02*
X152398361Y-109069333D01*
X152445980Y-108926476D01*
X152445980Y-108831238D01*
X152398361Y-108688380D01*
X152303123Y-108593142D01*
X152207885Y-108545523D01*
X152017409Y-108497904D01*
X151874552Y-108497904D01*
X151684076Y-108545523D01*
X151588838Y-108593142D01*
X151493600Y-108688380D01*
X151445980Y-108831238D01*
X151445980Y-108926476D01*
X151493600Y-109069333D01*
X151541219Y-109116952D01*
X151541219Y-109497904D02*
X151493600Y-109545523D01*
X151445980Y-109640761D01*
X151445980Y-109878857D01*
X151493600Y-109974095D01*
X151541219Y-110021714D01*
X151636457Y-110069333D01*
X151731695Y-110069333D01*
X151874552Y-110021714D01*
X152445980Y-109450285D01*
X152445980Y-110069333D01*
X151445980Y-110688380D02*
X151445980Y-110783619D01*
X151493600Y-110878857D01*
X151541219Y-110926476D01*
X151636457Y-110974095D01*
X151826933Y-111021714D01*
X152065028Y-111021714D01*
X152255504Y-110974095D01*
X152350742Y-110926476D01*
X152398361Y-110878857D01*
X152445980Y-110783619D01*
X152445980Y-110688380D01*
X152398361Y-110593142D01*
X152350742Y-110545523D01*
X152255504Y-110497904D01*
X152065028Y-110450285D01*
X151826933Y-110450285D01*
X151636457Y-110497904D01*
X151541219Y-110545523D01*
X151493600Y-110593142D01*
X151445980Y-110688380D01*
X151445980Y-111878857D02*
X151445980Y-111688380D01*
X151493600Y-111593142D01*
X151541219Y-111545523D01*
X151684076Y-111450285D01*
X151874552Y-111402666D01*
X152255504Y-111402666D01*
X152350742Y-111450285D01*
X152398361Y-111497904D01*
X152445980Y-111593142D01*
X152445980Y-111783619D01*
X152398361Y-111878857D01*
X152350742Y-111926476D01*
X152255504Y-111974095D01*
X152017409Y-111974095D01*
X151922171Y-111926476D01*
X151874552Y-111878857D01*
X151826933Y-111783619D01*
X151826933Y-111593142D01*
X151874552Y-111497904D01*
X151922171Y-111450285D01*
X152017409Y-111402666D01*
X139396647Y-97588342D02*
X139444266Y-97635961D01*
X139587123Y-97683580D01*
X139682361Y-97683580D01*
X139825219Y-97635961D01*
X139920457Y-97540723D01*
X139968076Y-97445485D01*
X140015695Y-97255009D01*
X140015695Y-97112152D01*
X139968076Y-96921676D01*
X139920457Y-96826438D01*
X139825219Y-96731200D01*
X139682361Y-96683580D01*
X139587123Y-96683580D01*
X139444266Y-96731200D01*
X139396647Y-96778819D01*
X139015695Y-96778819D02*
X138968076Y-96731200D01*
X138872838Y-96683580D01*
X138634742Y-96683580D01*
X138539504Y-96731200D01*
X138491885Y-96778819D01*
X138444266Y-96874057D01*
X138444266Y-96969295D01*
X138491885Y-97112152D01*
X139063314Y-97683580D01*
X138444266Y-97683580D01*
X137825219Y-96683580D02*
X137729980Y-96683580D01*
X137634742Y-96731200D01*
X137587123Y-96778819D01*
X137539504Y-96874057D01*
X137491885Y-97064533D01*
X137491885Y-97302628D01*
X137539504Y-97493104D01*
X137587123Y-97588342D01*
X137634742Y-97635961D01*
X137729980Y-97683580D01*
X137825219Y-97683580D01*
X137920457Y-97635961D01*
X137968076Y-97588342D01*
X138015695Y-97493104D01*
X138063314Y-97302628D01*
X138063314Y-97064533D01*
X138015695Y-96874057D01*
X137968076Y-96778819D01*
X137920457Y-96731200D01*
X137825219Y-96683580D01*
X136920457Y-97112152D02*
X137015695Y-97064533D01*
X137063314Y-97016914D01*
X137110933Y-96921676D01*
X137110933Y-96874057D01*
X137063314Y-96778819D01*
X137015695Y-96731200D01*
X136920457Y-96683580D01*
X136729980Y-96683580D01*
X136634742Y-96731200D01*
X136587123Y-96778819D01*
X136539504Y-96874057D01*
X136539504Y-96921676D01*
X136587123Y-97016914D01*
X136634742Y-97064533D01*
X136729980Y-97112152D01*
X136920457Y-97112152D01*
X137015695Y-97159771D01*
X137063314Y-97207390D01*
X137110933Y-97302628D01*
X137110933Y-97493104D01*
X137063314Y-97588342D01*
X137015695Y-97635961D01*
X136920457Y-97683580D01*
X136729980Y-97683580D01*
X136634742Y-97635961D01*
X136587123Y-97588342D01*
X136539504Y-97493104D01*
X136539504Y-97302628D01*
X136587123Y-97207390D01*
X136634742Y-97159771D01*
X136729980Y-97112152D01*
X139752247Y-104293942D02*
X139799866Y-104341561D01*
X139942723Y-104389180D01*
X140037961Y-104389180D01*
X140180819Y-104341561D01*
X140276057Y-104246323D01*
X140323676Y-104151085D01*
X140371295Y-103960609D01*
X140371295Y-103817752D01*
X140323676Y-103627276D01*
X140276057Y-103532038D01*
X140180819Y-103436800D01*
X140037961Y-103389180D01*
X139942723Y-103389180D01*
X139799866Y-103436800D01*
X139752247Y-103484419D01*
X139371295Y-103484419D02*
X139323676Y-103436800D01*
X139228438Y-103389180D01*
X138990342Y-103389180D01*
X138895104Y-103436800D01*
X138847485Y-103484419D01*
X138799866Y-103579657D01*
X138799866Y-103674895D01*
X138847485Y-103817752D01*
X139418914Y-104389180D01*
X138799866Y-104389180D01*
X138180819Y-103389180D02*
X138085580Y-103389180D01*
X137990342Y-103436800D01*
X137942723Y-103484419D01*
X137895104Y-103579657D01*
X137847485Y-103770133D01*
X137847485Y-104008228D01*
X137895104Y-104198704D01*
X137942723Y-104293942D01*
X137990342Y-104341561D01*
X138085580Y-104389180D01*
X138180819Y-104389180D01*
X138276057Y-104341561D01*
X138323676Y-104293942D01*
X138371295Y-104198704D01*
X138418914Y-104008228D01*
X138418914Y-103770133D01*
X138371295Y-103579657D01*
X138323676Y-103484419D01*
X138276057Y-103436800D01*
X138180819Y-103389180D01*
X137371295Y-104389180D02*
X137180819Y-104389180D01*
X137085580Y-104341561D01*
X137037961Y-104293942D01*
X136942723Y-104151085D01*
X136895104Y-103960609D01*
X136895104Y-103579657D01*
X136942723Y-103484419D01*
X136990342Y-103436800D01*
X137085580Y-103389180D01*
X137276057Y-103389180D01*
X137371295Y-103436800D01*
X137418914Y-103484419D01*
X137466533Y-103579657D01*
X137466533Y-103817752D01*
X137418914Y-103912990D01*
X137371295Y-103960609D01*
X137276057Y-104008228D01*
X137085580Y-104008228D01*
X136990342Y-103960609D01*
X136942723Y-103912990D01*
X136895104Y-103817752D01*
X139701447Y-99569542D02*
X139749066Y-99617161D01*
X139891923Y-99664780D01*
X139987161Y-99664780D01*
X140130019Y-99617161D01*
X140225257Y-99521923D01*
X140272876Y-99426685D01*
X140320495Y-99236209D01*
X140320495Y-99093352D01*
X140272876Y-98902876D01*
X140225257Y-98807638D01*
X140130019Y-98712400D01*
X139987161Y-98664780D01*
X139891923Y-98664780D01*
X139749066Y-98712400D01*
X139701447Y-98760019D01*
X139320495Y-98760019D02*
X139272876Y-98712400D01*
X139177638Y-98664780D01*
X138939542Y-98664780D01*
X138844304Y-98712400D01*
X138796685Y-98760019D01*
X138749066Y-98855257D01*
X138749066Y-98950495D01*
X138796685Y-99093352D01*
X139368114Y-99664780D01*
X138749066Y-99664780D01*
X137796685Y-99664780D02*
X138368114Y-99664780D01*
X138082400Y-99664780D02*
X138082400Y-98664780D01*
X138177638Y-98807638D01*
X138272876Y-98902876D01*
X138368114Y-98950495D01*
X137177638Y-98664780D02*
X137082400Y-98664780D01*
X136987161Y-98712400D01*
X136939542Y-98760019D01*
X136891923Y-98855257D01*
X136844304Y-99045733D01*
X136844304Y-99283828D01*
X136891923Y-99474304D01*
X136939542Y-99569542D01*
X136987161Y-99617161D01*
X137082400Y-99664780D01*
X137177638Y-99664780D01*
X137272876Y-99617161D01*
X137320495Y-99569542D01*
X137368114Y-99474304D01*
X137415733Y-99283828D01*
X137415733Y-99045733D01*
X137368114Y-98855257D01*
X137320495Y-98760019D01*
X137272876Y-98712400D01*
X137177638Y-98664780D01*
X139599847Y-101144342D02*
X139647466Y-101191961D01*
X139790323Y-101239580D01*
X139885561Y-101239580D01*
X140028419Y-101191961D01*
X140123657Y-101096723D01*
X140171276Y-101001485D01*
X140218895Y-100811009D01*
X140218895Y-100668152D01*
X140171276Y-100477676D01*
X140123657Y-100382438D01*
X140028419Y-100287200D01*
X139885561Y-100239580D01*
X139790323Y-100239580D01*
X139647466Y-100287200D01*
X139599847Y-100334819D01*
X139218895Y-100334819D02*
X139171276Y-100287200D01*
X139076038Y-100239580D01*
X138837942Y-100239580D01*
X138742704Y-100287200D01*
X138695085Y-100334819D01*
X138647466Y-100430057D01*
X138647466Y-100525295D01*
X138695085Y-100668152D01*
X139266514Y-101239580D01*
X138647466Y-101239580D01*
X137695085Y-101239580D02*
X138266514Y-101239580D01*
X137980800Y-101239580D02*
X137980800Y-100239580D01*
X138076038Y-100382438D01*
X138171276Y-100477676D01*
X138266514Y-100525295D01*
X136742704Y-101239580D02*
X137314133Y-101239580D01*
X137028419Y-101239580D02*
X137028419Y-100239580D01*
X137123657Y-100382438D01*
X137218895Y-100477676D01*
X137314133Y-100525295D01*
X139803047Y-102820742D02*
X139850666Y-102868361D01*
X139993523Y-102915980D01*
X140088761Y-102915980D01*
X140231619Y-102868361D01*
X140326857Y-102773123D01*
X140374476Y-102677885D01*
X140422095Y-102487409D01*
X140422095Y-102344552D01*
X140374476Y-102154076D01*
X140326857Y-102058838D01*
X140231619Y-101963600D01*
X140088761Y-101915980D01*
X139993523Y-101915980D01*
X139850666Y-101963600D01*
X139803047Y-102011219D01*
X139422095Y-102011219D02*
X139374476Y-101963600D01*
X139279238Y-101915980D01*
X139041142Y-101915980D01*
X138945904Y-101963600D01*
X138898285Y-102011219D01*
X138850666Y-102106457D01*
X138850666Y-102201695D01*
X138898285Y-102344552D01*
X139469714Y-102915980D01*
X138850666Y-102915980D01*
X137898285Y-102915980D02*
X138469714Y-102915980D01*
X138184000Y-102915980D02*
X138184000Y-101915980D01*
X138279238Y-102058838D01*
X138374476Y-102154076D01*
X138469714Y-102201695D01*
X137517333Y-102011219D02*
X137469714Y-101963600D01*
X137374476Y-101915980D01*
X137136380Y-101915980D01*
X137041142Y-101963600D01*
X136993523Y-102011219D01*
X136945904Y-102106457D01*
X136945904Y-102201695D01*
X136993523Y-102344552D01*
X137564952Y-102915980D01*
X136945904Y-102915980D01*
X164695047Y-100229942D02*
X164742666Y-100277561D01*
X164885523Y-100325180D01*
X164980761Y-100325180D01*
X165123619Y-100277561D01*
X165218857Y-100182323D01*
X165266476Y-100087085D01*
X165314095Y-99896609D01*
X165314095Y-99753752D01*
X165266476Y-99563276D01*
X165218857Y-99468038D01*
X165123619Y-99372800D01*
X164980761Y-99325180D01*
X164885523Y-99325180D01*
X164742666Y-99372800D01*
X164695047Y-99420419D01*
X164314095Y-99420419D02*
X164266476Y-99372800D01*
X164171238Y-99325180D01*
X163933142Y-99325180D01*
X163837904Y-99372800D01*
X163790285Y-99420419D01*
X163742666Y-99515657D01*
X163742666Y-99610895D01*
X163790285Y-99753752D01*
X164361714Y-100325180D01*
X163742666Y-100325180D01*
X162790285Y-100325180D02*
X163361714Y-100325180D01*
X163076000Y-100325180D02*
X163076000Y-99325180D01*
X163171238Y-99468038D01*
X163266476Y-99563276D01*
X163361714Y-99610895D01*
X162456952Y-99325180D02*
X161837904Y-99325180D01*
X162171238Y-99706133D01*
X162028380Y-99706133D01*
X161933142Y-99753752D01*
X161885523Y-99801371D01*
X161837904Y-99896609D01*
X161837904Y-100134704D01*
X161885523Y-100229942D01*
X161933142Y-100277561D01*
X162028380Y-100325180D01*
X162314095Y-100325180D01*
X162409333Y-100277561D01*
X162456952Y-100229942D01*
X164491847Y-105208342D02*
X164539466Y-105255961D01*
X164682323Y-105303580D01*
X164777561Y-105303580D01*
X164920419Y-105255961D01*
X165015657Y-105160723D01*
X165063276Y-105065485D01*
X165110895Y-104875009D01*
X165110895Y-104732152D01*
X165063276Y-104541676D01*
X165015657Y-104446438D01*
X164920419Y-104351200D01*
X164777561Y-104303580D01*
X164682323Y-104303580D01*
X164539466Y-104351200D01*
X164491847Y-104398819D01*
X164110895Y-104398819D02*
X164063276Y-104351200D01*
X163968038Y-104303580D01*
X163729942Y-104303580D01*
X163634704Y-104351200D01*
X163587085Y-104398819D01*
X163539466Y-104494057D01*
X163539466Y-104589295D01*
X163587085Y-104732152D01*
X164158514Y-105303580D01*
X163539466Y-105303580D01*
X162587085Y-105303580D02*
X163158514Y-105303580D01*
X162872800Y-105303580D02*
X162872800Y-104303580D01*
X162968038Y-104446438D01*
X163063276Y-104541676D01*
X163158514Y-104589295D01*
X161729942Y-104636914D02*
X161729942Y-105303580D01*
X161968038Y-104255961D02*
X162206133Y-104970247D01*
X161587085Y-104970247D01*
X164796647Y-101855542D02*
X164844266Y-101903161D01*
X164987123Y-101950780D01*
X165082361Y-101950780D01*
X165225219Y-101903161D01*
X165320457Y-101807923D01*
X165368076Y-101712685D01*
X165415695Y-101522209D01*
X165415695Y-101379352D01*
X165368076Y-101188876D01*
X165320457Y-101093638D01*
X165225219Y-100998400D01*
X165082361Y-100950780D01*
X164987123Y-100950780D01*
X164844266Y-100998400D01*
X164796647Y-101046019D01*
X164415695Y-101046019D02*
X164368076Y-100998400D01*
X164272838Y-100950780D01*
X164034742Y-100950780D01*
X163939504Y-100998400D01*
X163891885Y-101046019D01*
X163844266Y-101141257D01*
X163844266Y-101236495D01*
X163891885Y-101379352D01*
X164463314Y-101950780D01*
X163844266Y-101950780D01*
X162891885Y-101950780D02*
X163463314Y-101950780D01*
X163177600Y-101950780D02*
X163177600Y-100950780D01*
X163272838Y-101093638D01*
X163368076Y-101188876D01*
X163463314Y-101236495D01*
X162034742Y-100950780D02*
X162225219Y-100950780D01*
X162320457Y-100998400D01*
X162368076Y-101046019D01*
X162463314Y-101188876D01*
X162510933Y-101379352D01*
X162510933Y-101760304D01*
X162463314Y-101855542D01*
X162415695Y-101903161D01*
X162320457Y-101950780D01*
X162129980Y-101950780D01*
X162034742Y-101903161D01*
X161987123Y-101855542D01*
X161939504Y-101760304D01*
X161939504Y-101522209D01*
X161987123Y-101426971D01*
X162034742Y-101379352D01*
X162129980Y-101331733D01*
X162320457Y-101331733D01*
X162415695Y-101379352D01*
X162463314Y-101426971D01*
X162510933Y-101522209D01*
X164796647Y-103481142D02*
X164844266Y-103528761D01*
X164987123Y-103576380D01*
X165082361Y-103576380D01*
X165225219Y-103528761D01*
X165320457Y-103433523D01*
X165368076Y-103338285D01*
X165415695Y-103147809D01*
X165415695Y-103004952D01*
X165368076Y-102814476D01*
X165320457Y-102719238D01*
X165225219Y-102624000D01*
X165082361Y-102576380D01*
X164987123Y-102576380D01*
X164844266Y-102624000D01*
X164796647Y-102671619D01*
X164415695Y-102671619D02*
X164368076Y-102624000D01*
X164272838Y-102576380D01*
X164034742Y-102576380D01*
X163939504Y-102624000D01*
X163891885Y-102671619D01*
X163844266Y-102766857D01*
X163844266Y-102862095D01*
X163891885Y-103004952D01*
X164463314Y-103576380D01*
X163844266Y-103576380D01*
X162891885Y-103576380D02*
X163463314Y-103576380D01*
X163177600Y-103576380D02*
X163177600Y-102576380D01*
X163272838Y-102719238D01*
X163368076Y-102814476D01*
X163463314Y-102862095D01*
X162558552Y-102576380D02*
X161891885Y-102576380D01*
X162320457Y-103576380D01*
X155957542Y-109218552D02*
X156005161Y-109170933D01*
X156052780Y-109028076D01*
X156052780Y-108932838D01*
X156005161Y-108789980D01*
X155909923Y-108694742D01*
X155814685Y-108647123D01*
X155624209Y-108599504D01*
X155481352Y-108599504D01*
X155290876Y-108647123D01*
X155195638Y-108694742D01*
X155100400Y-108789980D01*
X155052780Y-108932838D01*
X155052780Y-109028076D01*
X155100400Y-109170933D01*
X155148019Y-109218552D01*
X155148019Y-109599504D02*
X155100400Y-109647123D01*
X155052780Y-109742361D01*
X155052780Y-109980457D01*
X155100400Y-110075695D01*
X155148019Y-110123314D01*
X155243257Y-110170933D01*
X155338495Y-110170933D01*
X155481352Y-110123314D01*
X156052780Y-109551885D01*
X156052780Y-110170933D01*
X156052780Y-111123314D02*
X156052780Y-110551885D01*
X156052780Y-110837600D02*
X155052780Y-110837600D01*
X155195638Y-110742361D01*
X155290876Y-110647123D01*
X155338495Y-110551885D01*
X155481352Y-111694742D02*
X155433733Y-111599504D01*
X155386114Y-111551885D01*
X155290876Y-111504266D01*
X155243257Y-111504266D01*
X155148019Y-111551885D01*
X155100400Y-111599504D01*
X155052780Y-111694742D01*
X155052780Y-111885219D01*
X155100400Y-111980457D01*
X155148019Y-112028076D01*
X155243257Y-112075695D01*
X155290876Y-112075695D01*
X155386114Y-112028076D01*
X155433733Y-111980457D01*
X155481352Y-111885219D01*
X155481352Y-111694742D01*
X155528971Y-111599504D01*
X155576590Y-111551885D01*
X155671828Y-111504266D01*
X155862304Y-111504266D01*
X155957542Y-111551885D01*
X156005161Y-111599504D01*
X156052780Y-111694742D01*
X156052780Y-111885219D01*
X156005161Y-111980457D01*
X155957542Y-112028076D01*
X155862304Y-112075695D01*
X155671828Y-112075695D01*
X155576590Y-112028076D01*
X155528971Y-111980457D01*
X155481352Y-111885219D01*
X148235847Y-94946742D02*
X148283466Y-94994361D01*
X148426323Y-95041980D01*
X148521561Y-95041980D01*
X148664419Y-94994361D01*
X148759657Y-94899123D01*
X148807276Y-94803885D01*
X148854895Y-94613409D01*
X148854895Y-94470552D01*
X148807276Y-94280076D01*
X148759657Y-94184838D01*
X148664419Y-94089600D01*
X148521561Y-94041980D01*
X148426323Y-94041980D01*
X148283466Y-94089600D01*
X148235847Y-94137219D01*
X147854895Y-94137219D02*
X147807276Y-94089600D01*
X147712038Y-94041980D01*
X147473942Y-94041980D01*
X147378704Y-94089600D01*
X147331085Y-94137219D01*
X147283466Y-94232457D01*
X147283466Y-94327695D01*
X147331085Y-94470552D01*
X147902514Y-95041980D01*
X147283466Y-95041980D01*
X146902514Y-94137219D02*
X146854895Y-94089600D01*
X146759657Y-94041980D01*
X146521561Y-94041980D01*
X146426323Y-94089600D01*
X146378704Y-94137219D01*
X146331085Y-94232457D01*
X146331085Y-94327695D01*
X146378704Y-94470552D01*
X146950133Y-95041980D01*
X146331085Y-95041980D01*
X145712038Y-94041980D02*
X145616800Y-94041980D01*
X145521561Y-94089600D01*
X145473942Y-94137219D01*
X145426323Y-94232457D01*
X145378704Y-94422933D01*
X145378704Y-94661028D01*
X145426323Y-94851504D01*
X145473942Y-94946742D01*
X145521561Y-94994361D01*
X145616800Y-95041980D01*
X145712038Y-95041980D01*
X145807276Y-94994361D01*
X145854895Y-94946742D01*
X145902514Y-94851504D01*
X145950133Y-94661028D01*
X145950133Y-94422933D01*
X145902514Y-94232457D01*
X145854895Y-94137219D01*
X145807276Y-94089600D01*
X145712038Y-94041980D01*
X157430742Y-109269352D02*
X157478361Y-109221733D01*
X157525980Y-109078876D01*
X157525980Y-108983638D01*
X157478361Y-108840780D01*
X157383123Y-108745542D01*
X157287885Y-108697923D01*
X157097409Y-108650304D01*
X156954552Y-108650304D01*
X156764076Y-108697923D01*
X156668838Y-108745542D01*
X156573600Y-108840780D01*
X156525980Y-108983638D01*
X156525980Y-109078876D01*
X156573600Y-109221733D01*
X156621219Y-109269352D01*
X156621219Y-109650304D02*
X156573600Y-109697923D01*
X156525980Y-109793161D01*
X156525980Y-110031257D01*
X156573600Y-110126495D01*
X156621219Y-110174114D01*
X156716457Y-110221733D01*
X156811695Y-110221733D01*
X156954552Y-110174114D01*
X157525980Y-109602685D01*
X157525980Y-110221733D01*
X156621219Y-110602685D02*
X156573600Y-110650304D01*
X156525980Y-110745542D01*
X156525980Y-110983638D01*
X156573600Y-111078876D01*
X156621219Y-111126495D01*
X156716457Y-111174114D01*
X156811695Y-111174114D01*
X156954552Y-111126495D01*
X157525980Y-110555066D01*
X157525980Y-111174114D01*
X157525980Y-112126495D02*
X157525980Y-111555066D01*
X157525980Y-111840780D02*
X156525980Y-111840780D01*
X156668838Y-111745542D01*
X156764076Y-111650304D01*
X156811695Y-111555066D01*
X148286647Y-87479142D02*
X148334266Y-87526761D01*
X148477123Y-87574380D01*
X148572361Y-87574380D01*
X148715219Y-87526761D01*
X148810457Y-87431523D01*
X148858076Y-87336285D01*
X148905695Y-87145809D01*
X148905695Y-87002952D01*
X148858076Y-86812476D01*
X148810457Y-86717238D01*
X148715219Y-86622000D01*
X148572361Y-86574380D01*
X148477123Y-86574380D01*
X148334266Y-86622000D01*
X148286647Y-86669619D01*
X147905695Y-86669619D02*
X147858076Y-86622000D01*
X147762838Y-86574380D01*
X147524742Y-86574380D01*
X147429504Y-86622000D01*
X147381885Y-86669619D01*
X147334266Y-86764857D01*
X147334266Y-86860095D01*
X147381885Y-87002952D01*
X147953314Y-87574380D01*
X147334266Y-87574380D01*
X146953314Y-86669619D02*
X146905695Y-86622000D01*
X146810457Y-86574380D01*
X146572361Y-86574380D01*
X146477123Y-86622000D01*
X146429504Y-86669619D01*
X146381885Y-86764857D01*
X146381885Y-86860095D01*
X146429504Y-87002952D01*
X147000933Y-87574380D01*
X146381885Y-87574380D01*
X146000933Y-86669619D02*
X145953314Y-86622000D01*
X145858076Y-86574380D01*
X145619980Y-86574380D01*
X145524742Y-86622000D01*
X145477123Y-86669619D01*
X145429504Y-86764857D01*
X145429504Y-86860095D01*
X145477123Y-87002952D01*
X146048552Y-87574380D01*
X145429504Y-87574380D01*
X148134247Y-91390742D02*
X148181866Y-91438361D01*
X148324723Y-91485980D01*
X148419961Y-91485980D01*
X148562819Y-91438361D01*
X148658057Y-91343123D01*
X148705676Y-91247885D01*
X148753295Y-91057409D01*
X148753295Y-90914552D01*
X148705676Y-90724076D01*
X148658057Y-90628838D01*
X148562819Y-90533600D01*
X148419961Y-90485980D01*
X148324723Y-90485980D01*
X148181866Y-90533600D01*
X148134247Y-90581219D01*
X147753295Y-90581219D02*
X147705676Y-90533600D01*
X147610438Y-90485980D01*
X147372342Y-90485980D01*
X147277104Y-90533600D01*
X147229485Y-90581219D01*
X147181866Y-90676457D01*
X147181866Y-90771695D01*
X147229485Y-90914552D01*
X147800914Y-91485980D01*
X147181866Y-91485980D01*
X146800914Y-90581219D02*
X146753295Y-90533600D01*
X146658057Y-90485980D01*
X146419961Y-90485980D01*
X146324723Y-90533600D01*
X146277104Y-90581219D01*
X146229485Y-90676457D01*
X146229485Y-90771695D01*
X146277104Y-90914552D01*
X146848533Y-91485980D01*
X146229485Y-91485980D01*
X145372342Y-90819314D02*
X145372342Y-91485980D01*
X145610438Y-90438361D02*
X145848533Y-91152647D01*
X145229485Y-91152647D01*
X164288647Y-107240342D02*
X164336266Y-107287961D01*
X164479123Y-107335580D01*
X164574361Y-107335580D01*
X164717219Y-107287961D01*
X164812457Y-107192723D01*
X164860076Y-107097485D01*
X164907695Y-106907009D01*
X164907695Y-106764152D01*
X164860076Y-106573676D01*
X164812457Y-106478438D01*
X164717219Y-106383200D01*
X164574361Y-106335580D01*
X164479123Y-106335580D01*
X164336266Y-106383200D01*
X164288647Y-106430819D01*
X163907695Y-106430819D02*
X163860076Y-106383200D01*
X163764838Y-106335580D01*
X163526742Y-106335580D01*
X163431504Y-106383200D01*
X163383885Y-106430819D01*
X163336266Y-106526057D01*
X163336266Y-106621295D01*
X163383885Y-106764152D01*
X163955314Y-107335580D01*
X163336266Y-107335580D01*
X162955314Y-106430819D02*
X162907695Y-106383200D01*
X162812457Y-106335580D01*
X162574361Y-106335580D01*
X162479123Y-106383200D01*
X162431504Y-106430819D01*
X162383885Y-106526057D01*
X162383885Y-106621295D01*
X162431504Y-106764152D01*
X163002933Y-107335580D01*
X162383885Y-107335580D01*
X161479123Y-106335580D02*
X161955314Y-106335580D01*
X162002933Y-106811771D01*
X161955314Y-106764152D01*
X161860076Y-106716533D01*
X161621980Y-106716533D01*
X161526742Y-106764152D01*
X161479123Y-106811771D01*
X161431504Y-106907009D01*
X161431504Y-107145104D01*
X161479123Y-107240342D01*
X161526742Y-107287961D01*
X161621980Y-107335580D01*
X161860076Y-107335580D01*
X161955314Y-107287961D01*
X162002933Y-107240342D01*
X148185047Y-93067142D02*
X148232666Y-93114761D01*
X148375523Y-93162380D01*
X148470761Y-93162380D01*
X148613619Y-93114761D01*
X148708857Y-93019523D01*
X148756476Y-92924285D01*
X148804095Y-92733809D01*
X148804095Y-92590952D01*
X148756476Y-92400476D01*
X148708857Y-92305238D01*
X148613619Y-92210000D01*
X148470761Y-92162380D01*
X148375523Y-92162380D01*
X148232666Y-92210000D01*
X148185047Y-92257619D01*
X147804095Y-92257619D02*
X147756476Y-92210000D01*
X147661238Y-92162380D01*
X147423142Y-92162380D01*
X147327904Y-92210000D01*
X147280285Y-92257619D01*
X147232666Y-92352857D01*
X147232666Y-92448095D01*
X147280285Y-92590952D01*
X147851714Y-93162380D01*
X147232666Y-93162380D01*
X146851714Y-92257619D02*
X146804095Y-92210000D01*
X146708857Y-92162380D01*
X146470761Y-92162380D01*
X146375523Y-92210000D01*
X146327904Y-92257619D01*
X146280285Y-92352857D01*
X146280285Y-92448095D01*
X146327904Y-92590952D01*
X146899333Y-93162380D01*
X146280285Y-93162380D01*
X145423142Y-92162380D02*
X145613619Y-92162380D01*
X145708857Y-92210000D01*
X145756476Y-92257619D01*
X145851714Y-92400476D01*
X145899333Y-92590952D01*
X145899333Y-92971904D01*
X145851714Y-93067142D01*
X145804095Y-93114761D01*
X145708857Y-93162380D01*
X145518380Y-93162380D01*
X145423142Y-93114761D01*
X145375523Y-93067142D01*
X145327904Y-92971904D01*
X145327904Y-92733809D01*
X145375523Y-92638571D01*
X145423142Y-92590952D01*
X145518380Y-92543333D01*
X145708857Y-92543333D01*
X145804095Y-92590952D01*
X145851714Y-92638571D01*
X145899333Y-92733809D01*
X164288647Y-108815142D02*
X164336266Y-108862761D01*
X164479123Y-108910380D01*
X164574361Y-108910380D01*
X164717219Y-108862761D01*
X164812457Y-108767523D01*
X164860076Y-108672285D01*
X164907695Y-108481809D01*
X164907695Y-108338952D01*
X164860076Y-108148476D01*
X164812457Y-108053238D01*
X164717219Y-107958000D01*
X164574361Y-107910380D01*
X164479123Y-107910380D01*
X164336266Y-107958000D01*
X164288647Y-108005619D01*
X163907695Y-108005619D02*
X163860076Y-107958000D01*
X163764838Y-107910380D01*
X163526742Y-107910380D01*
X163431504Y-107958000D01*
X163383885Y-108005619D01*
X163336266Y-108100857D01*
X163336266Y-108196095D01*
X163383885Y-108338952D01*
X163955314Y-108910380D01*
X163336266Y-108910380D01*
X162955314Y-108005619D02*
X162907695Y-107958000D01*
X162812457Y-107910380D01*
X162574361Y-107910380D01*
X162479123Y-107958000D01*
X162431504Y-108005619D01*
X162383885Y-108100857D01*
X162383885Y-108196095D01*
X162431504Y-108338952D01*
X163002933Y-108910380D01*
X162383885Y-108910380D01*
X162050552Y-107910380D02*
X161383885Y-107910380D01*
X161812457Y-108910380D01*
X148083447Y-89765142D02*
X148131066Y-89812761D01*
X148273923Y-89860380D01*
X148369161Y-89860380D01*
X148512019Y-89812761D01*
X148607257Y-89717523D01*
X148654876Y-89622285D01*
X148702495Y-89431809D01*
X148702495Y-89288952D01*
X148654876Y-89098476D01*
X148607257Y-89003238D01*
X148512019Y-88908000D01*
X148369161Y-88860380D01*
X148273923Y-88860380D01*
X148131066Y-88908000D01*
X148083447Y-88955619D01*
X147702495Y-88955619D02*
X147654876Y-88908000D01*
X147559638Y-88860380D01*
X147321542Y-88860380D01*
X147226304Y-88908000D01*
X147178685Y-88955619D01*
X147131066Y-89050857D01*
X147131066Y-89146095D01*
X147178685Y-89288952D01*
X147750114Y-89860380D01*
X147131066Y-89860380D01*
X146750114Y-88955619D02*
X146702495Y-88908000D01*
X146607257Y-88860380D01*
X146369161Y-88860380D01*
X146273923Y-88908000D01*
X146226304Y-88955619D01*
X146178685Y-89050857D01*
X146178685Y-89146095D01*
X146226304Y-89288952D01*
X146797733Y-89860380D01*
X146178685Y-89860380D01*
X145607257Y-89288952D02*
X145702495Y-89241333D01*
X145750114Y-89193714D01*
X145797733Y-89098476D01*
X145797733Y-89050857D01*
X145750114Y-88955619D01*
X145702495Y-88908000D01*
X145607257Y-88860380D01*
X145416780Y-88860380D01*
X145321542Y-88908000D01*
X145273923Y-88955619D01*
X145226304Y-89050857D01*
X145226304Y-89098476D01*
X145273923Y-89193714D01*
X145321542Y-89241333D01*
X145416780Y-89288952D01*
X145607257Y-89288952D01*
X145702495Y-89336571D01*
X145750114Y-89384190D01*
X145797733Y-89479428D01*
X145797733Y-89669904D01*
X145750114Y-89765142D01*
X145702495Y-89812761D01*
X145607257Y-89860380D01*
X145416780Y-89860380D01*
X145321542Y-89812761D01*
X145273923Y-89765142D01*
X145226304Y-89669904D01*
X145226304Y-89479428D01*
X145273923Y-89384190D01*
X145321542Y-89336571D01*
X145416780Y-89288952D01*
X161088247Y-88596742D02*
X161135866Y-88644361D01*
X161278723Y-88691980D01*
X161373961Y-88691980D01*
X161516819Y-88644361D01*
X161612057Y-88549123D01*
X161659676Y-88453885D01*
X161707295Y-88263409D01*
X161707295Y-88120552D01*
X161659676Y-87930076D01*
X161612057Y-87834838D01*
X161516819Y-87739600D01*
X161373961Y-87691980D01*
X161278723Y-87691980D01*
X161135866Y-87739600D01*
X161088247Y-87787219D01*
X160707295Y-87787219D02*
X160659676Y-87739600D01*
X160564438Y-87691980D01*
X160326342Y-87691980D01*
X160231104Y-87739600D01*
X160183485Y-87787219D01*
X160135866Y-87882457D01*
X160135866Y-87977695D01*
X160183485Y-88120552D01*
X160754914Y-88691980D01*
X160135866Y-88691980D01*
X159754914Y-87787219D02*
X159707295Y-87739600D01*
X159612057Y-87691980D01*
X159373961Y-87691980D01*
X159278723Y-87739600D01*
X159231104Y-87787219D01*
X159183485Y-87882457D01*
X159183485Y-87977695D01*
X159231104Y-88120552D01*
X159802533Y-88691980D01*
X159183485Y-88691980D01*
X158707295Y-88691980D02*
X158516819Y-88691980D01*
X158421580Y-88644361D01*
X158373961Y-88596742D01*
X158278723Y-88453885D01*
X158231104Y-88263409D01*
X158231104Y-87882457D01*
X158278723Y-87787219D01*
X158326342Y-87739600D01*
X158421580Y-87691980D01*
X158612057Y-87691980D01*
X158707295Y-87739600D01*
X158754914Y-87787219D01*
X158802533Y-87882457D01*
X158802533Y-88120552D01*
X158754914Y-88215790D01*
X158707295Y-88263409D01*
X158612057Y-88311028D01*
X158421580Y-88311028D01*
X158326342Y-88263409D01*
X158278723Y-88215790D01*
X158231104Y-88120552D01*
X161139047Y-87225142D02*
X161186666Y-87272761D01*
X161329523Y-87320380D01*
X161424761Y-87320380D01*
X161567619Y-87272761D01*
X161662857Y-87177523D01*
X161710476Y-87082285D01*
X161758095Y-86891809D01*
X161758095Y-86748952D01*
X161710476Y-86558476D01*
X161662857Y-86463238D01*
X161567619Y-86368000D01*
X161424761Y-86320380D01*
X161329523Y-86320380D01*
X161186666Y-86368000D01*
X161139047Y-86415619D01*
X160758095Y-86415619D02*
X160710476Y-86368000D01*
X160615238Y-86320380D01*
X160377142Y-86320380D01*
X160281904Y-86368000D01*
X160234285Y-86415619D01*
X160186666Y-86510857D01*
X160186666Y-86606095D01*
X160234285Y-86748952D01*
X160805714Y-87320380D01*
X160186666Y-87320380D01*
X159853333Y-86320380D02*
X159234285Y-86320380D01*
X159567619Y-86701333D01*
X159424761Y-86701333D01*
X159329523Y-86748952D01*
X159281904Y-86796571D01*
X159234285Y-86891809D01*
X159234285Y-87129904D01*
X159281904Y-87225142D01*
X159329523Y-87272761D01*
X159424761Y-87320380D01*
X159710476Y-87320380D01*
X159805714Y-87272761D01*
X159853333Y-87225142D01*
X158615238Y-86320380D02*
X158520000Y-86320380D01*
X158424761Y-86368000D01*
X158377142Y-86415619D01*
X158329523Y-86510857D01*
X158281904Y-86701333D01*
X158281904Y-86939428D01*
X158329523Y-87129904D01*
X158377142Y-87225142D01*
X158424761Y-87272761D01*
X158520000Y-87320380D01*
X158615238Y-87320380D01*
X158710476Y-87272761D01*
X158758095Y-87225142D01*
X158805714Y-87129904D01*
X158853333Y-86939428D01*
X158853333Y-86701333D01*
X158805714Y-86510857D01*
X158758095Y-86415619D01*
X158710476Y-86368000D01*
X158615238Y-86320380D01*
X167031942Y-95451752D02*
X167079561Y-95404133D01*
X167127180Y-95261276D01*
X167127180Y-95166038D01*
X167079561Y-95023180D01*
X166984323Y-94927942D01*
X166889085Y-94880323D01*
X166698609Y-94832704D01*
X166555752Y-94832704D01*
X166365276Y-94880323D01*
X166270038Y-94927942D01*
X166174800Y-95023180D01*
X166127180Y-95166038D01*
X166127180Y-95261276D01*
X166174800Y-95404133D01*
X166222419Y-95451752D01*
X166222419Y-95832704D02*
X166174800Y-95880323D01*
X166127180Y-95975561D01*
X166127180Y-96213657D01*
X166174800Y-96308895D01*
X166222419Y-96356514D01*
X166317657Y-96404133D01*
X166412895Y-96404133D01*
X166555752Y-96356514D01*
X167127180Y-95785085D01*
X167127180Y-96404133D01*
X166127180Y-96737466D02*
X166127180Y-97356514D01*
X166508133Y-97023180D01*
X166508133Y-97166038D01*
X166555752Y-97261276D01*
X166603371Y-97308895D01*
X166698609Y-97356514D01*
X166936704Y-97356514D01*
X167031942Y-97308895D01*
X167079561Y-97261276D01*
X167127180Y-97166038D01*
X167127180Y-96880323D01*
X167079561Y-96785085D01*
X167031942Y-96737466D01*
X167127180Y-98308895D02*
X167127180Y-97737466D01*
X167127180Y-98023180D02*
X166127180Y-98023180D01*
X166270038Y-97927942D01*
X166365276Y-97832704D01*
X166412895Y-97737466D01*
X161139047Y-90019142D02*
X161186666Y-90066761D01*
X161329523Y-90114380D01*
X161424761Y-90114380D01*
X161567619Y-90066761D01*
X161662857Y-89971523D01*
X161710476Y-89876285D01*
X161758095Y-89685809D01*
X161758095Y-89542952D01*
X161710476Y-89352476D01*
X161662857Y-89257238D01*
X161567619Y-89162000D01*
X161424761Y-89114380D01*
X161329523Y-89114380D01*
X161186666Y-89162000D01*
X161139047Y-89209619D01*
X160758095Y-89209619D02*
X160710476Y-89162000D01*
X160615238Y-89114380D01*
X160377142Y-89114380D01*
X160281904Y-89162000D01*
X160234285Y-89209619D01*
X160186666Y-89304857D01*
X160186666Y-89400095D01*
X160234285Y-89542952D01*
X160805714Y-90114380D01*
X160186666Y-90114380D01*
X159853333Y-89114380D02*
X159234285Y-89114380D01*
X159567619Y-89495333D01*
X159424761Y-89495333D01*
X159329523Y-89542952D01*
X159281904Y-89590571D01*
X159234285Y-89685809D01*
X159234285Y-89923904D01*
X159281904Y-90019142D01*
X159329523Y-90066761D01*
X159424761Y-90114380D01*
X159710476Y-90114380D01*
X159805714Y-90066761D01*
X159853333Y-90019142D01*
X158853333Y-89209619D02*
X158805714Y-89162000D01*
X158710476Y-89114380D01*
X158472380Y-89114380D01*
X158377142Y-89162000D01*
X158329523Y-89209619D01*
X158281904Y-89304857D01*
X158281904Y-89400095D01*
X158329523Y-89542952D01*
X158900952Y-90114380D01*
X158281904Y-90114380D01*
X129998647Y-117908342D02*
X130046266Y-117955961D01*
X130189123Y-118003580D01*
X130284361Y-118003580D01*
X130427219Y-117955961D01*
X130522457Y-117860723D01*
X130570076Y-117765485D01*
X130617695Y-117575009D01*
X130617695Y-117432152D01*
X130570076Y-117241676D01*
X130522457Y-117146438D01*
X130427219Y-117051200D01*
X130284361Y-117003580D01*
X130189123Y-117003580D01*
X130046266Y-117051200D01*
X129998647Y-117098819D01*
X129665314Y-117003580D02*
X129046266Y-117003580D01*
X129379600Y-117384533D01*
X129236742Y-117384533D01*
X129141504Y-117432152D01*
X129093885Y-117479771D01*
X129046266Y-117575009D01*
X129046266Y-117813104D01*
X129093885Y-117908342D01*
X129141504Y-117955961D01*
X129236742Y-118003580D01*
X129522457Y-118003580D01*
X129617695Y-117955961D01*
X129665314Y-117908342D01*
X128427219Y-117003580D02*
X128331980Y-117003580D01*
X128236742Y-117051200D01*
X128189123Y-117098819D01*
X128141504Y-117194057D01*
X128093885Y-117384533D01*
X128093885Y-117622628D01*
X128141504Y-117813104D01*
X128189123Y-117908342D01*
X128236742Y-117955961D01*
X128331980Y-118003580D01*
X128427219Y-118003580D01*
X128522457Y-117955961D01*
X128570076Y-117908342D01*
X128617695Y-117813104D01*
X128665314Y-117622628D01*
X128665314Y-117384533D01*
X128617695Y-117194057D01*
X128570076Y-117098819D01*
X128522457Y-117051200D01*
X128427219Y-117003580D01*
X127760552Y-117003580D02*
X127141504Y-117003580D01*
X127474838Y-117384533D01*
X127331980Y-117384533D01*
X127236742Y-117432152D01*
X127189123Y-117479771D01*
X127141504Y-117575009D01*
X127141504Y-117813104D01*
X127189123Y-117908342D01*
X127236742Y-117955961D01*
X127331980Y-118003580D01*
X127617695Y-118003580D01*
X127712933Y-117955961D01*
X127760552Y-117908342D01*
X129998647Y-119787942D02*
X130046266Y-119835561D01*
X130189123Y-119883180D01*
X130284361Y-119883180D01*
X130427219Y-119835561D01*
X130522457Y-119740323D01*
X130570076Y-119645085D01*
X130617695Y-119454609D01*
X130617695Y-119311752D01*
X130570076Y-119121276D01*
X130522457Y-119026038D01*
X130427219Y-118930800D01*
X130284361Y-118883180D01*
X130189123Y-118883180D01*
X130046266Y-118930800D01*
X129998647Y-118978419D01*
X129665314Y-118883180D02*
X129046266Y-118883180D01*
X129379600Y-119264133D01*
X129236742Y-119264133D01*
X129141504Y-119311752D01*
X129093885Y-119359371D01*
X129046266Y-119454609D01*
X129046266Y-119692704D01*
X129093885Y-119787942D01*
X129141504Y-119835561D01*
X129236742Y-119883180D01*
X129522457Y-119883180D01*
X129617695Y-119835561D01*
X129665314Y-119787942D01*
X128427219Y-118883180D02*
X128331980Y-118883180D01*
X128236742Y-118930800D01*
X128189123Y-118978419D01*
X128141504Y-119073657D01*
X128093885Y-119264133D01*
X128093885Y-119502228D01*
X128141504Y-119692704D01*
X128189123Y-119787942D01*
X128236742Y-119835561D01*
X128331980Y-119883180D01*
X128427219Y-119883180D01*
X128522457Y-119835561D01*
X128570076Y-119787942D01*
X128617695Y-119692704D01*
X128665314Y-119502228D01*
X128665314Y-119264133D01*
X128617695Y-119073657D01*
X128570076Y-118978419D01*
X128522457Y-118930800D01*
X128427219Y-118883180D01*
X127236742Y-119216514D02*
X127236742Y-119883180D01*
X127474838Y-118835561D02*
X127712933Y-119549847D01*
X127093885Y-119549847D01*
X166225314Y-88117371D02*
X166558647Y-88117371D01*
X166558647Y-88641180D02*
X166558647Y-87641180D01*
X166082457Y-87641180D01*
X165368171Y-88117371D02*
X165225314Y-88164990D01*
X165177695Y-88212609D01*
X165130076Y-88307847D01*
X165130076Y-88450704D01*
X165177695Y-88545942D01*
X165225314Y-88593561D01*
X165320552Y-88641180D01*
X165701504Y-88641180D01*
X165701504Y-87641180D01*
X165368171Y-87641180D01*
X165272933Y-87688800D01*
X165225314Y-87736419D01*
X165177695Y-87831657D01*
X165177695Y-87926895D01*
X165225314Y-88022133D01*
X165272933Y-88069752D01*
X165368171Y-88117371D01*
X165701504Y-88117371D01*
X164749123Y-87736419D02*
X164701504Y-87688800D01*
X164606266Y-87641180D01*
X164368171Y-87641180D01*
X164272933Y-87688800D01*
X164225314Y-87736419D01*
X164177695Y-87831657D01*
X164177695Y-87926895D01*
X164225314Y-88069752D01*
X164796742Y-88641180D01*
X164177695Y-88641180D01*
X163558647Y-87641180D02*
X163463409Y-87641180D01*
X163368171Y-87688800D01*
X163320552Y-87736419D01*
X163272933Y-87831657D01*
X163225314Y-88022133D01*
X163225314Y-88260228D01*
X163272933Y-88450704D01*
X163320552Y-88545942D01*
X163368171Y-88593561D01*
X163463409Y-88641180D01*
X163558647Y-88641180D01*
X163653885Y-88593561D01*
X163701504Y-88545942D01*
X163749123Y-88450704D01*
X163796742Y-88260228D01*
X163796742Y-88022133D01*
X163749123Y-87831657D01*
X163701504Y-87736419D01*
X163653885Y-87688800D01*
X163558647Y-87641180D01*
X162272933Y-88641180D02*
X162844361Y-88641180D01*
X162558647Y-88641180D02*
X162558647Y-87641180D01*
X162653885Y-87784038D01*
X162749123Y-87879276D01*
X162844361Y-87926895D01*
X166225314Y-86644171D02*
X166558647Y-86644171D01*
X166558647Y-87167980D02*
X166558647Y-86167980D01*
X166082457Y-86167980D01*
X165368171Y-86644171D02*
X165225314Y-86691790D01*
X165177695Y-86739409D01*
X165130076Y-86834647D01*
X165130076Y-86977504D01*
X165177695Y-87072742D01*
X165225314Y-87120361D01*
X165320552Y-87167980D01*
X165701504Y-87167980D01*
X165701504Y-86167980D01*
X165368171Y-86167980D01*
X165272933Y-86215600D01*
X165225314Y-86263219D01*
X165177695Y-86358457D01*
X165177695Y-86453695D01*
X165225314Y-86548933D01*
X165272933Y-86596552D01*
X165368171Y-86644171D01*
X165701504Y-86644171D01*
X164749123Y-86263219D02*
X164701504Y-86215600D01*
X164606266Y-86167980D01*
X164368171Y-86167980D01*
X164272933Y-86215600D01*
X164225314Y-86263219D01*
X164177695Y-86358457D01*
X164177695Y-86453695D01*
X164225314Y-86596552D01*
X164796742Y-87167980D01*
X164177695Y-87167980D01*
X163558647Y-86167980D02*
X163463409Y-86167980D01*
X163368171Y-86215600D01*
X163320552Y-86263219D01*
X163272933Y-86358457D01*
X163225314Y-86548933D01*
X163225314Y-86787028D01*
X163272933Y-86977504D01*
X163320552Y-87072742D01*
X163368171Y-87120361D01*
X163463409Y-87167980D01*
X163558647Y-87167980D01*
X163653885Y-87120361D01*
X163701504Y-87072742D01*
X163749123Y-86977504D01*
X163796742Y-86787028D01*
X163796742Y-86548933D01*
X163749123Y-86358457D01*
X163701504Y-86263219D01*
X163653885Y-86215600D01*
X163558647Y-86167980D01*
X162844361Y-86263219D02*
X162796742Y-86215600D01*
X162701504Y-86167980D01*
X162463409Y-86167980D01*
X162368171Y-86215600D01*
X162320552Y-86263219D01*
X162272933Y-86358457D01*
X162272933Y-86453695D01*
X162320552Y-86596552D01*
X162891980Y-87167980D01*
X162272933Y-87167980D01*
X166276114Y-89488971D02*
X166609447Y-89488971D01*
X166609447Y-90012780D02*
X166609447Y-89012780D01*
X166133257Y-89012780D01*
X165418971Y-89488971D02*
X165276114Y-89536590D01*
X165228495Y-89584209D01*
X165180876Y-89679447D01*
X165180876Y-89822304D01*
X165228495Y-89917542D01*
X165276114Y-89965161D01*
X165371352Y-90012780D01*
X165752304Y-90012780D01*
X165752304Y-89012780D01*
X165418971Y-89012780D01*
X165323733Y-89060400D01*
X165276114Y-89108019D01*
X165228495Y-89203257D01*
X165228495Y-89298495D01*
X165276114Y-89393733D01*
X165323733Y-89441352D01*
X165418971Y-89488971D01*
X165752304Y-89488971D01*
X164799923Y-89108019D02*
X164752304Y-89060400D01*
X164657066Y-89012780D01*
X164418971Y-89012780D01*
X164323733Y-89060400D01*
X164276114Y-89108019D01*
X164228495Y-89203257D01*
X164228495Y-89298495D01*
X164276114Y-89441352D01*
X164847542Y-90012780D01*
X164228495Y-90012780D01*
X163609447Y-89012780D02*
X163514209Y-89012780D01*
X163418971Y-89060400D01*
X163371352Y-89108019D01*
X163323733Y-89203257D01*
X163276114Y-89393733D01*
X163276114Y-89631828D01*
X163323733Y-89822304D01*
X163371352Y-89917542D01*
X163418971Y-89965161D01*
X163514209Y-90012780D01*
X163609447Y-90012780D01*
X163704685Y-89965161D01*
X163752304Y-89917542D01*
X163799923Y-89822304D01*
X163847542Y-89631828D01*
X163847542Y-89393733D01*
X163799923Y-89203257D01*
X163752304Y-89108019D01*
X163704685Y-89060400D01*
X163609447Y-89012780D01*
X162942780Y-89012780D02*
X162323733Y-89012780D01*
X162657066Y-89393733D01*
X162514209Y-89393733D01*
X162418971Y-89441352D01*
X162371352Y-89488971D01*
X162323733Y-89584209D01*
X162323733Y-89822304D01*
X162371352Y-89917542D01*
X162418971Y-89965161D01*
X162514209Y-90012780D01*
X162799923Y-90012780D01*
X162895161Y-89965161D01*
X162942780Y-89917542D01*
X145632780Y-104741885D02*
X146347066Y-104741885D01*
X146489923Y-104694266D01*
X146585161Y-104599028D01*
X146632780Y-104456171D01*
X146632780Y-104360933D01*
X146632780Y-105218076D02*
X145632780Y-105218076D01*
X145632780Y-105599028D01*
X145680400Y-105694266D01*
X145728019Y-105741885D01*
X145823257Y-105789504D01*
X145966114Y-105789504D01*
X146061352Y-105741885D01*
X146108971Y-105694266D01*
X146156590Y-105599028D01*
X146156590Y-105218076D01*
X145728019Y-106170457D02*
X145680400Y-106218076D01*
X145632780Y-106313314D01*
X145632780Y-106551409D01*
X145680400Y-106646647D01*
X145728019Y-106694266D01*
X145823257Y-106741885D01*
X145918495Y-106741885D01*
X146061352Y-106694266D01*
X146632780Y-106122838D01*
X146632780Y-106741885D01*
X145632780Y-107360933D02*
X145632780Y-107456171D01*
X145680400Y-107551409D01*
X145728019Y-107599028D01*
X145823257Y-107646647D01*
X146013733Y-107694266D01*
X146251828Y-107694266D01*
X146442304Y-107646647D01*
X146537542Y-107599028D01*
X146585161Y-107551409D01*
X146632780Y-107456171D01*
X146632780Y-107360933D01*
X146585161Y-107265695D01*
X146537542Y-107218076D01*
X146442304Y-107170457D01*
X146251828Y-107122838D01*
X146013733Y-107122838D01*
X145823257Y-107170457D01*
X145728019Y-107218076D01*
X145680400Y-107265695D01*
X145632780Y-107360933D01*
X146632780Y-108646647D02*
X146632780Y-108075219D01*
X146632780Y-108360933D02*
X145632780Y-108360933D01*
X145775638Y-108265695D01*
X145870876Y-108170457D01*
X145918495Y-108075219D01*
X143466914Y-107503980D02*
X143466914Y-108218266D01*
X143514533Y-108361123D01*
X143609771Y-108456361D01*
X143752628Y-108503980D01*
X143847866Y-108503980D01*
X142990723Y-108503980D02*
X142990723Y-107503980D01*
X142609771Y-107503980D01*
X142514533Y-107551600D01*
X142466914Y-107599219D01*
X142419295Y-107694457D01*
X142419295Y-107837314D01*
X142466914Y-107932552D01*
X142514533Y-107980171D01*
X142609771Y-108027790D01*
X142990723Y-108027790D01*
X142038342Y-107599219D02*
X141990723Y-107551600D01*
X141895485Y-107503980D01*
X141657390Y-107503980D01*
X141562152Y-107551600D01*
X141514533Y-107599219D01*
X141466914Y-107694457D01*
X141466914Y-107789695D01*
X141514533Y-107932552D01*
X142085961Y-108503980D01*
X141466914Y-108503980D01*
X140847866Y-107503980D02*
X140752628Y-107503980D01*
X140657390Y-107551600D01*
X140609771Y-107599219D01*
X140562152Y-107694457D01*
X140514533Y-107884933D01*
X140514533Y-108123028D01*
X140562152Y-108313504D01*
X140609771Y-108408742D01*
X140657390Y-108456361D01*
X140752628Y-108503980D01*
X140847866Y-108503980D01*
X140943104Y-108456361D01*
X140990723Y-108408742D01*
X141038342Y-108313504D01*
X141085961Y-108123028D01*
X141085961Y-107884933D01*
X141038342Y-107694457D01*
X140990723Y-107599219D01*
X140943104Y-107551600D01*
X140847866Y-107503980D01*
X140133580Y-107599219D02*
X140085961Y-107551600D01*
X139990723Y-107503980D01*
X139752628Y-107503980D01*
X139657390Y-107551600D01*
X139609771Y-107599219D01*
X139562152Y-107694457D01*
X139562152Y-107789695D01*
X139609771Y-107932552D01*
X140181200Y-108503980D01*
X139562152Y-108503980D01*
X167346380Y-103776685D02*
X168060666Y-103776685D01*
X168203523Y-103729066D01*
X168298761Y-103633828D01*
X168346380Y-103490971D01*
X168346380Y-103395733D01*
X168346380Y-104252876D02*
X167346380Y-104252876D01*
X167346380Y-104633828D01*
X167394000Y-104729066D01*
X167441619Y-104776685D01*
X167536857Y-104824304D01*
X167679714Y-104824304D01*
X167774952Y-104776685D01*
X167822571Y-104729066D01*
X167870190Y-104633828D01*
X167870190Y-104252876D01*
X167441619Y-105205257D02*
X167394000Y-105252876D01*
X167346380Y-105348114D01*
X167346380Y-105586209D01*
X167394000Y-105681447D01*
X167441619Y-105729066D01*
X167536857Y-105776685D01*
X167632095Y-105776685D01*
X167774952Y-105729066D01*
X168346380Y-105157638D01*
X168346380Y-105776685D01*
X167346380Y-106395733D02*
X167346380Y-106490971D01*
X167394000Y-106586209D01*
X167441619Y-106633828D01*
X167536857Y-106681447D01*
X167727333Y-106729066D01*
X167965428Y-106729066D01*
X168155904Y-106681447D01*
X168251142Y-106633828D01*
X168298761Y-106586209D01*
X168346380Y-106490971D01*
X168346380Y-106395733D01*
X168298761Y-106300495D01*
X168251142Y-106252876D01*
X168155904Y-106205257D01*
X167965428Y-106157638D01*
X167727333Y-106157638D01*
X167536857Y-106205257D01*
X167441619Y-106252876D01*
X167394000Y-106300495D01*
X167346380Y-106395733D01*
X167346380Y-107062400D02*
X167346380Y-107681447D01*
X167727333Y-107348114D01*
X167727333Y-107490971D01*
X167774952Y-107586209D01*
X167822571Y-107633828D01*
X167917809Y-107681447D01*
X168155904Y-107681447D01*
X168251142Y-107633828D01*
X168298761Y-107586209D01*
X168346380Y-107490971D01*
X168346380Y-107205257D01*
X168298761Y-107110019D01*
X168251142Y-107062400D01*
X159767819Y-80717714D02*
X159053533Y-80717714D01*
X158910676Y-80765333D01*
X158815438Y-80860571D01*
X158767819Y-81003428D01*
X158767819Y-81098666D01*
X159672580Y-80289142D02*
X159720200Y-80241523D01*
X159767819Y-80146285D01*
X159767819Y-79908190D01*
X159720200Y-79812952D01*
X159672580Y-79765333D01*
X159577342Y-79717714D01*
X159482104Y-79717714D01*
X159339247Y-79765333D01*
X158767819Y-80336761D01*
X158767819Y-79717714D01*
X159767819Y-79098666D02*
X159767819Y-79003428D01*
X159720200Y-78908190D01*
X159672580Y-78860571D01*
X159577342Y-78812952D01*
X159386866Y-78765333D01*
X159148771Y-78765333D01*
X158958295Y-78812952D01*
X158863057Y-78860571D01*
X158815438Y-78908190D01*
X158767819Y-79003428D01*
X158767819Y-79098666D01*
X158815438Y-79193904D01*
X158863057Y-79241523D01*
X158958295Y-79289142D01*
X159148771Y-79336761D01*
X159386866Y-79336761D01*
X159577342Y-79289142D01*
X159672580Y-79241523D01*
X159720200Y-79193904D01*
X159767819Y-79098666D01*
X159767819Y-78432000D02*
X159767819Y-77812952D01*
X159386866Y-78146285D01*
X159386866Y-78003428D01*
X159339247Y-77908190D01*
X159291628Y-77860571D01*
X159196390Y-77812952D01*
X158958295Y-77812952D01*
X158863057Y-77860571D01*
X158815438Y-77908190D01*
X158767819Y-78003428D01*
X158767819Y-78289142D01*
X158815438Y-78384380D01*
X158863057Y-78432000D01*
M02*
