M48
; DRILL file {KiCad 5.1.0} date 2019年04月16日 星期二 13时13分20秒
; FORMAT={-:-/ absolute / inch / decimal}
; #@! TF.CreationDate,2019-04-16T13:13:20+00:00
; #@! TF.GenerationSoftware,Kicad,Pcbnew,5.1.0
FMAT,2
INCH
T1C0.0079
T2C0.0118
T3C0.0394
%
G90
G05
T1
X5.79Y-3.2352
X5.79Y-3.2756
X5.79Y-3.3159
X5.79Y-3.3563
X5.79Y-3.3966
X5.8304Y-3.2352
X5.8304Y-3.2756
X5.8304Y-3.3159
X5.8304Y-3.3563
X5.8304Y-3.3966
X5.8707Y-3.2352
X5.8707Y-3.2756
X5.8707Y-3.3159
X5.8707Y-3.3563
X5.8707Y-3.3966
X5.9111Y-3.2352
X5.9111Y-3.2756
X5.9111Y-3.3159
X5.9111Y-3.3563
X5.9111Y-3.3966
X5.9515Y-3.2352
X5.9515Y-3.2756
X5.9515Y-3.3159
X5.9515Y-3.3563
X5.9515Y-3.3966
T2
X4.1207Y-3.7509
X4.2157Y-3.8259
X4.2157Y-3.8909
X4.2207Y-3.9659
X4.2607Y-2.9759
X4.2657Y-3.3659
X4.3214Y-3.8564
X4.3307Y-4.6259
X4.3307Y-4.9609
X4.4257Y-4.4359
X4.4657Y-4.2159
X4.4807Y-4.0709
X4.4907Y-3.8359
X4.4957Y-3.7709
X4.4957Y-4.7409
X4.5057Y-4.8309
X4.5607Y-5.1109
X4.5807Y-4.5609
X4.5907Y-4.6659
X4.6007Y-4.9209
X4.6083Y-4.7861
X4.6307Y-5.0309
X4.6407Y-4.5609
X4.6457Y-4.6659
X4.6757Y-3.4959
X4.6757Y-3.6809
X4.6807Y-3.7509
X4.6857Y-4.3059
X4.6907Y-4.3759
X4.6957Y-4.2109
X4.7007Y-4.8309
X4.7107Y-4.5309
X4.7107Y-4.5909
X4.7107Y-4.6709
X4.7207Y-4.798
X4.7257Y-3.1359
X4.7407Y-3.0259
X4.7607Y-3.3059
X4.7607Y-5.0309
X4.7707Y-4.5859
X4.7757Y-4.5359
X4.7807Y-4.4909
X4.8157Y-4.0109
X4.8207Y-4.5859
X4.8357Y-3.0209
X4.8557Y-4.4959
X4.8757Y-4.7059
X4.8757Y-4.7759
X4.8757Y-4.8459
X4.8907Y-3.7559
X4.9107Y-3.3059
X4.9357Y-3.0209
X4.9557Y-3.7509
X4.9657Y-4.5159
X4.9657Y-4.6009
X5.0007Y-3.6859
X5.0057Y-3.5009
X5.0157Y-5.1509
X5.0307Y-3.3059
X5.0957Y-4.8209
X5.1057Y-4.7709
X5.1307Y-4.9459
X5.1807Y-5.0259
X5.193Y-4.6709
X5.2003Y-4.4455
X5.2007Y-4.7857
X5.2257Y-4.5009
X5.2557Y-4.6609
X5.2957Y-4.9459
X5.3107Y-4.8159
X5.3607Y-4.5859
X5.3957Y-3.5559
X5.4007Y-3.1759
X5.4007Y-4.5509
X5.4507Y-4.5859
X5.4657Y-4.7059
X5.4657Y-4.7759
X5.4657Y-4.8459
X5.5657Y-3.2859
X5.6857Y-4.6909
X5.6857Y-4.7609
X5.7107Y-3.4259
X5.7112Y-3.2355
X5.7157Y-3.3759
X5.7207Y-2.9709
X5.7657Y-4.2359
X5.7957Y-4.6459
X5.8207Y-2.9159
X5.8407Y-3.4909
X5.8457Y-4.7646
X5.8607Y-3.0409
X5.8607Y-4.7309
X5.8857Y-3.1409
X5.8907Y-5.0009
X5.9035Y-3.1646
X5.9178Y-3.1387
X5.9257Y-3.4909
X5.9407Y-2.9115
X5.9407Y-3.0809
X5.9657Y-3.4651
X5.9757Y-3.0809
X5.9811Y-3.1367
X5.9857Y-4.7659
X5.9907Y-5.0809
X5.9957Y-3.1713
X5.9957Y-3.2009
X5.9957Y-4.7059
X6.0007Y-3.4409
X6.0107Y-2.9115
X6.0186Y-3.2238
X6.0307Y-4.9259
X6.0507Y-4.2359
X6.0507Y-4.5809
X6.0607Y-2.9409
X6.0607Y-4.4659
X6.0707Y-4.6959
X6.0707Y-4.9259
X6.0964Y-3.4651
X6.1007Y-2.9759
X6.1107Y-4.4759
X6.1157Y-5.0409
X6.1257Y-3.1209
X6.1257Y-3.4309
X6.1307Y-4.9259
X6.1457Y-4.2359
X6.1507Y-4.7009
X6.1607Y-4.4659
X6.1657Y-3.4101
X6.1707Y-4.9259
X6.1957Y-3.1509
X6.2057Y-4.7059
X6.2057Y-4.7659
X6.2307Y-3.3509
X6.2357Y-3.4039
X6.2507Y-5.0459
X6.2957Y-2.9759
X6.3057Y-3.0309
X6.3107Y-3.0659
X6.3107Y-3.0959
X6.3292Y-4.6993
X6.3457Y-4.7459
X6.348Y-4.7773
X6.3807Y-4.5759
X6.3857Y-4.6359
X6.3907Y-4.5159
X6.3907Y-4.5459
X6.4057Y-4.8209
X6.4257Y-4.6609
X6.4407Y-3.0309
X6.4407Y-3.0659
X6.4407Y-3.0959
X6.4457Y-4.2359
X6.4557Y-4.9259
X6.4557Y-4.9559
X6.4557Y-4.9909
X6.4557Y-5.0359
X6.4857Y-3.4009
X6.5107Y-3.5859
X6.5207Y-3.3951
X6.5207Y-4.6909
X6.5257Y-4.7659
X6.5307Y-4.9609
X6.5407Y-5.0359
X6.5507Y-3.3733
X6.5607Y-4.8409
X6.5707Y-3.2109
X6.6057Y-3.6409
X6.6057Y-3.7359
X6.6057Y-3.7709
X6.6257Y-3.2909
X6.7057Y-3.9159
X6.7057Y-3.9959
X6.7107Y-4.5759
X6.7257Y-4.5159
X6.7257Y-4.5459
X6.7507Y-3.0809
X6.7507Y-4.1959
X6.7707Y-3.5459
X6.7757Y-4.6259
X6.776Y-4.5791
X6.7807Y-3.6359
X6.7907Y-4.5159
X6.7907Y-4.5459
X6.8057Y-4.4759
X6.8107Y-4.9609
X6.8157Y-3.5859
X6.8357Y-4.1959
X6.8407Y-4.1491
X6.8557Y-3.2459
X6.8757Y-4.6859
X6.8857Y-3.2059
X6.9007Y-3.8559
X6.9007Y-4.2209
X6.9057Y-4.3709
X6.9307Y-4.4759
X6.9407Y-3.2909
X6.9457Y-4.0959
X6.9507Y-4.5159
X6.9507Y-4.5459
X6.9657Y-3.8459
X6.9657Y-3.9359
X6.9807Y-4.1959
X7.0057Y-4.5159
X7.0057Y-4.5459
X7.0207Y-4.4759
X7.0507Y-4.3709
X7.0557Y-3.0809
X7.1107Y-4.9659
X7.1207Y-3.6709
X7.1257Y-4.2159
X7.1307Y-3.7559
X7.1707Y-5.3427
X7.1757Y-3.2359
X7.1957Y-5.3209
X7.2007Y-3.2009
X7.2457Y-3.2909
X7.2507Y-4.8009
X7.2757Y-3.3709
X7.3057Y-4.5459
X7.3307Y-3.3951
X7.3476Y-3.6159
X7.3557Y-4.8959
X7.3557Y-4.9309
X7.3557Y-4.9959
X7.3578Y-4.963
X7.3601Y-5.031
X7.3607Y-5.0613
X7.3607Y-5.0909
X7.3607Y-5.1209
X7.3657Y-3.0309
X7.3657Y-3.0809
X7.3707Y-3.4091
X7.3807Y-3.8391
X7.3807Y-3.9177
X7.4107Y-3.7009
X7.4257Y-3.9241
X7.4357Y-3.5459
X7.4507Y-3.8959
X7.4557Y-3.7909
X7.4657Y-3.0909
X7.4707Y-3.2359
X7.4707Y-3.5227
X7.4807Y-4.4959
X7.4857Y-3.8309
X7.5307Y-3.6559
X7.5407Y-3.5859
X7.5457Y-4.2491
X7.5607Y-3.3909
X7.6107Y-4.2959
T3
X7.6907Y-3.2459
X7.6907Y-3.3459
X7.6907Y-3.4459
X7.6907Y-3.5459
X7.6907Y-3.6459
X7.6907Y-3.7459
X7.6907Y-3.8459
X7.6907Y-3.9459
X7.7907Y-3.2459
X7.7907Y-3.3459
X7.7907Y-3.4459
X7.7907Y-3.5459
X7.7907Y-3.6459
X7.7907Y-3.7459
X7.7907Y-3.8459
X7.7907Y-3.9459
X7.6907Y-4.1709
X7.6907Y-4.2709
X7.6907Y-4.3709
X7.6907Y-4.4709
X7.6907Y-4.5709
X7.6907Y-4.6709
X7.6907Y-4.7709
X7.6907Y-4.8709
X7.6907Y-4.9709
X7.6907Y-5.0709
X7.6907Y-5.1709
X7.6907Y-5.2709
X7.7907Y-4.1709
X7.7907Y-4.2709
X7.7907Y-4.3709
X7.7907Y-4.4709
X7.7907Y-4.5709
X7.7907Y-4.6709
X7.7907Y-4.7709
X7.7907Y-4.8709
X7.7907Y-4.9709
X7.7907Y-5.0709
X7.7907Y-5.1709
X7.7907Y-5.2709
X7.6907Y-3.0159
X7.7907Y-3.0159
T0
M30
