G04 #@! TF.GenerationSoftware,KiCad,Pcbnew,5.1.0*
G04 #@! TF.CreationDate,2019-03-26T01:50:18+00:00*
G04 #@! TF.ProjectId,ESP32_K210,45535033-325f-44b3-9231-302e6b696361,rev?*
G04 #@! TF.SameCoordinates,Original*
G04 #@! TF.FileFunction,Legend,Top*
G04 #@! TF.FilePolarity,Positive*
%FSLAX46Y46*%
G04 Gerber Fmt 4.6, Leading zero omitted, Abs format (unit mm)*
G04 Created by KiCad (PCBNEW 5.1.0) date 2019-03-26 01:50:18*
%MOMM*%
%LPD*%
G04 APERTURE LIST*
%ADD10C,0.150000*%
%ADD11C,0.010000*%
%ADD12C,0.120000*%
%ADD13C,0.200000*%
G04 APERTURE END LIST*
D10*
X162489047Y-117241580D02*
X162012857Y-117241580D01*
X162012857Y-116241580D01*
X163536666Y-116336819D02*
X163584285Y-116289200D01*
X163679523Y-116241580D01*
X163917619Y-116241580D01*
X164012857Y-116289200D01*
X164060476Y-116336819D01*
X164108095Y-116432057D01*
X164108095Y-116527295D01*
X164060476Y-116670152D01*
X163489047Y-117241580D01*
X164108095Y-117241580D01*
X164727142Y-116241580D02*
X164822380Y-116241580D01*
X164917619Y-116289200D01*
X164965238Y-116336819D01*
X165012857Y-116432057D01*
X165060476Y-116622533D01*
X165060476Y-116860628D01*
X165012857Y-117051104D01*
X164965238Y-117146342D01*
X164917619Y-117193961D01*
X164822380Y-117241580D01*
X164727142Y-117241580D01*
X164631904Y-117193961D01*
X164584285Y-117146342D01*
X164536666Y-117051104D01*
X164489047Y-116860628D01*
X164489047Y-116622533D01*
X164536666Y-116432057D01*
X164584285Y-116336819D01*
X164631904Y-116289200D01*
X164727142Y-116241580D01*
X166012857Y-117241580D02*
X165441428Y-117241580D01*
X165727142Y-117241580D02*
X165727142Y-116241580D01*
X165631904Y-116384438D01*
X165536666Y-116479676D01*
X165441428Y-116527295D01*
X166489047Y-117241580D02*
X166679523Y-117241580D01*
X166774761Y-117193961D01*
X166822380Y-117146342D01*
X166917619Y-117003485D01*
X166965238Y-116813009D01*
X166965238Y-116432057D01*
X166917619Y-116336819D01*
X166870000Y-116289200D01*
X166774761Y-116241580D01*
X166584285Y-116241580D01*
X166489047Y-116289200D01*
X166441428Y-116336819D01*
X166393809Y-116432057D01*
X166393809Y-116670152D01*
X166441428Y-116765390D01*
X166489047Y-116813009D01*
X166584285Y-116860628D01*
X166774761Y-116860628D01*
X166870000Y-116813009D01*
X166917619Y-116765390D01*
X166965238Y-116670152D01*
X167584285Y-116241580D02*
X167679523Y-116241580D01*
X167774761Y-116289200D01*
X167822380Y-116336819D01*
X167870000Y-116432057D01*
X167917619Y-116622533D01*
X167917619Y-116860628D01*
X167870000Y-117051104D01*
X167822380Y-117146342D01*
X167774761Y-117193961D01*
X167679523Y-117241580D01*
X167584285Y-117241580D01*
X167489047Y-117193961D01*
X167441428Y-117146342D01*
X167393809Y-117051104D01*
X167346190Y-116860628D01*
X167346190Y-116622533D01*
X167393809Y-116432057D01*
X167441428Y-116336819D01*
X167489047Y-116289200D01*
X167584285Y-116241580D01*
X168250952Y-116241580D02*
X168870000Y-116241580D01*
X168536666Y-116622533D01*
X168679523Y-116622533D01*
X168774761Y-116670152D01*
X168822380Y-116717771D01*
X168870000Y-116813009D01*
X168870000Y-117051104D01*
X168822380Y-117146342D01*
X168774761Y-117193961D01*
X168679523Y-117241580D01*
X168393809Y-117241580D01*
X168298571Y-117193961D01*
X168250952Y-117146342D01*
X169250952Y-116336819D02*
X169298571Y-116289200D01*
X169393809Y-116241580D01*
X169631904Y-116241580D01*
X169727142Y-116289200D01*
X169774761Y-116336819D01*
X169822380Y-116432057D01*
X169822380Y-116527295D01*
X169774761Y-116670152D01*
X169203333Y-117241580D01*
X169822380Y-117241580D01*
X170679523Y-116241580D02*
X170489047Y-116241580D01*
X170393809Y-116289200D01*
X170346190Y-116336819D01*
X170250952Y-116479676D01*
X170203333Y-116670152D01*
X170203333Y-117051104D01*
X170250952Y-117146342D01*
X170298571Y-117193961D01*
X170393809Y-117241580D01*
X170584285Y-117241580D01*
X170679523Y-117193961D01*
X170727142Y-117146342D01*
X170774761Y-117051104D01*
X170774761Y-116813009D01*
X170727142Y-116717771D01*
X170679523Y-116670152D01*
X170584285Y-116622533D01*
X170393809Y-116622533D01*
X170298571Y-116670152D01*
X170250952Y-116717771D01*
X170203333Y-116813009D01*
D11*
G36*
X159289223Y-117946133D02*
G01*
X159320602Y-117968376D01*
X159348311Y-117996085D01*
X159348311Y-118305520D01*
X159348238Y-118397399D01*
X159347895Y-118469440D01*
X159347092Y-118524380D01*
X159345641Y-118564960D01*
X159343352Y-118593917D01*
X159340036Y-118613991D01*
X159335505Y-118627921D01*
X159329569Y-118638445D01*
X159324914Y-118644700D01*
X159294183Y-118669273D01*
X159258896Y-118671941D01*
X159226645Y-118656871D01*
X159215988Y-118647974D01*
X159208864Y-118636157D01*
X159204567Y-118617126D01*
X159202391Y-118586592D01*
X159201628Y-118540262D01*
X159201555Y-118504471D01*
X159201555Y-118369645D01*
X158704844Y-118369645D01*
X158704844Y-118492300D01*
X158704331Y-118548387D01*
X158702276Y-118586933D01*
X158697908Y-118612961D01*
X158690456Y-118631497D01*
X158681447Y-118644700D01*
X158650544Y-118669204D01*
X158615596Y-118672106D01*
X158582138Y-118654689D01*
X158573004Y-118645559D01*
X158566552Y-118633455D01*
X158562297Y-118614601D01*
X158559752Y-118585220D01*
X158558429Y-118541537D01*
X158557843Y-118479775D01*
X158557775Y-118465600D01*
X158557291Y-118349231D01*
X158557041Y-118253327D01*
X158557123Y-118175777D01*
X158557631Y-118114469D01*
X158558662Y-118067290D01*
X158560313Y-118032130D01*
X158562679Y-118006876D01*
X158565857Y-117989417D01*
X158569944Y-117977641D01*
X158575034Y-117969435D01*
X158580666Y-117963245D01*
X158612528Y-117943444D01*
X158645757Y-117946133D01*
X158677135Y-117968376D01*
X158689833Y-117982726D01*
X158697926Y-117998578D01*
X158702442Y-118021154D01*
X158704406Y-118055678D01*
X158704844Y-118107376D01*
X158704844Y-118222889D01*
X159201555Y-118222889D01*
X159201555Y-118104356D01*
X159202062Y-118049748D01*
X159204098Y-118012875D01*
X159208435Y-117988907D01*
X159215847Y-117973015D01*
X159224133Y-117963245D01*
X159255994Y-117943444D01*
X159289223Y-117946133D01*
X159289223Y-117946133D01*
G37*
X159289223Y-117946133D02*
X159320602Y-117968376D01*
X159348311Y-117996085D01*
X159348311Y-118305520D01*
X159348238Y-118397399D01*
X159347895Y-118469440D01*
X159347092Y-118524380D01*
X159345641Y-118564960D01*
X159343352Y-118593917D01*
X159340036Y-118613991D01*
X159335505Y-118627921D01*
X159329569Y-118638445D01*
X159324914Y-118644700D01*
X159294183Y-118669273D01*
X159258896Y-118671941D01*
X159226645Y-118656871D01*
X159215988Y-118647974D01*
X159208864Y-118636157D01*
X159204567Y-118617126D01*
X159202391Y-118586592D01*
X159201628Y-118540262D01*
X159201555Y-118504471D01*
X159201555Y-118369645D01*
X158704844Y-118369645D01*
X158704844Y-118492300D01*
X158704331Y-118548387D01*
X158702276Y-118586933D01*
X158697908Y-118612961D01*
X158690456Y-118631497D01*
X158681447Y-118644700D01*
X158650544Y-118669204D01*
X158615596Y-118672106D01*
X158582138Y-118654689D01*
X158573004Y-118645559D01*
X158566552Y-118633455D01*
X158562297Y-118614601D01*
X158559752Y-118585220D01*
X158558429Y-118541537D01*
X158557843Y-118479775D01*
X158557775Y-118465600D01*
X158557291Y-118349231D01*
X158557041Y-118253327D01*
X158557123Y-118175777D01*
X158557631Y-118114469D01*
X158558662Y-118067290D01*
X158560313Y-118032130D01*
X158562679Y-118006876D01*
X158565857Y-117989417D01*
X158569944Y-117977641D01*
X158575034Y-117969435D01*
X158580666Y-117963245D01*
X158612528Y-117943444D01*
X158645757Y-117946133D01*
X158677135Y-117968376D01*
X158689833Y-117982726D01*
X158697926Y-117998578D01*
X158702442Y-118021154D01*
X158704406Y-118055678D01*
X158704844Y-118107376D01*
X158704844Y-118222889D01*
X159201555Y-118222889D01*
X159201555Y-118104356D01*
X159202062Y-118049748D01*
X159204098Y-118012875D01*
X159208435Y-117988907D01*
X159215847Y-117973015D01*
X159224133Y-117963245D01*
X159255994Y-117943444D01*
X159289223Y-117946133D01*
G36*
X158023465Y-117940763D02*
G01*
X158102172Y-117941142D01*
X158163263Y-117941933D01*
X158209217Y-117943270D01*
X158242514Y-117945283D01*
X158265636Y-117948106D01*
X158281062Y-117951869D01*
X158291271Y-117956705D01*
X158296213Y-117960422D01*
X158321857Y-117992958D01*
X158324959Y-118026738D01*
X158309111Y-118057426D01*
X158298748Y-118069689D01*
X158287596Y-118078050D01*
X158271435Y-118083257D01*
X158246042Y-118086057D01*
X158207198Y-118087196D01*
X158150680Y-118087421D01*
X158139580Y-118087422D01*
X157993644Y-118087422D01*
X157993644Y-118358356D01*
X157993548Y-118443754D01*
X157993111Y-118509464D01*
X157992112Y-118558374D01*
X157990328Y-118593373D01*
X157987537Y-118617349D01*
X157983517Y-118633193D01*
X157978045Y-118643791D01*
X157971066Y-118651867D01*
X157938134Y-118671712D01*
X157903754Y-118670148D01*
X157872576Y-118647506D01*
X157870286Y-118644700D01*
X157862829Y-118634092D01*
X157857147Y-118621681D01*
X157853001Y-118604450D01*
X157850150Y-118579384D01*
X157848354Y-118543467D01*
X157847372Y-118493683D01*
X157846964Y-118427017D01*
X157846889Y-118351189D01*
X157846889Y-118087422D01*
X157707527Y-118087422D01*
X157647722Y-118087018D01*
X157606318Y-118085440D01*
X157579148Y-118082147D01*
X157562046Y-118076592D01*
X157550843Y-118068231D01*
X157549483Y-118066778D01*
X157533125Y-118033539D01*
X157534572Y-117995962D01*
X157553378Y-117963245D01*
X157560650Y-117956898D01*
X157570027Y-117951866D01*
X157584009Y-117947996D01*
X157605096Y-117945137D01*
X157635789Y-117943135D01*
X157678589Y-117941839D01*
X157735995Y-117941098D01*
X157810510Y-117940758D01*
X157904633Y-117940668D01*
X157924660Y-117940667D01*
X158023465Y-117940763D01*
X158023465Y-117940763D01*
G37*
X158023465Y-117940763D02*
X158102172Y-117941142D01*
X158163263Y-117941933D01*
X158209217Y-117943270D01*
X158242514Y-117945283D01*
X158265636Y-117948106D01*
X158281062Y-117951869D01*
X158291271Y-117956705D01*
X158296213Y-117960422D01*
X158321857Y-117992958D01*
X158324959Y-118026738D01*
X158309111Y-118057426D01*
X158298748Y-118069689D01*
X158287596Y-118078050D01*
X158271435Y-118083257D01*
X158246042Y-118086057D01*
X158207198Y-118087196D01*
X158150680Y-118087421D01*
X158139580Y-118087422D01*
X157993644Y-118087422D01*
X157993644Y-118358356D01*
X157993548Y-118443754D01*
X157993111Y-118509464D01*
X157992112Y-118558374D01*
X157990328Y-118593373D01*
X157987537Y-118617349D01*
X157983517Y-118633193D01*
X157978045Y-118643791D01*
X157971066Y-118651867D01*
X157938134Y-118671712D01*
X157903754Y-118670148D01*
X157872576Y-118647506D01*
X157870286Y-118644700D01*
X157862829Y-118634092D01*
X157857147Y-118621681D01*
X157853001Y-118604450D01*
X157850150Y-118579384D01*
X157848354Y-118543467D01*
X157847372Y-118493683D01*
X157846964Y-118427017D01*
X157846889Y-118351189D01*
X157846889Y-118087422D01*
X157707527Y-118087422D01*
X157647722Y-118087018D01*
X157606318Y-118085440D01*
X157579148Y-118082147D01*
X157562046Y-118076592D01*
X157550843Y-118068231D01*
X157549483Y-118066778D01*
X157533125Y-118033539D01*
X157534572Y-117995962D01*
X157553378Y-117963245D01*
X157560650Y-117956898D01*
X157570027Y-117951866D01*
X157584009Y-117947996D01*
X157605096Y-117945137D01*
X157635789Y-117943135D01*
X157678589Y-117941839D01*
X157735995Y-117941098D01*
X157810510Y-117940758D01*
X157904633Y-117940668D01*
X157924660Y-117940667D01*
X158023465Y-117940763D01*
G36*
X157249014Y-117947477D02*
G01*
X157272727Y-117962247D01*
X157299378Y-117983827D01*
X157299378Y-118305373D01*
X157299293Y-118399430D01*
X157298929Y-118473532D01*
X157298124Y-118530304D01*
X157296713Y-118572368D01*
X157294533Y-118602348D01*
X157291421Y-118622867D01*
X157287214Y-118636549D01*
X157281748Y-118646016D01*
X157277872Y-118650682D01*
X157246434Y-118671175D01*
X157210633Y-118670339D01*
X157179273Y-118652864D01*
X157152622Y-118631284D01*
X157152622Y-117983827D01*
X157179273Y-117962247D01*
X157204994Y-117946549D01*
X157226000Y-117940667D01*
X157249014Y-117947477D01*
X157249014Y-117947477D01*
G37*
X157249014Y-117947477D02*
X157272727Y-117962247D01*
X157299378Y-117983827D01*
X157299378Y-118305373D01*
X157299293Y-118399430D01*
X157298929Y-118473532D01*
X157298124Y-118530304D01*
X157296713Y-118572368D01*
X157294533Y-118602348D01*
X157291421Y-118622867D01*
X157287214Y-118636549D01*
X157281748Y-118646016D01*
X157277872Y-118650682D01*
X157246434Y-118671175D01*
X157210633Y-118670339D01*
X157179273Y-118652864D01*
X157152622Y-118631284D01*
X157152622Y-117983827D01*
X157179273Y-117962247D01*
X157204994Y-117946549D01*
X157226000Y-117940667D01*
X157249014Y-117947477D01*
G36*
X156805065Y-117942634D02*
G01*
X156824655Y-117949635D01*
X156825410Y-117949977D01*
X156852013Y-117970278D01*
X156866670Y-117991161D01*
X156869538Y-118000952D01*
X156869396Y-118013961D01*
X156865361Y-118032495D01*
X156856546Y-118058857D01*
X156842069Y-118095352D01*
X156821045Y-118144287D01*
X156792588Y-118207965D01*
X156755815Y-118288693D01*
X156735575Y-118332816D01*
X156699025Y-118411585D01*
X156664715Y-118484023D01*
X156633952Y-118547480D01*
X156608048Y-118599308D01*
X156588310Y-118636859D01*
X156576050Y-118657484D01*
X156573624Y-118660333D01*
X156542583Y-118672902D01*
X156507521Y-118671219D01*
X156479400Y-118655932D01*
X156478254Y-118654689D01*
X156467068Y-118637754D01*
X156448304Y-118604770D01*
X156424275Y-118559980D01*
X156397297Y-118507632D01*
X156387601Y-118488342D01*
X156314414Y-118341750D01*
X156234640Y-118500993D01*
X156206167Y-118556015D01*
X156179750Y-118603732D01*
X156157548Y-118640493D01*
X156141719Y-118662644D01*
X156136354Y-118667341D01*
X156094657Y-118673702D01*
X156060249Y-118660333D01*
X156050128Y-118646046D01*
X156032614Y-118614292D01*
X156009135Y-118568197D01*
X155981120Y-118510885D01*
X155949999Y-118445480D01*
X155917199Y-118375107D01*
X155884150Y-118302891D01*
X155852281Y-118231955D01*
X155823019Y-118165425D01*
X155797795Y-118106426D01*
X155778036Y-118058081D01*
X155765172Y-118023515D01*
X155760631Y-118005853D01*
X155760677Y-118005213D01*
X155771726Y-117982988D01*
X155793810Y-117960353D01*
X155795110Y-117959368D01*
X155822253Y-117944025D01*
X155847358Y-117944174D01*
X155856768Y-117947066D01*
X155868234Y-117953318D01*
X155880410Y-117965614D01*
X155894757Y-117986508D01*
X155912736Y-118018549D01*
X155935807Y-118064288D01*
X155965430Y-118126277D01*
X155992145Y-118183498D01*
X156022880Y-118249826D01*
X156050421Y-118309474D01*
X156073338Y-118359325D01*
X156090198Y-118396264D01*
X156099573Y-118417173D01*
X156100940Y-118420445D01*
X156107089Y-118415097D01*
X156121222Y-118392709D01*
X156141457Y-118356546D01*
X156165915Y-118309877D01*
X156175648Y-118290622D01*
X156208617Y-118225604D01*
X156234043Y-118178254D01*
X156254012Y-118145819D01*
X156270610Y-118125546D01*
X156285924Y-118114682D01*
X156302040Y-118110475D01*
X156312543Y-118110000D01*
X156331070Y-118111642D01*
X156347304Y-118118431D01*
X156363435Y-118133166D01*
X156381651Y-118158644D01*
X156404139Y-118197661D01*
X156433089Y-118253014D01*
X156449062Y-118284503D01*
X156474970Y-118334687D01*
X156497567Y-118376304D01*
X156514858Y-118405842D01*
X156524850Y-118419789D01*
X156526209Y-118420370D01*
X156532661Y-118409393D01*
X156547108Y-118380890D01*
X156568103Y-118337844D01*
X156594197Y-118283238D01*
X156623946Y-118220054D01*
X156638580Y-118188671D01*
X156676650Y-118107678D01*
X156707305Y-118045356D01*
X156732137Y-117999671D01*
X156752737Y-117968589D01*
X156770698Y-117950078D01*
X156787610Y-117942104D01*
X156805065Y-117942634D01*
X156805065Y-117942634D01*
G37*
X156805065Y-117942634D02*
X156824655Y-117949635D01*
X156825410Y-117949977D01*
X156852013Y-117970278D01*
X156866670Y-117991161D01*
X156869538Y-118000952D01*
X156869396Y-118013961D01*
X156865361Y-118032495D01*
X156856546Y-118058857D01*
X156842069Y-118095352D01*
X156821045Y-118144287D01*
X156792588Y-118207965D01*
X156755815Y-118288693D01*
X156735575Y-118332816D01*
X156699025Y-118411585D01*
X156664715Y-118484023D01*
X156633952Y-118547480D01*
X156608048Y-118599308D01*
X156588310Y-118636859D01*
X156576050Y-118657484D01*
X156573624Y-118660333D01*
X156542583Y-118672902D01*
X156507521Y-118671219D01*
X156479400Y-118655932D01*
X156478254Y-118654689D01*
X156467068Y-118637754D01*
X156448304Y-118604770D01*
X156424275Y-118559980D01*
X156397297Y-118507632D01*
X156387601Y-118488342D01*
X156314414Y-118341750D01*
X156234640Y-118500993D01*
X156206167Y-118556015D01*
X156179750Y-118603732D01*
X156157548Y-118640493D01*
X156141719Y-118662644D01*
X156136354Y-118667341D01*
X156094657Y-118673702D01*
X156060249Y-118660333D01*
X156050128Y-118646046D01*
X156032614Y-118614292D01*
X156009135Y-118568197D01*
X155981120Y-118510885D01*
X155949999Y-118445480D01*
X155917199Y-118375107D01*
X155884150Y-118302891D01*
X155852281Y-118231955D01*
X155823019Y-118165425D01*
X155797795Y-118106426D01*
X155778036Y-118058081D01*
X155765172Y-118023515D01*
X155760631Y-118005853D01*
X155760677Y-118005213D01*
X155771726Y-117982988D01*
X155793810Y-117960353D01*
X155795110Y-117959368D01*
X155822253Y-117944025D01*
X155847358Y-117944174D01*
X155856768Y-117947066D01*
X155868234Y-117953318D01*
X155880410Y-117965614D01*
X155894757Y-117986508D01*
X155912736Y-118018549D01*
X155935807Y-118064288D01*
X155965430Y-118126277D01*
X155992145Y-118183498D01*
X156022880Y-118249826D01*
X156050421Y-118309474D01*
X156073338Y-118359325D01*
X156090198Y-118396264D01*
X156099573Y-118417173D01*
X156100940Y-118420445D01*
X156107089Y-118415097D01*
X156121222Y-118392709D01*
X156141457Y-118356546D01*
X156165915Y-118309877D01*
X156175648Y-118290622D01*
X156208617Y-118225604D01*
X156234043Y-118178254D01*
X156254012Y-118145819D01*
X156270610Y-118125546D01*
X156285924Y-118114682D01*
X156302040Y-118110475D01*
X156312543Y-118110000D01*
X156331070Y-118111642D01*
X156347304Y-118118431D01*
X156363435Y-118133166D01*
X156381651Y-118158644D01*
X156404139Y-118197661D01*
X156433089Y-118253014D01*
X156449062Y-118284503D01*
X156474970Y-118334687D01*
X156497567Y-118376304D01*
X156514858Y-118405842D01*
X156524850Y-118419789D01*
X156526209Y-118420370D01*
X156532661Y-118409393D01*
X156547108Y-118380890D01*
X156568103Y-118337844D01*
X156594197Y-118283238D01*
X156623946Y-118220054D01*
X156638580Y-118188671D01*
X156676650Y-118107678D01*
X156707305Y-118045356D01*
X156732137Y-117999671D01*
X156752737Y-117968589D01*
X156770698Y-117950078D01*
X156787610Y-117942104D01*
X156805065Y-117942634D01*
G36*
X154078709Y-117940875D02*
G01*
X154207688Y-117945236D01*
X154317391Y-117958461D01*
X154409626Y-117981341D01*
X154486202Y-118014670D01*
X154548927Y-118059238D01*
X154599612Y-118115836D01*
X154640063Y-118185258D01*
X154640859Y-118186951D01*
X154665001Y-118249083D01*
X154673603Y-118304109D01*
X154666631Y-118359487D01*
X154644054Y-118422673D01*
X154639772Y-118432289D01*
X154610572Y-118488566D01*
X154577756Y-118532051D01*
X154535402Y-118569017D01*
X154477590Y-118605735D01*
X154474231Y-118607652D01*
X154423904Y-118631827D01*
X154367021Y-118649882D01*
X154299927Y-118662439D01*
X154218965Y-118670122D01*
X154120482Y-118673553D01*
X154085686Y-118673851D01*
X153919994Y-118674445D01*
X153896597Y-118644700D01*
X153889657Y-118634919D01*
X153884242Y-118623497D01*
X153880165Y-118607695D01*
X153877237Y-118584775D01*
X153875267Y-118551996D01*
X153874625Y-118527689D01*
X154031244Y-118527689D01*
X154125126Y-118527689D01*
X154180064Y-118526083D01*
X154236460Y-118521855D01*
X154282745Y-118515892D01*
X154285539Y-118515390D01*
X154367748Y-118493336D01*
X154431514Y-118460200D01*
X154478852Y-118414447D01*
X154511782Y-118354539D01*
X154517508Y-118338661D01*
X154523121Y-118313933D01*
X154520691Y-118289502D01*
X154508867Y-118257000D01*
X154501740Y-118241034D01*
X154478400Y-118198606D01*
X154450280Y-118168840D01*
X154419340Y-118148111D01*
X154357366Y-118121137D01*
X154278051Y-118101598D01*
X154185653Y-118090346D01*
X154118733Y-118087870D01*
X154031244Y-118087422D01*
X154031244Y-118527689D01*
X153874625Y-118527689D01*
X153874068Y-118506621D01*
X153873450Y-118445911D01*
X153873225Y-118367126D01*
X153873200Y-118305520D01*
X153873200Y-117996085D01*
X153900909Y-117968376D01*
X153913206Y-117957144D01*
X153926503Y-117949453D01*
X153945072Y-117944640D01*
X153973186Y-117942046D01*
X154015117Y-117941010D01*
X154075137Y-117940870D01*
X154078709Y-117940875D01*
X154078709Y-117940875D01*
G37*
X154078709Y-117940875D02*
X154207688Y-117945236D01*
X154317391Y-117958461D01*
X154409626Y-117981341D01*
X154486202Y-118014670D01*
X154548927Y-118059238D01*
X154599612Y-118115836D01*
X154640063Y-118185258D01*
X154640859Y-118186951D01*
X154665001Y-118249083D01*
X154673603Y-118304109D01*
X154666631Y-118359487D01*
X154644054Y-118422673D01*
X154639772Y-118432289D01*
X154610572Y-118488566D01*
X154577756Y-118532051D01*
X154535402Y-118569017D01*
X154477590Y-118605735D01*
X154474231Y-118607652D01*
X154423904Y-118631827D01*
X154367021Y-118649882D01*
X154299927Y-118662439D01*
X154218965Y-118670122D01*
X154120482Y-118673553D01*
X154085686Y-118673851D01*
X153919994Y-118674445D01*
X153896597Y-118644700D01*
X153889657Y-118634919D01*
X153884242Y-118623497D01*
X153880165Y-118607695D01*
X153877237Y-118584775D01*
X153875267Y-118551996D01*
X153874625Y-118527689D01*
X154031244Y-118527689D01*
X154125126Y-118527689D01*
X154180064Y-118526083D01*
X154236460Y-118521855D01*
X154282745Y-118515892D01*
X154285539Y-118515390D01*
X154367748Y-118493336D01*
X154431514Y-118460200D01*
X154478852Y-118414447D01*
X154511782Y-118354539D01*
X154517508Y-118338661D01*
X154523121Y-118313933D01*
X154520691Y-118289502D01*
X154508867Y-118257000D01*
X154501740Y-118241034D01*
X154478400Y-118198606D01*
X154450280Y-118168840D01*
X154419340Y-118148111D01*
X154357366Y-118121137D01*
X154278051Y-118101598D01*
X154185653Y-118090346D01*
X154118733Y-118087870D01*
X154031244Y-118087422D01*
X154031244Y-118527689D01*
X153874625Y-118527689D01*
X153874068Y-118506621D01*
X153873450Y-118445911D01*
X153873225Y-118367126D01*
X153873200Y-118305520D01*
X153873200Y-117996085D01*
X153900909Y-117968376D01*
X153913206Y-117957144D01*
X153926503Y-117949453D01*
X153945072Y-117944640D01*
X153973186Y-117942046D01*
X154015117Y-117941010D01*
X154075137Y-117940870D01*
X154078709Y-117940875D01*
G36*
X153290743Y-117940860D02*
G01*
X153367101Y-117941774D01*
X153425617Y-117943911D01*
X153468655Y-117947775D01*
X153498583Y-117953867D01*
X153517768Y-117962690D01*
X153528576Y-117974746D01*
X153533373Y-117990539D01*
X153534527Y-118010570D01*
X153534533Y-118012935D01*
X153533531Y-118035592D01*
X153528796Y-118053103D01*
X153517733Y-118066174D01*
X153497748Y-118075513D01*
X153466246Y-118081827D01*
X153420632Y-118085822D01*
X153358313Y-118088206D01*
X153276693Y-118089686D01*
X153251677Y-118090014D01*
X153009600Y-118093067D01*
X153006214Y-118157978D01*
X153002829Y-118222889D01*
X153170976Y-118222889D01*
X153236666Y-118223131D01*
X153283572Y-118224156D01*
X153315483Y-118226411D01*
X153336191Y-118230342D01*
X153349484Y-118236398D01*
X153359155Y-118245024D01*
X153359217Y-118245093D01*
X153376756Y-118278712D01*
X153376122Y-118315048D01*
X153357714Y-118346023D01*
X153354071Y-118349207D01*
X153341141Y-118357412D01*
X153323424Y-118363121D01*
X153296970Y-118366762D01*
X153257832Y-118368767D01*
X153202062Y-118369564D01*
X153166394Y-118369645D01*
X153003955Y-118369645D01*
X153003955Y-118527689D01*
X153250561Y-118527689D01*
X153331980Y-118527831D01*
X153393810Y-118528414D01*
X153439037Y-118529668D01*
X153470648Y-118531827D01*
X153491631Y-118535123D01*
X153504973Y-118539789D01*
X153513661Y-118546057D01*
X153515850Y-118548333D01*
X153532014Y-118579880D01*
X153533197Y-118615768D01*
X153519936Y-118646885D01*
X153509443Y-118656871D01*
X153498529Y-118662369D01*
X153481617Y-118666622D01*
X153456033Y-118669780D01*
X153419101Y-118671992D01*
X153368146Y-118673406D01*
X153300494Y-118674172D01*
X153213469Y-118674438D01*
X153193794Y-118674445D01*
X153105311Y-118674387D01*
X153036627Y-118674067D01*
X152984964Y-118673267D01*
X152947545Y-118671767D01*
X152921590Y-118669349D01*
X152904322Y-118665794D01*
X152892962Y-118660882D01*
X152884732Y-118654395D01*
X152880217Y-118649738D01*
X152873421Y-118641489D01*
X152868112Y-118631269D01*
X152864106Y-118616400D01*
X152861221Y-118594202D01*
X152859274Y-118561993D01*
X152858081Y-118517096D01*
X152857461Y-118456828D01*
X152857229Y-118378511D01*
X152857200Y-118312594D01*
X152857271Y-118220228D01*
X152857608Y-118147717D01*
X152858398Y-118092337D01*
X152859826Y-118051365D01*
X152862079Y-118022078D01*
X152865343Y-118001753D01*
X152869804Y-117987666D01*
X152875648Y-117977095D01*
X152880597Y-117970411D01*
X152903994Y-117940667D01*
X153194174Y-117940667D01*
X153290743Y-117940860D01*
X153290743Y-117940860D01*
G37*
X153290743Y-117940860D02*
X153367101Y-117941774D01*
X153425617Y-117943911D01*
X153468655Y-117947775D01*
X153498583Y-117953867D01*
X153517768Y-117962690D01*
X153528576Y-117974746D01*
X153533373Y-117990539D01*
X153534527Y-118010570D01*
X153534533Y-118012935D01*
X153533531Y-118035592D01*
X153528796Y-118053103D01*
X153517733Y-118066174D01*
X153497748Y-118075513D01*
X153466246Y-118081827D01*
X153420632Y-118085822D01*
X153358313Y-118088206D01*
X153276693Y-118089686D01*
X153251677Y-118090014D01*
X153009600Y-118093067D01*
X153006214Y-118157978D01*
X153002829Y-118222889D01*
X153170976Y-118222889D01*
X153236666Y-118223131D01*
X153283572Y-118224156D01*
X153315483Y-118226411D01*
X153336191Y-118230342D01*
X153349484Y-118236398D01*
X153359155Y-118245024D01*
X153359217Y-118245093D01*
X153376756Y-118278712D01*
X153376122Y-118315048D01*
X153357714Y-118346023D01*
X153354071Y-118349207D01*
X153341141Y-118357412D01*
X153323424Y-118363121D01*
X153296970Y-118366762D01*
X153257832Y-118368767D01*
X153202062Y-118369564D01*
X153166394Y-118369645D01*
X153003955Y-118369645D01*
X153003955Y-118527689D01*
X153250561Y-118527689D01*
X153331980Y-118527831D01*
X153393810Y-118528414D01*
X153439037Y-118529668D01*
X153470648Y-118531827D01*
X153491631Y-118535123D01*
X153504973Y-118539789D01*
X153513661Y-118546057D01*
X153515850Y-118548333D01*
X153532014Y-118579880D01*
X153533197Y-118615768D01*
X153519936Y-118646885D01*
X153509443Y-118656871D01*
X153498529Y-118662369D01*
X153481617Y-118666622D01*
X153456033Y-118669780D01*
X153419101Y-118671992D01*
X153368146Y-118673406D01*
X153300494Y-118674172D01*
X153213469Y-118674438D01*
X153193794Y-118674445D01*
X153105311Y-118674387D01*
X153036627Y-118674067D01*
X152984964Y-118673267D01*
X152947545Y-118671767D01*
X152921590Y-118669349D01*
X152904322Y-118665794D01*
X152892962Y-118660882D01*
X152884732Y-118654395D01*
X152880217Y-118649738D01*
X152873421Y-118641489D01*
X152868112Y-118631269D01*
X152864106Y-118616400D01*
X152861221Y-118594202D01*
X152859274Y-118561993D01*
X152858081Y-118517096D01*
X152857461Y-118456828D01*
X152857229Y-118378511D01*
X152857200Y-118312594D01*
X152857271Y-118220228D01*
X152857608Y-118147717D01*
X152858398Y-118092337D01*
X152859826Y-118051365D01*
X152862079Y-118022078D01*
X152865343Y-118001753D01*
X152869804Y-117987666D01*
X152875648Y-117977095D01*
X152880597Y-117970411D01*
X152903994Y-117940667D01*
X153194174Y-117940667D01*
X153290743Y-117940860D01*
G36*
X151760286Y-117945048D02*
G01*
X151783852Y-117958873D01*
X151814665Y-117981481D01*
X151854322Y-118013938D01*
X151904420Y-118057308D01*
X151966557Y-118112658D01*
X152042328Y-118181051D01*
X152129066Y-118259684D01*
X152309689Y-118423478D01*
X152315333Y-118203629D01*
X152317371Y-118127951D01*
X152319337Y-118071594D01*
X152321666Y-118031306D01*
X152324794Y-118003835D01*
X152329155Y-117985929D01*
X152335184Y-117974337D01*
X152343316Y-117965808D01*
X152347628Y-117962223D01*
X152382159Y-117943270D01*
X152415017Y-117946041D01*
X152441082Y-117962233D01*
X152467733Y-117983799D01*
X152471048Y-118298751D01*
X152471965Y-118391379D01*
X152472432Y-118464144D01*
X152472287Y-118519761D01*
X152471368Y-118560942D01*
X152469513Y-118590403D01*
X152466561Y-118610855D01*
X152462350Y-118625013D01*
X152456718Y-118635591D01*
X152450473Y-118644074D01*
X152436961Y-118659807D01*
X152423517Y-118670236D01*
X152408276Y-118674239D01*
X152389374Y-118670694D01*
X152364945Y-118658479D01*
X152333127Y-118636471D01*
X152292052Y-118603549D01*
X152239858Y-118558591D01*
X152174678Y-118500475D01*
X152100844Y-118433699D01*
X151835555Y-118193058D01*
X151829911Y-118412189D01*
X151827869Y-118487728D01*
X151825898Y-118543954D01*
X151823561Y-118584124D01*
X151820419Y-118611496D01*
X151816036Y-118629328D01*
X151809976Y-118640879D01*
X151801800Y-118649407D01*
X151797616Y-118652882D01*
X151760635Y-118671972D01*
X151725692Y-118669093D01*
X151695264Y-118644700D01*
X151688303Y-118634886D01*
X151682877Y-118623426D01*
X151678797Y-118607568D01*
X151675871Y-118584563D01*
X151673908Y-118551662D01*
X151672717Y-118506116D01*
X151672108Y-118445173D01*
X151671889Y-118366086D01*
X151671866Y-118307556D01*
X151671940Y-118216007D01*
X151672287Y-118144287D01*
X151673099Y-118089645D01*
X151674567Y-118049332D01*
X151676881Y-118020598D01*
X151680233Y-118000693D01*
X151684812Y-117986868D01*
X151690811Y-117976372D01*
X151695264Y-117970411D01*
X151706550Y-117956291D01*
X151717099Y-117945629D01*
X151728507Y-117939492D01*
X151742370Y-117938943D01*
X151760286Y-117945048D01*
X151760286Y-117945048D01*
G37*
X151760286Y-117945048D02*
X151783852Y-117958873D01*
X151814665Y-117981481D01*
X151854322Y-118013938D01*
X151904420Y-118057308D01*
X151966557Y-118112658D01*
X152042328Y-118181051D01*
X152129066Y-118259684D01*
X152309689Y-118423478D01*
X152315333Y-118203629D01*
X152317371Y-118127951D01*
X152319337Y-118071594D01*
X152321666Y-118031306D01*
X152324794Y-118003835D01*
X152329155Y-117985929D01*
X152335184Y-117974337D01*
X152343316Y-117965808D01*
X152347628Y-117962223D01*
X152382159Y-117943270D01*
X152415017Y-117946041D01*
X152441082Y-117962233D01*
X152467733Y-117983799D01*
X152471048Y-118298751D01*
X152471965Y-118391379D01*
X152472432Y-118464144D01*
X152472287Y-118519761D01*
X152471368Y-118560942D01*
X152469513Y-118590403D01*
X152466561Y-118610855D01*
X152462350Y-118625013D01*
X152456718Y-118635591D01*
X152450473Y-118644074D01*
X152436961Y-118659807D01*
X152423517Y-118670236D01*
X152408276Y-118674239D01*
X152389374Y-118670694D01*
X152364945Y-118658479D01*
X152333127Y-118636471D01*
X152292052Y-118603549D01*
X152239858Y-118558591D01*
X152174678Y-118500475D01*
X152100844Y-118433699D01*
X151835555Y-118193058D01*
X151829911Y-118412189D01*
X151827869Y-118487728D01*
X151825898Y-118543954D01*
X151823561Y-118584124D01*
X151820419Y-118611496D01*
X151816036Y-118629328D01*
X151809976Y-118640879D01*
X151801800Y-118649407D01*
X151797616Y-118652882D01*
X151760635Y-118671972D01*
X151725692Y-118669093D01*
X151695264Y-118644700D01*
X151688303Y-118634886D01*
X151682877Y-118623426D01*
X151678797Y-118607568D01*
X151675871Y-118584563D01*
X151673908Y-118551662D01*
X151672717Y-118506116D01*
X151672108Y-118445173D01*
X151671889Y-118366086D01*
X151671866Y-118307556D01*
X151671940Y-118216007D01*
X151672287Y-118144287D01*
X151673099Y-118089645D01*
X151674567Y-118049332D01*
X151676881Y-118020598D01*
X151680233Y-118000693D01*
X151684812Y-117986868D01*
X151690811Y-117976372D01*
X151695264Y-117970411D01*
X151706550Y-117956291D01*
X151717099Y-117945629D01*
X151728507Y-117939492D01*
X151742370Y-117938943D01*
X151760286Y-117945048D01*
G36*
X151110319Y-117946199D02*
G01*
X151178835Y-117957695D01*
X151231457Y-117975567D01*
X151265692Y-117999099D01*
X151275021Y-118012524D01*
X151284507Y-118043748D01*
X151278123Y-118071995D01*
X151257970Y-118098782D01*
X151226655Y-118111313D01*
X151181217Y-118110296D01*
X151146074Y-118103506D01*
X151067981Y-118090571D01*
X150988174Y-118089342D01*
X150898845Y-118099841D01*
X150874171Y-118104290D01*
X150791109Y-118127708D01*
X150726127Y-118162545D01*
X150679939Y-118208204D01*
X150653255Y-118264094D01*
X150647737Y-118292988D01*
X150651349Y-118351612D01*
X150674671Y-118403479D01*
X150715576Y-118447578D01*
X150771941Y-118482899D01*
X150841640Y-118508429D01*
X150922548Y-118523159D01*
X151012540Y-118526078D01*
X151109490Y-118516175D01*
X151114964Y-118515241D01*
X151153525Y-118508059D01*
X151174906Y-118501121D01*
X151184173Y-118490827D01*
X151186394Y-118473576D01*
X151186444Y-118464441D01*
X151186444Y-118426089D01*
X151117969Y-118426089D01*
X151057500Y-118421947D01*
X151016235Y-118408747D01*
X150992225Y-118385330D01*
X150983523Y-118350536D01*
X150983417Y-118345994D01*
X150988508Y-118316254D01*
X151005967Y-118295019D01*
X151038461Y-118280966D01*
X151088657Y-118272773D01*
X151137277Y-118269761D01*
X151207944Y-118268033D01*
X151259202Y-118270670D01*
X151294161Y-118280400D01*
X151315930Y-118299953D01*
X151327620Y-118332056D01*
X151332340Y-118379438D01*
X151333200Y-118441671D01*
X151331791Y-118511135D01*
X151327552Y-118558386D01*
X151320464Y-118583612D01*
X151319089Y-118585588D01*
X151280172Y-118617108D01*
X151223114Y-118642070D01*
X151151531Y-118659940D01*
X151069042Y-118670186D01*
X150979261Y-118672273D01*
X150885808Y-118665668D01*
X150830844Y-118657556D01*
X150744634Y-118633154D01*
X150664508Y-118593262D01*
X150597423Y-118541487D01*
X150587227Y-118531139D01*
X150554098Y-118487635D01*
X150524206Y-118433718D01*
X150501043Y-118377192D01*
X150488102Y-118325859D01*
X150486542Y-118306144D01*
X150493182Y-118265019D01*
X150510832Y-118213852D01*
X150536103Y-118159994D01*
X150565611Y-118110795D01*
X150591681Y-118077934D01*
X150652635Y-118029052D01*
X150731431Y-117990145D01*
X150825243Y-117962094D01*
X150931250Y-117945779D01*
X151028400Y-117941792D01*
X151110319Y-117946199D01*
X151110319Y-117946199D01*
G37*
X151110319Y-117946199D02*
X151178835Y-117957695D01*
X151231457Y-117975567D01*
X151265692Y-117999099D01*
X151275021Y-118012524D01*
X151284507Y-118043748D01*
X151278123Y-118071995D01*
X151257970Y-118098782D01*
X151226655Y-118111313D01*
X151181217Y-118110296D01*
X151146074Y-118103506D01*
X151067981Y-118090571D01*
X150988174Y-118089342D01*
X150898845Y-118099841D01*
X150874171Y-118104290D01*
X150791109Y-118127708D01*
X150726127Y-118162545D01*
X150679939Y-118208204D01*
X150653255Y-118264094D01*
X150647737Y-118292988D01*
X150651349Y-118351612D01*
X150674671Y-118403479D01*
X150715576Y-118447578D01*
X150771941Y-118482899D01*
X150841640Y-118508429D01*
X150922548Y-118523159D01*
X151012540Y-118526078D01*
X151109490Y-118516175D01*
X151114964Y-118515241D01*
X151153525Y-118508059D01*
X151174906Y-118501121D01*
X151184173Y-118490827D01*
X151186394Y-118473576D01*
X151186444Y-118464441D01*
X151186444Y-118426089D01*
X151117969Y-118426089D01*
X151057500Y-118421947D01*
X151016235Y-118408747D01*
X150992225Y-118385330D01*
X150983523Y-118350536D01*
X150983417Y-118345994D01*
X150988508Y-118316254D01*
X151005967Y-118295019D01*
X151038461Y-118280966D01*
X151088657Y-118272773D01*
X151137277Y-118269761D01*
X151207944Y-118268033D01*
X151259202Y-118270670D01*
X151294161Y-118280400D01*
X151315930Y-118299953D01*
X151327620Y-118332056D01*
X151332340Y-118379438D01*
X151333200Y-118441671D01*
X151331791Y-118511135D01*
X151327552Y-118558386D01*
X151320464Y-118583612D01*
X151319089Y-118585588D01*
X151280172Y-118617108D01*
X151223114Y-118642070D01*
X151151531Y-118659940D01*
X151069042Y-118670186D01*
X150979261Y-118672273D01*
X150885808Y-118665668D01*
X150830844Y-118657556D01*
X150744634Y-118633154D01*
X150664508Y-118593262D01*
X150597423Y-118541487D01*
X150587227Y-118531139D01*
X150554098Y-118487635D01*
X150524206Y-118433718D01*
X150501043Y-118377192D01*
X150488102Y-118325859D01*
X150486542Y-118306144D01*
X150493182Y-118265019D01*
X150510832Y-118213852D01*
X150536103Y-118159994D01*
X150565611Y-118110795D01*
X150591681Y-118077934D01*
X150652635Y-118029052D01*
X150731431Y-117990145D01*
X150825243Y-117962094D01*
X150931250Y-117945779D01*
X151028400Y-117941792D01*
X151110319Y-117946199D01*
G36*
X150136578Y-117963245D02*
G01*
X150143158Y-117970818D01*
X150148321Y-117980587D01*
X150152236Y-117995171D01*
X150155076Y-118017185D01*
X150157013Y-118049248D01*
X150158217Y-118093975D01*
X150158861Y-118153985D01*
X150159116Y-118231894D01*
X150159155Y-118307556D01*
X150159086Y-118401402D01*
X150158762Y-118475289D01*
X150158014Y-118531832D01*
X150156668Y-118573649D01*
X150154554Y-118603357D01*
X150151500Y-118623573D01*
X150147334Y-118636914D01*
X150141884Y-118645998D01*
X150136578Y-118651867D01*
X150103574Y-118671547D01*
X150068409Y-118669781D01*
X150036945Y-118648317D01*
X150029716Y-118639937D01*
X150024066Y-118630214D01*
X150019801Y-118616461D01*
X150016727Y-118595989D01*
X150014648Y-118566112D01*
X150013370Y-118524141D01*
X150012699Y-118467389D01*
X150012441Y-118393167D01*
X150012400Y-118309137D01*
X150012400Y-117996085D01*
X150040109Y-117968376D01*
X150074263Y-117945063D01*
X150107394Y-117944223D01*
X150136578Y-117963245D01*
X150136578Y-117963245D01*
G37*
X150136578Y-117963245D02*
X150143158Y-117970818D01*
X150148321Y-117980587D01*
X150152236Y-117995171D01*
X150155076Y-118017185D01*
X150157013Y-118049248D01*
X150158217Y-118093975D01*
X150158861Y-118153985D01*
X150159116Y-118231894D01*
X150159155Y-118307556D01*
X150159086Y-118401402D01*
X150158762Y-118475289D01*
X150158014Y-118531832D01*
X150156668Y-118573649D01*
X150154554Y-118603357D01*
X150151500Y-118623573D01*
X150147334Y-118636914D01*
X150141884Y-118645998D01*
X150136578Y-118651867D01*
X150103574Y-118671547D01*
X150068409Y-118669781D01*
X150036945Y-118648317D01*
X150029716Y-118639937D01*
X150024066Y-118630214D01*
X150019801Y-118616461D01*
X150016727Y-118595989D01*
X150014648Y-118566112D01*
X150013370Y-118524141D01*
X150012699Y-118467389D01*
X150012441Y-118393167D01*
X150012400Y-118309137D01*
X150012400Y-117996085D01*
X150040109Y-117968376D01*
X150074263Y-117945063D01*
X150107394Y-117944223D01*
X150136578Y-117963245D01*
G36*
X149368697Y-117941951D02*
G01*
X149443512Y-117947181D01*
X149513094Y-117955350D01*
X149573398Y-117966150D01*
X149620380Y-117979273D01*
X149649994Y-117994413D01*
X149654540Y-117998869D01*
X149670346Y-118033450D01*
X149665553Y-118068951D01*
X149641036Y-118099325D01*
X149639866Y-118100196D01*
X149625446Y-118109554D01*
X149610392Y-118114476D01*
X149589395Y-118115073D01*
X149557143Y-118111461D01*
X149508327Y-118103754D01*
X149504400Y-118103105D01*
X149431661Y-118094169D01*
X149353183Y-118089761D01*
X149274473Y-118089719D01*
X149201039Y-118093879D01*
X149138389Y-118102079D01*
X149092030Y-118114157D01*
X149088984Y-118115371D01*
X149055352Y-118134215D01*
X149043536Y-118153285D01*
X149052786Y-118172039D01*
X149082353Y-118189937D01*
X149131489Y-118206437D01*
X149199443Y-118220996D01*
X149244755Y-118228006D01*
X149338944Y-118241489D01*
X149413856Y-118253814D01*
X149472683Y-118266049D01*
X149518615Y-118279261D01*
X149554845Y-118294517D01*
X149584562Y-118312885D01*
X149610958Y-118335431D01*
X149632170Y-118357571D01*
X149657335Y-118388419D01*
X149669719Y-118414945D01*
X149673592Y-118447626D01*
X149673733Y-118459595D01*
X149670824Y-118499312D01*
X149659198Y-118528859D01*
X149639077Y-118555086D01*
X149598184Y-118595176D01*
X149552583Y-118625749D01*
X149498887Y-118647803D01*
X149433708Y-118662335D01*
X149353656Y-118670341D01*
X149255343Y-118672818D01*
X149239111Y-118672777D01*
X149173551Y-118671418D01*
X149108534Y-118668330D01*
X149051148Y-118663956D01*
X149008478Y-118658740D01*
X149005028Y-118658141D01*
X148962604Y-118648091D01*
X148926620Y-118635396D01*
X148906250Y-118623790D01*
X148887293Y-118593172D01*
X148885973Y-118557518D01*
X148902315Y-118525744D01*
X148905971Y-118522151D01*
X148921085Y-118511476D01*
X148939985Y-118506876D01*
X148969238Y-118507659D01*
X149004749Y-118511727D01*
X149044430Y-118515362D01*
X149100055Y-118518428D01*
X149164994Y-118520653D01*
X149232615Y-118521764D01*
X149250400Y-118521837D01*
X149318272Y-118521564D01*
X149367946Y-118520246D01*
X149403790Y-118517427D01*
X149430176Y-118512650D01*
X149451474Y-118505457D01*
X149464274Y-118499467D01*
X149492400Y-118482833D01*
X149510332Y-118467768D01*
X149512953Y-118463497D01*
X149507424Y-118445863D01*
X149481140Y-118428792D01*
X149435922Y-118413058D01*
X149373592Y-118399438D01*
X149355229Y-118396404D01*
X149259310Y-118381338D01*
X149182759Y-118368746D01*
X149122620Y-118357711D01*
X149075940Y-118347320D01*
X149039763Y-118336656D01*
X149011135Y-118324805D01*
X148987102Y-118310851D01*
X148964708Y-118293881D01*
X148940998Y-118272978D01*
X148933020Y-118265649D01*
X148905047Y-118238299D01*
X148890240Y-118216629D01*
X148884448Y-118191832D01*
X148883511Y-118160583D01*
X148893825Y-118099305D01*
X148924648Y-118047240D01*
X148975805Y-118004558D01*
X149047117Y-117971425D01*
X149098000Y-117956564D01*
X149153300Y-117946966D01*
X149219547Y-117941536D01*
X149292694Y-117939967D01*
X149368697Y-117941951D01*
X149368697Y-117941951D01*
G37*
X149368697Y-117941951D02*
X149443512Y-117947181D01*
X149513094Y-117955350D01*
X149573398Y-117966150D01*
X149620380Y-117979273D01*
X149649994Y-117994413D01*
X149654540Y-117998869D01*
X149670346Y-118033450D01*
X149665553Y-118068951D01*
X149641036Y-118099325D01*
X149639866Y-118100196D01*
X149625446Y-118109554D01*
X149610392Y-118114476D01*
X149589395Y-118115073D01*
X149557143Y-118111461D01*
X149508327Y-118103754D01*
X149504400Y-118103105D01*
X149431661Y-118094169D01*
X149353183Y-118089761D01*
X149274473Y-118089719D01*
X149201039Y-118093879D01*
X149138389Y-118102079D01*
X149092030Y-118114157D01*
X149088984Y-118115371D01*
X149055352Y-118134215D01*
X149043536Y-118153285D01*
X149052786Y-118172039D01*
X149082353Y-118189937D01*
X149131489Y-118206437D01*
X149199443Y-118220996D01*
X149244755Y-118228006D01*
X149338944Y-118241489D01*
X149413856Y-118253814D01*
X149472683Y-118266049D01*
X149518615Y-118279261D01*
X149554845Y-118294517D01*
X149584562Y-118312885D01*
X149610958Y-118335431D01*
X149632170Y-118357571D01*
X149657335Y-118388419D01*
X149669719Y-118414945D01*
X149673592Y-118447626D01*
X149673733Y-118459595D01*
X149670824Y-118499312D01*
X149659198Y-118528859D01*
X149639077Y-118555086D01*
X149598184Y-118595176D01*
X149552583Y-118625749D01*
X149498887Y-118647803D01*
X149433708Y-118662335D01*
X149353656Y-118670341D01*
X149255343Y-118672818D01*
X149239111Y-118672777D01*
X149173551Y-118671418D01*
X149108534Y-118668330D01*
X149051148Y-118663956D01*
X149008478Y-118658740D01*
X149005028Y-118658141D01*
X148962604Y-118648091D01*
X148926620Y-118635396D01*
X148906250Y-118623790D01*
X148887293Y-118593172D01*
X148885973Y-118557518D01*
X148902315Y-118525744D01*
X148905971Y-118522151D01*
X148921085Y-118511476D01*
X148939985Y-118506876D01*
X148969238Y-118507659D01*
X149004749Y-118511727D01*
X149044430Y-118515362D01*
X149100055Y-118518428D01*
X149164994Y-118520653D01*
X149232615Y-118521764D01*
X149250400Y-118521837D01*
X149318272Y-118521564D01*
X149367946Y-118520246D01*
X149403790Y-118517427D01*
X149430176Y-118512650D01*
X149451474Y-118505457D01*
X149464274Y-118499467D01*
X149492400Y-118482833D01*
X149510332Y-118467768D01*
X149512953Y-118463497D01*
X149507424Y-118445863D01*
X149481140Y-118428792D01*
X149435922Y-118413058D01*
X149373592Y-118399438D01*
X149355229Y-118396404D01*
X149259310Y-118381338D01*
X149182759Y-118368746D01*
X149122620Y-118357711D01*
X149075940Y-118347320D01*
X149039763Y-118336656D01*
X149011135Y-118324805D01*
X148987102Y-118310851D01*
X148964708Y-118293881D01*
X148940998Y-118272978D01*
X148933020Y-118265649D01*
X148905047Y-118238299D01*
X148890240Y-118216629D01*
X148884448Y-118191832D01*
X148883511Y-118160583D01*
X148893825Y-118099305D01*
X148924648Y-118047240D01*
X148975805Y-118004558D01*
X149047117Y-117971425D01*
X149098000Y-117956564D01*
X149153300Y-117946966D01*
X149219547Y-117941536D01*
X149292694Y-117939967D01*
X149368697Y-117941951D01*
G36*
X148347606Y-117940746D02*
G01*
X148417014Y-117941118D01*
X148469403Y-117941985D01*
X148507553Y-117943546D01*
X148534241Y-117946003D01*
X148552247Y-117949557D01*
X148564351Y-117954410D01*
X148573331Y-117960761D01*
X148576582Y-117963684D01*
X148596357Y-117994742D01*
X148599918Y-118030428D01*
X148586909Y-118062110D01*
X148580894Y-118068513D01*
X148571165Y-118074721D01*
X148555499Y-118079510D01*
X148530992Y-118083114D01*
X148494739Y-118085764D01*
X148443835Y-118087695D01*
X148375374Y-118089139D01*
X148312783Y-118090018D01*
X148065066Y-118093067D01*
X148061681Y-118157978D01*
X148058295Y-118222889D01*
X148226442Y-118222889D01*
X148299441Y-118223519D01*
X148352883Y-118226153D01*
X148389772Y-118231909D01*
X148413112Y-118241904D01*
X148425906Y-118257256D01*
X148431158Y-118279082D01*
X148431955Y-118299338D01*
X148429477Y-118324192D01*
X148420123Y-118342506D01*
X148401017Y-118355237D01*
X148369282Y-118363341D01*
X148322041Y-118367776D01*
X148256417Y-118369499D01*
X148220599Y-118369645D01*
X148059422Y-118369645D01*
X148059422Y-118527689D01*
X148307778Y-118527689D01*
X148389187Y-118527802D01*
X148451058Y-118528312D01*
X148496432Y-118529470D01*
X148528346Y-118531530D01*
X148549841Y-118534746D01*
X148563957Y-118539372D01*
X148573732Y-118545659D01*
X148578711Y-118550267D01*
X148595790Y-118577160D01*
X148601289Y-118601067D01*
X148593437Y-118630267D01*
X148578711Y-118651867D01*
X148570854Y-118658666D01*
X148560712Y-118663946D01*
X148545556Y-118667898D01*
X148522659Y-118670713D01*
X148489291Y-118672582D01*
X148442725Y-118673698D01*
X148380233Y-118674251D01*
X148299086Y-118674433D01*
X148256978Y-118674445D01*
X148166802Y-118674365D01*
X148096476Y-118673998D01*
X148043271Y-118673152D01*
X148004460Y-118671636D01*
X147977313Y-118669259D01*
X147959102Y-118665829D01*
X147947100Y-118661154D01*
X147938578Y-118655044D01*
X147935244Y-118651867D01*
X147928645Y-118644270D01*
X147923473Y-118634470D01*
X147919554Y-118619839D01*
X147916716Y-118597752D01*
X147914785Y-118565582D01*
X147913588Y-118520703D01*
X147912952Y-118460489D01*
X147912703Y-118382313D01*
X147912666Y-118309523D01*
X147912700Y-118216307D01*
X147912935Y-118143031D01*
X147913570Y-118087058D01*
X147914806Y-118045751D01*
X147916844Y-118016472D01*
X147919883Y-117996584D01*
X147924123Y-117983450D01*
X147929765Y-117974432D01*
X147937009Y-117966893D01*
X147938794Y-117965212D01*
X147947455Y-117957772D01*
X147957518Y-117952009D01*
X147971775Y-117947712D01*
X147993017Y-117944664D01*
X148024036Y-117942651D01*
X148067623Y-117941460D01*
X148126569Y-117940875D01*
X148203666Y-117940683D01*
X148258399Y-117940667D01*
X148347606Y-117940746D01*
X148347606Y-117940746D01*
G37*
X148347606Y-117940746D02*
X148417014Y-117941118D01*
X148469403Y-117941985D01*
X148507553Y-117943546D01*
X148534241Y-117946003D01*
X148552247Y-117949557D01*
X148564351Y-117954410D01*
X148573331Y-117960761D01*
X148576582Y-117963684D01*
X148596357Y-117994742D01*
X148599918Y-118030428D01*
X148586909Y-118062110D01*
X148580894Y-118068513D01*
X148571165Y-118074721D01*
X148555499Y-118079510D01*
X148530992Y-118083114D01*
X148494739Y-118085764D01*
X148443835Y-118087695D01*
X148375374Y-118089139D01*
X148312783Y-118090018D01*
X148065066Y-118093067D01*
X148061681Y-118157978D01*
X148058295Y-118222889D01*
X148226442Y-118222889D01*
X148299441Y-118223519D01*
X148352883Y-118226153D01*
X148389772Y-118231909D01*
X148413112Y-118241904D01*
X148425906Y-118257256D01*
X148431158Y-118279082D01*
X148431955Y-118299338D01*
X148429477Y-118324192D01*
X148420123Y-118342506D01*
X148401017Y-118355237D01*
X148369282Y-118363341D01*
X148322041Y-118367776D01*
X148256417Y-118369499D01*
X148220599Y-118369645D01*
X148059422Y-118369645D01*
X148059422Y-118527689D01*
X148307778Y-118527689D01*
X148389187Y-118527802D01*
X148451058Y-118528312D01*
X148496432Y-118529470D01*
X148528346Y-118531530D01*
X148549841Y-118534746D01*
X148563957Y-118539372D01*
X148573732Y-118545659D01*
X148578711Y-118550267D01*
X148595790Y-118577160D01*
X148601289Y-118601067D01*
X148593437Y-118630267D01*
X148578711Y-118651867D01*
X148570854Y-118658666D01*
X148560712Y-118663946D01*
X148545556Y-118667898D01*
X148522659Y-118670713D01*
X148489291Y-118672582D01*
X148442725Y-118673698D01*
X148380233Y-118674251D01*
X148299086Y-118674433D01*
X148256978Y-118674445D01*
X148166802Y-118674365D01*
X148096476Y-118673998D01*
X148043271Y-118673152D01*
X148004460Y-118671636D01*
X147977313Y-118669259D01*
X147959102Y-118665829D01*
X147947100Y-118661154D01*
X147938578Y-118655044D01*
X147935244Y-118651867D01*
X147928645Y-118644270D01*
X147923473Y-118634470D01*
X147919554Y-118619839D01*
X147916716Y-118597752D01*
X147914785Y-118565582D01*
X147913588Y-118520703D01*
X147912952Y-118460489D01*
X147912703Y-118382313D01*
X147912666Y-118309523D01*
X147912700Y-118216307D01*
X147912935Y-118143031D01*
X147913570Y-118087058D01*
X147914806Y-118045751D01*
X147916844Y-118016472D01*
X147919883Y-117996584D01*
X147924123Y-117983450D01*
X147929765Y-117974432D01*
X147937009Y-117966893D01*
X147938794Y-117965212D01*
X147947455Y-117957772D01*
X147957518Y-117952009D01*
X147971775Y-117947712D01*
X147993017Y-117944664D01*
X148024036Y-117942651D01*
X148067623Y-117941460D01*
X148126569Y-117940875D01*
X148203666Y-117940683D01*
X148258399Y-117940667D01*
X148347606Y-117940746D01*
G36*
X146939029Y-117940666D02*
G01*
X146978511Y-117941067D01*
X147094200Y-117943859D01*
X147191089Y-117952150D01*
X147272481Y-117966832D01*
X147341677Y-117988793D01*
X147401980Y-118018922D01*
X147456692Y-118058110D01*
X147476233Y-118075132D01*
X147508650Y-118114963D01*
X147537880Y-118169013D01*
X147560409Y-118228923D01*
X147572721Y-118286339D01*
X147574000Y-118307556D01*
X147565983Y-118366369D01*
X147544501Y-118430613D01*
X147513401Y-118491421D01*
X147476534Y-118539930D01*
X147470546Y-118545782D01*
X147419821Y-118586921D01*
X147364275Y-118619035D01*
X147300704Y-118642965D01*
X147225906Y-118659553D01*
X147136678Y-118669641D01*
X147029818Y-118674069D01*
X146980872Y-118674445D01*
X146918638Y-118674145D01*
X146874872Y-118672892D01*
X146845469Y-118670154D01*
X146826321Y-118665401D01*
X146813323Y-118658101D01*
X146806355Y-118651867D01*
X146799774Y-118644294D01*
X146794612Y-118634524D01*
X146790697Y-118619940D01*
X146787857Y-118597926D01*
X146785920Y-118565864D01*
X146784716Y-118521136D01*
X146784072Y-118461126D01*
X146783817Y-118383217D01*
X146783778Y-118307556D01*
X146783530Y-118206641D01*
X146783583Y-118126027D01*
X146784543Y-118087422D01*
X146930533Y-118087422D01*
X146930533Y-118527689D01*
X147023666Y-118527604D01*
X147079707Y-118525996D01*
X147138401Y-118521856D01*
X147187372Y-118516064D01*
X147188862Y-118515826D01*
X147268008Y-118496690D01*
X147329398Y-118466887D01*
X147376095Y-118424478D01*
X147405765Y-118378561D01*
X147424047Y-118327626D01*
X147422629Y-118279800D01*
X147401412Y-118228533D01*
X147359911Y-118175499D01*
X147302402Y-118136200D01*
X147227650Y-118109931D01*
X147177692Y-118100635D01*
X147120984Y-118094107D01*
X147060881Y-118089382D01*
X147009761Y-118087417D01*
X147006733Y-118087408D01*
X146930533Y-118087422D01*
X146784543Y-118087422D01*
X146785140Y-118063451D01*
X146789402Y-118016655D01*
X146797570Y-117983378D01*
X146810844Y-117961359D01*
X146830426Y-117948339D01*
X146857517Y-117942057D01*
X146893318Y-117940253D01*
X146939029Y-117940666D01*
X146939029Y-117940666D01*
G37*
X146939029Y-117940666D02*
X146978511Y-117941067D01*
X147094200Y-117943859D01*
X147191089Y-117952150D01*
X147272481Y-117966832D01*
X147341677Y-117988793D01*
X147401980Y-118018922D01*
X147456692Y-118058110D01*
X147476233Y-118075132D01*
X147508650Y-118114963D01*
X147537880Y-118169013D01*
X147560409Y-118228923D01*
X147572721Y-118286339D01*
X147574000Y-118307556D01*
X147565983Y-118366369D01*
X147544501Y-118430613D01*
X147513401Y-118491421D01*
X147476534Y-118539930D01*
X147470546Y-118545782D01*
X147419821Y-118586921D01*
X147364275Y-118619035D01*
X147300704Y-118642965D01*
X147225906Y-118659553D01*
X147136678Y-118669641D01*
X147029818Y-118674069D01*
X146980872Y-118674445D01*
X146918638Y-118674145D01*
X146874872Y-118672892D01*
X146845469Y-118670154D01*
X146826321Y-118665401D01*
X146813323Y-118658101D01*
X146806355Y-118651867D01*
X146799774Y-118644294D01*
X146794612Y-118634524D01*
X146790697Y-118619940D01*
X146787857Y-118597926D01*
X146785920Y-118565864D01*
X146784716Y-118521136D01*
X146784072Y-118461126D01*
X146783817Y-118383217D01*
X146783778Y-118307556D01*
X146783530Y-118206641D01*
X146783583Y-118126027D01*
X146784543Y-118087422D01*
X146930533Y-118087422D01*
X146930533Y-118527689D01*
X147023666Y-118527604D01*
X147079707Y-118525996D01*
X147138401Y-118521856D01*
X147187372Y-118516064D01*
X147188862Y-118515826D01*
X147268008Y-118496690D01*
X147329398Y-118466887D01*
X147376095Y-118424478D01*
X147405765Y-118378561D01*
X147424047Y-118327626D01*
X147422629Y-118279800D01*
X147401412Y-118228533D01*
X147359911Y-118175499D01*
X147302402Y-118136200D01*
X147227650Y-118109931D01*
X147177692Y-118100635D01*
X147120984Y-118094107D01*
X147060881Y-118089382D01*
X147009761Y-118087417D01*
X147006733Y-118087408D01*
X146930533Y-118087422D01*
X146784543Y-118087422D01*
X146785140Y-118063451D01*
X146789402Y-118016655D01*
X146797570Y-117983378D01*
X146810844Y-117961359D01*
X146830426Y-117948339D01*
X146857517Y-117942057D01*
X146893318Y-117940253D01*
X146939029Y-117940666D01*
G36*
X150787357Y-112698171D02*
G01*
X150883632Y-112722409D01*
X150970216Y-112765241D01*
X151045027Y-112825019D01*
X151105982Y-112900094D01*
X151151001Y-112988820D01*
X151177264Y-113085130D01*
X151183114Y-113182395D01*
X151168260Y-113276254D01*
X151134560Y-113364111D01*
X151083872Y-113443370D01*
X151018055Y-113511436D01*
X150938966Y-113565712D01*
X150848466Y-113603602D01*
X150797200Y-113616026D01*
X150752702Y-113623547D01*
X150718401Y-113626519D01*
X150685440Y-113624694D01*
X150644966Y-113617825D01*
X150611869Y-113610850D01*
X150518453Y-113579341D01*
X150434781Y-113528217D01*
X150362735Y-113459029D01*
X150304200Y-113373328D01*
X150290252Y-113346089D01*
X150273814Y-113309722D01*
X150263506Y-113279182D01*
X150257940Y-113247050D01*
X150255731Y-113205907D01*
X150255452Y-113159822D01*
X150259539Y-113075465D01*
X150272954Y-113006186D01*
X150298144Y-112945561D01*
X150337554Y-112887167D01*
X150376102Y-112842902D01*
X150447994Y-112777084D01*
X150523087Y-112731653D01*
X150605838Y-112704450D01*
X150683472Y-112694176D01*
X150787357Y-112698171D01*
X150787357Y-112698171D01*
G37*
X150787357Y-112698171D02*
X150883632Y-112722409D01*
X150970216Y-112765241D01*
X151045027Y-112825019D01*
X151105982Y-112900094D01*
X151151001Y-112988820D01*
X151177264Y-113085130D01*
X151183114Y-113182395D01*
X151168260Y-113276254D01*
X151134560Y-113364111D01*
X151083872Y-113443370D01*
X151018055Y-113511436D01*
X150938966Y-113565712D01*
X150848466Y-113603602D01*
X150797200Y-113616026D01*
X150752702Y-113623547D01*
X150718401Y-113626519D01*
X150685440Y-113624694D01*
X150644966Y-113617825D01*
X150611869Y-113610850D01*
X150518453Y-113579341D01*
X150434781Y-113528217D01*
X150362735Y-113459029D01*
X150304200Y-113373328D01*
X150290252Y-113346089D01*
X150273814Y-113309722D01*
X150263506Y-113279182D01*
X150257940Y-113247050D01*
X150255731Y-113205907D01*
X150255452Y-113159822D01*
X150259539Y-113075465D01*
X150272954Y-113006186D01*
X150298144Y-112945561D01*
X150337554Y-112887167D01*
X150376102Y-112842902D01*
X150447994Y-112777084D01*
X150523087Y-112731653D01*
X150605838Y-112704450D01*
X150683472Y-112694176D01*
X150787357Y-112698171D01*
G36*
X159246907Y-115143845D02*
G01*
X159246926Y-115378262D01*
X159246952Y-115591203D01*
X159247025Y-115783768D01*
X159247182Y-115957059D01*
X159247464Y-116112176D01*
X159247909Y-116250220D01*
X159248556Y-116372292D01*
X159249445Y-116479494D01*
X159250613Y-116572926D01*
X159252101Y-116653690D01*
X159253946Y-116722886D01*
X159256189Y-116781615D01*
X159258869Y-116830979D01*
X159262023Y-116872078D01*
X159265692Y-116906013D01*
X159269913Y-116933886D01*
X159274727Y-116956798D01*
X159280173Y-116975849D01*
X159286288Y-116992140D01*
X159293112Y-117006773D01*
X159300685Y-117020849D01*
X159309045Y-117035468D01*
X159314239Y-117044574D01*
X159348504Y-117105289D01*
X158490355Y-117105289D01*
X158490355Y-117009333D01*
X158489624Y-116965970D01*
X158487672Y-116932805D01*
X158484863Y-116915024D01*
X158483621Y-116913378D01*
X158472199Y-116920262D01*
X158449484Y-116938105D01*
X158426785Y-116957479D01*
X158372200Y-116998214D01*
X158302721Y-117039217D01*
X158225670Y-117076723D01*
X158148365Y-117106964D01*
X158117513Y-117116612D01*
X158049016Y-117131178D01*
X157966164Y-117141139D01*
X157876771Y-117146183D01*
X157788648Y-117145996D01*
X157709607Y-117140266D01*
X157671911Y-117134458D01*
X157533814Y-117096397D01*
X157406513Y-117038673D01*
X157290692Y-116961811D01*
X157187037Y-116866339D01*
X157096233Y-116752779D01*
X157029431Y-116641981D01*
X156974564Y-116525225D01*
X156932563Y-116405876D01*
X156902567Y-116279883D01*
X156883711Y-116143194D01*
X156875132Y-115991758D01*
X156874406Y-115914311D01*
X156876500Y-115857534D01*
X157705617Y-115857534D01*
X157705824Y-115950602D01*
X157708737Y-116038292D01*
X157714400Y-116115372D01*
X157722855Y-116176609D01*
X157725438Y-116188950D01*
X157757240Y-116296233D01*
X157798898Y-116383258D01*
X157850763Y-116450242D01*
X157913181Y-116497405D01*
X157986500Y-116524965D01*
X158071069Y-116533141D01*
X158167235Y-116522151D01*
X158230711Y-116506429D01*
X158279854Y-116488239D01*
X158333983Y-116462391D01*
X158374644Y-116438689D01*
X158445200Y-116392321D01*
X158445200Y-115242130D01*
X158377792Y-115198562D01*
X158299267Y-115157640D01*
X158215081Y-115130989D01*
X158129957Y-115119065D01*
X158048616Y-115122322D01*
X157975780Y-115141215D01*
X157943826Y-115156784D01*
X157885901Y-115199781D01*
X157836944Y-115256553D01*
X157795790Y-115329175D01*
X157761274Y-115419721D01*
X157732233Y-115530266D01*
X157730952Y-115536133D01*
X157720781Y-115598388D01*
X157713139Y-115676194D01*
X157708070Y-115764320D01*
X157705617Y-115857534D01*
X156876500Y-115857534D01*
X156882257Y-115701495D01*
X156904202Y-115505659D01*
X156940186Y-115326932D01*
X156990159Y-115165445D01*
X157054068Y-115021326D01*
X157131862Y-114894706D01*
X157223489Y-114785715D01*
X157328897Y-114694483D01*
X157374062Y-114663532D01*
X157475011Y-114607385D01*
X157578301Y-114567774D01*
X157688389Y-114543614D01*
X157809730Y-114533819D01*
X157902236Y-114534865D01*
X158031890Y-114545831D01*
X158144484Y-114567646D01*
X158243275Y-114601314D01*
X158331521Y-114647836D01*
X158380386Y-114682048D01*
X158409753Y-114703962D01*
X158431443Y-114718933D01*
X158439653Y-114723333D01*
X158441268Y-114712504D01*
X158442559Y-114681851D01*
X158443538Y-114634126D01*
X158444217Y-114572079D01*
X158444610Y-114498462D01*
X158444730Y-114416027D01*
X158444588Y-114327525D01*
X158444197Y-114235707D01*
X158443571Y-114143324D01*
X158442720Y-114053128D01*
X158441660Y-113967871D01*
X158440401Y-113890303D01*
X158438956Y-113823176D01*
X158437338Y-113769241D01*
X158435561Y-113731250D01*
X158435069Y-113724267D01*
X158427492Y-113653851D01*
X158415931Y-113598702D01*
X158398192Y-113551581D01*
X158372082Y-113505247D01*
X158365815Y-113495667D01*
X158341383Y-113458978D01*
X159246711Y-113458978D01*
X159246907Y-115143845D01*
X159246907Y-115143845D01*
G37*
X159246907Y-115143845D02*
X159246926Y-115378262D01*
X159246952Y-115591203D01*
X159247025Y-115783768D01*
X159247182Y-115957059D01*
X159247464Y-116112176D01*
X159247909Y-116250220D01*
X159248556Y-116372292D01*
X159249445Y-116479494D01*
X159250613Y-116572926D01*
X159252101Y-116653690D01*
X159253946Y-116722886D01*
X159256189Y-116781615D01*
X159258869Y-116830979D01*
X159262023Y-116872078D01*
X159265692Y-116906013D01*
X159269913Y-116933886D01*
X159274727Y-116956798D01*
X159280173Y-116975849D01*
X159286288Y-116992140D01*
X159293112Y-117006773D01*
X159300685Y-117020849D01*
X159309045Y-117035468D01*
X159314239Y-117044574D01*
X159348504Y-117105289D01*
X158490355Y-117105289D01*
X158490355Y-117009333D01*
X158489624Y-116965970D01*
X158487672Y-116932805D01*
X158484863Y-116915024D01*
X158483621Y-116913378D01*
X158472199Y-116920262D01*
X158449484Y-116938105D01*
X158426785Y-116957479D01*
X158372200Y-116998214D01*
X158302721Y-117039217D01*
X158225670Y-117076723D01*
X158148365Y-117106964D01*
X158117513Y-117116612D01*
X158049016Y-117131178D01*
X157966164Y-117141139D01*
X157876771Y-117146183D01*
X157788648Y-117145996D01*
X157709607Y-117140266D01*
X157671911Y-117134458D01*
X157533814Y-117096397D01*
X157406513Y-117038673D01*
X157290692Y-116961811D01*
X157187037Y-116866339D01*
X157096233Y-116752779D01*
X157029431Y-116641981D01*
X156974564Y-116525225D01*
X156932563Y-116405876D01*
X156902567Y-116279883D01*
X156883711Y-116143194D01*
X156875132Y-115991758D01*
X156874406Y-115914311D01*
X156876500Y-115857534D01*
X157705617Y-115857534D01*
X157705824Y-115950602D01*
X157708737Y-116038292D01*
X157714400Y-116115372D01*
X157722855Y-116176609D01*
X157725438Y-116188950D01*
X157757240Y-116296233D01*
X157798898Y-116383258D01*
X157850763Y-116450242D01*
X157913181Y-116497405D01*
X157986500Y-116524965D01*
X158071069Y-116533141D01*
X158167235Y-116522151D01*
X158230711Y-116506429D01*
X158279854Y-116488239D01*
X158333983Y-116462391D01*
X158374644Y-116438689D01*
X158445200Y-116392321D01*
X158445200Y-115242130D01*
X158377792Y-115198562D01*
X158299267Y-115157640D01*
X158215081Y-115130989D01*
X158129957Y-115119065D01*
X158048616Y-115122322D01*
X157975780Y-115141215D01*
X157943826Y-115156784D01*
X157885901Y-115199781D01*
X157836944Y-115256553D01*
X157795790Y-115329175D01*
X157761274Y-115419721D01*
X157732233Y-115530266D01*
X157730952Y-115536133D01*
X157720781Y-115598388D01*
X157713139Y-115676194D01*
X157708070Y-115764320D01*
X157705617Y-115857534D01*
X156876500Y-115857534D01*
X156882257Y-115701495D01*
X156904202Y-115505659D01*
X156940186Y-115326932D01*
X156990159Y-115165445D01*
X157054068Y-115021326D01*
X157131862Y-114894706D01*
X157223489Y-114785715D01*
X157328897Y-114694483D01*
X157374062Y-114663532D01*
X157475011Y-114607385D01*
X157578301Y-114567774D01*
X157688389Y-114543614D01*
X157809730Y-114533819D01*
X157902236Y-114534865D01*
X158031890Y-114545831D01*
X158144484Y-114567646D01*
X158243275Y-114601314D01*
X158331521Y-114647836D01*
X158380386Y-114682048D01*
X158409753Y-114703962D01*
X158431443Y-114718933D01*
X158439653Y-114723333D01*
X158441268Y-114712504D01*
X158442559Y-114681851D01*
X158443538Y-114634126D01*
X158444217Y-114572079D01*
X158444610Y-114498462D01*
X158444730Y-114416027D01*
X158444588Y-114327525D01*
X158444197Y-114235707D01*
X158443571Y-114143324D01*
X158442720Y-114053128D01*
X158441660Y-113967871D01*
X158440401Y-113890303D01*
X158438956Y-113823176D01*
X158437338Y-113769241D01*
X158435561Y-113731250D01*
X158435069Y-113724267D01*
X158427492Y-113653851D01*
X158415931Y-113598702D01*
X158398192Y-113551581D01*
X158372082Y-113505247D01*
X158365815Y-113495667D01*
X158341383Y-113458978D01*
X159246711Y-113458978D01*
X159246907Y-115143845D01*
G36*
X155733974Y-114538152D02*
G01*
X155885892Y-114558167D01*
X156021156Y-114591802D01*
X156140639Y-114639325D01*
X156245215Y-114701005D01*
X156322824Y-114764565D01*
X156391665Y-114838699D01*
X156445406Y-114918471D01*
X156488310Y-115010691D01*
X156503784Y-115053761D01*
X156516644Y-115092742D01*
X156527846Y-115128889D01*
X156537520Y-115164034D01*
X156545796Y-115200010D01*
X156552803Y-115238650D01*
X156558672Y-115281785D01*
X156563531Y-115331249D01*
X156567510Y-115388873D01*
X156570740Y-115456491D01*
X156573349Y-115535934D01*
X156575467Y-115629036D01*
X156577224Y-115737627D01*
X156578749Y-115863542D01*
X156580172Y-116008612D01*
X156581425Y-116151378D01*
X156582751Y-116307568D01*
X156583956Y-116442839D01*
X156585166Y-116558846D01*
X156586506Y-116657245D01*
X156588100Y-116739693D01*
X156590075Y-116807846D01*
X156592556Y-116863360D01*
X156595669Y-116907892D01*
X156599538Y-116943098D01*
X156604289Y-116970634D01*
X156610048Y-116992156D01*
X156616939Y-117009322D01*
X156625089Y-117023786D01*
X156634623Y-117037206D01*
X156645666Y-117051238D01*
X156649966Y-117056671D01*
X156665786Y-117079510D01*
X156672822Y-117095063D01*
X156672844Y-117095522D01*
X156661967Y-117097721D01*
X156630982Y-117099747D01*
X156582357Y-117101542D01*
X156518563Y-117103051D01*
X156442069Y-117104216D01*
X156355344Y-117104980D01*
X156260857Y-117105286D01*
X156249950Y-117105289D01*
X155827057Y-117105289D01*
X155823795Y-117009222D01*
X155820533Y-116913156D01*
X155758444Y-116964143D01*
X155661114Y-117031657D01*
X155551213Y-117086349D01*
X155464749Y-117116578D01*
X155395678Y-117131266D01*
X155312325Y-117141259D01*
X155222559Y-117146246D01*
X155134245Y-117145913D01*
X155055251Y-117139951D01*
X155019022Y-117134238D01*
X154879003Y-117096376D01*
X154752578Y-117041532D01*
X154640660Y-116970524D01*
X154544162Y-116884168D01*
X154464000Y-116783279D01*
X154401087Y-116668676D01*
X154356712Y-116542584D01*
X154344378Y-116486001D01*
X154336768Y-116423802D01*
X154333139Y-116348963D01*
X154332645Y-116315067D01*
X154332710Y-116311882D01*
X155092648Y-116311882D01*
X155101941Y-116386933D01*
X155130128Y-116450760D01*
X155178597Y-116506398D01*
X155183654Y-116510811D01*
X155231948Y-116545637D01*
X155283657Y-116568220D01*
X155344389Y-116580140D01*
X155419752Y-116582983D01*
X155437859Y-116582578D01*
X155491678Y-116579925D01*
X155531708Y-116574509D01*
X155566724Y-116564345D01*
X155605503Y-116547450D01*
X155616145Y-116542272D01*
X155676796Y-116506444D01*
X155723615Y-116463812D01*
X155736352Y-116448573D01*
X155781022Y-116392062D01*
X155781022Y-116196186D01*
X155780486Y-116117539D01*
X155778796Y-116059588D01*
X155775828Y-116020475D01*
X155771457Y-115998341D01*
X155767372Y-115991874D01*
X155751447Y-115988711D01*
X155717664Y-115986088D01*
X155670740Y-115984255D01*
X155615393Y-115983457D01*
X155606506Y-115983442D01*
X155485730Y-115988696D01*
X155383060Y-116004863D01*
X155296506Y-116032561D01*
X155224081Y-116072408D01*
X155169151Y-116119358D01*
X155124604Y-116177245D01*
X155099880Y-116240293D01*
X155092648Y-116311882D01*
X154332710Y-116311882D01*
X154334578Y-116221312D01*
X154342922Y-116142412D01*
X154359168Y-116071190D01*
X154384805Y-116000464D01*
X154408801Y-115948093D01*
X154467420Y-115852796D01*
X154545517Y-115764770D01*
X154640715Y-115685617D01*
X154750638Y-115616940D01*
X154872910Y-115560341D01*
X155005155Y-115517421D01*
X155069822Y-115502482D01*
X155206004Y-115480377D01*
X155354449Y-115465794D01*
X155505905Y-115459413D01*
X155632464Y-115461045D01*
X155794350Y-115467824D01*
X155786930Y-115408845D01*
X155767638Y-115309692D01*
X155736504Y-115228972D01*
X155692669Y-115166066D01*
X155635271Y-115120356D01*
X155563448Y-115091222D01*
X155476341Y-115078047D01*
X155373086Y-115080211D01*
X155335111Y-115084212D01*
X155193920Y-115109380D01*
X155057107Y-115150414D01*
X154962578Y-115188415D01*
X154917418Y-115207790D01*
X154878985Y-115223360D01*
X154852634Y-115233005D01*
X154844946Y-115235052D01*
X154835202Y-115225974D01*
X154818483Y-115197005D01*
X154794632Y-115147817D01*
X154763493Y-115078084D01*
X154724907Y-114987479D01*
X154718310Y-114971689D01*
X154688253Y-114899372D01*
X154661274Y-114834025D01*
X154638536Y-114778506D01*
X154621206Y-114735672D01*
X154610448Y-114708381D01*
X154607341Y-114699542D01*
X154617340Y-114694787D01*
X154643617Y-114689510D01*
X154671889Y-114685831D01*
X154702046Y-114681074D01*
X154749833Y-114671628D01*
X154811012Y-114658420D01*
X154881346Y-114642376D01*
X154956594Y-114624420D01*
X154985155Y-114617397D01*
X155090216Y-114591809D01*
X155177880Y-114571747D01*
X155252468Y-114556569D01*
X155318303Y-114545635D01*
X155379707Y-114538304D01*
X155441002Y-114533935D01*
X155506510Y-114531887D01*
X155564528Y-114531489D01*
X155733974Y-114538152D01*
X155733974Y-114538152D01*
G37*
X155733974Y-114538152D02*
X155885892Y-114558167D01*
X156021156Y-114591802D01*
X156140639Y-114639325D01*
X156245215Y-114701005D01*
X156322824Y-114764565D01*
X156391665Y-114838699D01*
X156445406Y-114918471D01*
X156488310Y-115010691D01*
X156503784Y-115053761D01*
X156516644Y-115092742D01*
X156527846Y-115128889D01*
X156537520Y-115164034D01*
X156545796Y-115200010D01*
X156552803Y-115238650D01*
X156558672Y-115281785D01*
X156563531Y-115331249D01*
X156567510Y-115388873D01*
X156570740Y-115456491D01*
X156573349Y-115535934D01*
X156575467Y-115629036D01*
X156577224Y-115737627D01*
X156578749Y-115863542D01*
X156580172Y-116008612D01*
X156581425Y-116151378D01*
X156582751Y-116307568D01*
X156583956Y-116442839D01*
X156585166Y-116558846D01*
X156586506Y-116657245D01*
X156588100Y-116739693D01*
X156590075Y-116807846D01*
X156592556Y-116863360D01*
X156595669Y-116907892D01*
X156599538Y-116943098D01*
X156604289Y-116970634D01*
X156610048Y-116992156D01*
X156616939Y-117009322D01*
X156625089Y-117023786D01*
X156634623Y-117037206D01*
X156645666Y-117051238D01*
X156649966Y-117056671D01*
X156665786Y-117079510D01*
X156672822Y-117095063D01*
X156672844Y-117095522D01*
X156661967Y-117097721D01*
X156630982Y-117099747D01*
X156582357Y-117101542D01*
X156518563Y-117103051D01*
X156442069Y-117104216D01*
X156355344Y-117104980D01*
X156260857Y-117105286D01*
X156249950Y-117105289D01*
X155827057Y-117105289D01*
X155823795Y-117009222D01*
X155820533Y-116913156D01*
X155758444Y-116964143D01*
X155661114Y-117031657D01*
X155551213Y-117086349D01*
X155464749Y-117116578D01*
X155395678Y-117131266D01*
X155312325Y-117141259D01*
X155222559Y-117146246D01*
X155134245Y-117145913D01*
X155055251Y-117139951D01*
X155019022Y-117134238D01*
X154879003Y-117096376D01*
X154752578Y-117041532D01*
X154640660Y-116970524D01*
X154544162Y-116884168D01*
X154464000Y-116783279D01*
X154401087Y-116668676D01*
X154356712Y-116542584D01*
X154344378Y-116486001D01*
X154336768Y-116423802D01*
X154333139Y-116348963D01*
X154332645Y-116315067D01*
X154332710Y-116311882D01*
X155092648Y-116311882D01*
X155101941Y-116386933D01*
X155130128Y-116450760D01*
X155178597Y-116506398D01*
X155183654Y-116510811D01*
X155231948Y-116545637D01*
X155283657Y-116568220D01*
X155344389Y-116580140D01*
X155419752Y-116582983D01*
X155437859Y-116582578D01*
X155491678Y-116579925D01*
X155531708Y-116574509D01*
X155566724Y-116564345D01*
X155605503Y-116547450D01*
X155616145Y-116542272D01*
X155676796Y-116506444D01*
X155723615Y-116463812D01*
X155736352Y-116448573D01*
X155781022Y-116392062D01*
X155781022Y-116196186D01*
X155780486Y-116117539D01*
X155778796Y-116059588D01*
X155775828Y-116020475D01*
X155771457Y-115998341D01*
X155767372Y-115991874D01*
X155751447Y-115988711D01*
X155717664Y-115986088D01*
X155670740Y-115984255D01*
X155615393Y-115983457D01*
X155606506Y-115983442D01*
X155485730Y-115988696D01*
X155383060Y-116004863D01*
X155296506Y-116032561D01*
X155224081Y-116072408D01*
X155169151Y-116119358D01*
X155124604Y-116177245D01*
X155099880Y-116240293D01*
X155092648Y-116311882D01*
X154332710Y-116311882D01*
X154334578Y-116221312D01*
X154342922Y-116142412D01*
X154359168Y-116071190D01*
X154384805Y-116000464D01*
X154408801Y-115948093D01*
X154467420Y-115852796D01*
X154545517Y-115764770D01*
X154640715Y-115685617D01*
X154750638Y-115616940D01*
X154872910Y-115560341D01*
X155005155Y-115517421D01*
X155069822Y-115502482D01*
X155206004Y-115480377D01*
X155354449Y-115465794D01*
X155505905Y-115459413D01*
X155632464Y-115461045D01*
X155794350Y-115467824D01*
X155786930Y-115408845D01*
X155767638Y-115309692D01*
X155736504Y-115228972D01*
X155692669Y-115166066D01*
X155635271Y-115120356D01*
X155563448Y-115091222D01*
X155476341Y-115078047D01*
X155373086Y-115080211D01*
X155335111Y-115084212D01*
X155193920Y-115109380D01*
X155057107Y-115150414D01*
X154962578Y-115188415D01*
X154917418Y-115207790D01*
X154878985Y-115223360D01*
X154852634Y-115233005D01*
X154844946Y-115235052D01*
X154835202Y-115225974D01*
X154818483Y-115197005D01*
X154794632Y-115147817D01*
X154763493Y-115078084D01*
X154724907Y-114987479D01*
X154718310Y-114971689D01*
X154688253Y-114899372D01*
X154661274Y-114834025D01*
X154638536Y-114778506D01*
X154621206Y-114735672D01*
X154610448Y-114708381D01*
X154607341Y-114699542D01*
X154617340Y-114694787D01*
X154643617Y-114689510D01*
X154671889Y-114685831D01*
X154702046Y-114681074D01*
X154749833Y-114671628D01*
X154811012Y-114658420D01*
X154881346Y-114642376D01*
X154956594Y-114624420D01*
X154985155Y-114617397D01*
X155090216Y-114591809D01*
X155177880Y-114571747D01*
X155252468Y-114556569D01*
X155318303Y-114545635D01*
X155379707Y-114538304D01*
X155441002Y-114533935D01*
X155506510Y-114531887D01*
X155564528Y-114531489D01*
X155733974Y-114538152D01*
G36*
X153388829Y-113620671D02*
G01*
X153548970Y-113641845D01*
X153712910Y-113681985D01*
X153882713Y-113741489D01*
X154060443Y-113820754D01*
X154071710Y-113826299D01*
X154129405Y-113854325D01*
X154180952Y-113878402D01*
X154222591Y-113896849D01*
X154250562Y-113907986D01*
X154260133Y-113910533D01*
X154279350Y-113915541D01*
X154283961Y-113919747D01*
X154278858Y-113930180D01*
X154262818Y-113956468D01*
X154237688Y-113995857D01*
X154205314Y-114045591D01*
X154167543Y-114102915D01*
X154126222Y-114165076D01*
X154083198Y-114229318D01*
X154040317Y-114292885D01*
X153999426Y-114353025D01*
X153962371Y-114406980D01*
X153931000Y-114451997D01*
X153907159Y-114485321D01*
X153892694Y-114504197D01*
X153890709Y-114506387D01*
X153880591Y-114501738D01*
X153858250Y-114484562D01*
X153827680Y-114458040D01*
X153811936Y-114443564D01*
X153715447Y-114368282D01*
X153608736Y-114312841D01*
X153493232Y-114277741D01*
X153370362Y-114263480D01*
X153300961Y-114264651D01*
X153179823Y-114281812D01*
X153070605Y-114317694D01*
X152972982Y-114372559D01*
X152886628Y-114446670D01*
X152811215Y-114540288D01*
X152746418Y-114653676D01*
X152709001Y-114740267D01*
X152665148Y-114875966D01*
X152632828Y-115023450D01*
X152611957Y-115178914D01*
X152602451Y-115338556D01*
X152604227Y-115498573D01*
X152617203Y-115655161D01*
X152641294Y-115804518D01*
X152676418Y-115942840D01*
X152722492Y-116066324D01*
X152738773Y-116100578D01*
X152807020Y-116214664D01*
X152887479Y-116311157D01*
X152978970Y-116389270D01*
X153080311Y-116448217D01*
X153190320Y-116487212D01*
X153307815Y-116505468D01*
X153349283Y-116506811D01*
X153470841Y-116495890D01*
X153591278Y-116463074D01*
X153709066Y-116409039D01*
X153822677Y-116334465D01*
X153914085Y-116256139D01*
X153960615Y-116211608D01*
X154141883Y-116508871D01*
X154186980Y-116583033D01*
X154228219Y-116651246D01*
X154264135Y-116711059D01*
X154293266Y-116760020D01*
X154314150Y-116795679D01*
X154325324Y-116815584D01*
X154326775Y-116818679D01*
X154318546Y-116828318D01*
X154292967Y-116845599D01*
X154253273Y-116868883D01*
X154202697Y-116896534D01*
X154144474Y-116926915D01*
X154081837Y-116958390D01*
X154018021Y-116989322D01*
X153956260Y-117018073D01*
X153899788Y-117043008D01*
X153851838Y-117062489D01*
X153828386Y-117070918D01*
X153694621Y-117108733D01*
X153556727Y-117133736D01*
X153409022Y-117146740D01*
X153282233Y-117149068D01*
X153214278Y-117147973D01*
X153148677Y-117145875D01*
X153091247Y-117143034D01*
X153047803Y-117139706D01*
X153033698Y-117138022D01*
X152894684Y-117109187D01*
X152753157Y-117064068D01*
X152615675Y-117005350D01*
X152488794Y-116935720D01*
X152411289Y-116883041D01*
X152283881Y-116774839D01*
X152165578Y-116648271D01*
X152058572Y-116506466D01*
X151965052Y-116352551D01*
X151887210Y-116189653D01*
X151843356Y-116072356D01*
X151793108Y-115888728D01*
X151759609Y-115694181D01*
X151742849Y-115492925D01*
X151742816Y-115289168D01*
X151759501Y-115087121D01*
X151792893Y-114890992D01*
X151842980Y-114704991D01*
X151846797Y-114693403D01*
X151909681Y-114531350D01*
X151986428Y-114383432D01*
X152079642Y-114245465D01*
X152191927Y-114113261D01*
X152235792Y-114067999D01*
X152371934Y-113944057D01*
X152511891Y-113841515D01*
X152657811Y-113759256D01*
X152811842Y-113696164D01*
X152976132Y-113651123D01*
X153071689Y-113633633D01*
X153230423Y-113618066D01*
X153388829Y-113620671D01*
X153388829Y-113620671D01*
G37*
X153388829Y-113620671D02*
X153548970Y-113641845D01*
X153712910Y-113681985D01*
X153882713Y-113741489D01*
X154060443Y-113820754D01*
X154071710Y-113826299D01*
X154129405Y-113854325D01*
X154180952Y-113878402D01*
X154222591Y-113896849D01*
X154250562Y-113907986D01*
X154260133Y-113910533D01*
X154279350Y-113915541D01*
X154283961Y-113919747D01*
X154278858Y-113930180D01*
X154262818Y-113956468D01*
X154237688Y-113995857D01*
X154205314Y-114045591D01*
X154167543Y-114102915D01*
X154126222Y-114165076D01*
X154083198Y-114229318D01*
X154040317Y-114292885D01*
X153999426Y-114353025D01*
X153962371Y-114406980D01*
X153931000Y-114451997D01*
X153907159Y-114485321D01*
X153892694Y-114504197D01*
X153890709Y-114506387D01*
X153880591Y-114501738D01*
X153858250Y-114484562D01*
X153827680Y-114458040D01*
X153811936Y-114443564D01*
X153715447Y-114368282D01*
X153608736Y-114312841D01*
X153493232Y-114277741D01*
X153370362Y-114263480D01*
X153300961Y-114264651D01*
X153179823Y-114281812D01*
X153070605Y-114317694D01*
X152972982Y-114372559D01*
X152886628Y-114446670D01*
X152811215Y-114540288D01*
X152746418Y-114653676D01*
X152709001Y-114740267D01*
X152665148Y-114875966D01*
X152632828Y-115023450D01*
X152611957Y-115178914D01*
X152602451Y-115338556D01*
X152604227Y-115498573D01*
X152617203Y-115655161D01*
X152641294Y-115804518D01*
X152676418Y-115942840D01*
X152722492Y-116066324D01*
X152738773Y-116100578D01*
X152807020Y-116214664D01*
X152887479Y-116311157D01*
X152978970Y-116389270D01*
X153080311Y-116448217D01*
X153190320Y-116487212D01*
X153307815Y-116505468D01*
X153349283Y-116506811D01*
X153470841Y-116495890D01*
X153591278Y-116463074D01*
X153709066Y-116409039D01*
X153822677Y-116334465D01*
X153914085Y-116256139D01*
X153960615Y-116211608D01*
X154141883Y-116508871D01*
X154186980Y-116583033D01*
X154228219Y-116651246D01*
X154264135Y-116711059D01*
X154293266Y-116760020D01*
X154314150Y-116795679D01*
X154325324Y-116815584D01*
X154326775Y-116818679D01*
X154318546Y-116828318D01*
X154292967Y-116845599D01*
X154253273Y-116868883D01*
X154202697Y-116896534D01*
X154144474Y-116926915D01*
X154081837Y-116958390D01*
X154018021Y-116989322D01*
X153956260Y-117018073D01*
X153899788Y-117043008D01*
X153851838Y-117062489D01*
X153828386Y-117070918D01*
X153694621Y-117108733D01*
X153556727Y-117133736D01*
X153409022Y-117146740D01*
X153282233Y-117149068D01*
X153214278Y-117147973D01*
X153148677Y-117145875D01*
X153091247Y-117143034D01*
X153047803Y-117139706D01*
X153033698Y-117138022D01*
X152894684Y-117109187D01*
X152753157Y-117064068D01*
X152615675Y-117005350D01*
X152488794Y-116935720D01*
X152411289Y-116883041D01*
X152283881Y-116774839D01*
X152165578Y-116648271D01*
X152058572Y-116506466D01*
X151965052Y-116352551D01*
X151887210Y-116189653D01*
X151843356Y-116072356D01*
X151793108Y-115888728D01*
X151759609Y-115694181D01*
X151742849Y-115492925D01*
X151742816Y-115289168D01*
X151759501Y-115087121D01*
X151792893Y-114890992D01*
X151842980Y-114704991D01*
X151846797Y-114693403D01*
X151909681Y-114531350D01*
X151986428Y-114383432D01*
X152079642Y-114245465D01*
X152191927Y-114113261D01*
X152235792Y-114067999D01*
X152371934Y-113944057D01*
X152511891Y-113841515D01*
X152657811Y-113759256D01*
X152811842Y-113696164D01*
X152976132Y-113651123D01*
X153071689Y-113633633D01*
X153230423Y-113618066D01*
X153388829Y-113620671D01*
G36*
X150114000Y-113160654D02*
G01*
X150124865Y-113274593D01*
X150156482Y-113382216D01*
X150207385Y-113481215D01*
X150276107Y-113569284D01*
X150361181Y-113644116D01*
X150458168Y-113701984D01*
X150564436Y-113741605D01*
X150671450Y-113760173D01*
X150777100Y-113759034D01*
X150879275Y-113739530D01*
X150975866Y-113703006D01*
X151064762Y-113650805D01*
X151143854Y-113584273D01*
X151211031Y-113504752D01*
X151264183Y-113413587D01*
X151301201Y-113312123D01*
X151319973Y-113201702D01*
X151321911Y-113151806D01*
X151321911Y-113063867D01*
X151373840Y-113063867D01*
X151410147Y-113066711D01*
X151437045Y-113078511D01*
X151464151Y-113102249D01*
X151502533Y-113140631D01*
X151502533Y-115332202D01*
X151502524Y-115594339D01*
X151502492Y-115834841D01*
X151502428Y-116054648D01*
X151502324Y-116254701D01*
X151502173Y-116435944D01*
X151501966Y-116599316D01*
X151501694Y-116745760D01*
X151501350Y-116876217D01*
X151500926Y-116991629D01*
X151500413Y-117092938D01*
X151499803Y-117181084D01*
X151499088Y-117257010D01*
X151498260Y-117321657D01*
X151497311Y-117375967D01*
X151496233Y-117420880D01*
X151495017Y-117457340D01*
X151493655Y-117486287D01*
X151492139Y-117508663D01*
X151490462Y-117525409D01*
X151488614Y-117537468D01*
X151486587Y-117545780D01*
X151484375Y-117551287D01*
X151483292Y-117553137D01*
X151479129Y-117560149D01*
X151475595Y-117566596D01*
X151471765Y-117572500D01*
X151466718Y-117577886D01*
X151459529Y-117582778D01*
X151449277Y-117587198D01*
X151435036Y-117591172D01*
X151415886Y-117594721D01*
X151390901Y-117597870D01*
X151359160Y-117600642D01*
X151319738Y-117603061D01*
X151271714Y-117605151D01*
X151214163Y-117606935D01*
X151146163Y-117608437D01*
X151066790Y-117609680D01*
X150975121Y-117610689D01*
X150870234Y-117611485D01*
X150751204Y-117612094D01*
X150617110Y-117612539D01*
X150467027Y-117612843D01*
X150300033Y-117613030D01*
X150115204Y-117613124D01*
X149911617Y-117613148D01*
X149688350Y-117613125D01*
X149444478Y-117613080D01*
X149179079Y-117613037D01*
X149140696Y-117613032D01*
X148873718Y-117612989D01*
X148628398Y-117612918D01*
X148403817Y-117612813D01*
X148199055Y-117612666D01*
X148013194Y-117612469D01*
X147845312Y-117612216D01*
X147694492Y-117611900D01*
X147559813Y-117611513D01*
X147440356Y-117611047D01*
X147335201Y-117610497D01*
X147243429Y-117609853D01*
X147164121Y-117609111D01*
X147096357Y-117608261D01*
X147039218Y-117607297D01*
X146991783Y-117606211D01*
X146953134Y-117604997D01*
X146922351Y-117603647D01*
X146898515Y-117602155D01*
X146880706Y-117600511D01*
X146868005Y-117598711D01*
X146859492Y-117596745D01*
X146855134Y-117595077D01*
X146846672Y-117591506D01*
X146838903Y-117588870D01*
X146831798Y-117586234D01*
X146825327Y-117582662D01*
X146819461Y-117577221D01*
X146814171Y-117568975D01*
X146809426Y-117556990D01*
X146805198Y-117540331D01*
X146801457Y-117518063D01*
X146798173Y-117489252D01*
X146795317Y-117452963D01*
X146792860Y-117408261D01*
X146790771Y-117354211D01*
X146789022Y-117289879D01*
X146787583Y-117214330D01*
X146786424Y-117126630D01*
X146785517Y-117025843D01*
X146784831Y-116911034D01*
X146784337Y-116781270D01*
X146784005Y-116635615D01*
X146783807Y-116473135D01*
X146783713Y-116292895D01*
X146783692Y-116093960D01*
X146783715Y-115875396D01*
X146783754Y-115636268D01*
X146783778Y-115375640D01*
X146783778Y-115333489D01*
X146783764Y-115070592D01*
X146783739Y-114829332D01*
X146783729Y-114608765D01*
X146783758Y-114407952D01*
X146783852Y-114225949D01*
X146784038Y-114061816D01*
X146784341Y-113914611D01*
X146784786Y-113783392D01*
X146785366Y-113673467D01*
X147088203Y-113673467D01*
X147127993Y-113731311D01*
X147139164Y-113747079D01*
X147149234Y-113761041D01*
X147158262Y-113774384D01*
X147166303Y-113788293D01*
X147173414Y-113803956D01*
X147179653Y-113822558D01*
X147185075Y-113845286D01*
X147189738Y-113873327D01*
X147193699Y-113907867D01*
X147197015Y-113950092D01*
X147199741Y-114001189D01*
X147201936Y-114062344D01*
X147203655Y-114134744D01*
X147204956Y-114219575D01*
X147205895Y-114318022D01*
X147206530Y-114431274D01*
X147206916Y-114560516D01*
X147207112Y-114706934D01*
X147207173Y-114871716D01*
X147207157Y-115056047D01*
X147207120Y-115261113D01*
X147207111Y-115383733D01*
X147207135Y-115600682D01*
X147207169Y-115796242D01*
X147207157Y-115971599D01*
X147207042Y-116127941D01*
X147206770Y-116266457D01*
X147206282Y-116388334D01*
X147205524Y-116494760D01*
X147204438Y-116586922D01*
X147202969Y-116666009D01*
X147201060Y-116733208D01*
X147198656Y-116789707D01*
X147195699Y-116836693D01*
X147192134Y-116875355D01*
X147187905Y-116906880D01*
X147182954Y-116932455D01*
X147177227Y-116953270D01*
X147170667Y-116970511D01*
X147163217Y-116985365D01*
X147154821Y-116999022D01*
X147145424Y-117012669D01*
X147134968Y-117027493D01*
X147128877Y-117036383D01*
X147090104Y-117094000D01*
X147621668Y-117094000D01*
X147744917Y-117093965D01*
X147847413Y-117093815D01*
X147930980Y-117093478D01*
X147997444Y-117092886D01*
X148048629Y-117091967D01*
X148086359Y-117090651D01*
X148112460Y-117088869D01*
X148128756Y-117086551D01*
X148137072Y-117083626D01*
X148139232Y-117080024D01*
X148137061Y-117075675D01*
X148135865Y-117074245D01*
X148110715Y-117037173D01*
X148084817Y-116984372D01*
X148061208Y-116922370D01*
X148052939Y-116895957D01*
X148048322Y-116878016D01*
X148044421Y-116856955D01*
X148041152Y-116830689D01*
X148038434Y-116797132D01*
X148036185Y-116754199D01*
X148034323Y-116699804D01*
X148032764Y-116631862D01*
X148031428Y-116548288D01*
X148030231Y-116446995D01*
X148029092Y-116325900D01*
X148028715Y-116281200D01*
X148027698Y-116156049D01*
X148026940Y-116051682D01*
X148026497Y-115966307D01*
X148026430Y-115898133D01*
X148026795Y-115845365D01*
X148027652Y-115806214D01*
X148029059Y-115778885D01*
X148031075Y-115761586D01*
X148033757Y-115752526D01*
X148037164Y-115749912D01*
X148041356Y-115751951D01*
X148045829Y-115756267D01*
X148056184Y-115769202D01*
X148078242Y-115798276D01*
X148110443Y-115841359D01*
X148151226Y-115896318D01*
X148199030Y-115961023D01*
X148252295Y-116033342D01*
X148309460Y-116111144D01*
X148368963Y-116192298D01*
X148429245Y-116274672D01*
X148488745Y-116356136D01*
X148545902Y-116434557D01*
X148599155Y-116507804D01*
X148646943Y-116573747D01*
X148687707Y-116630254D01*
X148719884Y-116675193D01*
X148741915Y-116706434D01*
X148746483Y-116713066D01*
X148769404Y-116749969D01*
X148796212Y-116797959D01*
X148821611Y-116847497D01*
X148824832Y-116854177D01*
X148846510Y-116902372D01*
X148859096Y-116939934D01*
X148864826Y-116975760D01*
X148865944Y-117017800D01*
X148865310Y-117094000D01*
X150019749Y-117094000D01*
X149928585Y-117000269D01*
X149881788Y-116950375D01*
X149831501Y-116893895D01*
X149785456Y-116839626D01*
X149765031Y-116814273D01*
X149734593Y-116774728D01*
X149694538Y-116721516D01*
X149646039Y-116656267D01*
X149590265Y-116580611D01*
X149528389Y-116496177D01*
X149461581Y-116404594D01*
X149391013Y-116307492D01*
X149317855Y-116206501D01*
X149243279Y-116103250D01*
X149168456Y-115999368D01*
X149094557Y-115896485D01*
X149022754Y-115796231D01*
X148954216Y-115700236D01*
X148890116Y-115610127D01*
X148831625Y-115527536D01*
X148779914Y-115454092D01*
X148736153Y-115391424D01*
X148701515Y-115341161D01*
X148677170Y-115304934D01*
X148664289Y-115284371D01*
X148662531Y-115280268D01*
X148670490Y-115268942D01*
X148691285Y-115241762D01*
X148723553Y-115200429D01*
X148765930Y-115146644D01*
X148817053Y-115082106D01*
X148875559Y-115008518D01*
X148940086Y-114927578D01*
X149009269Y-114840988D01*
X149081747Y-114750448D01*
X149156154Y-114657660D01*
X149215883Y-114583302D01*
X150226889Y-114583302D01*
X150232798Y-114596259D01*
X150247128Y-114618508D01*
X150248175Y-114619991D01*
X150266962Y-114650144D01*
X150286609Y-114686975D01*
X150290508Y-114695111D01*
X150294044Y-114703540D01*
X150297170Y-114713659D01*
X150299914Y-114726860D01*
X150302308Y-114744538D01*
X150304381Y-114768084D01*
X150306165Y-114798893D01*
X150307688Y-114838357D01*
X150308981Y-114887869D01*
X150310074Y-114948823D01*
X150310997Y-115022611D01*
X150311781Y-115110628D01*
X150312455Y-115214265D01*
X150313050Y-115334916D01*
X150313595Y-115473974D01*
X150314121Y-115632832D01*
X150314655Y-115811689D01*
X150315194Y-115996807D01*
X150315628Y-116160745D01*
X150315891Y-116304903D01*
X150315916Y-116430679D01*
X150315635Y-116539471D01*
X150314981Y-116632677D01*
X150313886Y-116711697D01*
X150312282Y-116777928D01*
X150310103Y-116832770D01*
X150307281Y-116877621D01*
X150303749Y-116913878D01*
X150299439Y-116942941D01*
X150294283Y-116966209D01*
X150288215Y-116985079D01*
X150281167Y-117000951D01*
X150273071Y-117015222D01*
X150263860Y-117029291D01*
X150255360Y-117041758D01*
X150238224Y-117068052D01*
X150228078Y-117085637D01*
X150226889Y-117088857D01*
X150237796Y-117089934D01*
X150268989Y-117090935D01*
X150318177Y-117091835D01*
X150383067Y-117092610D01*
X150461370Y-117093237D01*
X150550793Y-117093691D01*
X150649044Y-117093949D01*
X150717955Y-117094000D01*
X150822948Y-117093780D01*
X150919790Y-117093148D01*
X151006293Y-117092149D01*
X151080268Y-117090827D01*
X151139526Y-117089226D01*
X151181880Y-117087391D01*
X151205140Y-117085365D01*
X151209022Y-117084093D01*
X151201324Y-117069191D01*
X151193326Y-117061160D01*
X151180154Y-117044034D01*
X151162915Y-117013783D01*
X151150993Y-116989222D01*
X151124355Y-116930311D01*
X151121280Y-115753445D01*
X151118205Y-114576578D01*
X150672547Y-114576578D01*
X150574730Y-114576742D01*
X150484336Y-114577211D01*
X150403770Y-114577947D01*
X150335438Y-114578916D01*
X150281744Y-114580080D01*
X150245095Y-114581403D01*
X150227896Y-114582849D01*
X150226889Y-114583302D01*
X149215883Y-114583302D01*
X149231130Y-114564322D01*
X149305310Y-114472137D01*
X149377331Y-114382804D01*
X149445831Y-114298024D01*
X149509445Y-114219498D01*
X149566812Y-114148926D01*
X149616567Y-114088009D01*
X149657348Y-114038447D01*
X149674512Y-114017778D01*
X149760804Y-113917116D01*
X149837403Y-113833859D01*
X149906217Y-113766038D01*
X149969152Y-113711689D01*
X149978533Y-113704322D01*
X150018044Y-113673717D01*
X148886284Y-113673467D01*
X148891573Y-113721444D01*
X148888270Y-113778788D01*
X148866739Y-113847063D01*
X148826765Y-113926812D01*
X148781457Y-113999095D01*
X148765239Y-114021740D01*
X148737186Y-114059296D01*
X148698970Y-114109621D01*
X148652263Y-114170573D01*
X148598739Y-114240011D01*
X148540069Y-114315794D01*
X148477925Y-114395780D01*
X148413979Y-114477828D01*
X148349905Y-114559796D01*
X148287373Y-114639543D01*
X148228057Y-114714927D01*
X148173629Y-114783807D01*
X148125761Y-114844042D01*
X148086125Y-114893489D01*
X148056394Y-114930008D01*
X148038239Y-114951458D01*
X148035180Y-114954756D01*
X148032321Y-114946749D01*
X148030107Y-114916455D01*
X148028543Y-114864156D01*
X148027633Y-114790131D01*
X148027380Y-114694663D01*
X148027787Y-114578034D01*
X148028696Y-114458045D01*
X148030018Y-114325933D01*
X148031543Y-114214194D01*
X148033519Y-114120625D01*
X148036194Y-114043019D01*
X148039818Y-113979174D01*
X148044639Y-113926883D01*
X148050906Y-113883944D01*
X148058868Y-113848151D01*
X148068773Y-113817300D01*
X148080869Y-113789186D01*
X148095407Y-113761605D01*
X148110089Y-113736566D01*
X148148086Y-113673467D01*
X147088203Y-113673467D01*
X146785366Y-113673467D01*
X146785399Y-113667217D01*
X146786205Y-113565144D01*
X146787230Y-113476233D01*
X146788500Y-113399541D01*
X146790040Y-113334127D01*
X146791876Y-113279049D01*
X146794033Y-113233365D01*
X146796537Y-113196134D01*
X146799413Y-113166413D01*
X146802687Y-113143262D01*
X146806385Y-113125739D01*
X146810531Y-113112901D01*
X146815153Y-113103808D01*
X146820274Y-113097518D01*
X146825922Y-113093088D01*
X146832121Y-113089578D01*
X146838896Y-113086045D01*
X146844892Y-113082476D01*
X146850125Y-113079900D01*
X146858301Y-113077572D01*
X146870514Y-113075478D01*
X146887859Y-113073607D01*
X146911431Y-113071947D01*
X146942323Y-113070484D01*
X146981632Y-113069208D01*
X147030450Y-113068104D01*
X147089873Y-113067161D01*
X147160996Y-113066367D01*
X147244912Y-113065709D01*
X147342717Y-113065175D01*
X147455506Y-113064753D01*
X147584371Y-113064429D01*
X147730409Y-113064192D01*
X147894714Y-113064030D01*
X148078380Y-113063930D01*
X148282503Y-113063880D01*
X148493647Y-113063867D01*
X150114000Y-113063867D01*
X150114000Y-113160654D01*
X150114000Y-113160654D01*
G37*
X150114000Y-113160654D02*
X150124865Y-113274593D01*
X150156482Y-113382216D01*
X150207385Y-113481215D01*
X150276107Y-113569284D01*
X150361181Y-113644116D01*
X150458168Y-113701984D01*
X150564436Y-113741605D01*
X150671450Y-113760173D01*
X150777100Y-113759034D01*
X150879275Y-113739530D01*
X150975866Y-113703006D01*
X151064762Y-113650805D01*
X151143854Y-113584273D01*
X151211031Y-113504752D01*
X151264183Y-113413587D01*
X151301201Y-113312123D01*
X151319973Y-113201702D01*
X151321911Y-113151806D01*
X151321911Y-113063867D01*
X151373840Y-113063867D01*
X151410147Y-113066711D01*
X151437045Y-113078511D01*
X151464151Y-113102249D01*
X151502533Y-113140631D01*
X151502533Y-115332202D01*
X151502524Y-115594339D01*
X151502492Y-115834841D01*
X151502428Y-116054648D01*
X151502324Y-116254701D01*
X151502173Y-116435944D01*
X151501966Y-116599316D01*
X151501694Y-116745760D01*
X151501350Y-116876217D01*
X151500926Y-116991629D01*
X151500413Y-117092938D01*
X151499803Y-117181084D01*
X151499088Y-117257010D01*
X151498260Y-117321657D01*
X151497311Y-117375967D01*
X151496233Y-117420880D01*
X151495017Y-117457340D01*
X151493655Y-117486287D01*
X151492139Y-117508663D01*
X151490462Y-117525409D01*
X151488614Y-117537468D01*
X151486587Y-117545780D01*
X151484375Y-117551287D01*
X151483292Y-117553137D01*
X151479129Y-117560149D01*
X151475595Y-117566596D01*
X151471765Y-117572500D01*
X151466718Y-117577886D01*
X151459529Y-117582778D01*
X151449277Y-117587198D01*
X151435036Y-117591172D01*
X151415886Y-117594721D01*
X151390901Y-117597870D01*
X151359160Y-117600642D01*
X151319738Y-117603061D01*
X151271714Y-117605151D01*
X151214163Y-117606935D01*
X151146163Y-117608437D01*
X151066790Y-117609680D01*
X150975121Y-117610689D01*
X150870234Y-117611485D01*
X150751204Y-117612094D01*
X150617110Y-117612539D01*
X150467027Y-117612843D01*
X150300033Y-117613030D01*
X150115204Y-117613124D01*
X149911617Y-117613148D01*
X149688350Y-117613125D01*
X149444478Y-117613080D01*
X149179079Y-117613037D01*
X149140696Y-117613032D01*
X148873718Y-117612989D01*
X148628398Y-117612918D01*
X148403817Y-117612813D01*
X148199055Y-117612666D01*
X148013194Y-117612469D01*
X147845312Y-117612216D01*
X147694492Y-117611900D01*
X147559813Y-117611513D01*
X147440356Y-117611047D01*
X147335201Y-117610497D01*
X147243429Y-117609853D01*
X147164121Y-117609111D01*
X147096357Y-117608261D01*
X147039218Y-117607297D01*
X146991783Y-117606211D01*
X146953134Y-117604997D01*
X146922351Y-117603647D01*
X146898515Y-117602155D01*
X146880706Y-117600511D01*
X146868005Y-117598711D01*
X146859492Y-117596745D01*
X146855134Y-117595077D01*
X146846672Y-117591506D01*
X146838903Y-117588870D01*
X146831798Y-117586234D01*
X146825327Y-117582662D01*
X146819461Y-117577221D01*
X146814171Y-117568975D01*
X146809426Y-117556990D01*
X146805198Y-117540331D01*
X146801457Y-117518063D01*
X146798173Y-117489252D01*
X146795317Y-117452963D01*
X146792860Y-117408261D01*
X146790771Y-117354211D01*
X146789022Y-117289879D01*
X146787583Y-117214330D01*
X146786424Y-117126630D01*
X146785517Y-117025843D01*
X146784831Y-116911034D01*
X146784337Y-116781270D01*
X146784005Y-116635615D01*
X146783807Y-116473135D01*
X146783713Y-116292895D01*
X146783692Y-116093960D01*
X146783715Y-115875396D01*
X146783754Y-115636268D01*
X146783778Y-115375640D01*
X146783778Y-115333489D01*
X146783764Y-115070592D01*
X146783739Y-114829332D01*
X146783729Y-114608765D01*
X146783758Y-114407952D01*
X146783852Y-114225949D01*
X146784038Y-114061816D01*
X146784341Y-113914611D01*
X146784786Y-113783392D01*
X146785366Y-113673467D01*
X147088203Y-113673467D01*
X147127993Y-113731311D01*
X147139164Y-113747079D01*
X147149234Y-113761041D01*
X147158262Y-113774384D01*
X147166303Y-113788293D01*
X147173414Y-113803956D01*
X147179653Y-113822558D01*
X147185075Y-113845286D01*
X147189738Y-113873327D01*
X147193699Y-113907867D01*
X147197015Y-113950092D01*
X147199741Y-114001189D01*
X147201936Y-114062344D01*
X147203655Y-114134744D01*
X147204956Y-114219575D01*
X147205895Y-114318022D01*
X147206530Y-114431274D01*
X147206916Y-114560516D01*
X147207112Y-114706934D01*
X147207173Y-114871716D01*
X147207157Y-115056047D01*
X147207120Y-115261113D01*
X147207111Y-115383733D01*
X147207135Y-115600682D01*
X147207169Y-115796242D01*
X147207157Y-115971599D01*
X147207042Y-116127941D01*
X147206770Y-116266457D01*
X147206282Y-116388334D01*
X147205524Y-116494760D01*
X147204438Y-116586922D01*
X147202969Y-116666009D01*
X147201060Y-116733208D01*
X147198656Y-116789707D01*
X147195699Y-116836693D01*
X147192134Y-116875355D01*
X147187905Y-116906880D01*
X147182954Y-116932455D01*
X147177227Y-116953270D01*
X147170667Y-116970511D01*
X147163217Y-116985365D01*
X147154821Y-116999022D01*
X147145424Y-117012669D01*
X147134968Y-117027493D01*
X147128877Y-117036383D01*
X147090104Y-117094000D01*
X147621668Y-117094000D01*
X147744917Y-117093965D01*
X147847413Y-117093815D01*
X147930980Y-117093478D01*
X147997444Y-117092886D01*
X148048629Y-117091967D01*
X148086359Y-117090651D01*
X148112460Y-117088869D01*
X148128756Y-117086551D01*
X148137072Y-117083626D01*
X148139232Y-117080024D01*
X148137061Y-117075675D01*
X148135865Y-117074245D01*
X148110715Y-117037173D01*
X148084817Y-116984372D01*
X148061208Y-116922370D01*
X148052939Y-116895957D01*
X148048322Y-116878016D01*
X148044421Y-116856955D01*
X148041152Y-116830689D01*
X148038434Y-116797132D01*
X148036185Y-116754199D01*
X148034323Y-116699804D01*
X148032764Y-116631862D01*
X148031428Y-116548288D01*
X148030231Y-116446995D01*
X148029092Y-116325900D01*
X148028715Y-116281200D01*
X148027698Y-116156049D01*
X148026940Y-116051682D01*
X148026497Y-115966307D01*
X148026430Y-115898133D01*
X148026795Y-115845365D01*
X148027652Y-115806214D01*
X148029059Y-115778885D01*
X148031075Y-115761586D01*
X148033757Y-115752526D01*
X148037164Y-115749912D01*
X148041356Y-115751951D01*
X148045829Y-115756267D01*
X148056184Y-115769202D01*
X148078242Y-115798276D01*
X148110443Y-115841359D01*
X148151226Y-115896318D01*
X148199030Y-115961023D01*
X148252295Y-116033342D01*
X148309460Y-116111144D01*
X148368963Y-116192298D01*
X148429245Y-116274672D01*
X148488745Y-116356136D01*
X148545902Y-116434557D01*
X148599155Y-116507804D01*
X148646943Y-116573747D01*
X148687707Y-116630254D01*
X148719884Y-116675193D01*
X148741915Y-116706434D01*
X148746483Y-116713066D01*
X148769404Y-116749969D01*
X148796212Y-116797959D01*
X148821611Y-116847497D01*
X148824832Y-116854177D01*
X148846510Y-116902372D01*
X148859096Y-116939934D01*
X148864826Y-116975760D01*
X148865944Y-117017800D01*
X148865310Y-117094000D01*
X150019749Y-117094000D01*
X149928585Y-117000269D01*
X149881788Y-116950375D01*
X149831501Y-116893895D01*
X149785456Y-116839626D01*
X149765031Y-116814273D01*
X149734593Y-116774728D01*
X149694538Y-116721516D01*
X149646039Y-116656267D01*
X149590265Y-116580611D01*
X149528389Y-116496177D01*
X149461581Y-116404594D01*
X149391013Y-116307492D01*
X149317855Y-116206501D01*
X149243279Y-116103250D01*
X149168456Y-115999368D01*
X149094557Y-115896485D01*
X149022754Y-115796231D01*
X148954216Y-115700236D01*
X148890116Y-115610127D01*
X148831625Y-115527536D01*
X148779914Y-115454092D01*
X148736153Y-115391424D01*
X148701515Y-115341161D01*
X148677170Y-115304934D01*
X148664289Y-115284371D01*
X148662531Y-115280268D01*
X148670490Y-115268942D01*
X148691285Y-115241762D01*
X148723553Y-115200429D01*
X148765930Y-115146644D01*
X148817053Y-115082106D01*
X148875559Y-115008518D01*
X148940086Y-114927578D01*
X149009269Y-114840988D01*
X149081747Y-114750448D01*
X149156154Y-114657660D01*
X149215883Y-114583302D01*
X150226889Y-114583302D01*
X150232798Y-114596259D01*
X150247128Y-114618508D01*
X150248175Y-114619991D01*
X150266962Y-114650144D01*
X150286609Y-114686975D01*
X150290508Y-114695111D01*
X150294044Y-114703540D01*
X150297170Y-114713659D01*
X150299914Y-114726860D01*
X150302308Y-114744538D01*
X150304381Y-114768084D01*
X150306165Y-114798893D01*
X150307688Y-114838357D01*
X150308981Y-114887869D01*
X150310074Y-114948823D01*
X150310997Y-115022611D01*
X150311781Y-115110628D01*
X150312455Y-115214265D01*
X150313050Y-115334916D01*
X150313595Y-115473974D01*
X150314121Y-115632832D01*
X150314655Y-115811689D01*
X150315194Y-115996807D01*
X150315628Y-116160745D01*
X150315891Y-116304903D01*
X150315916Y-116430679D01*
X150315635Y-116539471D01*
X150314981Y-116632677D01*
X150313886Y-116711697D01*
X150312282Y-116777928D01*
X150310103Y-116832770D01*
X150307281Y-116877621D01*
X150303749Y-116913878D01*
X150299439Y-116942941D01*
X150294283Y-116966209D01*
X150288215Y-116985079D01*
X150281167Y-117000951D01*
X150273071Y-117015222D01*
X150263860Y-117029291D01*
X150255360Y-117041758D01*
X150238224Y-117068052D01*
X150228078Y-117085637D01*
X150226889Y-117088857D01*
X150237796Y-117089934D01*
X150268989Y-117090935D01*
X150318177Y-117091835D01*
X150383067Y-117092610D01*
X150461370Y-117093237D01*
X150550793Y-117093691D01*
X150649044Y-117093949D01*
X150717955Y-117094000D01*
X150822948Y-117093780D01*
X150919790Y-117093148D01*
X151006293Y-117092149D01*
X151080268Y-117090827D01*
X151139526Y-117089226D01*
X151181880Y-117087391D01*
X151205140Y-117085365D01*
X151209022Y-117084093D01*
X151201324Y-117069191D01*
X151193326Y-117061160D01*
X151180154Y-117044034D01*
X151162915Y-117013783D01*
X151150993Y-116989222D01*
X151124355Y-116930311D01*
X151121280Y-115753445D01*
X151118205Y-114576578D01*
X150672547Y-114576578D01*
X150574730Y-114576742D01*
X150484336Y-114577211D01*
X150403770Y-114577947D01*
X150335438Y-114578916D01*
X150281744Y-114580080D01*
X150245095Y-114581403D01*
X150227896Y-114582849D01*
X150226889Y-114583302D01*
X149215883Y-114583302D01*
X149231130Y-114564322D01*
X149305310Y-114472137D01*
X149377331Y-114382804D01*
X149445831Y-114298024D01*
X149509445Y-114219498D01*
X149566812Y-114148926D01*
X149616567Y-114088009D01*
X149657348Y-114038447D01*
X149674512Y-114017778D01*
X149760804Y-113917116D01*
X149837403Y-113833859D01*
X149906217Y-113766038D01*
X149969152Y-113711689D01*
X149978533Y-113704322D01*
X150018044Y-113673717D01*
X148886284Y-113673467D01*
X148891573Y-113721444D01*
X148888270Y-113778788D01*
X148866739Y-113847063D01*
X148826765Y-113926812D01*
X148781457Y-113999095D01*
X148765239Y-114021740D01*
X148737186Y-114059296D01*
X148698970Y-114109621D01*
X148652263Y-114170573D01*
X148598739Y-114240011D01*
X148540069Y-114315794D01*
X148477925Y-114395780D01*
X148413979Y-114477828D01*
X148349905Y-114559796D01*
X148287373Y-114639543D01*
X148228057Y-114714927D01*
X148173629Y-114783807D01*
X148125761Y-114844042D01*
X148086125Y-114893489D01*
X148056394Y-114930008D01*
X148038239Y-114951458D01*
X148035180Y-114954756D01*
X148032321Y-114946749D01*
X148030107Y-114916455D01*
X148028543Y-114864156D01*
X148027633Y-114790131D01*
X148027380Y-114694663D01*
X148027787Y-114578034D01*
X148028696Y-114458045D01*
X148030018Y-114325933D01*
X148031543Y-114214194D01*
X148033519Y-114120625D01*
X148036194Y-114043019D01*
X148039818Y-113979174D01*
X148044639Y-113926883D01*
X148050906Y-113883944D01*
X148058868Y-113848151D01*
X148068773Y-113817300D01*
X148080869Y-113789186D01*
X148095407Y-113761605D01*
X148110089Y-113736566D01*
X148148086Y-113673467D01*
X147088203Y-113673467D01*
X146785366Y-113673467D01*
X146785399Y-113667217D01*
X146786205Y-113565144D01*
X146787230Y-113476233D01*
X146788500Y-113399541D01*
X146790040Y-113334127D01*
X146791876Y-113279049D01*
X146794033Y-113233365D01*
X146796537Y-113196134D01*
X146799413Y-113166413D01*
X146802687Y-113143262D01*
X146806385Y-113125739D01*
X146810531Y-113112901D01*
X146815153Y-113103808D01*
X146820274Y-113097518D01*
X146825922Y-113093088D01*
X146832121Y-113089578D01*
X146838896Y-113086045D01*
X146844892Y-113082476D01*
X146850125Y-113079900D01*
X146858301Y-113077572D01*
X146870514Y-113075478D01*
X146887859Y-113073607D01*
X146911431Y-113071947D01*
X146942323Y-113070484D01*
X146981632Y-113069208D01*
X147030450Y-113068104D01*
X147089873Y-113067161D01*
X147160996Y-113066367D01*
X147244912Y-113065709D01*
X147342717Y-113065175D01*
X147455506Y-113064753D01*
X147584371Y-113064429D01*
X147730409Y-113064192D01*
X147894714Y-113064030D01*
X148078380Y-113063930D01*
X148282503Y-113063880D01*
X148493647Y-113063867D01*
X150114000Y-113063867D01*
X150114000Y-113160654D01*
D12*
X119084400Y-106079600D02*
X117754400Y-106079600D01*
X119084400Y-104749600D02*
X119084400Y-106079600D01*
X119084400Y-103479600D02*
X116424400Y-103479600D01*
X116424400Y-103479600D02*
X116424400Y-95799600D01*
X119084400Y-103479600D02*
X119084400Y-95799600D01*
X119084400Y-95799600D02*
X116424400Y-95799600D01*
D10*
X120764000Y-123643800D02*
X120764000Y-124368800D01*
X120764000Y-120043800D02*
X120764000Y-119318800D01*
X121189000Y-120043800D02*
X120764000Y-120043800D01*
X121189000Y-120768800D02*
X121189000Y-120043800D01*
X117614000Y-125993800D02*
X119014000Y-125993800D01*
X115064000Y-125993800D02*
X115214000Y-125993800D01*
X115064000Y-125693800D02*
X115064000Y-125993800D01*
X114614000Y-125693800D02*
X115064000Y-125693800D01*
X115064000Y-117993800D02*
X114614000Y-117993800D01*
X115064000Y-117693800D02*
X115064000Y-117993800D01*
X115214000Y-117693800D02*
X115064000Y-117693800D01*
X119014000Y-117693800D02*
X117614000Y-117693800D01*
D12*
X159903479Y-91819000D02*
X159577921Y-91819000D01*
X159903479Y-92839000D02*
X159577921Y-92839000D01*
X164734021Y-91184000D02*
X165059579Y-91184000D01*
X164734021Y-92204000D02*
X165059579Y-92204000D01*
X166267200Y-105303822D02*
X166267200Y-105820978D01*
X164847200Y-105303822D02*
X164847200Y-105820978D01*
X171096400Y-94066479D02*
X171096400Y-93740921D01*
X170076400Y-94066479D02*
X170076400Y-93740921D01*
X168772521Y-91797600D02*
X169098079Y-91797600D01*
X168772521Y-90777600D02*
X169098079Y-90777600D01*
X120398278Y-113818600D02*
X119881122Y-113818600D01*
X120398278Y-115238600D02*
X119881122Y-115238600D01*
X120457079Y-113057400D02*
X120131521Y-113057400D01*
X120457079Y-112037400D02*
X120131521Y-112037400D01*
X130201600Y-111180378D02*
X130201600Y-110663222D01*
X131621600Y-111180378D02*
X131621600Y-110663222D01*
X126104122Y-80669200D02*
X126621278Y-80669200D01*
X126104122Y-79249200D02*
X126621278Y-79249200D01*
X138885200Y-93690321D02*
X138885200Y-94015879D01*
X139905200Y-93690321D02*
X139905200Y-94015879D01*
X137847800Y-80426679D02*
X137847800Y-80101121D01*
X136827800Y-80426679D02*
X136827800Y-80101121D01*
X140537000Y-83660722D02*
X140537000Y-84177878D01*
X139117000Y-83660722D02*
X139117000Y-84177878D01*
X139117000Y-90253078D02*
X139117000Y-89735922D01*
X140537000Y-90253078D02*
X140537000Y-89735922D01*
X119463078Y-86104800D02*
X118945922Y-86104800D01*
X119463078Y-84684800D02*
X118945922Y-84684800D01*
X126747200Y-96159822D02*
X126747200Y-96676978D01*
X128167200Y-96159822D02*
X128167200Y-96676978D01*
X128830000Y-96187522D02*
X128830000Y-96704678D01*
X130250000Y-96187522D02*
X130250000Y-96704678D01*
X134959000Y-84248600D02*
X134959000Y-83848600D01*
X138159000Y-84248600D02*
X138159000Y-83848600D01*
X138150400Y-89690600D02*
X138150400Y-90090600D01*
X134950400Y-89690600D02*
X134950400Y-90090600D01*
X159878079Y-97284000D02*
X159552521Y-97284000D01*
X159878079Y-96264000D02*
X159552521Y-96264000D01*
X123535321Y-126062200D02*
X123860879Y-126062200D01*
X123535321Y-125042200D02*
X123860879Y-125042200D01*
X125033721Y-117092000D02*
X125359279Y-117092000D01*
X125033721Y-118112000D02*
X125359279Y-118112000D01*
X119191721Y-90574400D02*
X119517279Y-90574400D01*
X119191721Y-91594400D02*
X119517279Y-91594400D01*
X119517479Y-88948800D02*
X119191921Y-88948800D01*
X119517479Y-89968800D02*
X119191921Y-89968800D01*
X126049721Y-77417200D02*
X126375279Y-77417200D01*
X126049721Y-78437200D02*
X126375279Y-78437200D01*
X131112800Y-96077921D02*
X131112800Y-96403479D01*
X132132800Y-96077921D02*
X132132800Y-96403479D01*
X139854400Y-80401479D02*
X139854400Y-80075921D01*
X138834400Y-80401479D02*
X138834400Y-80075921D01*
X134795800Y-80426679D02*
X134795800Y-80101121D01*
X135815800Y-80426679D02*
X135815800Y-80101121D01*
X136802400Y-93690321D02*
X136802400Y-94015879D01*
X137822400Y-93690321D02*
X137822400Y-94015879D01*
X135790400Y-93690321D02*
X135790400Y-94015879D01*
X134770400Y-93690321D02*
X134770400Y-94015879D01*
X121257600Y-86806821D02*
X121257600Y-87132379D01*
X122277600Y-86806821D02*
X122277600Y-87132379D01*
X119517279Y-88241600D02*
X119191721Y-88241600D01*
X119517279Y-87221600D02*
X119191721Y-87221600D01*
X125918279Y-93165200D02*
X125592721Y-93165200D01*
X125918279Y-94185200D02*
X125592721Y-94185200D01*
X124458000Y-96433321D02*
X124458000Y-96758879D01*
X125478000Y-96433321D02*
X125478000Y-96758879D01*
X181293800Y-109802400D02*
X181743800Y-109352400D01*
X181293800Y-106402400D02*
X181743800Y-106852400D01*
X176693800Y-106402400D02*
X176243800Y-106852400D01*
X176693800Y-109802400D02*
X176243800Y-109352400D01*
X177993800Y-105352400D02*
X179993800Y-105352400D01*
X181743800Y-109352400D02*
X181743800Y-106852400D01*
X177993800Y-110852400D02*
X179993800Y-110852400D01*
X176243800Y-109352400D02*
X176243800Y-106852400D01*
D10*
X150494000Y-103964000D02*
X148494000Y-103964000D01*
X148494000Y-103964000D02*
X148494000Y-101964000D01*
X150494000Y-103964000D02*
X148494000Y-103964000D01*
X148494000Y-103964000D02*
X148494000Y-101964000D01*
X150494000Y-95664000D02*
X148494000Y-95664000D01*
X148494000Y-95664000D02*
X148494000Y-97664000D01*
X150494000Y-103964000D02*
X148494000Y-103964000D01*
X148494000Y-103964000D02*
X148494000Y-101964000D01*
X154794000Y-95664000D02*
X156794000Y-95664000D01*
X156794000Y-95664000D02*
X156794000Y-97664000D01*
X154794000Y-103964000D02*
X155644000Y-103964000D01*
X156794000Y-102814000D02*
X156794000Y-101964000D01*
D13*
X156744000Y-103814000D02*
G75*
G03X156744000Y-103814000I-100000J0D01*
G01*
D10*
X163259400Y-100463800D02*
X163464400Y-100463800D01*
X163259400Y-94963800D02*
X163559400Y-94963800D01*
X168769400Y-94963800D02*
X168469400Y-94963800D01*
X168769400Y-100463800D02*
X168469400Y-100463800D01*
X163259400Y-100463800D02*
X163259400Y-94963800D01*
X168769400Y-100463800D02*
X168769400Y-94963800D01*
X163464400Y-100463800D02*
X163464400Y-102213800D01*
D12*
X160657800Y-95100000D02*
X160657800Y-95760000D01*
X160657800Y-93440000D02*
X160657800Y-94100000D01*
X160657800Y-93440000D02*
X158627800Y-93440000D01*
X159247800Y-95760000D02*
X160657800Y-95760000D01*
X124628400Y-111174000D02*
X124153400Y-111174000D01*
X128373400Y-115394000D02*
X128373400Y-114919000D01*
X127898400Y-115394000D02*
X128373400Y-115394000D01*
X124153400Y-115394000D02*
X124153400Y-114919000D01*
X124628400Y-115394000D02*
X124153400Y-115394000D01*
X128373400Y-111174000D02*
X128373400Y-111649000D01*
X127898400Y-111174000D02*
X128373400Y-111174000D01*
X136239000Y-107345800D02*
X134439000Y-107345800D01*
X134439000Y-110565800D02*
X136889000Y-110565800D01*
X134439000Y-114370800D02*
X136239000Y-114370800D01*
X136239000Y-111150800D02*
X133789000Y-111150800D01*
X136239000Y-103561200D02*
X133789000Y-103561200D01*
X134439000Y-106781200D02*
X136239000Y-106781200D01*
X136231200Y-99761400D02*
X133781200Y-99761400D01*
X134431200Y-102981400D02*
X136231200Y-102981400D01*
X130590800Y-84859600D02*
X131065800Y-84859600D01*
X131065800Y-84859600D02*
X131065800Y-85334600D01*
X127320800Y-89079600D02*
X126845800Y-89079600D01*
X126845800Y-89079600D02*
X126845800Y-88604600D01*
X130590800Y-89079600D02*
X131065800Y-89079600D01*
X131065800Y-89079600D02*
X131065800Y-88604600D01*
X127320800Y-84859600D02*
X126845800Y-84859600D01*
X126432000Y-125917000D02*
X126432000Y-123317000D01*
X126432000Y-125917000D02*
X177352000Y-125917000D01*
X177352000Y-125917000D02*
X177352000Y-120717000D01*
X129032000Y-120717000D02*
X177352000Y-120717000D01*
X129032000Y-123317000D02*
X129032000Y-120717000D01*
X126432000Y-123317000D02*
X129032000Y-123317000D01*
X126432000Y-120717000D02*
X127762000Y-120717000D01*
X126432000Y-122047000D02*
X126432000Y-120717000D01*
D10*
X178774600Y-99792800D02*
X178774600Y-87792800D01*
X180524600Y-99792800D02*
X180524600Y-87792800D01*
X180524600Y-99792800D02*
X182099600Y-99792800D01*
X180524600Y-87792800D02*
X182099600Y-87792800D01*
X182099600Y-99792800D02*
X182099600Y-102342800D01*
X182099600Y-87792800D02*
X182099600Y-85242800D01*
X182099600Y-102342800D02*
X179649600Y-102342800D01*
X182099600Y-85242800D02*
X179649600Y-85242800D01*
X179649600Y-102342800D02*
X179649600Y-99792800D01*
X179649600Y-85242800D02*
X179649600Y-87792800D01*
X179649600Y-99792800D02*
X178774600Y-99792800D01*
X179649600Y-87792800D02*
X178774600Y-87792800D01*
D12*
X153168600Y-90907600D02*
X153168600Y-94207600D01*
X153168600Y-94207600D02*
X157168600Y-94207600D01*
X176756600Y-76896079D02*
X176756600Y-76570521D01*
X177776600Y-76896079D02*
X177776600Y-76570521D01*
X175118079Y-83640200D02*
X174792521Y-83640200D01*
X175118079Y-84660200D02*
X174792521Y-84660200D01*
X175117879Y-86209600D02*
X174792321Y-86209600D01*
X175117879Y-85189600D02*
X174792321Y-85189600D01*
X175117879Y-82090800D02*
X174792321Y-82090800D01*
X175117879Y-83110800D02*
X174792321Y-83110800D01*
X176782000Y-80248979D02*
X176782000Y-79923421D01*
X177802000Y-80248979D02*
X177802000Y-79923421D01*
D10*
X116367085Y-107300780D02*
X116367085Y-108015066D01*
X116319466Y-108157923D01*
X116224228Y-108253161D01*
X116081371Y-108300780D01*
X115986133Y-108300780D01*
X116748038Y-107300780D02*
X117367085Y-107300780D01*
X117033752Y-107681733D01*
X117176609Y-107681733D01*
X117271847Y-107729352D01*
X117319466Y-107776971D01*
X117367085Y-107872209D01*
X117367085Y-108110304D01*
X117319466Y-108205542D01*
X117271847Y-108253161D01*
X117176609Y-108300780D01*
X116890895Y-108300780D01*
X116795657Y-108253161D01*
X116748038Y-108205542D01*
X117986133Y-107300780D02*
X118081371Y-107300780D01*
X118176609Y-107348400D01*
X118224228Y-107396019D01*
X118271847Y-107491257D01*
X118319466Y-107681733D01*
X118319466Y-107919828D01*
X118271847Y-108110304D01*
X118224228Y-108205542D01*
X118176609Y-108253161D01*
X118081371Y-108300780D01*
X117986133Y-108300780D01*
X117890895Y-108253161D01*
X117843276Y-108205542D01*
X117795657Y-108110304D01*
X117748038Y-107919828D01*
X117748038Y-107681733D01*
X117795657Y-107491257D01*
X117843276Y-107396019D01*
X117890895Y-107348400D01*
X117986133Y-107300780D01*
X118700419Y-107396019D02*
X118748038Y-107348400D01*
X118843276Y-107300780D01*
X119081371Y-107300780D01*
X119176609Y-107348400D01*
X119224228Y-107396019D01*
X119271847Y-107491257D01*
X119271847Y-107586495D01*
X119224228Y-107729352D01*
X118652800Y-108300780D01*
X119271847Y-108300780D01*
X121473980Y-122342114D02*
X122188266Y-122342114D01*
X122331123Y-122389733D01*
X122426361Y-122484971D01*
X122473980Y-122627828D01*
X122473980Y-122723066D01*
X121473980Y-121961161D02*
X121473980Y-121342114D01*
X121854933Y-121675447D01*
X121854933Y-121532590D01*
X121902552Y-121437352D01*
X121950171Y-121389733D01*
X122045409Y-121342114D01*
X122283504Y-121342114D01*
X122378742Y-121389733D01*
X122426361Y-121437352D01*
X122473980Y-121532590D01*
X122473980Y-121818304D01*
X122426361Y-121913542D01*
X122378742Y-121961161D01*
X121473980Y-120723066D02*
X121473980Y-120627828D01*
X121521600Y-120532590D01*
X121569219Y-120484971D01*
X121664457Y-120437352D01*
X121854933Y-120389733D01*
X122093028Y-120389733D01*
X122283504Y-120437352D01*
X122378742Y-120484971D01*
X122426361Y-120532590D01*
X122473980Y-120627828D01*
X122473980Y-120723066D01*
X122426361Y-120818304D01*
X122378742Y-120865923D01*
X122283504Y-120913542D01*
X122093028Y-120961161D01*
X121854933Y-120961161D01*
X121664457Y-120913542D01*
X121569219Y-120865923D01*
X121521600Y-120818304D01*
X121473980Y-120723066D01*
X122473980Y-119437352D02*
X122473980Y-120008780D01*
X122473980Y-119723066D02*
X121473980Y-119723066D01*
X121616838Y-119818304D01*
X121712076Y-119913542D01*
X121759695Y-120008780D01*
X158646952Y-89663542D02*
X158599333Y-89711161D01*
X158456476Y-89758780D01*
X158361238Y-89758780D01*
X158218380Y-89711161D01*
X158123142Y-89615923D01*
X158075523Y-89520685D01*
X158027904Y-89330209D01*
X158027904Y-89187352D01*
X158075523Y-88996876D01*
X158123142Y-88901638D01*
X158218380Y-88806400D01*
X158361238Y-88758780D01*
X158456476Y-88758780D01*
X158599333Y-88806400D01*
X158646952Y-88854019D01*
X159027904Y-88854019D02*
X159075523Y-88806400D01*
X159170761Y-88758780D01*
X159408857Y-88758780D01*
X159504095Y-88806400D01*
X159551714Y-88854019D01*
X159599333Y-88949257D01*
X159599333Y-89044495D01*
X159551714Y-89187352D01*
X158980285Y-89758780D01*
X159599333Y-89758780D01*
X160218380Y-88758780D02*
X160313619Y-88758780D01*
X160408857Y-88806400D01*
X160456476Y-88854019D01*
X160504095Y-88949257D01*
X160551714Y-89139733D01*
X160551714Y-89377828D01*
X160504095Y-89568304D01*
X160456476Y-89663542D01*
X160408857Y-89711161D01*
X160313619Y-89758780D01*
X160218380Y-89758780D01*
X160123142Y-89711161D01*
X160075523Y-89663542D01*
X160027904Y-89568304D01*
X159980285Y-89377828D01*
X159980285Y-89139733D01*
X160027904Y-88949257D01*
X160075523Y-88854019D01*
X160123142Y-88806400D01*
X160218380Y-88758780D01*
X160885047Y-88758780D02*
X161504095Y-88758780D01*
X161170761Y-89139733D01*
X161313619Y-89139733D01*
X161408857Y-89187352D01*
X161456476Y-89234971D01*
X161504095Y-89330209D01*
X161504095Y-89568304D01*
X161456476Y-89663542D01*
X161408857Y-89711161D01*
X161313619Y-89758780D01*
X161027904Y-89758780D01*
X160932666Y-89711161D01*
X160885047Y-89663542D01*
X163777752Y-90621142D02*
X163730133Y-90668761D01*
X163587276Y-90716380D01*
X163492038Y-90716380D01*
X163349180Y-90668761D01*
X163253942Y-90573523D01*
X163206323Y-90478285D01*
X163158704Y-90287809D01*
X163158704Y-90144952D01*
X163206323Y-89954476D01*
X163253942Y-89859238D01*
X163349180Y-89764000D01*
X163492038Y-89716380D01*
X163587276Y-89716380D01*
X163730133Y-89764000D01*
X163777752Y-89811619D01*
X164158704Y-89811619D02*
X164206323Y-89764000D01*
X164301561Y-89716380D01*
X164539657Y-89716380D01*
X164634895Y-89764000D01*
X164682514Y-89811619D01*
X164730133Y-89906857D01*
X164730133Y-90002095D01*
X164682514Y-90144952D01*
X164111085Y-90716380D01*
X164730133Y-90716380D01*
X165349180Y-89716380D02*
X165444419Y-89716380D01*
X165539657Y-89764000D01*
X165587276Y-89811619D01*
X165634895Y-89906857D01*
X165682514Y-90097333D01*
X165682514Y-90335428D01*
X165634895Y-90525904D01*
X165587276Y-90621142D01*
X165539657Y-90668761D01*
X165444419Y-90716380D01*
X165349180Y-90716380D01*
X165253942Y-90668761D01*
X165206323Y-90621142D01*
X165158704Y-90525904D01*
X165111085Y-90335428D01*
X165111085Y-90097333D01*
X165158704Y-89906857D01*
X165206323Y-89811619D01*
X165253942Y-89764000D01*
X165349180Y-89716380D01*
X166539657Y-90049714D02*
X166539657Y-90716380D01*
X166301561Y-89668761D02*
X166063466Y-90383047D01*
X166682514Y-90383047D01*
X167564342Y-106681447D02*
X167611961Y-106729066D01*
X167659580Y-106871923D01*
X167659580Y-106967161D01*
X167611961Y-107110019D01*
X167516723Y-107205257D01*
X167421485Y-107252876D01*
X167231009Y-107300495D01*
X167088152Y-107300495D01*
X166897676Y-107252876D01*
X166802438Y-107205257D01*
X166707200Y-107110019D01*
X166659580Y-106967161D01*
X166659580Y-106871923D01*
X166707200Y-106729066D01*
X166754819Y-106681447D01*
X166754819Y-106300495D02*
X166707200Y-106252876D01*
X166659580Y-106157638D01*
X166659580Y-105919542D01*
X166707200Y-105824304D01*
X166754819Y-105776685D01*
X166850057Y-105729066D01*
X166945295Y-105729066D01*
X167088152Y-105776685D01*
X167659580Y-106348114D01*
X167659580Y-105729066D01*
X167659580Y-104776685D02*
X167659580Y-105348114D01*
X167659580Y-105062400D02*
X166659580Y-105062400D01*
X166802438Y-105157638D01*
X166897676Y-105252876D01*
X166945295Y-105348114D01*
X166659580Y-103871923D02*
X166659580Y-104348114D01*
X167135771Y-104395733D01*
X167088152Y-104348114D01*
X167040533Y-104252876D01*
X167040533Y-104014780D01*
X167088152Y-103919542D01*
X167135771Y-103871923D01*
X167231009Y-103824304D01*
X167469104Y-103824304D01*
X167564342Y-103871923D01*
X167611961Y-103919542D01*
X167659580Y-104014780D01*
X167659580Y-104252876D01*
X167611961Y-104348114D01*
X167564342Y-104395733D01*
X172416742Y-95099047D02*
X172464361Y-95146666D01*
X172511980Y-95289523D01*
X172511980Y-95384761D01*
X172464361Y-95527619D01*
X172369123Y-95622857D01*
X172273885Y-95670476D01*
X172083409Y-95718095D01*
X171940552Y-95718095D01*
X171750076Y-95670476D01*
X171654838Y-95622857D01*
X171559600Y-95527619D01*
X171511980Y-95384761D01*
X171511980Y-95289523D01*
X171559600Y-95146666D01*
X171607219Y-95099047D01*
X171607219Y-94718095D02*
X171559600Y-94670476D01*
X171511980Y-94575238D01*
X171511980Y-94337142D01*
X171559600Y-94241904D01*
X171607219Y-94194285D01*
X171702457Y-94146666D01*
X171797695Y-94146666D01*
X171940552Y-94194285D01*
X172511980Y-94765714D01*
X172511980Y-94146666D01*
X172511980Y-93194285D02*
X172511980Y-93765714D01*
X172511980Y-93480000D02*
X171511980Y-93480000D01*
X171654838Y-93575238D01*
X171750076Y-93670476D01*
X171797695Y-93765714D01*
X172511980Y-92718095D02*
X172511980Y-92527619D01*
X172464361Y-92432380D01*
X172416742Y-92384761D01*
X172273885Y-92289523D01*
X172083409Y-92241904D01*
X171702457Y-92241904D01*
X171607219Y-92289523D01*
X171559600Y-92337142D01*
X171511980Y-92432380D01*
X171511980Y-92622857D01*
X171559600Y-92718095D01*
X171607219Y-92765714D01*
X171702457Y-92813333D01*
X171940552Y-92813333D01*
X172035790Y-92765714D01*
X172083409Y-92718095D01*
X172131028Y-92622857D01*
X172131028Y-92432380D01*
X172083409Y-92337142D01*
X172035790Y-92289523D01*
X171940552Y-92241904D01*
X167816252Y-90214742D02*
X167768633Y-90262361D01*
X167625776Y-90309980D01*
X167530538Y-90309980D01*
X167387680Y-90262361D01*
X167292442Y-90167123D01*
X167244823Y-90071885D01*
X167197204Y-89881409D01*
X167197204Y-89738552D01*
X167244823Y-89548076D01*
X167292442Y-89452838D01*
X167387680Y-89357600D01*
X167530538Y-89309980D01*
X167625776Y-89309980D01*
X167768633Y-89357600D01*
X167816252Y-89405219D01*
X168197204Y-89405219D02*
X168244823Y-89357600D01*
X168340061Y-89309980D01*
X168578157Y-89309980D01*
X168673395Y-89357600D01*
X168721014Y-89405219D01*
X168768633Y-89500457D01*
X168768633Y-89595695D01*
X168721014Y-89738552D01*
X168149585Y-90309980D01*
X168768633Y-90309980D01*
X169149585Y-89405219D02*
X169197204Y-89357600D01*
X169292442Y-89309980D01*
X169530538Y-89309980D01*
X169625776Y-89357600D01*
X169673395Y-89405219D01*
X169721014Y-89500457D01*
X169721014Y-89595695D01*
X169673395Y-89738552D01*
X169101966Y-90309980D01*
X169721014Y-90309980D01*
X170054347Y-89309980D02*
X170673395Y-89309980D01*
X170340061Y-89690933D01*
X170482919Y-89690933D01*
X170578157Y-89738552D01*
X170625776Y-89786171D01*
X170673395Y-89881409D01*
X170673395Y-90119504D01*
X170625776Y-90214742D01*
X170578157Y-90262361D01*
X170482919Y-90309980D01*
X170197204Y-90309980D01*
X170101966Y-90262361D01*
X170054347Y-90214742D01*
X119073752Y-116638342D02*
X119026133Y-116685961D01*
X118883276Y-116733580D01*
X118788038Y-116733580D01*
X118645180Y-116685961D01*
X118549942Y-116590723D01*
X118502323Y-116495485D01*
X118454704Y-116305009D01*
X118454704Y-116162152D01*
X118502323Y-115971676D01*
X118549942Y-115876438D01*
X118645180Y-115781200D01*
X118788038Y-115733580D01*
X118883276Y-115733580D01*
X119026133Y-115781200D01*
X119073752Y-115828819D01*
X119407085Y-115733580D02*
X120026133Y-115733580D01*
X119692800Y-116114533D01*
X119835657Y-116114533D01*
X119930895Y-116162152D01*
X119978514Y-116209771D01*
X120026133Y-116305009D01*
X120026133Y-116543104D01*
X119978514Y-116638342D01*
X119930895Y-116685961D01*
X119835657Y-116733580D01*
X119549942Y-116733580D01*
X119454704Y-116685961D01*
X119407085Y-116638342D01*
X120645180Y-115733580D02*
X120740419Y-115733580D01*
X120835657Y-115781200D01*
X120883276Y-115828819D01*
X120930895Y-115924057D01*
X120978514Y-116114533D01*
X120978514Y-116352628D01*
X120930895Y-116543104D01*
X120883276Y-116638342D01*
X120835657Y-116685961D01*
X120740419Y-116733580D01*
X120645180Y-116733580D01*
X120549942Y-116685961D01*
X120502323Y-116638342D01*
X120454704Y-116543104D01*
X120407085Y-116352628D01*
X120407085Y-116114533D01*
X120454704Y-115924057D01*
X120502323Y-115828819D01*
X120549942Y-115781200D01*
X120645180Y-115733580D01*
X121930895Y-116733580D02*
X121359466Y-116733580D01*
X121645180Y-116733580D02*
X121645180Y-115733580D01*
X121549942Y-115876438D01*
X121454704Y-115971676D01*
X121359466Y-116019295D01*
X119073752Y-111507542D02*
X119026133Y-111555161D01*
X118883276Y-111602780D01*
X118788038Y-111602780D01*
X118645180Y-111555161D01*
X118549942Y-111459923D01*
X118502323Y-111364685D01*
X118454704Y-111174209D01*
X118454704Y-111031352D01*
X118502323Y-110840876D01*
X118549942Y-110745638D01*
X118645180Y-110650400D01*
X118788038Y-110602780D01*
X118883276Y-110602780D01*
X119026133Y-110650400D01*
X119073752Y-110698019D01*
X119407085Y-110602780D02*
X120026133Y-110602780D01*
X119692800Y-110983733D01*
X119835657Y-110983733D01*
X119930895Y-111031352D01*
X119978514Y-111078971D01*
X120026133Y-111174209D01*
X120026133Y-111412304D01*
X119978514Y-111507542D01*
X119930895Y-111555161D01*
X119835657Y-111602780D01*
X119549942Y-111602780D01*
X119454704Y-111555161D01*
X119407085Y-111507542D01*
X120645180Y-110602780D02*
X120740419Y-110602780D01*
X120835657Y-110650400D01*
X120883276Y-110698019D01*
X120930895Y-110793257D01*
X120978514Y-110983733D01*
X120978514Y-111221828D01*
X120930895Y-111412304D01*
X120883276Y-111507542D01*
X120835657Y-111555161D01*
X120740419Y-111602780D01*
X120645180Y-111602780D01*
X120549942Y-111555161D01*
X120502323Y-111507542D01*
X120454704Y-111412304D01*
X120407085Y-111221828D01*
X120407085Y-110983733D01*
X120454704Y-110793257D01*
X120502323Y-110698019D01*
X120549942Y-110650400D01*
X120645180Y-110602780D01*
X121359466Y-110698019D02*
X121407085Y-110650400D01*
X121502323Y-110602780D01*
X121740419Y-110602780D01*
X121835657Y-110650400D01*
X121883276Y-110698019D01*
X121930895Y-110793257D01*
X121930895Y-110888495D01*
X121883276Y-111031352D01*
X121311847Y-111602780D01*
X121930895Y-111602780D01*
X131167142Y-115774647D02*
X131214761Y-115822266D01*
X131262380Y-115965123D01*
X131262380Y-116060361D01*
X131214761Y-116203219D01*
X131119523Y-116298457D01*
X131024285Y-116346076D01*
X130833809Y-116393695D01*
X130690952Y-116393695D01*
X130500476Y-116346076D01*
X130405238Y-116298457D01*
X130310000Y-116203219D01*
X130262380Y-116060361D01*
X130262380Y-115965123D01*
X130310000Y-115822266D01*
X130357619Y-115774647D01*
X130262380Y-115441314D02*
X130262380Y-114822266D01*
X130643333Y-115155600D01*
X130643333Y-115012742D01*
X130690952Y-114917504D01*
X130738571Y-114869885D01*
X130833809Y-114822266D01*
X131071904Y-114822266D01*
X131167142Y-114869885D01*
X131214761Y-114917504D01*
X131262380Y-115012742D01*
X131262380Y-115298457D01*
X131214761Y-115393695D01*
X131167142Y-115441314D01*
X130262380Y-114203219D02*
X130262380Y-114107980D01*
X130310000Y-114012742D01*
X130357619Y-113965123D01*
X130452857Y-113917504D01*
X130643333Y-113869885D01*
X130881428Y-113869885D01*
X131071904Y-113917504D01*
X131167142Y-113965123D01*
X131214761Y-114012742D01*
X131262380Y-114107980D01*
X131262380Y-114203219D01*
X131214761Y-114298457D01*
X131167142Y-114346076D01*
X131071904Y-114393695D01*
X130881428Y-114441314D01*
X130643333Y-114441314D01*
X130452857Y-114393695D01*
X130357619Y-114346076D01*
X130310000Y-114298457D01*
X130262380Y-114203219D01*
X130262380Y-112965123D02*
X130262380Y-113441314D01*
X130738571Y-113488933D01*
X130690952Y-113441314D01*
X130643333Y-113346076D01*
X130643333Y-113107980D01*
X130690952Y-113012742D01*
X130738571Y-112965123D01*
X130833809Y-112917504D01*
X131071904Y-112917504D01*
X131167142Y-112965123D01*
X131214761Y-113012742D01*
X131262380Y-113107980D01*
X131262380Y-113346076D01*
X131214761Y-113441314D01*
X131167142Y-113488933D01*
X121461352Y-80316342D02*
X121413733Y-80363961D01*
X121270876Y-80411580D01*
X121175638Y-80411580D01*
X121032780Y-80363961D01*
X120937542Y-80268723D01*
X120889923Y-80173485D01*
X120842304Y-79983009D01*
X120842304Y-79840152D01*
X120889923Y-79649676D01*
X120937542Y-79554438D01*
X121032780Y-79459200D01*
X121175638Y-79411580D01*
X121270876Y-79411580D01*
X121413733Y-79459200D01*
X121461352Y-79506819D01*
X122318495Y-79744914D02*
X122318495Y-80411580D01*
X122080400Y-79363961D02*
X121842304Y-80078247D01*
X122461352Y-80078247D01*
X123032780Y-79411580D02*
X123128019Y-79411580D01*
X123223257Y-79459200D01*
X123270876Y-79506819D01*
X123318495Y-79602057D01*
X123366114Y-79792533D01*
X123366114Y-80030628D01*
X123318495Y-80221104D01*
X123270876Y-80316342D01*
X123223257Y-80363961D01*
X123128019Y-80411580D01*
X123032780Y-80411580D01*
X122937542Y-80363961D01*
X122889923Y-80316342D01*
X122842304Y-80221104D01*
X122794685Y-80030628D01*
X122794685Y-79792533D01*
X122842304Y-79602057D01*
X122889923Y-79506819D01*
X122937542Y-79459200D01*
X123032780Y-79411580D01*
X124318495Y-80411580D02*
X123747066Y-80411580D01*
X124032780Y-80411580D02*
X124032780Y-79411580D01*
X123937542Y-79554438D01*
X123842304Y-79649676D01*
X123747066Y-79697295D01*
X139193542Y-98959847D02*
X139241161Y-99007466D01*
X139288780Y-99150323D01*
X139288780Y-99245561D01*
X139241161Y-99388419D01*
X139145923Y-99483657D01*
X139050685Y-99531276D01*
X138860209Y-99578895D01*
X138717352Y-99578895D01*
X138526876Y-99531276D01*
X138431638Y-99483657D01*
X138336400Y-99388419D01*
X138288780Y-99245561D01*
X138288780Y-99150323D01*
X138336400Y-99007466D01*
X138384019Y-98959847D01*
X138622114Y-98102704D02*
X139288780Y-98102704D01*
X138241161Y-98340800D02*
X138955447Y-98578895D01*
X138955447Y-97959847D01*
X138288780Y-97388419D02*
X138288780Y-97293180D01*
X138336400Y-97197942D01*
X138384019Y-97150323D01*
X138479257Y-97102704D01*
X138669733Y-97055085D01*
X138907828Y-97055085D01*
X139098304Y-97102704D01*
X139193542Y-97150323D01*
X139241161Y-97197942D01*
X139288780Y-97293180D01*
X139288780Y-97388419D01*
X139241161Y-97483657D01*
X139193542Y-97531276D01*
X139098304Y-97578895D01*
X138907828Y-97626514D01*
X138669733Y-97626514D01*
X138479257Y-97578895D01*
X138384019Y-97531276D01*
X138336400Y-97483657D01*
X138288780Y-97388419D01*
X138384019Y-96674133D02*
X138336400Y-96626514D01*
X138288780Y-96531276D01*
X138288780Y-96293180D01*
X138336400Y-96197942D01*
X138384019Y-96150323D01*
X138479257Y-96102704D01*
X138574495Y-96102704D01*
X138717352Y-96150323D01*
X139288780Y-96721752D01*
X139288780Y-96102704D01*
X137821942Y-77979447D02*
X137869561Y-78027066D01*
X137917180Y-78169923D01*
X137917180Y-78265161D01*
X137869561Y-78408019D01*
X137774323Y-78503257D01*
X137679085Y-78550876D01*
X137488609Y-78598495D01*
X137345752Y-78598495D01*
X137155276Y-78550876D01*
X137060038Y-78503257D01*
X136964800Y-78408019D01*
X136917180Y-78265161D01*
X136917180Y-78169923D01*
X136964800Y-78027066D01*
X137012419Y-77979447D01*
X137250514Y-77122304D02*
X137917180Y-77122304D01*
X136869561Y-77360400D02*
X137583847Y-77598495D01*
X137583847Y-76979447D01*
X136917180Y-76408019D02*
X136917180Y-76312780D01*
X136964800Y-76217542D01*
X137012419Y-76169923D01*
X137107657Y-76122304D01*
X137298133Y-76074685D01*
X137536228Y-76074685D01*
X137726704Y-76122304D01*
X137821942Y-76169923D01*
X137869561Y-76217542D01*
X137917180Y-76312780D01*
X137917180Y-76408019D01*
X137869561Y-76503257D01*
X137821942Y-76550876D01*
X137726704Y-76598495D01*
X137536228Y-76646114D01*
X137298133Y-76646114D01*
X137107657Y-76598495D01*
X137012419Y-76550876D01*
X136964800Y-76503257D01*
X136917180Y-76408019D01*
X136917180Y-75741352D02*
X136917180Y-75122304D01*
X137298133Y-75455638D01*
X137298133Y-75312780D01*
X137345752Y-75217542D01*
X137393371Y-75169923D01*
X137488609Y-75122304D01*
X137726704Y-75122304D01*
X137821942Y-75169923D01*
X137869561Y-75217542D01*
X137917180Y-75312780D01*
X137917180Y-75598495D01*
X137869561Y-75693733D01*
X137821942Y-75741352D01*
X141834142Y-85038347D02*
X141881761Y-85085966D01*
X141929380Y-85228823D01*
X141929380Y-85324061D01*
X141881761Y-85466919D01*
X141786523Y-85562157D01*
X141691285Y-85609776D01*
X141500809Y-85657395D01*
X141357952Y-85657395D01*
X141167476Y-85609776D01*
X141072238Y-85562157D01*
X140977000Y-85466919D01*
X140929380Y-85324061D01*
X140929380Y-85228823D01*
X140977000Y-85085966D01*
X141024619Y-85038347D01*
X141262714Y-84181204D02*
X141929380Y-84181204D01*
X140881761Y-84419300D02*
X141596047Y-84657395D01*
X141596047Y-84038347D01*
X140929380Y-83466919D02*
X140929380Y-83371680D01*
X140977000Y-83276442D01*
X141024619Y-83228823D01*
X141119857Y-83181204D01*
X141310333Y-83133585D01*
X141548428Y-83133585D01*
X141738904Y-83181204D01*
X141834142Y-83228823D01*
X141881761Y-83276442D01*
X141929380Y-83371680D01*
X141929380Y-83466919D01*
X141881761Y-83562157D01*
X141834142Y-83609776D01*
X141738904Y-83657395D01*
X141548428Y-83705014D01*
X141310333Y-83705014D01*
X141119857Y-83657395D01*
X141024619Y-83609776D01*
X140977000Y-83562157D01*
X140929380Y-83466919D01*
X141262714Y-82276442D02*
X141929380Y-82276442D01*
X140881761Y-82514538D02*
X141596047Y-82752633D01*
X141596047Y-82133585D01*
X139647752Y-87428342D02*
X139600133Y-87475961D01*
X139457276Y-87523580D01*
X139362038Y-87523580D01*
X139219180Y-87475961D01*
X139123942Y-87380723D01*
X139076323Y-87285485D01*
X139028704Y-87095009D01*
X139028704Y-86952152D01*
X139076323Y-86761676D01*
X139123942Y-86666438D01*
X139219180Y-86571200D01*
X139362038Y-86523580D01*
X139457276Y-86523580D01*
X139600133Y-86571200D01*
X139647752Y-86618819D01*
X140504895Y-86856914D02*
X140504895Y-87523580D01*
X140266800Y-86475961D02*
X140028704Y-87190247D01*
X140647752Y-87190247D01*
X141219180Y-86523580D02*
X141314419Y-86523580D01*
X141409657Y-86571200D01*
X141457276Y-86618819D01*
X141504895Y-86714057D01*
X141552514Y-86904533D01*
X141552514Y-87142628D01*
X141504895Y-87333104D01*
X141457276Y-87428342D01*
X141409657Y-87475961D01*
X141314419Y-87523580D01*
X141219180Y-87523580D01*
X141123942Y-87475961D01*
X141076323Y-87428342D01*
X141028704Y-87333104D01*
X140981085Y-87142628D01*
X140981085Y-86904533D01*
X141028704Y-86714057D01*
X141076323Y-86618819D01*
X141123942Y-86571200D01*
X141219180Y-86523580D01*
X142457276Y-86523580D02*
X141981085Y-86523580D01*
X141933466Y-86999771D01*
X141981085Y-86952152D01*
X142076323Y-86904533D01*
X142314419Y-86904533D01*
X142409657Y-86952152D01*
X142457276Y-86999771D01*
X142504895Y-87095009D01*
X142504895Y-87333104D01*
X142457276Y-87428342D01*
X142409657Y-87475961D01*
X142314419Y-87523580D01*
X142076323Y-87523580D01*
X141981085Y-87475961D01*
X141933466Y-87428342D01*
X118085452Y-83415142D02*
X118037833Y-83462761D01*
X117894976Y-83510380D01*
X117799738Y-83510380D01*
X117656880Y-83462761D01*
X117561642Y-83367523D01*
X117514023Y-83272285D01*
X117466404Y-83081809D01*
X117466404Y-82938952D01*
X117514023Y-82748476D01*
X117561642Y-82653238D01*
X117656880Y-82558000D01*
X117799738Y-82510380D01*
X117894976Y-82510380D01*
X118037833Y-82558000D01*
X118085452Y-82605619D01*
X118942595Y-82843714D02*
X118942595Y-83510380D01*
X118704500Y-82462761D02*
X118466404Y-83177047D01*
X119085452Y-83177047D01*
X119656880Y-82510380D02*
X119752119Y-82510380D01*
X119847357Y-82558000D01*
X119894976Y-82605619D01*
X119942595Y-82700857D01*
X119990214Y-82891333D01*
X119990214Y-83129428D01*
X119942595Y-83319904D01*
X119894976Y-83415142D01*
X119847357Y-83462761D01*
X119752119Y-83510380D01*
X119656880Y-83510380D01*
X119561642Y-83462761D01*
X119514023Y-83415142D01*
X119466404Y-83319904D01*
X119418785Y-83129428D01*
X119418785Y-82891333D01*
X119466404Y-82700857D01*
X119514023Y-82605619D01*
X119561642Y-82558000D01*
X119656880Y-82510380D01*
X120847357Y-82510380D02*
X120656880Y-82510380D01*
X120561642Y-82558000D01*
X120514023Y-82605619D01*
X120418785Y-82748476D01*
X120371166Y-82938952D01*
X120371166Y-83319904D01*
X120418785Y-83415142D01*
X120466404Y-83462761D01*
X120561642Y-83510380D01*
X120752119Y-83510380D01*
X120847357Y-83462761D01*
X120894976Y-83415142D01*
X120942595Y-83319904D01*
X120942595Y-83081809D01*
X120894976Y-82986571D01*
X120847357Y-82938952D01*
X120752119Y-82891333D01*
X120561642Y-82891333D01*
X120466404Y-82938952D01*
X120418785Y-82986571D01*
X120371166Y-83081809D01*
X127814342Y-102058647D02*
X127861961Y-102106266D01*
X127909580Y-102249123D01*
X127909580Y-102344361D01*
X127861961Y-102487219D01*
X127766723Y-102582457D01*
X127671485Y-102630076D01*
X127481009Y-102677695D01*
X127338152Y-102677695D01*
X127147676Y-102630076D01*
X127052438Y-102582457D01*
X126957200Y-102487219D01*
X126909580Y-102344361D01*
X126909580Y-102249123D01*
X126957200Y-102106266D01*
X127004819Y-102058647D01*
X127242914Y-101201504D02*
X127909580Y-101201504D01*
X126861961Y-101439600D02*
X127576247Y-101677695D01*
X127576247Y-101058647D01*
X126909580Y-100487219D02*
X126909580Y-100391980D01*
X126957200Y-100296742D01*
X127004819Y-100249123D01*
X127100057Y-100201504D01*
X127290533Y-100153885D01*
X127528628Y-100153885D01*
X127719104Y-100201504D01*
X127814342Y-100249123D01*
X127861961Y-100296742D01*
X127909580Y-100391980D01*
X127909580Y-100487219D01*
X127861961Y-100582457D01*
X127814342Y-100630076D01*
X127719104Y-100677695D01*
X127528628Y-100725314D01*
X127290533Y-100725314D01*
X127100057Y-100677695D01*
X127004819Y-100630076D01*
X126957200Y-100582457D01*
X126909580Y-100487219D01*
X126909580Y-99820552D02*
X126909580Y-99153885D01*
X127909580Y-99582457D01*
X129846342Y-102007847D02*
X129893961Y-102055466D01*
X129941580Y-102198323D01*
X129941580Y-102293561D01*
X129893961Y-102436419D01*
X129798723Y-102531657D01*
X129703485Y-102579276D01*
X129513009Y-102626895D01*
X129370152Y-102626895D01*
X129179676Y-102579276D01*
X129084438Y-102531657D01*
X128989200Y-102436419D01*
X128941580Y-102293561D01*
X128941580Y-102198323D01*
X128989200Y-102055466D01*
X129036819Y-102007847D01*
X129274914Y-101150704D02*
X129941580Y-101150704D01*
X128893961Y-101388800D02*
X129608247Y-101626895D01*
X129608247Y-101007847D01*
X128941580Y-100436419D02*
X128941580Y-100341180D01*
X128989200Y-100245942D01*
X129036819Y-100198323D01*
X129132057Y-100150704D01*
X129322533Y-100103085D01*
X129560628Y-100103085D01*
X129751104Y-100150704D01*
X129846342Y-100198323D01*
X129893961Y-100245942D01*
X129941580Y-100341180D01*
X129941580Y-100436419D01*
X129893961Y-100531657D01*
X129846342Y-100579276D01*
X129751104Y-100626895D01*
X129560628Y-100674514D01*
X129322533Y-100674514D01*
X129132057Y-100626895D01*
X129036819Y-100579276D01*
X128989200Y-100531657D01*
X128941580Y-100436419D01*
X129370152Y-99531657D02*
X129322533Y-99626895D01*
X129274914Y-99674514D01*
X129179676Y-99722133D01*
X129132057Y-99722133D01*
X129036819Y-99674514D01*
X128989200Y-99626895D01*
X128941580Y-99531657D01*
X128941580Y-99341180D01*
X128989200Y-99245942D01*
X129036819Y-99198323D01*
X129132057Y-99150704D01*
X129179676Y-99150704D01*
X129274914Y-99198323D01*
X129322533Y-99245942D01*
X129370152Y-99341180D01*
X129370152Y-99531657D01*
X129417771Y-99626895D01*
X129465390Y-99674514D01*
X129560628Y-99722133D01*
X129751104Y-99722133D01*
X129846342Y-99674514D01*
X129893961Y-99626895D01*
X129941580Y-99531657D01*
X129941580Y-99341180D01*
X129893961Y-99245942D01*
X129846342Y-99198323D01*
X129751104Y-99150704D01*
X129560628Y-99150704D01*
X129465390Y-99198323D01*
X129417771Y-99245942D01*
X129370152Y-99341180D01*
X134311380Y-85167647D02*
X134311380Y-85643838D01*
X133311380Y-85643838D01*
X133644714Y-84405742D02*
X134311380Y-84405742D01*
X133263761Y-84643838D02*
X133978047Y-84881933D01*
X133978047Y-84262885D01*
X133311380Y-83691457D02*
X133311380Y-83596219D01*
X133359000Y-83500980D01*
X133406619Y-83453361D01*
X133501857Y-83405742D01*
X133692333Y-83358123D01*
X133930428Y-83358123D01*
X134120904Y-83405742D01*
X134216142Y-83453361D01*
X134263761Y-83500980D01*
X134311380Y-83596219D01*
X134311380Y-83691457D01*
X134263761Y-83786695D01*
X134216142Y-83834314D01*
X134120904Y-83881933D01*
X133930428Y-83929552D01*
X133692333Y-83929552D01*
X133501857Y-83881933D01*
X133406619Y-83834314D01*
X133359000Y-83786695D01*
X133311380Y-83691457D01*
X134311380Y-82405742D02*
X134311380Y-82977171D01*
X134311380Y-82691457D02*
X133311380Y-82691457D01*
X133454238Y-82786695D01*
X133549476Y-82881933D01*
X133597095Y-82977171D01*
X135482152Y-87574380D02*
X135005961Y-87574380D01*
X135005961Y-86574380D01*
X136244057Y-86907714D02*
X136244057Y-87574380D01*
X136005961Y-86526761D02*
X135767866Y-87241047D01*
X136386914Y-87241047D01*
X136958342Y-86574380D02*
X137053580Y-86574380D01*
X137148819Y-86622000D01*
X137196438Y-86669619D01*
X137244057Y-86764857D01*
X137291676Y-86955333D01*
X137291676Y-87193428D01*
X137244057Y-87383904D01*
X137196438Y-87479142D01*
X137148819Y-87526761D01*
X137053580Y-87574380D01*
X136958342Y-87574380D01*
X136863104Y-87526761D01*
X136815485Y-87479142D01*
X136767866Y-87383904D01*
X136720247Y-87193428D01*
X136720247Y-86955333D01*
X136767866Y-86764857D01*
X136815485Y-86669619D01*
X136863104Y-86622000D01*
X136958342Y-86574380D01*
X137672628Y-86669619D02*
X137720247Y-86622000D01*
X137815485Y-86574380D01*
X138053580Y-86574380D01*
X138148819Y-86622000D01*
X138196438Y-86669619D01*
X138244057Y-86764857D01*
X138244057Y-86860095D01*
X138196438Y-87002952D01*
X137625009Y-87574380D01*
X138244057Y-87574380D01*
X158596252Y-98656380D02*
X158262919Y-98180190D01*
X158024823Y-98656380D02*
X158024823Y-97656380D01*
X158405776Y-97656380D01*
X158501014Y-97704000D01*
X158548633Y-97751619D01*
X158596252Y-97846857D01*
X158596252Y-97989714D01*
X158548633Y-98084952D01*
X158501014Y-98132571D01*
X158405776Y-98180190D01*
X158024823Y-98180190D01*
X158977204Y-97751619D02*
X159024823Y-97704000D01*
X159120061Y-97656380D01*
X159358157Y-97656380D01*
X159453395Y-97704000D01*
X159501014Y-97751619D01*
X159548633Y-97846857D01*
X159548633Y-97942095D01*
X159501014Y-98084952D01*
X158929585Y-98656380D01*
X159548633Y-98656380D01*
X160167680Y-97656380D02*
X160262919Y-97656380D01*
X160358157Y-97704000D01*
X160405776Y-97751619D01*
X160453395Y-97846857D01*
X160501014Y-98037333D01*
X160501014Y-98275428D01*
X160453395Y-98465904D01*
X160405776Y-98561142D01*
X160358157Y-98608761D01*
X160262919Y-98656380D01*
X160167680Y-98656380D01*
X160072442Y-98608761D01*
X160024823Y-98561142D01*
X159977204Y-98465904D01*
X159929585Y-98275428D01*
X159929585Y-98037333D01*
X159977204Y-97846857D01*
X160024823Y-97751619D01*
X160072442Y-97704000D01*
X160167680Y-97656380D01*
X160881966Y-97751619D02*
X160929585Y-97704000D01*
X161024823Y-97656380D01*
X161262919Y-97656380D01*
X161358157Y-97704000D01*
X161405776Y-97751619D01*
X161453395Y-97846857D01*
X161453395Y-97942095D01*
X161405776Y-98084952D01*
X160834347Y-98656380D01*
X161453395Y-98656380D01*
X122070952Y-124658380D02*
X121737619Y-124182190D01*
X121499523Y-124658380D02*
X121499523Y-123658380D01*
X121880476Y-123658380D01*
X121975714Y-123706000D01*
X122023333Y-123753619D01*
X122070952Y-123848857D01*
X122070952Y-123991714D01*
X122023333Y-124086952D01*
X121975714Y-124134571D01*
X121880476Y-124182190D01*
X121499523Y-124182190D01*
X122404285Y-123658380D02*
X123023333Y-123658380D01*
X122690000Y-124039333D01*
X122832857Y-124039333D01*
X122928095Y-124086952D01*
X122975714Y-124134571D01*
X123023333Y-124229809D01*
X123023333Y-124467904D01*
X122975714Y-124563142D01*
X122928095Y-124610761D01*
X122832857Y-124658380D01*
X122547142Y-124658380D01*
X122451904Y-124610761D01*
X122404285Y-124563142D01*
X123642380Y-123658380D02*
X123737619Y-123658380D01*
X123832857Y-123706000D01*
X123880476Y-123753619D01*
X123928095Y-123848857D01*
X123975714Y-124039333D01*
X123975714Y-124277428D01*
X123928095Y-124467904D01*
X123880476Y-124563142D01*
X123832857Y-124610761D01*
X123737619Y-124658380D01*
X123642380Y-124658380D01*
X123547142Y-124610761D01*
X123499523Y-124563142D01*
X123451904Y-124467904D01*
X123404285Y-124277428D01*
X123404285Y-124039333D01*
X123451904Y-123848857D01*
X123499523Y-123753619D01*
X123547142Y-123706000D01*
X123642380Y-123658380D01*
X124928095Y-124658380D02*
X124356666Y-124658380D01*
X124642380Y-124658380D02*
X124642380Y-123658380D01*
X124547142Y-123801238D01*
X124451904Y-123896476D01*
X124356666Y-123944095D01*
X128420952Y-117952780D02*
X128087619Y-117476590D01*
X127849523Y-117952780D02*
X127849523Y-116952780D01*
X128230476Y-116952780D01*
X128325714Y-117000400D01*
X128373333Y-117048019D01*
X128420952Y-117143257D01*
X128420952Y-117286114D01*
X128373333Y-117381352D01*
X128325714Y-117428971D01*
X128230476Y-117476590D01*
X127849523Y-117476590D01*
X128754285Y-116952780D02*
X129373333Y-116952780D01*
X129040000Y-117333733D01*
X129182857Y-117333733D01*
X129278095Y-117381352D01*
X129325714Y-117428971D01*
X129373333Y-117524209D01*
X129373333Y-117762304D01*
X129325714Y-117857542D01*
X129278095Y-117905161D01*
X129182857Y-117952780D01*
X128897142Y-117952780D01*
X128801904Y-117905161D01*
X128754285Y-117857542D01*
X129992380Y-116952780D02*
X130087619Y-116952780D01*
X130182857Y-117000400D01*
X130230476Y-117048019D01*
X130278095Y-117143257D01*
X130325714Y-117333733D01*
X130325714Y-117571828D01*
X130278095Y-117762304D01*
X130230476Y-117857542D01*
X130182857Y-117905161D01*
X130087619Y-117952780D01*
X129992380Y-117952780D01*
X129897142Y-117905161D01*
X129849523Y-117857542D01*
X129801904Y-117762304D01*
X129754285Y-117571828D01*
X129754285Y-117333733D01*
X129801904Y-117143257D01*
X129849523Y-117048019D01*
X129897142Y-117000400D01*
X129992380Y-116952780D01*
X130706666Y-117048019D02*
X130754285Y-117000400D01*
X130849523Y-116952780D01*
X131087619Y-116952780D01*
X131182857Y-117000400D01*
X131230476Y-117048019D01*
X131278095Y-117143257D01*
X131278095Y-117238495D01*
X131230476Y-117381352D01*
X130659047Y-117952780D01*
X131278095Y-117952780D01*
X122270780Y-91797047D02*
X121794590Y-92130380D01*
X122270780Y-92368476D02*
X121270780Y-92368476D01*
X121270780Y-91987523D01*
X121318400Y-91892285D01*
X121366019Y-91844666D01*
X121461257Y-91797047D01*
X121604114Y-91797047D01*
X121699352Y-91844666D01*
X121746971Y-91892285D01*
X121794590Y-91987523D01*
X121794590Y-92368476D01*
X121604114Y-90939904D02*
X122270780Y-90939904D01*
X121223161Y-91178000D02*
X121937447Y-91416095D01*
X121937447Y-90797047D01*
X121270780Y-90225619D02*
X121270780Y-90130380D01*
X121318400Y-90035142D01*
X121366019Y-89987523D01*
X121461257Y-89939904D01*
X121651733Y-89892285D01*
X121889828Y-89892285D01*
X122080304Y-89939904D01*
X122175542Y-89987523D01*
X122223161Y-90035142D01*
X122270780Y-90130380D01*
X122270780Y-90225619D01*
X122223161Y-90320857D01*
X122175542Y-90368476D01*
X122080304Y-90416095D01*
X121889828Y-90463714D01*
X121651733Y-90463714D01*
X121461257Y-90416095D01*
X121366019Y-90368476D01*
X121318400Y-90320857D01*
X121270780Y-90225619D01*
X122270780Y-88939904D02*
X122270780Y-89511333D01*
X122270780Y-89225619D02*
X121270780Y-89225619D01*
X121413638Y-89320857D01*
X121508876Y-89416095D01*
X121556495Y-89511333D01*
X116885980Y-91847847D02*
X116409790Y-92181180D01*
X116885980Y-92419276D02*
X115885980Y-92419276D01*
X115885980Y-92038323D01*
X115933600Y-91943085D01*
X115981219Y-91895466D01*
X116076457Y-91847847D01*
X116219314Y-91847847D01*
X116314552Y-91895466D01*
X116362171Y-91943085D01*
X116409790Y-92038323D01*
X116409790Y-92419276D01*
X116219314Y-90990704D02*
X116885980Y-90990704D01*
X115838361Y-91228800D02*
X116552647Y-91466895D01*
X116552647Y-90847847D01*
X115885980Y-90276419D02*
X115885980Y-90181180D01*
X115933600Y-90085942D01*
X115981219Y-90038323D01*
X116076457Y-89990704D01*
X116266933Y-89943085D01*
X116505028Y-89943085D01*
X116695504Y-89990704D01*
X116790742Y-90038323D01*
X116838361Y-90085942D01*
X116885980Y-90181180D01*
X116885980Y-90276419D01*
X116838361Y-90371657D01*
X116790742Y-90419276D01*
X116695504Y-90466895D01*
X116505028Y-90514514D01*
X116266933Y-90514514D01*
X116076457Y-90466895D01*
X115981219Y-90419276D01*
X115933600Y-90371657D01*
X115885980Y-90276419D01*
X115981219Y-89562133D02*
X115933600Y-89514514D01*
X115885980Y-89419276D01*
X115885980Y-89181180D01*
X115933600Y-89085942D01*
X115981219Y-89038323D01*
X116076457Y-88990704D01*
X116171695Y-88990704D01*
X116314552Y-89038323D01*
X116885980Y-89609752D01*
X116885980Y-88990704D01*
X121461352Y-78481180D02*
X121128019Y-78004990D01*
X120889923Y-78481180D02*
X120889923Y-77481180D01*
X121270876Y-77481180D01*
X121366114Y-77528800D01*
X121413733Y-77576419D01*
X121461352Y-77671657D01*
X121461352Y-77814514D01*
X121413733Y-77909752D01*
X121366114Y-77957371D01*
X121270876Y-78004990D01*
X120889923Y-78004990D01*
X122318495Y-77814514D02*
X122318495Y-78481180D01*
X122080400Y-77433561D02*
X121842304Y-78147847D01*
X122461352Y-78147847D01*
X123032780Y-77481180D02*
X123128019Y-77481180D01*
X123223257Y-77528800D01*
X123270876Y-77576419D01*
X123318495Y-77671657D01*
X123366114Y-77862133D01*
X123366114Y-78100228D01*
X123318495Y-78290704D01*
X123270876Y-78385942D01*
X123223257Y-78433561D01*
X123128019Y-78481180D01*
X123032780Y-78481180D01*
X122937542Y-78433561D01*
X122889923Y-78385942D01*
X122842304Y-78290704D01*
X122794685Y-78100228D01*
X122794685Y-77862133D01*
X122842304Y-77671657D01*
X122889923Y-77576419D01*
X122937542Y-77528800D01*
X123032780Y-77481180D01*
X123699447Y-77481180D02*
X124318495Y-77481180D01*
X123985161Y-77862133D01*
X124128019Y-77862133D01*
X124223257Y-77909752D01*
X124270876Y-77957371D01*
X124318495Y-78052609D01*
X124318495Y-78290704D01*
X124270876Y-78385942D01*
X124223257Y-78433561D01*
X124128019Y-78481180D01*
X123842304Y-78481180D01*
X123747066Y-78433561D01*
X123699447Y-78385942D01*
X132075180Y-101957047D02*
X131598990Y-102290380D01*
X132075180Y-102528476D02*
X131075180Y-102528476D01*
X131075180Y-102147523D01*
X131122800Y-102052285D01*
X131170419Y-102004666D01*
X131265657Y-101957047D01*
X131408514Y-101957047D01*
X131503752Y-102004666D01*
X131551371Y-102052285D01*
X131598990Y-102147523D01*
X131598990Y-102528476D01*
X131408514Y-101099904D02*
X132075180Y-101099904D01*
X131027561Y-101338000D02*
X131741847Y-101576095D01*
X131741847Y-100957047D01*
X131075180Y-100385619D02*
X131075180Y-100290380D01*
X131122800Y-100195142D01*
X131170419Y-100147523D01*
X131265657Y-100099904D01*
X131456133Y-100052285D01*
X131694228Y-100052285D01*
X131884704Y-100099904D01*
X131979942Y-100147523D01*
X132027561Y-100195142D01*
X132075180Y-100290380D01*
X132075180Y-100385619D01*
X132027561Y-100480857D01*
X131979942Y-100528476D01*
X131884704Y-100576095D01*
X131694228Y-100623714D01*
X131456133Y-100623714D01*
X131265657Y-100576095D01*
X131170419Y-100528476D01*
X131122800Y-100480857D01*
X131075180Y-100385619D01*
X131408514Y-99195142D02*
X132075180Y-99195142D01*
X131027561Y-99433238D02*
X131741847Y-99671333D01*
X131741847Y-99052285D01*
X139847580Y-77928647D02*
X139371390Y-78261980D01*
X139847580Y-78500076D02*
X138847580Y-78500076D01*
X138847580Y-78119123D01*
X138895200Y-78023885D01*
X138942819Y-77976266D01*
X139038057Y-77928647D01*
X139180914Y-77928647D01*
X139276152Y-77976266D01*
X139323771Y-78023885D01*
X139371390Y-78119123D01*
X139371390Y-78500076D01*
X139180914Y-77071504D02*
X139847580Y-77071504D01*
X138799961Y-77309600D02*
X139514247Y-77547695D01*
X139514247Y-76928647D01*
X138847580Y-76357219D02*
X138847580Y-76261980D01*
X138895200Y-76166742D01*
X138942819Y-76119123D01*
X139038057Y-76071504D01*
X139228533Y-76023885D01*
X139466628Y-76023885D01*
X139657104Y-76071504D01*
X139752342Y-76119123D01*
X139799961Y-76166742D01*
X139847580Y-76261980D01*
X139847580Y-76357219D01*
X139799961Y-76452457D01*
X139752342Y-76500076D01*
X139657104Y-76547695D01*
X139466628Y-76595314D01*
X139228533Y-76595314D01*
X139038057Y-76547695D01*
X138942819Y-76500076D01*
X138895200Y-76452457D01*
X138847580Y-76357219D01*
X138847580Y-75119123D02*
X138847580Y-75595314D01*
X139323771Y-75642933D01*
X139276152Y-75595314D01*
X139228533Y-75500076D01*
X139228533Y-75261980D01*
X139276152Y-75166742D01*
X139323771Y-75119123D01*
X139419009Y-75071504D01*
X139657104Y-75071504D01*
X139752342Y-75119123D01*
X139799961Y-75166742D01*
X139847580Y-75261980D01*
X139847580Y-75500076D01*
X139799961Y-75595314D01*
X139752342Y-75642933D01*
X135834380Y-77928647D02*
X135358190Y-78261980D01*
X135834380Y-78500076D02*
X134834380Y-78500076D01*
X134834380Y-78119123D01*
X134882000Y-78023885D01*
X134929619Y-77976266D01*
X135024857Y-77928647D01*
X135167714Y-77928647D01*
X135262952Y-77976266D01*
X135310571Y-78023885D01*
X135358190Y-78119123D01*
X135358190Y-78500076D01*
X135167714Y-77071504D02*
X135834380Y-77071504D01*
X134786761Y-77309600D02*
X135501047Y-77547695D01*
X135501047Y-76928647D01*
X134834380Y-76357219D02*
X134834380Y-76261980D01*
X134882000Y-76166742D01*
X134929619Y-76119123D01*
X135024857Y-76071504D01*
X135215333Y-76023885D01*
X135453428Y-76023885D01*
X135643904Y-76071504D01*
X135739142Y-76119123D01*
X135786761Y-76166742D01*
X135834380Y-76261980D01*
X135834380Y-76357219D01*
X135786761Y-76452457D01*
X135739142Y-76500076D01*
X135643904Y-76547695D01*
X135453428Y-76595314D01*
X135215333Y-76595314D01*
X135024857Y-76547695D01*
X134929619Y-76500076D01*
X134882000Y-76452457D01*
X134834380Y-76357219D01*
X134834380Y-75166742D02*
X134834380Y-75357219D01*
X134882000Y-75452457D01*
X134929619Y-75500076D01*
X135072476Y-75595314D01*
X135262952Y-75642933D01*
X135643904Y-75642933D01*
X135739142Y-75595314D01*
X135786761Y-75547695D01*
X135834380Y-75452457D01*
X135834380Y-75261980D01*
X135786761Y-75166742D01*
X135739142Y-75119123D01*
X135643904Y-75071504D01*
X135405809Y-75071504D01*
X135310571Y-75119123D01*
X135262952Y-75166742D01*
X135215333Y-75261980D01*
X135215333Y-75452457D01*
X135262952Y-75547695D01*
X135310571Y-75595314D01*
X135405809Y-75642933D01*
X137764780Y-98959847D02*
X137288590Y-99293180D01*
X137764780Y-99531276D02*
X136764780Y-99531276D01*
X136764780Y-99150323D01*
X136812400Y-99055085D01*
X136860019Y-99007466D01*
X136955257Y-98959847D01*
X137098114Y-98959847D01*
X137193352Y-99007466D01*
X137240971Y-99055085D01*
X137288590Y-99150323D01*
X137288590Y-99531276D01*
X137098114Y-98102704D02*
X137764780Y-98102704D01*
X136717161Y-98340800D02*
X137431447Y-98578895D01*
X137431447Y-97959847D01*
X136764780Y-97388419D02*
X136764780Y-97293180D01*
X136812400Y-97197942D01*
X136860019Y-97150323D01*
X136955257Y-97102704D01*
X137145733Y-97055085D01*
X137383828Y-97055085D01*
X137574304Y-97102704D01*
X137669542Y-97150323D01*
X137717161Y-97197942D01*
X137764780Y-97293180D01*
X137764780Y-97388419D01*
X137717161Y-97483657D01*
X137669542Y-97531276D01*
X137574304Y-97578895D01*
X137383828Y-97626514D01*
X137145733Y-97626514D01*
X136955257Y-97578895D01*
X136860019Y-97531276D01*
X136812400Y-97483657D01*
X136764780Y-97388419D01*
X136764780Y-96721752D02*
X136764780Y-96055085D01*
X137764780Y-96483657D01*
X135732780Y-98909047D02*
X135256590Y-99242380D01*
X135732780Y-99480476D02*
X134732780Y-99480476D01*
X134732780Y-99099523D01*
X134780400Y-99004285D01*
X134828019Y-98956666D01*
X134923257Y-98909047D01*
X135066114Y-98909047D01*
X135161352Y-98956666D01*
X135208971Y-99004285D01*
X135256590Y-99099523D01*
X135256590Y-99480476D01*
X135066114Y-98051904D02*
X135732780Y-98051904D01*
X134685161Y-98290000D02*
X135399447Y-98528095D01*
X135399447Y-97909047D01*
X134732780Y-97337619D02*
X134732780Y-97242380D01*
X134780400Y-97147142D01*
X134828019Y-97099523D01*
X134923257Y-97051904D01*
X135113733Y-97004285D01*
X135351828Y-97004285D01*
X135542304Y-97051904D01*
X135637542Y-97099523D01*
X135685161Y-97147142D01*
X135732780Y-97242380D01*
X135732780Y-97337619D01*
X135685161Y-97432857D01*
X135637542Y-97480476D01*
X135542304Y-97528095D01*
X135351828Y-97575714D01*
X135113733Y-97575714D01*
X134923257Y-97528095D01*
X134828019Y-97480476D01*
X134780400Y-97432857D01*
X134732780Y-97337619D01*
X135161352Y-96432857D02*
X135113733Y-96528095D01*
X135066114Y-96575714D01*
X134970876Y-96623333D01*
X134923257Y-96623333D01*
X134828019Y-96575714D01*
X134780400Y-96528095D01*
X134732780Y-96432857D01*
X134732780Y-96242380D01*
X134780400Y-96147142D01*
X134828019Y-96099523D01*
X134923257Y-96051904D01*
X134970876Y-96051904D01*
X135066114Y-96099523D01*
X135113733Y-96147142D01*
X135161352Y-96242380D01*
X135161352Y-96432857D01*
X135208971Y-96528095D01*
X135256590Y-96575714D01*
X135351828Y-96623333D01*
X135542304Y-96623333D01*
X135637542Y-96575714D01*
X135685161Y-96528095D01*
X135732780Y-96432857D01*
X135732780Y-96242380D01*
X135685161Y-96147142D01*
X135637542Y-96099523D01*
X135542304Y-96051904D01*
X135351828Y-96051904D01*
X135256590Y-96099523D01*
X135208971Y-96147142D01*
X135161352Y-96242380D01*
X123649980Y-88088647D02*
X123173790Y-88421980D01*
X123649980Y-88660076D02*
X122649980Y-88660076D01*
X122649980Y-88279123D01*
X122697600Y-88183885D01*
X122745219Y-88136266D01*
X122840457Y-88088647D01*
X122983314Y-88088647D01*
X123078552Y-88136266D01*
X123126171Y-88183885D01*
X123173790Y-88279123D01*
X123173790Y-88660076D01*
X122983314Y-87231504D02*
X123649980Y-87231504D01*
X122602361Y-87469600D02*
X123316647Y-87707695D01*
X123316647Y-87088647D01*
X122649980Y-86517219D02*
X122649980Y-86421980D01*
X122697600Y-86326742D01*
X122745219Y-86279123D01*
X122840457Y-86231504D01*
X123030933Y-86183885D01*
X123269028Y-86183885D01*
X123459504Y-86231504D01*
X123554742Y-86279123D01*
X123602361Y-86326742D01*
X123649980Y-86421980D01*
X123649980Y-86517219D01*
X123602361Y-86612457D01*
X123554742Y-86660076D01*
X123459504Y-86707695D01*
X123269028Y-86755314D01*
X123030933Y-86755314D01*
X122840457Y-86707695D01*
X122745219Y-86660076D01*
X122697600Y-86612457D01*
X122649980Y-86517219D01*
X123649980Y-85707695D02*
X123649980Y-85517219D01*
X123602361Y-85421980D01*
X123554742Y-85374361D01*
X123411885Y-85279123D01*
X123221409Y-85231504D01*
X122840457Y-85231504D01*
X122745219Y-85279123D01*
X122697600Y-85326742D01*
X122649980Y-85421980D01*
X122649980Y-85612457D01*
X122697600Y-85707695D01*
X122745219Y-85755314D01*
X122840457Y-85802933D01*
X123078552Y-85802933D01*
X123173790Y-85755314D01*
X123221409Y-85707695D01*
X123269028Y-85612457D01*
X123269028Y-85421980D01*
X123221409Y-85326742D01*
X123173790Y-85279123D01*
X123078552Y-85231504D01*
X116936780Y-87733047D02*
X116460590Y-88066380D01*
X116936780Y-88304476D02*
X115936780Y-88304476D01*
X115936780Y-87923523D01*
X115984400Y-87828285D01*
X116032019Y-87780666D01*
X116127257Y-87733047D01*
X116270114Y-87733047D01*
X116365352Y-87780666D01*
X116412971Y-87828285D01*
X116460590Y-87923523D01*
X116460590Y-88304476D01*
X116270114Y-86875904D02*
X116936780Y-86875904D01*
X115889161Y-87114000D02*
X116603447Y-87352095D01*
X116603447Y-86733047D01*
X116936780Y-85828285D02*
X116936780Y-86399714D01*
X116936780Y-86114000D02*
X115936780Y-86114000D01*
X116079638Y-86209238D01*
X116174876Y-86304476D01*
X116222495Y-86399714D01*
X115936780Y-85209238D02*
X115936780Y-85114000D01*
X115984400Y-85018761D01*
X116032019Y-84971142D01*
X116127257Y-84923523D01*
X116317733Y-84875904D01*
X116555828Y-84875904D01*
X116746304Y-84923523D01*
X116841542Y-84971142D01*
X116889161Y-85018761D01*
X116936780Y-85114000D01*
X116936780Y-85209238D01*
X116889161Y-85304476D01*
X116841542Y-85352095D01*
X116746304Y-85399714D01*
X116555828Y-85447333D01*
X116317733Y-85447333D01*
X116127257Y-85399714D01*
X116032019Y-85352095D01*
X115984400Y-85304476D01*
X115936780Y-85209238D01*
X121308952Y-94279980D02*
X120975619Y-93803790D01*
X120737523Y-94279980D02*
X120737523Y-93279980D01*
X121118476Y-93279980D01*
X121213714Y-93327600D01*
X121261333Y-93375219D01*
X121308952Y-93470457D01*
X121308952Y-93613314D01*
X121261333Y-93708552D01*
X121213714Y-93756171D01*
X121118476Y-93803790D01*
X120737523Y-93803790D01*
X122166095Y-93613314D02*
X122166095Y-94279980D01*
X121928000Y-93232361D02*
X121689904Y-93946647D01*
X122308952Y-93946647D01*
X123213714Y-94279980D02*
X122642285Y-94279980D01*
X122928000Y-94279980D02*
X122928000Y-93279980D01*
X122832761Y-93422838D01*
X122737523Y-93518076D01*
X122642285Y-93565695D01*
X124166095Y-94279980D02*
X123594666Y-94279980D01*
X123880380Y-94279980D02*
X123880380Y-93279980D01*
X123785142Y-93422838D01*
X123689904Y-93518076D01*
X123594666Y-93565695D01*
X125420380Y-102058647D02*
X124944190Y-102391980D01*
X125420380Y-102630076D02*
X124420380Y-102630076D01*
X124420380Y-102249123D01*
X124468000Y-102153885D01*
X124515619Y-102106266D01*
X124610857Y-102058647D01*
X124753714Y-102058647D01*
X124848952Y-102106266D01*
X124896571Y-102153885D01*
X124944190Y-102249123D01*
X124944190Y-102630076D01*
X124753714Y-101201504D02*
X125420380Y-101201504D01*
X124372761Y-101439600D02*
X125087047Y-101677695D01*
X125087047Y-101058647D01*
X125420380Y-100153885D02*
X125420380Y-100725314D01*
X125420380Y-100439600D02*
X124420380Y-100439600D01*
X124563238Y-100534838D01*
X124658476Y-100630076D01*
X124706095Y-100725314D01*
X124515619Y-99772933D02*
X124468000Y-99725314D01*
X124420380Y-99630076D01*
X124420380Y-99391980D01*
X124468000Y-99296742D01*
X124515619Y-99249123D01*
X124610857Y-99201504D01*
X124706095Y-99201504D01*
X124848952Y-99249123D01*
X125420380Y-99820552D01*
X125420380Y-99201504D01*
X175648561Y-110388114D02*
X175696180Y-110245257D01*
X175696180Y-110007161D01*
X175648561Y-109911923D01*
X175600942Y-109864304D01*
X175505704Y-109816685D01*
X175410466Y-109816685D01*
X175315228Y-109864304D01*
X175267609Y-109911923D01*
X175219990Y-110007161D01*
X175172371Y-110197638D01*
X175124752Y-110292876D01*
X175077133Y-110340495D01*
X174981895Y-110388114D01*
X174886657Y-110388114D01*
X174791419Y-110340495D01*
X174743800Y-110292876D01*
X174696180Y-110197638D01*
X174696180Y-109959542D01*
X174743800Y-109816685D01*
X174696180Y-109483352D02*
X175696180Y-109245257D01*
X174981895Y-109054780D01*
X175696180Y-108864304D01*
X174696180Y-108626209D01*
X174791419Y-108292876D02*
X174743800Y-108245257D01*
X174696180Y-108150019D01*
X174696180Y-107911923D01*
X174743800Y-107816685D01*
X174791419Y-107769066D01*
X174886657Y-107721447D01*
X174981895Y-107721447D01*
X175124752Y-107769066D01*
X175696180Y-108340495D01*
X175696180Y-107721447D01*
X174696180Y-107102400D02*
X174696180Y-107007161D01*
X174743800Y-106911923D01*
X174791419Y-106864304D01*
X174886657Y-106816685D01*
X175077133Y-106769066D01*
X175315228Y-106769066D01*
X175505704Y-106816685D01*
X175600942Y-106864304D01*
X175648561Y-106911923D01*
X175696180Y-107007161D01*
X175696180Y-107102400D01*
X175648561Y-107197638D01*
X175600942Y-107245257D01*
X175505704Y-107292876D01*
X175315228Y-107340495D01*
X175077133Y-107340495D01*
X174886657Y-107292876D01*
X174791419Y-107245257D01*
X174743800Y-107197638D01*
X174696180Y-107102400D01*
X175696180Y-105816685D02*
X175696180Y-106388114D01*
X175696180Y-106102400D02*
X174696180Y-106102400D01*
X174839038Y-106197638D01*
X174934276Y-106292876D01*
X174981895Y-106388114D01*
X150929714Y-104266380D02*
X150929714Y-105075904D01*
X150977333Y-105171142D01*
X151024952Y-105218761D01*
X151120190Y-105266380D01*
X151310666Y-105266380D01*
X151405904Y-105218761D01*
X151453523Y-105171142D01*
X151501142Y-105075904D01*
X151501142Y-104266380D01*
X151929714Y-104361619D02*
X151977333Y-104314000D01*
X152072571Y-104266380D01*
X152310666Y-104266380D01*
X152405904Y-104314000D01*
X152453523Y-104361619D01*
X152501142Y-104456857D01*
X152501142Y-104552095D01*
X152453523Y-104694952D01*
X151882095Y-105266380D01*
X152501142Y-105266380D01*
X153120190Y-104266380D02*
X153215428Y-104266380D01*
X153310666Y-104314000D01*
X153358285Y-104361619D01*
X153405904Y-104456857D01*
X153453523Y-104647333D01*
X153453523Y-104885428D01*
X153405904Y-105075904D01*
X153358285Y-105171142D01*
X153310666Y-105218761D01*
X153215428Y-105266380D01*
X153120190Y-105266380D01*
X153024952Y-105218761D01*
X152977333Y-105171142D01*
X152929714Y-105075904D01*
X152882095Y-104885428D01*
X152882095Y-104647333D01*
X152929714Y-104456857D01*
X152977333Y-104361619D01*
X153024952Y-104314000D01*
X153120190Y-104266380D01*
X154405904Y-105266380D02*
X153834476Y-105266380D01*
X154120190Y-105266380D02*
X154120190Y-104266380D01*
X154024952Y-104409238D01*
X153929714Y-104504476D01*
X153834476Y-104552095D01*
X161786780Y-99428085D02*
X162596304Y-99428085D01*
X162691542Y-99380466D01*
X162739161Y-99332847D01*
X162786780Y-99237609D01*
X162786780Y-99047133D01*
X162739161Y-98951895D01*
X162691542Y-98904276D01*
X162596304Y-98856657D01*
X161786780Y-98856657D01*
X161882019Y-98428085D02*
X161834400Y-98380466D01*
X161786780Y-98285228D01*
X161786780Y-98047133D01*
X161834400Y-97951895D01*
X161882019Y-97904276D01*
X161977257Y-97856657D01*
X162072495Y-97856657D01*
X162215352Y-97904276D01*
X162786780Y-98475704D01*
X162786780Y-97856657D01*
X161786780Y-97237609D02*
X161786780Y-97142371D01*
X161834400Y-97047133D01*
X161882019Y-96999514D01*
X161977257Y-96951895D01*
X162167733Y-96904276D01*
X162405828Y-96904276D01*
X162596304Y-96951895D01*
X162691542Y-96999514D01*
X162739161Y-97047133D01*
X162786780Y-97142371D01*
X162786780Y-97237609D01*
X162739161Y-97332847D01*
X162691542Y-97380466D01*
X162596304Y-97428085D01*
X162405828Y-97475704D01*
X162167733Y-97475704D01*
X161977257Y-97428085D01*
X161882019Y-97380466D01*
X161834400Y-97332847D01*
X161786780Y-97237609D01*
X161882019Y-96523323D02*
X161834400Y-96475704D01*
X161786780Y-96380466D01*
X161786780Y-96142371D01*
X161834400Y-96047133D01*
X161882019Y-95999514D01*
X161977257Y-95951895D01*
X162072495Y-95951895D01*
X162215352Y-95999514D01*
X162786780Y-96570942D01*
X162786780Y-95951895D01*
X158102514Y-90181180D02*
X158102514Y-90990704D01*
X158150133Y-91085942D01*
X158197752Y-91133561D01*
X158292990Y-91181180D01*
X158483466Y-91181180D01*
X158578704Y-91133561D01*
X158626323Y-91085942D01*
X158673942Y-90990704D01*
X158673942Y-90181180D01*
X159102514Y-90276419D02*
X159150133Y-90228800D01*
X159245371Y-90181180D01*
X159483466Y-90181180D01*
X159578704Y-90228800D01*
X159626323Y-90276419D01*
X159673942Y-90371657D01*
X159673942Y-90466895D01*
X159626323Y-90609752D01*
X159054895Y-91181180D01*
X159673942Y-91181180D01*
X160292990Y-90181180D02*
X160388228Y-90181180D01*
X160483466Y-90228800D01*
X160531085Y-90276419D01*
X160578704Y-90371657D01*
X160626323Y-90562133D01*
X160626323Y-90800228D01*
X160578704Y-90990704D01*
X160531085Y-91085942D01*
X160483466Y-91133561D01*
X160388228Y-91181180D01*
X160292990Y-91181180D01*
X160197752Y-91133561D01*
X160150133Y-91085942D01*
X160102514Y-90990704D01*
X160054895Y-90800228D01*
X160054895Y-90562133D01*
X160102514Y-90371657D01*
X160150133Y-90276419D01*
X160197752Y-90228800D01*
X160292990Y-90181180D01*
X160959657Y-90181180D02*
X161578704Y-90181180D01*
X161245371Y-90562133D01*
X161388228Y-90562133D01*
X161483466Y-90609752D01*
X161531085Y-90657371D01*
X161578704Y-90752609D01*
X161578704Y-90990704D01*
X161531085Y-91085942D01*
X161483466Y-91133561D01*
X161388228Y-91181180D01*
X161102514Y-91181180D01*
X161007276Y-91133561D01*
X160959657Y-91085942D01*
X124549114Y-109416380D02*
X124549114Y-110225904D01*
X124596733Y-110321142D01*
X124644352Y-110368761D01*
X124739590Y-110416380D01*
X124930066Y-110416380D01*
X125025304Y-110368761D01*
X125072923Y-110321142D01*
X125120542Y-110225904D01*
X125120542Y-109416380D01*
X125501495Y-109416380D02*
X126120542Y-109416380D01*
X125787209Y-109797333D01*
X125930066Y-109797333D01*
X126025304Y-109844952D01*
X126072923Y-109892571D01*
X126120542Y-109987809D01*
X126120542Y-110225904D01*
X126072923Y-110321142D01*
X126025304Y-110368761D01*
X125930066Y-110416380D01*
X125644352Y-110416380D01*
X125549114Y-110368761D01*
X125501495Y-110321142D01*
X126739590Y-109416380D02*
X126834828Y-109416380D01*
X126930066Y-109464000D01*
X126977685Y-109511619D01*
X127025304Y-109606857D01*
X127072923Y-109797333D01*
X127072923Y-110035428D01*
X127025304Y-110225904D01*
X126977685Y-110321142D01*
X126930066Y-110368761D01*
X126834828Y-110416380D01*
X126739590Y-110416380D01*
X126644352Y-110368761D01*
X126596733Y-110321142D01*
X126549114Y-110225904D01*
X126501495Y-110035428D01*
X126501495Y-109797333D01*
X126549114Y-109606857D01*
X126596733Y-109511619D01*
X126644352Y-109464000D01*
X126739590Y-109416380D01*
X128025304Y-110416380D02*
X127453876Y-110416380D01*
X127739590Y-110416380D02*
X127739590Y-109416380D01*
X127644352Y-109559238D01*
X127549114Y-109654476D01*
X127453876Y-109702095D01*
X137782514Y-112177580D02*
X137782514Y-112987104D01*
X137830133Y-113082342D01*
X137877752Y-113129961D01*
X137972990Y-113177580D01*
X138163466Y-113177580D01*
X138258704Y-113129961D01*
X138306323Y-113082342D01*
X138353942Y-112987104D01*
X138353942Y-112177580D01*
X138734895Y-112177580D02*
X139353942Y-112177580D01*
X139020609Y-112558533D01*
X139163466Y-112558533D01*
X139258704Y-112606152D01*
X139306323Y-112653771D01*
X139353942Y-112749009D01*
X139353942Y-112987104D01*
X139306323Y-113082342D01*
X139258704Y-113129961D01*
X139163466Y-113177580D01*
X138877752Y-113177580D01*
X138782514Y-113129961D01*
X138734895Y-113082342D01*
X139972990Y-112177580D02*
X140068228Y-112177580D01*
X140163466Y-112225200D01*
X140211085Y-112272819D01*
X140258704Y-112368057D01*
X140306323Y-112558533D01*
X140306323Y-112796628D01*
X140258704Y-112987104D01*
X140211085Y-113082342D01*
X140163466Y-113129961D01*
X140068228Y-113177580D01*
X139972990Y-113177580D01*
X139877752Y-113129961D01*
X139830133Y-113082342D01*
X139782514Y-112987104D01*
X139734895Y-112796628D01*
X139734895Y-112558533D01*
X139782514Y-112368057D01*
X139830133Y-112272819D01*
X139877752Y-112225200D01*
X139972990Y-112177580D01*
X140687276Y-112272819D02*
X140734895Y-112225200D01*
X140830133Y-112177580D01*
X141068228Y-112177580D01*
X141163466Y-112225200D01*
X141211085Y-112272819D01*
X141258704Y-112368057D01*
X141258704Y-112463295D01*
X141211085Y-112606152D01*
X140639657Y-113177580D01*
X141258704Y-113177580D01*
X137833314Y-108570780D02*
X137833314Y-109380304D01*
X137880933Y-109475542D01*
X137928552Y-109523161D01*
X138023790Y-109570780D01*
X138214266Y-109570780D01*
X138309504Y-109523161D01*
X138357123Y-109475542D01*
X138404742Y-109380304D01*
X138404742Y-108570780D01*
X138785695Y-108570780D02*
X139404742Y-108570780D01*
X139071409Y-108951733D01*
X139214266Y-108951733D01*
X139309504Y-108999352D01*
X139357123Y-109046971D01*
X139404742Y-109142209D01*
X139404742Y-109380304D01*
X139357123Y-109475542D01*
X139309504Y-109523161D01*
X139214266Y-109570780D01*
X138928552Y-109570780D01*
X138833314Y-109523161D01*
X138785695Y-109475542D01*
X140023790Y-108570780D02*
X140119028Y-108570780D01*
X140214266Y-108618400D01*
X140261885Y-108666019D01*
X140309504Y-108761257D01*
X140357123Y-108951733D01*
X140357123Y-109189828D01*
X140309504Y-109380304D01*
X140261885Y-109475542D01*
X140214266Y-109523161D01*
X140119028Y-109570780D01*
X140023790Y-109570780D01*
X139928552Y-109523161D01*
X139880933Y-109475542D01*
X139833314Y-109380304D01*
X139785695Y-109189828D01*
X139785695Y-108951733D01*
X139833314Y-108761257D01*
X139880933Y-108666019D01*
X139928552Y-108618400D01*
X140023790Y-108570780D01*
X140690457Y-108570780D02*
X141309504Y-108570780D01*
X140976171Y-108951733D01*
X141119028Y-108951733D01*
X141214266Y-108999352D01*
X141261885Y-109046971D01*
X141309504Y-109142209D01*
X141309504Y-109380304D01*
X141261885Y-109475542D01*
X141214266Y-109523161D01*
X141119028Y-109570780D01*
X140833314Y-109570780D01*
X140738076Y-109523161D01*
X140690457Y-109475542D01*
X137630114Y-104811580D02*
X137630114Y-105621104D01*
X137677733Y-105716342D01*
X137725352Y-105763961D01*
X137820590Y-105811580D01*
X138011066Y-105811580D01*
X138106304Y-105763961D01*
X138153923Y-105716342D01*
X138201542Y-105621104D01*
X138201542Y-104811580D01*
X138582495Y-104811580D02*
X139201542Y-104811580D01*
X138868209Y-105192533D01*
X139011066Y-105192533D01*
X139106304Y-105240152D01*
X139153923Y-105287771D01*
X139201542Y-105383009D01*
X139201542Y-105621104D01*
X139153923Y-105716342D01*
X139106304Y-105763961D01*
X139011066Y-105811580D01*
X138725352Y-105811580D01*
X138630114Y-105763961D01*
X138582495Y-105716342D01*
X139820590Y-104811580D02*
X139915828Y-104811580D01*
X140011066Y-104859200D01*
X140058685Y-104906819D01*
X140106304Y-105002057D01*
X140153923Y-105192533D01*
X140153923Y-105430628D01*
X140106304Y-105621104D01*
X140058685Y-105716342D01*
X140011066Y-105763961D01*
X139915828Y-105811580D01*
X139820590Y-105811580D01*
X139725352Y-105763961D01*
X139677733Y-105716342D01*
X139630114Y-105621104D01*
X139582495Y-105430628D01*
X139582495Y-105192533D01*
X139630114Y-105002057D01*
X139677733Y-104906819D01*
X139725352Y-104859200D01*
X139820590Y-104811580D01*
X141011066Y-105144914D02*
X141011066Y-105811580D01*
X140772971Y-104763961D02*
X140534876Y-105478247D01*
X141153923Y-105478247D01*
X137731714Y-100899980D02*
X137731714Y-101709504D01*
X137779333Y-101804742D01*
X137826952Y-101852361D01*
X137922190Y-101899980D01*
X138112666Y-101899980D01*
X138207904Y-101852361D01*
X138255523Y-101804742D01*
X138303142Y-101709504D01*
X138303142Y-100899980D01*
X138684095Y-100899980D02*
X139303142Y-100899980D01*
X138969809Y-101280933D01*
X139112666Y-101280933D01*
X139207904Y-101328552D01*
X139255523Y-101376171D01*
X139303142Y-101471409D01*
X139303142Y-101709504D01*
X139255523Y-101804742D01*
X139207904Y-101852361D01*
X139112666Y-101899980D01*
X138826952Y-101899980D01*
X138731714Y-101852361D01*
X138684095Y-101804742D01*
X139922190Y-100899980D02*
X140017428Y-100899980D01*
X140112666Y-100947600D01*
X140160285Y-100995219D01*
X140207904Y-101090457D01*
X140255523Y-101280933D01*
X140255523Y-101519028D01*
X140207904Y-101709504D01*
X140160285Y-101804742D01*
X140112666Y-101852361D01*
X140017428Y-101899980D01*
X139922190Y-101899980D01*
X139826952Y-101852361D01*
X139779333Y-101804742D01*
X139731714Y-101709504D01*
X139684095Y-101519028D01*
X139684095Y-101280933D01*
X139731714Y-101090457D01*
X139779333Y-100995219D01*
X139826952Y-100947600D01*
X139922190Y-100899980D01*
X141160285Y-100899980D02*
X140684095Y-100899980D01*
X140636476Y-101376171D01*
X140684095Y-101328552D01*
X140779333Y-101280933D01*
X141017428Y-101280933D01*
X141112666Y-101328552D01*
X141160285Y-101376171D01*
X141207904Y-101471409D01*
X141207904Y-101709504D01*
X141160285Y-101804742D01*
X141112666Y-101852361D01*
X141017428Y-101899980D01*
X140779333Y-101899980D01*
X140684095Y-101852361D01*
X140636476Y-101804742D01*
X127241514Y-83101980D02*
X127241514Y-83911504D01*
X127289133Y-84006742D01*
X127336752Y-84054361D01*
X127431990Y-84101980D01*
X127622466Y-84101980D01*
X127717704Y-84054361D01*
X127765323Y-84006742D01*
X127812942Y-83911504D01*
X127812942Y-83101980D01*
X128717704Y-83435314D02*
X128717704Y-84101980D01*
X128479609Y-83054361D02*
X128241514Y-83768647D01*
X128860561Y-83768647D01*
X129431990Y-83101980D02*
X129527228Y-83101980D01*
X129622466Y-83149600D01*
X129670085Y-83197219D01*
X129717704Y-83292457D01*
X129765323Y-83482933D01*
X129765323Y-83721028D01*
X129717704Y-83911504D01*
X129670085Y-84006742D01*
X129622466Y-84054361D01*
X129527228Y-84101980D01*
X129431990Y-84101980D01*
X129336752Y-84054361D01*
X129289133Y-84006742D01*
X129241514Y-83911504D01*
X129193895Y-83721028D01*
X129193895Y-83482933D01*
X129241514Y-83292457D01*
X129289133Y-83197219D01*
X129336752Y-83149600D01*
X129431990Y-83101980D01*
X130717704Y-84101980D02*
X130146276Y-84101980D01*
X130431990Y-84101980D02*
X130431990Y-83101980D01*
X130336752Y-83244838D01*
X130241514Y-83340076D01*
X130146276Y-83387695D01*
X125080780Y-124221714D02*
X125795066Y-124221714D01*
X125937923Y-124269333D01*
X126033161Y-124364571D01*
X126080780Y-124507428D01*
X126080780Y-124602666D01*
X125176019Y-123793142D02*
X125128400Y-123745523D01*
X125080780Y-123650285D01*
X125080780Y-123412190D01*
X125128400Y-123316952D01*
X125176019Y-123269333D01*
X125271257Y-123221714D01*
X125366495Y-123221714D01*
X125509352Y-123269333D01*
X126080780Y-123840761D01*
X126080780Y-123221714D01*
X125080780Y-122602666D02*
X125080780Y-122507428D01*
X125128400Y-122412190D01*
X125176019Y-122364571D01*
X125271257Y-122316952D01*
X125461733Y-122269333D01*
X125699828Y-122269333D01*
X125890304Y-122316952D01*
X125985542Y-122364571D01*
X126033161Y-122412190D01*
X126080780Y-122507428D01*
X126080780Y-122602666D01*
X126033161Y-122697904D01*
X125985542Y-122745523D01*
X125890304Y-122793142D01*
X125699828Y-122840761D01*
X125461733Y-122840761D01*
X125271257Y-122793142D01*
X125176019Y-122745523D01*
X125128400Y-122697904D01*
X125080780Y-122602666D01*
X125176019Y-121888380D02*
X125128400Y-121840761D01*
X125080780Y-121745523D01*
X125080780Y-121507428D01*
X125128400Y-121412190D01*
X125176019Y-121364571D01*
X125271257Y-121316952D01*
X125366495Y-121316952D01*
X125509352Y-121364571D01*
X126080780Y-121936000D01*
X126080780Y-121316952D01*
X180901980Y-95078514D02*
X181616266Y-95078514D01*
X181759123Y-95126133D01*
X181854361Y-95221371D01*
X181901980Y-95364228D01*
X181901980Y-95459466D01*
X180997219Y-94649942D02*
X180949600Y-94602323D01*
X180901980Y-94507085D01*
X180901980Y-94268990D01*
X180949600Y-94173752D01*
X180997219Y-94126133D01*
X181092457Y-94078514D01*
X181187695Y-94078514D01*
X181330552Y-94126133D01*
X181901980Y-94697561D01*
X181901980Y-94078514D01*
X180901980Y-93459466D02*
X180901980Y-93364228D01*
X180949600Y-93268990D01*
X180997219Y-93221371D01*
X181092457Y-93173752D01*
X181282933Y-93126133D01*
X181521028Y-93126133D01*
X181711504Y-93173752D01*
X181806742Y-93221371D01*
X181854361Y-93268990D01*
X181901980Y-93364228D01*
X181901980Y-93459466D01*
X181854361Y-93554704D01*
X181806742Y-93602323D01*
X181711504Y-93649942D01*
X181521028Y-93697561D01*
X181282933Y-93697561D01*
X181092457Y-93649942D01*
X180997219Y-93602323D01*
X180949600Y-93554704D01*
X180901980Y-93459466D01*
X181901980Y-92173752D02*
X181901980Y-92745180D01*
X181901980Y-92459466D02*
X180901980Y-92459466D01*
X181044838Y-92554704D01*
X181140076Y-92649942D01*
X181187695Y-92745180D01*
X153740028Y-90083790D02*
X153740028Y-90559980D01*
X153406695Y-89559980D02*
X153740028Y-90083790D01*
X154073361Y-89559980D01*
X154359076Y-89655219D02*
X154406695Y-89607600D01*
X154501933Y-89559980D01*
X154740028Y-89559980D01*
X154835266Y-89607600D01*
X154882885Y-89655219D01*
X154930504Y-89750457D01*
X154930504Y-89845695D01*
X154882885Y-89988552D01*
X154311457Y-90559980D01*
X154930504Y-90559980D01*
X155549552Y-89559980D02*
X155644790Y-89559980D01*
X155740028Y-89607600D01*
X155787647Y-89655219D01*
X155835266Y-89750457D01*
X155882885Y-89940933D01*
X155882885Y-90179028D01*
X155835266Y-90369504D01*
X155787647Y-90464742D01*
X155740028Y-90512361D01*
X155644790Y-90559980D01*
X155549552Y-90559980D01*
X155454314Y-90512361D01*
X155406695Y-90464742D01*
X155359076Y-90369504D01*
X155311457Y-90179028D01*
X155311457Y-89940933D01*
X155359076Y-89750457D01*
X155406695Y-89655219D01*
X155454314Y-89607600D01*
X155549552Y-89559980D01*
X156835266Y-90559980D02*
X156263838Y-90559980D01*
X156549552Y-90559980D02*
X156549552Y-89559980D01*
X156454314Y-89702838D01*
X156359076Y-89798076D01*
X156263838Y-89845695D01*
X178865352Y-78995542D02*
X178817733Y-79043161D01*
X178674876Y-79090780D01*
X178579638Y-79090780D01*
X178436780Y-79043161D01*
X178341542Y-78947923D01*
X178293923Y-78852685D01*
X178246304Y-78662209D01*
X178246304Y-78519352D01*
X178293923Y-78328876D01*
X178341542Y-78233638D01*
X178436780Y-78138400D01*
X178579638Y-78090780D01*
X178674876Y-78090780D01*
X178817733Y-78138400D01*
X178865352Y-78186019D01*
X179246304Y-78186019D02*
X179293923Y-78138400D01*
X179389161Y-78090780D01*
X179627257Y-78090780D01*
X179722495Y-78138400D01*
X179770114Y-78186019D01*
X179817733Y-78281257D01*
X179817733Y-78376495D01*
X179770114Y-78519352D01*
X179198685Y-79090780D01*
X179817733Y-79090780D01*
X180151066Y-78090780D02*
X180770114Y-78090780D01*
X180436780Y-78471733D01*
X180579638Y-78471733D01*
X180674876Y-78519352D01*
X180722495Y-78566971D01*
X180770114Y-78662209D01*
X180770114Y-78900304D01*
X180722495Y-78995542D01*
X180674876Y-79043161D01*
X180579638Y-79090780D01*
X180293923Y-79090780D01*
X180198685Y-79043161D01*
X180151066Y-78995542D01*
X181103447Y-78090780D02*
X181722495Y-78090780D01*
X181389161Y-78471733D01*
X181532019Y-78471733D01*
X181627257Y-78519352D01*
X181674876Y-78566971D01*
X181722495Y-78662209D01*
X181722495Y-78900304D01*
X181674876Y-78995542D01*
X181627257Y-79043161D01*
X181532019Y-79090780D01*
X181246304Y-79090780D01*
X181151066Y-79043161D01*
X181103447Y-78995542D01*
X177341352Y-83967580D02*
X177008019Y-83491390D01*
X176769923Y-83967580D02*
X176769923Y-82967580D01*
X177150876Y-82967580D01*
X177246114Y-83015200D01*
X177293733Y-83062819D01*
X177341352Y-83158057D01*
X177341352Y-83300914D01*
X177293733Y-83396152D01*
X177246114Y-83443771D01*
X177150876Y-83491390D01*
X176769923Y-83491390D01*
X177722304Y-83062819D02*
X177769923Y-83015200D01*
X177865161Y-82967580D01*
X178103257Y-82967580D01*
X178198495Y-83015200D01*
X178246114Y-83062819D01*
X178293733Y-83158057D01*
X178293733Y-83253295D01*
X178246114Y-83396152D01*
X177674685Y-83967580D01*
X178293733Y-83967580D01*
X178912780Y-82967580D02*
X179008019Y-82967580D01*
X179103257Y-83015200D01*
X179150876Y-83062819D01*
X179198495Y-83158057D01*
X179246114Y-83348533D01*
X179246114Y-83586628D01*
X179198495Y-83777104D01*
X179150876Y-83872342D01*
X179103257Y-83919961D01*
X179008019Y-83967580D01*
X178912780Y-83967580D01*
X178817542Y-83919961D01*
X178769923Y-83872342D01*
X178722304Y-83777104D01*
X178674685Y-83586628D01*
X178674685Y-83348533D01*
X178722304Y-83158057D01*
X178769923Y-83062819D01*
X178817542Y-83015200D01*
X178912780Y-82967580D01*
X179579447Y-82967580D02*
X180198495Y-82967580D01*
X179865161Y-83348533D01*
X180008019Y-83348533D01*
X180103257Y-83396152D01*
X180150876Y-83443771D01*
X180198495Y-83539009D01*
X180198495Y-83777104D01*
X180150876Y-83872342D01*
X180103257Y-83919961D01*
X180008019Y-83967580D01*
X179722304Y-83967580D01*
X179627066Y-83919961D01*
X179579447Y-83872342D01*
X177392152Y-85237580D02*
X177058819Y-84761390D01*
X176820723Y-85237580D02*
X176820723Y-84237580D01*
X177201676Y-84237580D01*
X177296914Y-84285200D01*
X177344533Y-84332819D01*
X177392152Y-84428057D01*
X177392152Y-84570914D01*
X177344533Y-84666152D01*
X177296914Y-84713771D01*
X177201676Y-84761390D01*
X176820723Y-84761390D01*
X177773104Y-84332819D02*
X177820723Y-84285200D01*
X177915961Y-84237580D01*
X178154057Y-84237580D01*
X178249295Y-84285200D01*
X178296914Y-84332819D01*
X178344533Y-84428057D01*
X178344533Y-84523295D01*
X178296914Y-84666152D01*
X177725485Y-85237580D01*
X178344533Y-85237580D01*
X178963580Y-84237580D02*
X179058819Y-84237580D01*
X179154057Y-84285200D01*
X179201676Y-84332819D01*
X179249295Y-84428057D01*
X179296914Y-84618533D01*
X179296914Y-84856628D01*
X179249295Y-85047104D01*
X179201676Y-85142342D01*
X179154057Y-85189961D01*
X179058819Y-85237580D01*
X178963580Y-85237580D01*
X178868342Y-85189961D01*
X178820723Y-85142342D01*
X178773104Y-85047104D01*
X178725485Y-84856628D01*
X178725485Y-84618533D01*
X178773104Y-84428057D01*
X178820723Y-84332819D01*
X178868342Y-84285200D01*
X178963580Y-84237580D01*
X180154057Y-84570914D02*
X180154057Y-85237580D01*
X179915961Y-84189961D02*
X179677866Y-84904247D01*
X180296914Y-84904247D01*
X177341352Y-82697580D02*
X177008019Y-82221390D01*
X176769923Y-82697580D02*
X176769923Y-81697580D01*
X177150876Y-81697580D01*
X177246114Y-81745200D01*
X177293733Y-81792819D01*
X177341352Y-81888057D01*
X177341352Y-82030914D01*
X177293733Y-82126152D01*
X177246114Y-82173771D01*
X177150876Y-82221390D01*
X176769923Y-82221390D01*
X177722304Y-81792819D02*
X177769923Y-81745200D01*
X177865161Y-81697580D01*
X178103257Y-81697580D01*
X178198495Y-81745200D01*
X178246114Y-81792819D01*
X178293733Y-81888057D01*
X178293733Y-81983295D01*
X178246114Y-82126152D01*
X177674685Y-82697580D01*
X178293733Y-82697580D01*
X178912780Y-81697580D02*
X179008019Y-81697580D01*
X179103257Y-81745200D01*
X179150876Y-81792819D01*
X179198495Y-81888057D01*
X179246114Y-82078533D01*
X179246114Y-82316628D01*
X179198495Y-82507104D01*
X179150876Y-82602342D01*
X179103257Y-82649961D01*
X179008019Y-82697580D01*
X178912780Y-82697580D01*
X178817542Y-82649961D01*
X178769923Y-82602342D01*
X178722304Y-82507104D01*
X178674685Y-82316628D01*
X178674685Y-82078533D01*
X178722304Y-81888057D01*
X178769923Y-81792819D01*
X178817542Y-81745200D01*
X178912780Y-81697580D01*
X180150876Y-81697580D02*
X179674685Y-81697580D01*
X179627066Y-82173771D01*
X179674685Y-82126152D01*
X179769923Y-82078533D01*
X180008019Y-82078533D01*
X180103257Y-82126152D01*
X180150876Y-82173771D01*
X180198495Y-82269009D01*
X180198495Y-82507104D01*
X180150876Y-82602342D01*
X180103257Y-82649961D01*
X180008019Y-82697580D01*
X179769923Y-82697580D01*
X179674685Y-82649961D01*
X179627066Y-82602342D01*
X178865352Y-80411580D02*
X178532019Y-79935390D01*
X178293923Y-80411580D02*
X178293923Y-79411580D01*
X178674876Y-79411580D01*
X178770114Y-79459200D01*
X178817733Y-79506819D01*
X178865352Y-79602057D01*
X178865352Y-79744914D01*
X178817733Y-79840152D01*
X178770114Y-79887771D01*
X178674876Y-79935390D01*
X178293923Y-79935390D01*
X179246304Y-79506819D02*
X179293923Y-79459200D01*
X179389161Y-79411580D01*
X179627257Y-79411580D01*
X179722495Y-79459200D01*
X179770114Y-79506819D01*
X179817733Y-79602057D01*
X179817733Y-79697295D01*
X179770114Y-79840152D01*
X179198685Y-80411580D01*
X179817733Y-80411580D01*
X180436780Y-79411580D02*
X180532019Y-79411580D01*
X180627257Y-79459200D01*
X180674876Y-79506819D01*
X180722495Y-79602057D01*
X180770114Y-79792533D01*
X180770114Y-80030628D01*
X180722495Y-80221104D01*
X180674876Y-80316342D01*
X180627257Y-80363961D01*
X180532019Y-80411580D01*
X180436780Y-80411580D01*
X180341542Y-80363961D01*
X180293923Y-80316342D01*
X180246304Y-80221104D01*
X180198685Y-80030628D01*
X180198685Y-79792533D01*
X180246304Y-79602057D01*
X180293923Y-79506819D01*
X180341542Y-79459200D01*
X180436780Y-79411580D01*
X181627257Y-79411580D02*
X181436780Y-79411580D01*
X181341542Y-79459200D01*
X181293923Y-79506819D01*
X181198685Y-79649676D01*
X181151066Y-79840152D01*
X181151066Y-80221104D01*
X181198685Y-80316342D01*
X181246304Y-80363961D01*
X181341542Y-80411580D01*
X181532019Y-80411580D01*
X181627257Y-80363961D01*
X181674876Y-80316342D01*
X181722495Y-80221104D01*
X181722495Y-79983009D01*
X181674876Y-79887771D01*
X181627257Y-79840152D01*
X181532019Y-79792533D01*
X181341542Y-79792533D01*
X181246304Y-79840152D01*
X181198685Y-79887771D01*
X181151066Y-79983009D01*
M02*
